<svg width="93" height="20" viewBox="0 0 93 20" fill="none" xmlns="http://www.w3.org/2000/svg">
<path d="M9.28978 1.50185C9.43734 1.03683 10.0954 1.03683 10.2429 1.50185L11.8484 6.56106C11.9143 6.76874 12.1071 6.90983 12.3249 6.90983H17.5449C18.0264 6.90983 18.2297 7.5236 17.8433 7.811L13.6001 10.9676C13.429 11.0949 13.3575 11.3167 13.422 11.52L15.0379 16.6124C15.1848 17.0751 14.6524 17.4545 14.2629 17.1647L10.0648 14.0417C9.88766 13.9099 9.64506 13.9099 9.46792 14.0417L5.26981 17.1647C4.88029 17.4545 4.34795 17.0751 4.49479 16.6124L6.11073 11.52C6.17524 11.3167 6.1037 11.0949 5.93259 10.9676L1.68937 7.811C1.30305 7.52361 1.50631 6.90983 1.98781 6.90983H7.20777C7.42565 6.90983 7.61845 6.76874 7.68435 6.56106L9.28978 1.50185Z" fill="#FFBC57"/>
<path d="M30.2195 1.50185C30.367 1.03683 31.0251 1.03683 31.1726 1.50185L32.7781 6.56106C32.844 6.76874 33.0368 6.90983 33.2546 6.90983H38.4746C38.9561 6.90983 39.1594 7.5236 38.773 7.811L34.5298 10.9676C34.3587 11.0949 34.2872 11.3167 34.3517 11.52L35.9676 16.6124C36.1145 17.0751 35.5821 17.4545 35.1926 17.1647L30.9945 14.0417C30.8173 13.9099 30.5747 13.9099 30.3976 14.0417L26.1995 17.1647C25.81 17.4545 25.2776 17.0751 25.4245 16.6124L27.0404 11.52C27.1049 11.3167 27.0334 11.0949 26.8623 10.9676L22.6191 7.811C22.2327 7.52361 22.436 6.90983 22.9175 6.90983H28.1375C28.3553 6.90983 28.5481 6.76874 28.614 6.56106L30.2195 1.50185Z" fill="#FFBC57"/>
<path d="M51.1492 1.50185C51.2967 1.03683 51.9547 1.03683 52.1023 1.50185L53.7077 6.56106C53.7736 6.76874 53.9664 6.90983 54.1843 6.90983H59.4043C59.8858 6.90983 60.089 7.5236 59.7027 7.811L55.4595 10.9676C55.2884 11.0949 55.2169 11.3167 55.2814 11.52L56.8973 16.6124C57.0441 17.0751 56.5118 17.4545 56.1223 17.1647L51.9242 14.0417C51.747 13.9099 51.5044 13.9099 51.3273 14.0417L47.1292 17.1647C46.7397 17.4545 46.2073 17.0751 46.3542 16.6124L47.9701 11.52C48.0346 11.3167 47.9631 11.0949 47.792 10.9676L43.5487 7.811C43.1624 7.52361 43.3657 6.90983 43.8472 6.90983H49.0671C49.285 6.90983 49.4778 6.76874 49.5437 6.56106L51.1492 1.50185Z" fill="#FFBC57"/>
<path d="M72.071 1.50185C72.2186 1.03683 72.8766 1.03683 73.0242 1.50185L74.6296 6.56106C74.6955 6.76874 74.8883 6.90983 75.1062 6.90983H80.3262C80.8077 6.90983 81.0109 7.5236 80.6246 7.811L76.3814 10.9676C76.2103 11.0949 76.1387 11.3167 76.2032 11.52L77.8192 16.6124C77.966 17.0751 77.4337 17.4545 77.0442 17.1647L72.846 14.0417C72.6689 13.9099 72.4263 13.9099 72.2492 14.0417L68.0511 17.1647C67.6615 17.4545 67.1292 17.0751 67.276 16.6124L68.892 11.52C68.9565 11.3167 68.885 11.0949 68.7138 10.9676L64.4706 7.811C64.0843 7.52361 64.2876 6.90983 64.7691 6.90983H69.989C70.2069 6.90983 70.3997 6.76874 70.4656 6.56106L72.071 1.50185Z" fill="#FFBC57"/>
<path d="M88.5027 17.1647L92.7977 13.9696C92.9246 13.8753 92.9993 13.7265 92.9993 13.5684V3.22874C92.9993 2.65736 92.1955 2.5329 92.0227 3.07751L90.9173 6.56106C90.8514 6.76874 90.6586 6.90983 90.4407 6.90983H85.2207C84.7393 6.90983 84.536 7.5236 84.9223 7.811L89.1655 10.9676C89.3366 11.0949 89.4082 11.3167 89.3437 11.52L87.7277 16.6123C87.5809 17.0751 88.1132 17.4545 88.5027 17.1647Z" fill="#FFBC57"/>
</svg>
