<svg width="111" height="26" viewBox="0 0 111 26" fill="none" xmlns="http://www.w3.org/2000/svg">
<path d="M12.2063 1.74536C12.5775 1.01811 13.6166 1.01811 13.9878 1.74536L16.7628 7.18309C16.9081 7.46781 17.1808 7.66591 17.4965 7.71612L23.5256 8.675C24.3319 8.80325 24.6531 9.79154 24.0761 10.3692L19.762 14.6888C19.5362 14.915 19.432 15.2355 19.4818 15.5513L20.433 21.5816C20.5602 22.3882 19.7195 22.999 18.9918 22.6287L13.5505 19.8607C13.2656 19.7157 12.9285 19.7157 12.6436 19.8607L7.20234 22.6287C6.47461 22.999 5.63392 22.3882 5.76113 21.5816L6.71228 15.5513C6.76208 15.2355 6.65794 14.915 6.43205 14.6888L2.118 10.3692C1.54103 9.79154 1.86215 8.80325 2.66849 8.675L8.69762 7.71612C9.01331 7.66591 9.28597 7.46781 9.43127 7.18309L12.2063 1.74536Z" fill="url(#paint0_linear_1670_2764)"/>
<path d="M40.2063 1.74536C40.5775 1.01811 41.6166 1.01811 41.9878 1.74536L44.7628 7.18309C44.9081 7.46781 45.1808 7.66591 45.4965 7.71612L51.5256 8.675C52.3319 8.80325 52.6531 9.79154 52.0761 10.3692L47.762 14.6888C47.5362 14.915 47.432 15.2355 47.4818 15.5513L48.433 21.5816C48.5602 22.3882 47.7195 22.999 46.9918 22.6287L41.5505 19.8607C41.2656 19.7157 40.9285 19.7157 40.6436 19.8607L35.2023 22.6287C34.4746 22.999 33.6339 22.3882 33.7611 21.5816L34.7123 15.5513C34.7621 15.2355 34.6579 14.915 34.4321 14.6888L30.118 10.3692C29.541 9.79154 29.8621 8.80325 30.6685 8.675L36.6976 7.71612C37.0133 7.66591 37.286 7.46781 37.4313 7.18309L40.2063 1.74536Z" fill="url(#paint1_linear_1670_2764)"/>
<path d="M68.2063 1.74536C68.5775 1.01811 69.6166 1.01811 69.9878 1.74536L72.7628 7.18309C72.9081 7.46781 73.1808 7.66591 73.4965 7.71612L79.5256 8.675C80.3319 8.80325 80.6531 9.79154 80.0761 10.3692L75.762 14.6888C75.5362 14.915 75.432 15.2355 75.4818 15.5513L76.433 21.5816C76.5602 22.3882 75.7195 22.999 74.9918 22.6287L69.5505 19.8607C69.2656 19.7157 68.9285 19.7157 68.6436 19.8607L63.2023 22.6287C62.4746 22.999 61.6339 22.3882 61.7611 21.5816L62.7123 15.5513C62.7621 15.2355 62.6579 14.915 62.4321 14.6888L58.118 10.3692C57.541 9.79154 57.8621 8.80325 58.6685 8.675L64.6976 7.71612C65.0133 7.66591 65.286 7.46781 65.4313 7.18309L68.2063 1.74536Z" fill="url(#paint2_linear_1670_2764)"/>
<path d="M96.2063 1.74536C96.5775 1.01811 97.6166 1.01811 97.9878 1.74536L100.763 7.18309C100.908 7.46781 101.181 7.66591 101.496 7.71612L107.526 8.675C108.332 8.80325 108.653 9.79154 108.076 10.3692L103.762 14.6888C103.536 14.915 103.432 15.2355 103.482 15.5513L104.433 21.5816C104.56 22.3882 103.719 22.999 102.992 22.6287L97.5505 19.8607C97.2656 19.7157 96.9285 19.7157 96.6436 19.8607L91.2023 22.6287C90.4746 22.999 89.6339 22.3882 89.7611 21.5816L90.7123 15.5513C90.7621 15.2355 90.6579 14.915 90.4321 14.6888L86.118 10.3692C85.541 9.79154 85.8621 8.80325 86.6685 8.675L92.6976 7.71612C93.0133 7.66591 93.286 7.46781 93.4313 7.18309L96.2063 1.74536Z" fill="url(#paint3_linear_1670_2764)"/>
<defs>
<linearGradient id="paint0_linear_1670_2764" x1="13.097" y1="0" x2="13.097" y2="26" gradientUnits="userSpaceOnUse">
<stop stop-color="#FFD43A"/>
<stop offset="1" stop-color="#FFCD6B"/>
</linearGradient>
<linearGradient id="paint1_linear_1670_2764" x1="41.097" y1="0" x2="41.097" y2="26" gradientUnits="userSpaceOnUse">
<stop stop-color="#FFD43A"/>
<stop offset="1" stop-color="#FFCD6B"/>
</linearGradient>
<linearGradient id="paint2_linear_1670_2764" x1="69.097" y1="0" x2="69.097" y2="26" gradientUnits="userSpaceOnUse">
<stop stop-color="#FFD43A"/>
<stop offset="1" stop-color="#FFCD6B"/>
</linearGradient>
<linearGradient id="paint3_linear_1670_2764" x1="97.097" y1="0" x2="97.097" y2="26" gradientUnits="userSpaceOnUse">
<stop stop-color="#FFD43A"/>
<stop offset="1" stop-color="#FFCD6B"/>
</linearGradient>
</defs>
</svg>
