<svg width="116" height="26" viewBox="0 0 116 26" fill="none" xmlns="http://www.w3.org/2000/svg">
<path d="M12.5983 1.73822C12.9699 1.0126 14.0069 1.0126 14.3785 1.73822L17.2157 7.27891C17.3641 7.56883 17.6445 7.76828 17.9671 7.81345L24.2489 8.6932C25.0805 8.80967 25.4069 9.83737 24.7949 10.4124L20.2972 14.6378C20.0509 14.8691 19.9382 15.2092 19.9974 15.5418L21.0655 21.5442C21.21 22.3562 20.3647 22.9842 19.629 22.6114L13.9404 19.729C13.6562 19.5851 13.3205 19.5851 13.0364 19.729L7.34773 22.6114C6.61201 22.9842 5.76671 22.3562 5.91122 21.5442L6.97938 15.5418C7.03858 15.2092 6.9258 14.8691 6.67955 14.6378L2.18186 10.4124C1.56982 9.83737 1.89622 8.80967 2.72787 8.6932L9.00967 7.81345C9.33224 7.76828 9.6126 7.56883 9.76106 7.27891L12.5983 1.73822Z" fill="url(#paint0_linear_501_613)"/>
<path d="M71.947 1.73822C72.3185 1.0126 73.3556 1.0126 73.7272 1.73822L76.5644 7.27891C76.7128 7.56883 76.9932 7.76828 77.3158 7.81345L83.5976 8.6932C84.4292 8.80967 84.7556 9.83737 84.1436 10.4124L79.6459 14.6378C79.3996 14.8691 79.2869 15.2092 79.3461 15.5418L80.4142 21.5442C80.5587 22.3562 79.7134 22.9842 78.9777 22.6114L73.2891 19.729C73.0049 19.5851 72.6692 19.5851 72.3851 19.729L66.6964 22.6114C65.9607 22.9842 65.1154 22.3562 65.2599 21.5442L66.3281 15.5418C66.3873 15.2092 66.2745 14.8691 66.0282 14.6378L61.5306 10.4124C60.9185 9.83737 61.2449 8.80967 62.0766 8.6932L68.3584 7.81345C68.6809 7.76828 68.9613 7.56883 69.1098 7.27891L71.947 1.73822Z" fill="url(#paint1_linear_501_613)"/>
<path d="M42.2726 1.73822C42.6442 1.0126 43.6812 1.0126 44.0528 1.73822L46.89 7.27891C47.0385 7.56883 47.3188 7.76828 47.6414 7.81345L53.9232 8.6932C54.7548 8.80967 55.0812 9.83737 54.4692 10.4124L49.9715 14.6378C49.7253 14.8691 49.6125 15.2092 49.6717 15.5418L50.7398 21.5442C50.8843 22.3562 50.0391 22.9842 49.3033 22.6114L43.6147 19.729C43.3305 19.5851 42.9948 19.5851 42.7107 19.729L37.0221 22.6114C36.2863 22.9842 35.441 22.3562 35.5855 21.5442L36.6537 15.5418C36.7129 15.2092 36.6001 14.8691 36.3539 14.6378L31.8562 10.4124C31.2441 9.83737 31.5705 8.80967 32.4022 8.6932L38.684 7.81345C39.0066 7.76828 39.2869 7.56883 39.4354 7.27891L42.2726 1.73822Z" fill="url(#paint2_linear_501_613)"/>
<path d="M101.622 1.73822C101.993 1.0126 103.03 1.0126 103.402 1.73822L106.239 7.27891C106.388 7.56883 106.668 7.76828 106.991 7.81345L113.272 8.6932C114.104 8.80967 114.43 9.83737 113.818 10.4124L109.321 14.6378C109.074 14.8691 108.962 15.2092 109.021 15.5418L110.089 21.5442C110.233 22.3562 109.388 22.9842 108.652 22.6114L102.964 19.729C102.68 19.5851 102.344 19.5851 102.06 19.729L96.3712 22.6114C95.6354 22.9842 94.7901 22.3562 94.9347 21.5442L96.0028 15.5418C96.062 15.2092 95.9492 14.8691 95.703 14.6378L91.2053 10.4124C90.5933 9.83737 90.9197 8.80967 91.7513 8.6932L98.0331 7.81345C98.3557 7.76828 98.636 7.56883 98.7845 7.27891L101.622 1.73822Z" fill="url(#paint3_linear_501_613)"/>
<defs>
<linearGradient id="paint0_linear_501_613" x1="13.4884" y1="0" x2="13.4884" y2="26" gradientUnits="userSpaceOnUse">
<stop stop-color="#F7BB23"/>
<stop offset="1" stop-color="#DFA207"/>
</linearGradient>
<linearGradient id="paint1_linear_501_613" x1="72.8371" y1="0" x2="72.8371" y2="26" gradientUnits="userSpaceOnUse">
<stop stop-color="#F7BB23"/>
<stop offset="1" stop-color="#DFA207"/>
</linearGradient>
<linearGradient id="paint2_linear_501_613" x1="43.1627" y1="0" x2="43.1627" y2="26" gradientUnits="userSpaceOnUse">
<stop stop-color="#F7BB23"/>
<stop offset="1" stop-color="#DFA207"/>
</linearGradient>
<linearGradient id="paint3_linear_501_613" x1="102.512" y1="0" x2="102.512" y2="26" gradientUnits="userSpaceOnUse">
<stop stop-color="#F7BB23"/>
<stop offset="1" stop-color="#DFA207"/>
</linearGradient>
</defs>
</svg>
