<svg width="97" height="88" viewBox="0 0 97 88" fill="none" xmlns="http://www.w3.org/2000/svg">
<path d="M41.2246 39.1475C55.3585 39.1475 66.8164 35.6952 66.8164 31.4365V45.7529C66.8164 49.7807 55.3585 53.1675 41.2246 53.1675C27.0906 53.1675 15.6328 49.7807 15.6328 45.7529V31.4365C15.6328 35.6952 27.0906 39.1475 41.2246 39.1475Z" fill="url(#paint0_linear_1040_37242)"/>
<path fill-rule="evenodd" clip-rule="evenodd" d="M41.2246 53.1674C53.4947 53.1674 66.8164 50.4161 66.8164 46.1575V57.8409C62.2996 58.8974 58.7215 62.3936 57.5475 66.8639C53.1173 67.9368 47.4288 68.5894 41.2246 68.5894C27.0906 68.5894 15.6328 65.2026 15.6328 61.1748V46.1575C15.6328 50.4161 28.9546 53.1674 41.2246 53.1674Z" fill="url(#paint1_linear_1040_37242)"/>
<path fill-rule="evenodd" clip-rule="evenodd" d="M57.5564 66.8153C53.125 67.9233 47.4329 68.5894 41.2246 68.5894C27.0906 68.5894 15.6328 65.1371 15.6328 60.8784V75.1948C15.6328 79.2226 27.0906 82.6094 41.2246 82.6094C49.5341 82.6094 56.9186 81.4388 61.5937 79.6555C58.8656 77.3536 57.1328 73.9093 57.1328 70.0604C57.1328 68.9382 57.2801 67.8504 57.5564 66.8153Z" fill="url(#paint2_linear_1040_37242)"/>
<path d="M66.8164 31.5002C66.8164 35.7237 55.3585 39.1475 41.2246 39.1475C27.0906 39.1475 15.6328 35.7237 15.6328 31.5002C15.6328 27.2768 27.0906 23.7255 41.2246 23.7255C55.3585 23.7255 66.8164 27.2768 66.8164 31.5002Z" stroke="#6A6880" stroke-width="0.897959" stroke-miterlimit="10"/>
<path d="M66.8164 46.1575C66.8164 50.029 55.3585 53.1675 41.2246 53.1675C27.0906 53.1675 15.6328 50.029 15.6328 46.1575" stroke="#6A6880" stroke-width="0.897959" stroke-miterlimit="10"/>
<path d="M15.6328 60.8784C15.6328 65.137 27.0906 68.5894 41.2246 68.5894C47.2447 68.5894 52.7793 67.963 57.1498 66.9149" stroke="#6A6880" stroke-width="0.897959" stroke-miterlimit="10"/>
<path d="M66.8164 31.4365V57.0287M15.6328 31.4365V75.1948C15.6328 79.2226 27.0906 82.6094 41.2246 82.6094C48.9159 82.6094 56.3206 81.2768 61.0119 79.7134" stroke="#6A6880" stroke-width="0.897959" stroke-miterlimit="10"/>
<path d="M40.762 33.3786C40.762 33.6266 40.963 33.8276 41.2109 33.8276C41.4589 33.8276 41.6599 33.6266 41.6599 33.3786L40.762 33.3786ZM41.6599 33.3786L41.6599 17.7036L40.762 17.7036L40.762 33.3786L41.6599 33.3786Z" fill="url(#paint3_linear_1040_37242)"/>
<path d="M57.0442 6.329C55.6912 15.8531 46.3784 18.8327 41.9723 18.4845C41.5302 18.4495 41.223 18.0507 41.2653 17.6093C42.1817 8.05986 51.7243 5.06943 56.3333 5.41391C56.794 5.44835 57.1092 5.87154 57.0442 6.329Z" fill="url(#paint4_linear_1040_37242)" fill-opacity="0.5" stroke="white" stroke-width="0.897959"/>
<path d="M25.3777 6.329C26.7306 15.8531 36.0435 18.8327 40.4496 18.4845C40.8917 18.4495 41.1989 18.0507 41.1565 17.6093C40.2402 8.05986 30.6976 5.06943 26.0886 5.41391C25.6278 5.44835 25.3127 5.87154 25.3777 6.329Z" fill="url(#paint5_linear_1040_37242)" fill-opacity="0.5" stroke="white" stroke-width="0.897959"/>
<circle cx="69.6896" cy="70.0605" r="12.998" fill="url(#paint6_linear_1040_37242)" fill-opacity="0.5" stroke="white" stroke-width="0.897959"/>
<path d="M69.7031 63.3032V76.8175" stroke="white" stroke-width="0.897959" stroke-linecap="round" stroke-linejoin="round"/>
<path d="M72.7742 65.7605H68.1661C67.5957 65.7605 67.0488 65.987 66.6455 66.3902C66.2422 66.7934 66.0156 67.3403 66.0156 67.9105C66.0156 68.4807 66.2422 69.0276 66.6455 69.4308C67.0488 69.834 67.5957 70.0605 68.1661 70.0605H71.2382C71.8085 70.0605 72.3555 70.287 72.7588 70.6902C73.1621 71.0934 73.3886 71.6403 73.3886 72.2105C73.3886 72.7807 73.1621 73.3276 72.7588 73.7308C72.3555 74.134 71.8085 74.3605 71.2382 74.3605H66.0156" stroke="white" stroke-width="0.897959" stroke-linecap="round" stroke-linejoin="round"/>
<defs>
<linearGradient id="paint0_linear_1040_37242" x1="15.6328" y1="31.4365" x2="42.8952" y2="70.0546" gradientUnits="userSpaceOnUse">
<stop stop-color="#6B6981"/>
<stop offset="1" stop-color="#6A6A80" stop-opacity="0"/>
</linearGradient>
<linearGradient id="paint1_linear_1040_37242" x1="15.6328" y1="46.1575" x2="44.0625" y2="85.1706" gradientUnits="userSpaceOnUse">
<stop stop-color="#6A6A80" stop-opacity="0"/>
<stop offset="1" stop-color="#6B6981"/>
</linearGradient>
<linearGradient id="paint2_linear_1040_37242" x1="15.6328" y1="60.8784" x2="43.7472" y2="96.6397" gradientUnits="userSpaceOnUse">
<stop stop-color="#6B6981"/>
<stop offset="1" stop-color="#6A6A80" stop-opacity="0"/>
</linearGradient>
<linearGradient id="paint3_linear_1040_37242" x1="41.7109" y1="18.4874" x2="41.7109" y2="33.3786" gradientUnits="userSpaceOnUse">
<stop stop-color="white"/>
<stop offset="1" stop-color="white" stop-opacity="0"/>
</linearGradient>
<linearGradient id="paint4_linear_1040_37242" x1="49.1747" y1="6.04388" x2="49.1747" y2="18.5114" gradientUnits="userSpaceOnUse">
<stop stop-color="white"/>
<stop offset="1" stop-color="white" stop-opacity="0"/>
</linearGradient>
<linearGradient id="paint5_linear_1040_37242" x1="33.2471" y1="6.04388" x2="33.2471" y2="18.5114" gradientUnits="userSpaceOnUse">
<stop stop-color="white"/>
<stop offset="1" stop-color="white" stop-opacity="0"/>
</linearGradient>
<linearGradient id="paint6_linear_1040_37242" x1="69.6896" y1="58.7664" x2="69.6896" y2="82.6095" gradientUnits="userSpaceOnUse">
<stop stop-color="white"/>
<stop offset="1" stop-color="white" stop-opacity="0"/>
</linearGradient>
</defs>
</svg>
