<svg width="1226" height="531" viewBox="0 0 1226 531" fill="none" xmlns="http://www.w3.org/2000/svg">
<path fill-rule="evenodd" clip-rule="evenodd" d="M244.613 432.32C56.8501 373.993 -48.0779 174.498 10.2494 -13.2648C68.5766 -201.027 268.072 -305.955 455.834 -247.628C638.516 -190.879 742.786 -0.498388 694.575 182.692C777.059 136.039 877.871 122.223 975.511 152.554C1163.27 210.881 1268.2 410.376 1209.87 598.139C1151.55 785.901 952.051 890.829 764.289 832.502C581.607 775.753 477.337 585.372 525.548 402.182C443.064 448.835 342.252 462.651 244.613 432.32ZM269.706 351.541C412.856 396.01 564.95 316.013 609.419 172.863C653.887 29.7138 573.89 -122.381 430.741 -166.849C287.591 -211.318 135.497 -131.321 91.0282 11.8286C46.5597 154.978 126.556 307.073 269.706 351.541ZM789.382 751.723C932.532 796.192 1084.63 716.195 1129.09 573.045C1173.56 429.896 1093.57 277.801 950.417 233.333C807.268 188.864 655.173 268.861 610.705 412.011C566.236 555.16 646.233 707.255 789.382 751.723Z" fill="url(#paint0_linear_203_3118)" fill-opacity="0.08"/>
<defs>
<linearGradient id="paint0_linear_203_3118" x1="1493.32" y1="567.973" x2="-95.7166" y2="143.605" gradientUnits="userSpaceOnUse">
<stop offset="0.0260417" stop-color="#FFF6E8"/>
<stop offset="0.317708" stop-color="#F5DFBB"/>
<stop offset="0.697917" stop-color="#FAB77F"/>
<stop offset="1" stop-color="#FFF6E8"/>
</linearGradient>
</defs>
</svg>
