<svg width="20" height="20" viewBox="0 0 20 20" fill="none" xmlns="http://www.w3.org/2000/svg">
<g id="checked (1) 7" clip-path="url(#clip0_1670_7162)">
<path id="Vector" d="M10 20C15.5229 20 20 15.5229 20 10C20 4.47716 15.5229 0 10 0C4.47716 0 0 4.47716 0 10C0 15.5229 4.47716 20 10 20Z" fill="#F03943"/>
<path id="Vector_2" d="M20 9.99997C20 15.5 15.5 20 10 20C6.81253 20 4.00003 18.5625 2.1875 16.25C3.875 17.625 6.06251 18.4375 8.43749 18.4375C13.9375 18.4375 18.4375 13.9375 18.4375 8.43749C18.4375 6.06251 17.625 3.875 16.25 2.1875C18.5625 3.99994 20 6.81244 20 9.99997Z" fill="#D12831"/>
<path id="Vector_3" d="M15.4375 7.12667L8.93747 14.2517C8.49995 14.7517 7.74998 14.7517 7.31246 14.2517L4.56245 11.1892C4.18747 10.7517 4.18747 10.0642 4.62494 9.62668C5.06246 9.25169 5.74994 9.25169 6.18746 9.68917L8.12497 11.8767L13.8125 5.68918C14.25 5.25166 14.9375 5.18917 15.375 5.62669C15.8125 6.00167 15.8125 6.75169 15.4375 7.12667Z" fill="white"/>
</g>
<defs>
<clipPath id="clip0_1670_7162">
<rect width="20" height="20" fill="white"/>
</clipPath>
</defs>
</svg>
