<svg width="1278" height="1048" viewBox="0 0 1278 1048" fill="none" xmlns="http://www.w3.org/2000/svg">
<path d="M707.214 627.628C742.398 821.068 614.107 1006.4 420.668 1041.59C227.228 1076.77 41.8915 948.483 6.70689 755.043C-28.4777 561.603 99.8132 376.267 293.253 341.082C486.692 305.898 672.029 434.189 707.214 627.628ZM89.9282 739.906C116.753 887.384 258.053 985.192 405.53 958.368C553.008 931.543 650.817 790.243 623.992 642.765C597.168 495.288 455.868 397.479 308.39 424.304C160.912 451.128 63.1036 592.428 89.9282 739.906Z" fill="#FDF5EC"/>
<path d="M1271.48 293.253C1306.67 486.692 1178.38 672.029 984.939 707.214C791.499 742.398 606.163 614.107 570.978 420.668C535.794 227.228 664.085 41.8915 857.524 6.70689C1050.96 -28.4777 1236.3 99.8132 1271.48 293.253ZM654.2 405.53C681.024 553.008 822.324 650.817 969.802 623.992C1117.28 597.168 1215.09 455.868 1188.26 308.39C1161.44 160.912 1020.14 63.1036 872.661 89.9282C725.184 116.753 627.375 258.053 654.2 405.53Z" fill="#FDF5EC"/>
</svg>
