<svg width="22" height="22" viewBox="0 0 22 22" fill="none" xmlns="http://www.w3.org/2000/svg">
<path d="M10.9987 0.333252C16.8894 0.333252 21.6654 5.10925 21.6654 10.9999C21.6654 16.8906 16.8894 21.6666 10.9987 21.6666C5.10803 21.6666 0.332031 16.8906 0.332031 10.9999C0.332031 5.10925 5.10803 0.333252 10.9987 0.333252ZM10.9987 2.11103C6.08936 2.11103 2.10981 6.09059 2.10981 10.9999C2.10981 15.9093 6.08936 19.8888 10.9987 19.8888C15.908 19.8888 19.8876 15.9093 19.8876 10.9999C19.8876 6.09059 15.908 2.11103 10.9987 2.11103Z" fill="#191857"/>
<path fill-rule="evenodd" clip-rule="evenodd" d="M10.5781 7C11.0561 7 11.5081 7.388 11.5711 7.884L11.5781 8V12L14.9451 13.062C15.4321 13.238 15.6941 13.802 15.5291 14.324C15.3751 14.807 14.9091 15.082 14.4521 14.978L14.3471 14.948L10.2111 13.451C9.87113 13.328 9.63113 13.001 9.58613 12.627L9.57812 12.5V8C9.57812 7.45 10.0631 7 10.5781 7Z" fill="#191857"/>
</svg>
