<svg width="32" height="33" viewBox="0 0 32 33" fill="none" xmlns="http://www.w3.org/2000/svg">
<rect y="0.613281" width="32" height="32" rx="16" fill="#E43A3A"/>
<path d="M21.2925 11.3203C21.4329 11.4607 21.5117 11.6511 21.5117 11.8496C21.5117 12.0481 21.4329 12.2385 21.2925 12.3789L17.0581 16.6133L21.2925 20.8476C21.4329 20.988 21.5117 21.1784 21.5117 21.3769C21.5117 21.5755 21.4329 21.7659 21.2925 21.9062C21.1521 22.0466 20.9617 22.1255 20.7632 22.1255C20.5647 22.1255 20.3743 22.0466 20.2339 21.9062L15.9995 17.6719L11.7651 21.9062C11.6248 22.0466 11.4344 22.1255 11.2358 22.1255C11.0373 22.1255 10.8469 22.0466 10.7065 21.9062C10.5662 21.7659 10.4873 21.5755 10.4873 21.3769C10.4873 21.1784 10.5662 20.988 10.7065 20.8476L14.9409 16.6133L10.7065 12.3789C10.5662 12.2385 10.4873 12.0481 10.4873 11.8496C10.4873 11.6511 10.5662 11.4607 10.7065 11.3203C10.8469 11.1799 11.0373 11.1011 11.2358 11.1011C11.4344 11.1011 11.6248 11.1799 11.7651 11.3203L15.9995 15.5547L20.2339 11.3203C20.3743 11.1799 20.5647 11.1011 20.7632 11.1011C20.9617 11.1011 21.1521 11.1799 21.2925 11.3203Z" fill="white"/>
</svg>
