<svg width="282" height="175" viewBox="0 0 282 175" fill="none" xmlns="http://www.w3.org/2000/svg">
<g opacity="0.2">
<path d="M-112.886 122.077C-110.106 129.071 -102.358 133.831 -90.4647 136.332C-78.5942 138.829 -62.7329 139.042 -43.9744 137.069C-6.4644 133.122 42.5132 120.442 94.0577 99.9537C145.602 79.4658 189.92 55.0627 219.904 32.1819C234.899 20.7394 246.286 9.69523 253.203 -0.269137C260.134 -10.2526 262.5 -19.0329 259.72 -26.0272C256.94 -33.0214 249.192 -37.7813 237.299 -40.2826C225.428 -42.7792 209.567 -42.9929 190.808 -41.0191C153.298 -37.0723 104.321 -24.3922 52.7762 -3.90424C1.23165 16.5837 -43.0863 40.9868 -73.0704 63.8675C-88.0653 75.3101 -99.4518 86.3542 -106.369 96.3186C-113.3 106.302 -115.666 115.082 -112.886 122.077Z" stroke="white"/>
<path d="M-133.71 69.6821C-130.93 76.6763 -123.182 81.4363 -111.289 83.9376C-99.4184 86.4341 -83.5572 86.6478 -64.7986 84.674C-27.2886 80.7272 21.689 68.0471 73.2335 47.5592C124.778 27.0712 169.096 2.66818 199.08 -20.2126C214.075 -31.6552 225.461 -42.6993 232.379 -52.6637C239.31 -62.6471 241.676 -71.4275 238.896 -78.4217C236.116 -85.4159 228.367 -90.1758 216.474 -92.6772C204.604 -95.1737 188.743 -95.3874 169.984 -93.4136C132.474 -89.4668 83.4965 -76.7867 31.952 -56.2988C-19.5926 -35.8108 -63.9105 -11.4078 -93.8946 11.473C-108.889 22.9156 -120.276 33.9597 -127.193 43.9241C-134.124 53.9075 -136.491 62.6879 -133.71 69.6821Z" stroke="white"/>
</g>
</svg>
