<svg width="27" height="28" viewBox="0 0 27 28" fill="none" xmlns="http://www.w3.org/2000/svg">
<g id="Group">
<path id="Vector" d="M24.7039 15.589C19.6992 17.4968 17.2781 19.9093 15.3703 24.9226C14.7116 26.6421 12.2734 26.6421 11.6232 24.9226C9.71547 19.9179 7.30292 17.4968 2.28967 15.589C0.57011 14.9303 0.57011 12.4921 2.28967 11.842C7.29436 9.93419 9.71547 7.52167 11.6232 2.50842C12.282 0.78886 14.7202 0.78886 15.3703 2.50842C17.2781 7.51311 19.6907 9.93419 24.7039 11.842C26.432 12.4921 26.432 14.9303 24.7039 15.589Z" fill="#F4C348"/>
<path id="Vector_2" d="M24.7039 15.589C19.6992 17.4968 17.2781 19.9093 15.3703 24.9226C14.7116 26.6421 12.2734 26.6421 11.6232 24.9226C9.71547 19.9179 7.30292 17.4968 2.28967 15.589C0.57011 14.9303 0.57011 12.4921 2.28967 11.842C7.29436 9.93419 9.71547 7.52167 11.6232 2.50842C12.282 0.78886 14.7202 0.78886 15.3703 2.50842C17.2781 7.51311 19.6907 9.93419 24.7039 11.842C26.432 12.4921 26.432 14.9303 24.7039 15.589Z" stroke="#231F20" stroke-width="1.6" stroke-miterlimit="10"/>
</g>
</svg>
