<svg width="97" height="88" viewBox="0 0 97 88" fill="none" xmlns="http://www.w3.org/2000/svg">
<path d="M78.6828 26.7703C79.1765 26.1867 78.7616 25.2925 77.9972 25.2925H18.9981C18.2337 25.2925 17.8189 26.1867 18.3125 26.7703L41.9983 54.7728C42.1354 54.935 42.2106 55.1404 42.2106 55.3527V75.0232C42.2106 75.3633 42.4028 75.6743 42.7071 75.8264L53.4853 81.2143C54.0823 81.5128 54.7847 81.0786 54.7847 80.4111V55.3527C54.7847 55.1404 54.86 54.935 54.9971 54.7728L78.6828 26.7703Z" fill="url(#paint0_linear_1040_37230)" stroke="#6A6880" stroke-width="0.897959" stroke-linecap="round" stroke-linejoin="round"/>
<path d="M48.8486 20.0543C51.7421 20.0543 54.0878 17.7091 54.0878 14.8162C54.0878 11.9233 51.7421 9.57812 48.8486 9.57812C45.955 9.57812 43.6094 11.9233 43.6094 14.8162C43.6094 17.7091 45.955 20.0543 48.8486 20.0543Z" fill="url(#paint1_linear_1040_37230)" fill-opacity="0.5" stroke="white" stroke-width="0.897959" stroke-linecap="round" stroke-linejoin="round"/>
<path d="M32.0829 15.8641C34.9765 15.8641 37.3221 13.519 37.3221 10.626C37.3221 7.73311 34.9765 5.38794 32.0829 5.38794C29.1894 5.38794 26.8438 7.73311 26.8438 10.626C26.8438 13.519 29.1894 15.8641 32.0829 15.8641Z" fill="url(#paint2_linear_1040_37230)" fill-opacity="0.5" stroke="white" stroke-width="0.897959" stroke-linecap="round" stroke-linejoin="round"/>
<path d="M32.0781 15.8643V31.9278L42.9035 43.8008" stroke="url(#paint3_linear_1040_37230)" stroke-width="0.897959" stroke-linecap="round"/>
<path d="M65.6124 15.8641C62.7188 15.8641 60.3732 13.519 60.3732 10.626C60.3732 7.73311 62.7188 5.38794 65.6124 5.38794C68.5059 5.38794 70.8516 7.73311 70.8516 10.626C70.8516 13.519 68.5059 15.8641 65.6124 15.8641Z" fill="url(#paint4_linear_1040_37230)" fill-opacity="0.5" stroke="white" stroke-width="0.897959" stroke-linecap="round" stroke-linejoin="round"/>
<path d="M65.5977 15.8643V31.9278L54.7723 43.8008" stroke="url(#paint5_linear_1040_37230)" stroke-width="0.897959" stroke-linecap="round"/>
<path d="M48.8398 20.0547V43.8007" stroke="url(#paint6_linear_1040_37230)" stroke-width="0.897959" stroke-linecap="round"/>
<defs>
<linearGradient id="paint0_linear_1040_37230" x1="17.0625" y1="25.2925" x2="86.6549" y2="71.8067" gradientUnits="userSpaceOnUse">
<stop stop-color="#6B6981"/>
<stop offset="1" stop-color="#6A6A80" stop-opacity="0"/>
</linearGradient>
<linearGradient id="paint1_linear_1040_37230" x1="48.8486" y1="10.1019" x2="48.8486" y2="20.0543" gradientUnits="userSpaceOnUse">
<stop stop-color="white"/>
<stop offset="1" stop-color="white" stop-opacity="0"/>
</linearGradient>
<linearGradient id="paint2_linear_1040_37230" x1="32.0829" y1="5.91175" x2="32.0829" y2="15.8641" gradientUnits="userSpaceOnUse">
<stop stop-color="white"/>
<stop offset="1" stop-color="white" stop-opacity="0"/>
</linearGradient>
<linearGradient id="paint3_linear_1040_37230" x1="37.4908" y1="17.2611" x2="37.4908" y2="43.8008" gradientUnits="userSpaceOnUse">
<stop stop-color="white"/>
<stop offset="1" stop-color="white" stop-opacity="0"/>
</linearGradient>
<linearGradient id="paint4_linear_1040_37230" x1="65.6124" y1="5.91175" x2="65.6124" y2="15.8641" gradientUnits="userSpaceOnUse">
<stop stop-color="white"/>
<stop offset="1" stop-color="white" stop-opacity="0"/>
</linearGradient>
<linearGradient id="paint5_linear_1040_37230" x1="60.185" y1="17.2611" x2="60.185" y2="43.8008" gradientUnits="userSpaceOnUse">
<stop stop-color="white"/>
<stop offset="1" stop-color="white" stop-opacity="0"/>
</linearGradient>
<linearGradient id="paint6_linear_1040_37230" x1="48.3398" y1="21.242" x2="48.3399" y2="43.8007" gradientUnits="userSpaceOnUse">
<stop stop-color="white"/>
<stop offset="1" stop-color="white" stop-opacity="0"/>
</linearGradient>
</defs>
</svg>
