<svg width="161" height="159" viewBox="0 0 161 159" fill="none" xmlns="http://www.w3.org/2000/svg">
<path d="M71.8898 4.82932C76.2937 -0.709635 84.7063 -0.70963 89.1102 4.82932L98.1494 16.1982C100.725 19.4373 104.9 20.957 108.955 20.1311L123.187 17.2323C130.121 15.82 136.566 21.2275 136.379 28.3014L135.995 42.8208C135.886 46.9575 138.108 50.8055 141.745 52.7792L154.511 59.7069C160.73 63.0821 162.191 71.3668 157.501 76.6656L147.874 87.5417C145.132 90.6404 144.36 95.0162 145.878 98.8661L151.204 112.379C153.799 118.962 149.592 126.248 142.594 127.292L128.228 129.436C124.135 130.046 120.732 132.903 119.42 136.827L114.814 150.602C112.57 157.313 104.665 160.19 98.632 156.492L86.2495 148.9C82.7216 146.737 78.2784 146.737 74.7505 148.9L62.368 156.492C56.3352 160.19 48.4301 157.313 46.1862 150.602L41.5805 136.827C40.2683 132.903 36.8645 130.046 32.7717 129.436L18.4063 127.292C11.4075 126.248 7.20124 118.962 9.79615 112.379L15.1223 98.8661C16.6398 95.0162 15.8682 90.6404 13.1255 87.5417L3.49897 76.6656C-1.1911 71.3668 0.269731 63.0821 6.48926 59.7069L19.2551 52.7792C22.8922 50.8055 25.1138 46.9575 25.0046 42.8207L24.6213 28.3014C24.4345 21.2275 30.8789 15.82 37.8128 17.2323L52.045 20.1311C56.0999 20.957 60.2753 19.4373 62.8506 16.1982L71.8898 4.82932Z" fill="white" fill-opacity="0.04"/>
</svg>
