<svg width="84" height="84" viewBox="0 0 84 84" fill="none" xmlns="http://www.w3.org/2000/svg">
<path d="M64.4594 14.5601C75.1708 14.5601 83.8438 23.2429 83.8438 33.9543C83.8438 44.6657 75.161 53.3387 64.4594 53.3387C62.617 53.3387 60.8334 53.0643 59.1478 52.5841C59.1674 52.9859 59.1772 53.3779 59.2066 53.7797C59.628 59.2089 61.3822 64.8341 64.4594 70.0085C61.1274 67.7251 55.8256 63.4327 51.5527 56.3963C50.367 54.4461 45.6335 46.3121 45.1043 35.1499C45.0749 34.5521 45.0652 34.2581 45.0652 33.9445C45.075 23.2429 53.748 14.5601 64.4594 14.5601Z" fill="#191857"/>
<path d="M19.5375 14.5601C30.2489 14.5601 38.9219 23.2429 38.9219 33.9445C38.9219 44.6559 30.2391 53.3289 19.5375 53.3289C17.6951 53.3289 15.9115 53.0545 14.2259 52.5743C14.2455 52.9761 14.2553 53.3681 14.2847 53.7699C14.7061 59.1991 16.4603 64.8243 19.5375 69.9987C16.2055 67.7153 10.9037 63.4229 6.63088 56.3865C5.44508 54.4363 0.711678 46.3023 0.182476 35.1401C0.153076 34.5423 0.143276 34.2483 0.143276 33.9347C0.153076 23.2429 8.82608 14.5601 19.5375 14.5601Z" fill="#191857"/>
</svg>
