<svg width="97" height="88" viewBox="0 0 97 88" fill="none" xmlns="http://www.w3.org/2000/svg">
<path d="M48.4993 9.08447C62.7074 9.08447 74.2254 19.8698 74.2254 33.1743C74.2254 38.0867 72.6551 42.6557 69.9589 46.4652C65.7627 51.7262 57.3703 63.7434 57.3703 69.7243H39.6285C39.6285 63.7434 31.2361 51.7262 27.0399 46.4652C24.3437 42.6557 22.7734 38.0867 22.7734 33.1743C22.7734 19.8698 34.2911 9.08447 48.4993 9.08447Z" fill="url(#paint0_linear_1040_37288)"/>
<path d="M48.5098 8.69434C62.9048 8.69434 74.5742 19.6109 74.5742 33.0771C74.5742 38.0493 72.9833 42.6739 70.2516 46.5297C66.0003 51.8547 57.4976 64.0181 57.4976 70.0717" stroke="#6C6A80" stroke-width="0.897959"/>
<path d="M48.5097 8.69434C34.1147 8.69434 22.4453 19.6109 22.4453 33.0771C22.4453 38.0493 24.0362 42.6739 26.7679 46.5297C31.0193 51.8547 39.522 64.0181 39.522 70.0717" stroke="#6C6A80" stroke-width="0.897959"/>
<path d="M40.1016 77.8369V80.1306C40.1016 82.1143 41.7097 83.7224 43.6934 83.7224H53.3255C55.3092 83.7224 56.9173 82.1143 56.9173 80.1306V77.8369" stroke="#6A6880" stroke-width="0.897959"/>
<rect x="37.4766" y="69.7236" width="22.0508" height="4.59392" rx="1.79592" stroke="#6A6880" stroke-width="0.897959"/>
<rect x="37.5781" y="74.4736" width="21.8604" height="3.36314" rx="1.68157" stroke="#6A6880" stroke-width="0.897959"/>
<path d="M36.5872 14.0826C25.6352 10.1114 17.0539 9.54572 14.8776 13.3152C11.6271 18.9451 23.8959 32.1139 42.2808 42.7284C60.6656 53.3429 78.2045 57.3836 81.4549 51.7536C83.1288 48.8544 80.6873 43.9562 75.4145 38.437" stroke="url(#paint1_linear_1040_37288)" stroke-width="0.897959" stroke-linecap="round"/>
<path d="M61.0228 13.6311C71.3603 10.0738 79.3634 9.69375 81.4543 13.3153C84.7048 18.9453 72.436 32.114 54.0512 42.7285C35.6663 53.343 18.1275 57.3837 14.877 51.7537C13.2028 48.8541 15.6455 43.9546 20.9202 38.4343" stroke="url(#paint2_linear_1040_37288)" stroke-width="0.897959" stroke-linecap="round"/>
<defs>
<linearGradient id="paint0_linear_1040_37288" x1="22.7734" y1="9.08447" x2="88.1464" y2="42.4438" gradientUnits="userSpaceOnUse">
<stop stop-color="#6B6981"/>
<stop offset="1" stop-color="#6A6A80" stop-opacity="0"/>
</linearGradient>
<linearGradient id="paint1_linear_1040_37288" x1="53.1336" y1="24.9815" x2="42.2814" y2="42.7283" gradientUnits="userSpaceOnUse">
<stop stop-color="white" stop-opacity="0"/>
<stop offset="1" stop-color="white"/>
</linearGradient>
<linearGradient id="paint2_linear_1040_37288" x1="53.4985" y1="41.7713" x2="43.4638" y2="24.9817" gradientUnits="userSpaceOnUse">
<stop stop-color="white"/>
<stop offset="1" stop-color="white" stop-opacity="0"/>
</linearGradient>
</defs>
</svg>
