<svg width="364" height="140" viewBox="0 0 364 140" fill="none" xmlns="http://www.w3.org/2000/svg">
<rect x="8.65039" y="0.539062" width="355.849" height="115" rx="57.5" transform="rotate(3.91128 8.65039 0.539062)" fill="#FFDA77"/>
<rect x="17.6482" y="10.8549" width="336.491" height="95.6415" rx="47.8208" transform="rotate(3.91128 17.6482 10.8549)" stroke="#EB5731" stroke-width="2" stroke-dasharray="6.51 6.51"/>
<path d="M57.9011 79.73L45.9002 78.8658L48.9798 36.0966L87.2168 38.8498L86.44 49.6379L60.2039 47.7488L59.7443 54.1322L85.0228 55.9524L84.2506 66.6767L58.9721 64.8565L57.9011 79.73ZM99.1482 83.3416C91.8711 82.8176 88.0247 79.2041 88.42 73.7143C88.7463 69.182 92.1086 66.1517 99.4363 65.9735L112.614 65.6391L112.66 65.0007C112.895 61.7451 111.527 61.1333 107.25 60.8254C103.293 60.5404 102.024 61.2191 101.831 63.9001L101.813 64.1555L89.8121 63.2913L89.8213 63.1637C90.4372 54.6098 97.982 49.6348 108.898 50.4208C120.133 51.2298 125.163 57.1103 124.515 66.111L123.196 84.4316L111.961 83.6226L112.448 76.8561L111.81 76.8101C110.271 81.2551 106.106 83.8427 99.1482 83.3416ZM100.54 73.817C100.466 74.8383 101.474 75.1034 103.325 75.2367C109.134 75.655 111.547 75.1229 112.073 72.2733L102.159 72.7144C101.065 72.764 100.59 73.1148 100.54 73.817ZM140.25 85.6596L128.249 84.7954L130.566 52.6227L141.801 53.4317L141.098 63.1984L141.736 63.2444C142.824 57.9328 146.698 53.1427 155.316 53.7632C163.998 54.3883 167.706 59.9169 167.205 66.8749L165.72 87.4935L153.72 86.6294L154.887 70.4154C155.209 65.947 153.65 64.4231 148.416 64.0462C143.117 63.6647 141.744 64.9133 141.445 69.0625L140.25 85.6596ZM194.83 89.5896L186.404 88.9829C178.361 88.4037 173.853 84.1651 174.456 75.8027L175.182 65.7168L170.458 65.3767L171.166 55.5461L175.89 55.8863L176.29 50.3327L188.291 51.1968L187.891 56.7504L197.147 57.4169L196.439 67.2474L187.183 66.581L186.581 74.9433C186.397 77.4967 187.117 78.1902 189.862 78.3879L195.607 78.8015L194.83 89.5896ZM209.55 91.2912C202.273 90.7672 198.426 87.1536 198.822 81.6638C199.148 77.1315 202.51 74.1012 209.838 73.923L223.016 73.5886L223.062 72.9502C223.296 69.6947 221.929 69.0829 217.652 68.7749C213.694 68.4899 212.426 69.1686 212.233 71.8497L212.215 72.105L200.214 71.2409L200.223 71.1132C200.839 62.5594 208.384 57.5844 219.299 58.3704C230.534 59.1793 235.565 65.0598 234.917 74.0605L233.598 92.3811L222.363 91.5721L222.85 84.8056L222.212 84.7597C220.672 89.2046 216.508 91.7922 209.55 91.2912ZM210.942 81.7665C210.868 82.7879 211.876 83.0529 213.727 83.1862C219.536 83.6045 221.948 83.0724 222.474 80.2228L212.561 80.664C211.467 80.7135 210.992 81.0643 210.942 81.7665ZM255.904 94.6289C244.542 93.8108 238.795 88.9695 239.328 81.5647L239.346 81.3094L251.347 82.1735L251.301 82.8118C251.172 84.5992 252.308 84.8734 256.648 85.186C260.798 85.4848 261.468 85.0839 261.546 83.9987C261.62 82.9773 261.128 82.6852 258.15 82.15L248.904 80.4576C242.316 79.2774 238.966 75.8921 239.357 70.4661C239.766 64.7848 244.652 60.1959 256.717 61.0646C267.888 61.869 273.535 66.3181 272.965 74.2336L272.947 74.4889L260.946 73.6248L260.973 73.2418C261.093 71.5821 260.51 70.7701 255.658 70.4208C251.764 70.1404 251.217 70.6143 251.13 71.8271C251.065 72.7208 251.544 73.2044 255.282 73.8586L261.615 75.0205C270.926 76.7175 273.701 80.0614 273.31 85.4874C272.878 91.4879 266.565 95.3966 255.904 94.6289ZM283.294 106.868L277.485 106.449L278.266 95.5975L287.586 96.2685C288.543 96.3375 289.319 96.265 289.848 96.0464L276.753 63.149L290.413 64.1326L295.057 77.1718L296.822 84.7421L297.651 84.8018L300.3 77.421L305.989 65.2541L319.394 66.2194L301.729 98.5702C297.735 105.918 292.677 107.543 283.294 106.868Z" fill="#EB5731"/>
</svg>
