<svg width="43" height="42" viewBox="0 0 43 42" fill="none" xmlns="http://www.w3.org/2000/svg">
<circle cx="21.9922" cy="21" r="21" fill="#EDF4F6"/>
<g clip-path="url(#clip0_1040_19456)">
<path d="M30.4363 17.9299C30.2379 17.7316 29.9164 17.7316 29.7181 17.9299C29.5198 18.1282 29.5198 18.4498 29.7181 18.6481C29.7259 18.6559 29.734 18.6639 29.7419 18.6712C29.8399 18.7629 29.9646 18.8083 30.089 18.8083C30.2244 18.8083 30.3597 18.7544 30.4597 18.6477C30.6514 18.4431 30.6409 18.1216 30.4363 17.9299Z" fill="#548088"/>
<path d="M29.4044 17.0958C29.1138 16.8985 28.8153 16.7224 28.5174 16.5724C26.8322 15.7245 25.0464 15.5542 23.3529 16.0801C23.0851 16.1634 22.9354 16.4479 23.0186 16.7157C23.1018 16.9836 23.3862 17.1332 23.6542 17.05C25.0915 16.6036 26.6153 16.7522 28.0608 17.4796C28.3158 17.608 28.5831 17.766 28.834 17.9361C28.9214 17.9954 29.0206 18.0239 29.1187 18.0239C29.2813 18.0239 29.4411 17.946 29.5394 17.8012C29.6969 17.5692 29.6364 17.2534 29.4044 17.0958Z" fill="#548088"/>
<path d="M34.0243 23.6674C33.8161 23.2307 33.4713 22.5075 33.4651 22.2683C34.059 20.8046 33.8423 19.1848 32.8532 17.7032C31.3322 15.4245 28.2147 13.7705 25.4407 13.7705C23.9744 13.7705 22.5425 14.1202 21.2543 14.7877C20.8847 12.7627 19.1088 11.2225 16.9787 11.2225C14.5815 11.2225 12.6313 13.1727 12.6313 15.5698C12.6313 17.0949 13.4086 18.4816 14.7103 19.2791C15.0856 19.509 15.1705 19.7078 15.2007 20.0334V21.7673V23.0049C15.2007 23.572 15.6619 24.0333 16.2287 24.0333H16.4014C16.6803 26.2563 17.7562 28.2745 19.4639 29.7597C19.48 29.8099 19.527 30.0451 19.3252 30.7467C19.168 31.2933 18.9268 31.9005 18.7141 32.4363C18.5717 32.7947 18.4487 33.1043 18.3744 33.3384C18.3254 33.4928 18.3529 33.6612 18.4485 33.792C18.5442 33.9227 18.6964 34 18.8584 34H26.1071C26.3453 34 26.6724 33.8934 26.8783 33.3853C26.968 33.1642 27.0265 32.8982 27.0885 32.6165C27.1488 32.3421 27.2903 31.6994 27.4309 31.6217C27.431 31.6217 27.4393 31.6204 27.4591 31.6234C27.4852 31.6276 27.5115 31.6295 27.5379 31.6295C28.297 31.6295 28.9173 31.664 29.4646 31.6943C31.0697 31.7834 32.0386 31.8371 32.8886 30.6129C33.3208 29.9902 33.2718 29.0821 33.22 28.1207C33.1933 27.6252 33.1657 27.1137 33.2146 26.6885C33.3032 26.6012 33.5252 26.4489 33.6643 26.3533C34.143 26.0245 34.5951 25.7141 34.5951 25.2421C34.5953 24.8833 34.3783 24.41 34.0243 23.6674ZM15.241 18.413C14.2429 17.8016 13.647 16.7387 13.647 15.5697C13.647 13.7326 15.1417 12.238 16.9788 12.238C18.8159 12.238 20.3105 13.7326 20.3105 15.5697C20.3105 16.7387 19.7147 17.8016 18.7165 18.4131C18.2422 18.7038 17.9603 19.0429 17.8265 19.501L16.9786 19.5007L16.1312 19.501C15.9973 19.0429 15.7154 18.7038 15.241 18.413ZM17.7412 20.5167V21.2594H16.2164V20.5167H17.7412ZM16.2288 23.0176C16.2232 23.0176 16.2164 23.0106 16.2164 23.0049V22.275H17.7412V23.0049C17.7412 23.0106 17.7344 23.0176 17.7286 23.0176H16.2288ZM33.0895 25.516C32.6524 25.8162 32.2749 26.0754 32.2193 26.4677C32.1428 27.0057 32.1749 27.6003 32.2059 28.1753C32.2444 28.8886 32.2879 29.6971 32.0543 30.0337C31.5491 30.7615 31.112 30.7686 29.5209 30.6802C28.9959 30.6511 28.3445 30.6149 27.5722 30.6138C27.2756 30.5789 26.7737 30.6345 26.4388 31.2856C26.2687 31.6162 26.1773 32.0316 26.0967 32.3981C26.0561 32.5823 25.9992 32.8411 25.9459 32.9843H19.5894C19.6117 32.9282 19.6346 32.8703 19.6582 32.811C20.3897 30.969 20.8531 29.6181 20.1478 29.0084C18.653 27.7155 17.6998 25.9649 17.4264 24.0332H17.7287C18.2957 24.0332 18.7569 23.5719 18.7569 23.0049V21.7672V20.0344C18.787 19.7081 18.8717 19.5092 19.2473 19.279C20.4493 18.5426 21.2035 17.3037 21.3121 15.9174C22.5584 15.1768 23.9801 14.7861 25.4408 14.7861C27.8604 14.7861 30.684 16.2826 32.0086 18.267C32.5763 19.1175 33.1247 20.4406 32.5129 21.9137C32.3136 22.3934 32.6091 23.0588 33.1075 24.1045C33.2689 24.443 33.5025 24.933 33.5644 25.1619C33.4594 25.262 33.2339 25.4169 33.0895 25.516Z" fill="#548088"/>
<path d="M19.4697 14.8523C19.3198 14.2965 18.947 13.8513 18.3916 13.5647C18.1424 13.4363 17.8361 13.534 17.7075 13.7834C17.5789 14.0326 17.6767 14.3389 17.926 14.4674C18.2292 14.6238 18.4135 14.8363 18.4891 15.1168C18.6089 15.5608 18.4277 16.0412 18.3482 16.166C18.1975 16.4025 18.267 16.7165 18.5035 16.8672C18.5881 16.9212 18.6826 16.9469 18.7759 16.9469C18.9437 16.9469 19.1078 16.8639 19.2046 16.712C19.4212 16.3723 19.6706 15.5966 19.4697 14.8523Z" fill="#548088"/>
<path d="M16.979 8C16.6985 8 16.4712 8.22745 16.4712 8.50781V9.95548C16.4712 10.2358 16.6985 10.4633 16.979 10.4633C17.2594 10.4633 17.4868 10.2358 17.4868 9.95548V8.50781C17.4868 8.22745 17.2594 8 16.979 8Z" fill="#548088"/>
<path d="M11.3446 15.0822H9.89697C9.61651 15.0822 9.38916 15.3096 9.38916 15.59C9.38916 15.8705 9.61651 16.0978 9.89697 16.0978H11.3447C11.6251 16.0978 11.8524 15.8705 11.8524 15.59C11.8524 15.3096 11.625 15.0822 11.3446 15.0822Z" fill="#548088"/>
<path d="M14.6015 10.4559L13.8778 9.20274C13.7376 8.95985 13.427 8.87673 13.1841 9.01688C12.9413 9.15714 12.8581 9.46767 12.9983 9.71055L13.7219 10.9637C13.816 11.1267 13.9867 11.2177 14.1622 11.2177C14.2483 11.2177 14.3357 11.1958 14.4156 11.1496C14.6585 11.0093 14.7417 10.6988 14.6015 10.4559Z" fill="#548088"/>
<path d="M12.3525 12.3329L11.0992 11.6093C10.8564 11.4691 10.5457 11.5523 10.4055 11.7951C10.2653 12.038 10.3485 12.3485 10.5914 12.4888L11.8447 13.2124C11.9247 13.2586 12.012 13.2806 12.0981 13.2806C12.2736 13.2806 12.4443 13.1895 12.5384 13.0266C12.6786 12.7838 12.5954 12.4732 12.3525 12.3329Z" fill="#548088"/>
<path d="M23.5526 11.7951C23.4122 11.5522 23.1017 11.469 22.8589 11.6092L21.6056 12.3328C21.3627 12.4731 21.2794 12.7837 21.4197 13.0265C21.5137 13.1895 21.6844 13.2805 21.8599 13.2805C21.946 13.2805 22.0334 13.2586 22.1134 13.2124L23.3667 12.4887C23.6096 12.3485 23.6928 12.038 23.5526 11.7951Z" fill="#548088"/>
<path d="M12.5386 18.1535C12.3985 17.9106 12.088 17.8275 11.8451 17.9676L10.5914 18.6912C10.3486 18.8313 10.2653 19.142 10.4055 19.3849C10.4995 19.5478 10.6703 19.6389 10.8458 19.6389C10.9319 19.6389 11.0192 19.6169 11.0992 19.5708L12.3527 18.8472C12.5956 18.707 12.6789 18.3964 12.5386 18.1535Z" fill="#548088"/>
<path d="M14.3112 20.2112C14.0684 20.071 13.7578 20.1542 13.6175 20.397L12.9983 21.4697C12.8581 21.7126 12.9413 22.0232 13.1842 22.1633C13.2642 22.2096 13.3515 22.2315 13.4376 22.2315C13.6131 22.2315 13.7838 22.1404 13.8779 21.9775L14.4971 20.9048C14.6373 20.6619 14.5541 20.3514 14.3112 20.2112Z" fill="#548088"/>
<path d="M20.774 9.0169C20.5311 8.87664 20.2206 8.95987 20.0804 9.20276L19.3567 10.4559C19.2165 10.6988 19.2996 11.0094 19.5425 11.1496C19.6225 11.1958 19.7099 11.2177 19.796 11.2177C19.9715 11.2177 20.1422 11.1267 20.2363 10.9637L20.9599 9.71057C21.1001 9.46768 21.0169 9.15715 20.774 9.0169Z" fill="#548088"/>
</g>
<defs>
<clipPath id="clip0_1040_19456">
<rect width="26" height="26" fill="white" transform="translate(8.99219 8)"/>
</clipPath>
</defs>
</svg>
