<svg width="43" height="42" viewBox="0 0 43 42" fill="none" xmlns="http://www.w3.org/2000/svg">
<circle cx="21.9922" cy="21" r="21" fill="#EDF4F6"/>
<g clip-path="url(#clip0_1040_19440)">
<path d="M33.1376 23.2419C33.1275 23.2167 33.1124 23.1966 33.0973 23.1764C32.4471 22.375 31.2727 22.254 30.4662 22.9042C29.4582 23.7258 27.9914 24.9103 27.0388 25.6814C26.3684 26.2208 25.5418 26.5282 24.6799 26.5585L22.0993 26.6441C21.9934 26.6492 21.8977 26.5937 21.8422 26.5081L21.5549 26.0141C21.5045 25.9335 21.4995 25.8377 21.5398 25.752C21.5801 25.6663 21.6557 25.6058 21.7465 25.5907L24.4128 25.0867C25.3503 24.9103 26.0055 24.0232 25.8997 23.0605C25.7989 22.1331 25.0126 21.4375 24.0852 21.4375C24.06 21.4375 24.0297 21.4375 23.9945 21.4375L20.4309 21.2913C19.0096 21.2409 17.7898 21.5131 16.3634 22.2036L14.4985 23.1058C14.2364 22.5615 13.687 22.2137 13.0822 22.2137H11.0207C10.1588 22.2087 9.45817 22.9042 9.45312 23.7661V31.4425C9.45817 32.3044 10.1588 33 11.0207 33H13.0822C13.9441 33 14.6396 32.3044 14.6447 31.4425V30.9234L16.6255 30.5605C17.2656 30.4647 17.6688 30.4294 18.3493 30.4597L23.7676 30.7117C25.7182 30.7974 27.6285 30.1522 29.1255 28.9022L32.8805 25.7873L32.8856 25.7822C33.6366 25.1421 33.7475 24.0181 33.1376 23.2419ZM13.6366 31.4425C13.6366 31.745 13.3896 31.9919 13.0872 31.9919H11.0106C10.7082 31.9919 10.4612 31.745 10.4612 31.4425V23.7712C10.4612 23.4687 10.7082 23.2218 11.0106 23.2218H13.0872C13.3896 23.2218 13.6366 23.4687 13.6366 23.7712V31.4425ZM32.2354 25.0111L28.4854 28.121C27.1799 29.2097 25.5116 29.7691 23.813 29.6986L18.3947 29.4466C17.6336 29.4113 17.1699 29.4566 16.4693 29.5575C16.4642 29.5575 16.4592 29.5575 16.4541 29.5625L14.6447 29.8952V24.1492L16.8019 23.1058C18.0721 22.4909 19.1457 22.249 20.3906 22.2943L23.9793 22.4405C23.9995 22.4405 24.0247 22.4405 24.0449 22.4405C24.0499 22.4405 24.0701 22.4405 24.0852 22.4405C24.4985 22.4456 24.8513 22.753 24.9017 23.1663C24.9521 23.5998 24.6598 24.003 24.2313 24.0887L21.565 24.5927C20.8644 24.7238 20.4057 25.4042 20.5368 26.1048C20.567 26.251 20.6174 26.3921 20.693 26.5181L20.9803 27.007C21.2223 27.4153 21.6658 27.6573 22.1396 27.6421L24.7203 27.5564C25.7989 27.5161 26.8372 27.128 27.6789 26.4577C28.6315 25.6865 30.1033 24.502 31.1114 23.6804C31.4743 23.3982 31.9934 23.4435 32.3009 23.7863C32.311 23.8064 32.3261 23.8266 32.3412 23.8468C32.6285 24.1945 32.5832 24.7187 32.2354 25.0111Z" fill="#548088"/>
<path d="M25.4966 8C21.8625 8 18.9038 10.9587 18.9038 14.5927C18.9038 18.2268 21.8625 21.1905 25.4966 21.1905C29.1306 21.1905 32.0893 18.2319 32.0893 14.5978C32.0893 10.9637 29.1306 8 25.4966 8ZM25.5016 20.1825C22.4169 20.1825 19.9119 17.6825 19.9119 14.5978C19.9119 14.5978 19.9119 14.5978 19.9119 14.5927C19.9169 11.5131 22.4119 9.0131 25.4966 9.00806C28.5812 9.00806 31.0863 11.5081 31.0863 14.5927C31.0863 17.6774 28.5863 20.1825 25.5016 20.1825Z" fill="#548088"/>
<path d="M27.4676 13.0403H26.7922C26.7368 12.7883 26.641 12.5514 26.4999 12.3347H27.4676C27.7448 12.3347 27.9717 12.1078 27.9717 11.8306C27.9717 11.5534 27.7448 11.3266 27.4676 11.3266H23.5261C23.2489 11.3266 23.0221 11.5534 23.0221 11.8306C23.0221 12.1078 23.2489 12.3347 23.5261 12.3347H24.6551C25.1289 12.3347 25.5422 12.6371 25.7287 13.0403H23.5261C23.2489 13.0403 23.0221 13.2671 23.0221 13.5443C23.0221 13.8216 23.2489 14.0484 23.5261 14.0484H25.7287C25.6632 14.1643 25.5876 14.2701 25.4969 14.3659C25.27 14.5877 24.9676 14.7087 24.6551 14.7036H23.5261C23.2438 14.7087 23.017 14.9355 23.0221 15.2177C23.0221 15.3538 23.0825 15.4849 23.1783 15.5806L25.9958 18.247C26.1975 18.4385 26.515 18.4284 26.7065 18.2268C26.8981 18.0252 26.888 17.7076 26.6864 17.5161L24.7862 15.7167C25.3204 15.6865 25.8245 15.4647 26.2025 15.0867C26.4898 14.7994 26.6914 14.4415 26.7922 14.0484H27.4676C27.7448 14.0484 27.9717 13.8216 27.9717 13.5443C27.9717 13.2671 27.7448 13.0403 27.4676 13.0403Z" fill="#548088"/>
</g>
<defs>
<clipPath id="clip0_1040_19440">
<rect width="25" height="25" fill="white" transform="translate(8.99219 8)"/>
</clipPath>
</defs>
</svg>
