<svg width="43" height="42" viewBox="0 0 43 42" fill="none" xmlns="http://www.w3.org/2000/svg">
<circle cx="21.9922" cy="21" r="21" fill="#EDF4F6"/>
<path d="M11.2732 21C11.2964 20.9999 11.3196 20.9984 11.3426 20.9954C15.0921 20.4866 18.749 19.4417 22.2012 17.8926C25.6875 16.324 28.9266 14.2559 31.8165 11.7533L31.1948 14.241C31.162 14.3723 31.1827 14.5111 31.2523 14.6271C31.3219 14.7431 31.4346 14.8268 31.5658 14.8597C31.6064 14.8697 31.6481 14.8748 31.6899 14.875C31.8036 14.8748 31.9141 14.8367 32.0037 14.7666C32.0933 14.6965 32.1569 14.5985 32.1845 14.4881L33.2053 10.4048C33.2241 10.3296 33.2254 10.2511 33.2094 10.1753C33.1933 10.0995 33.1601 10.0284 33.1125 9.96726C33.0648 9.90616 33.0039 9.85673 32.9343 9.82269C32.8646 9.78865 32.7882 9.77091 32.7107 9.77081H28.6274C28.492 9.77081 28.3622 9.82459 28.2665 9.92031C28.1707 10.016 28.117 10.1459 28.117 10.2812C28.117 10.4166 28.1707 10.5464 28.2665 10.6421C28.3622 10.7379 28.492 10.7916 28.6274 10.7916H31.3678C28.4977 13.3139 25.267 15.3935 21.7827 16.9616C18.4196 18.4706 14.857 19.4884 11.2043 19.9837C11.076 20.0011 10.959 20.0665 10.8772 20.1669C10.7953 20.2672 10.7546 20.3949 10.7634 20.5241C10.7721 20.6533 10.8297 20.7743 10.9243 20.8627C11.019 20.9511 11.1437 21.0001 11.2732 21Z" fill="#548088"/>
<path d="M32.7106 31.2083H32.2002V17.427C32.2002 17.2917 32.1464 17.1618 32.0507 17.0661C31.955 16.9704 31.8251 16.9166 31.6898 16.9166H26.5856C26.4502 16.9166 26.3204 16.9704 26.2247 17.0661C26.129 17.1618 26.0752 17.2917 26.0752 17.427V31.2083H25.0544V20.4895C25.0544 20.3542 25.0006 20.2243 24.9049 20.1286C24.8091 20.0329 24.6793 19.9791 24.5439 19.9791H19.4398C19.3044 19.9791 19.1746 20.0329 19.0789 20.1286C18.9831 20.2243 18.9294 20.3542 18.9294 20.4895V31.2083H17.9085V23.552C17.9085 23.4167 17.8548 23.2868 17.759 23.1911C17.6633 23.0954 17.5335 23.0416 17.3981 23.0416H12.2939C12.1586 23.0416 12.0287 23.0954 11.933 23.1911C11.8373 23.2868 11.7835 23.4167 11.7835 23.552V31.2083H11.2731C11.1377 31.2083 11.0079 31.2621 10.9122 31.3578C10.8165 31.4535 10.7627 31.5833 10.7627 31.7187C10.7627 31.8541 10.8165 31.9839 10.9122 32.0796C11.0079 32.1754 11.1377 32.2291 11.2731 32.2291H32.7106C32.846 32.2291 32.9758 32.1754 33.0715 32.0796C33.1673 31.9839 33.221 31.8541 33.221 31.7187C33.221 31.5833 33.1673 31.4535 33.0715 31.3578C32.9758 31.2621 32.846 31.2083 32.7106 31.2083ZM27.096 17.9375H31.1794V31.2083H27.096V17.9375ZM19.9502 21H24.0335V31.2083H19.9502V21ZM12.8044 24.0625H16.8877V31.2083H12.8044V24.0625Z" fill="#548088"/>
</svg>
