<svg width="32" height="32" viewBox="0 0 32 32" fill="none" xmlns="http://www.w3.org/2000/svg">
<g clip-path="url(#clip0_1670_3699)">
<path d="M13.6537 4.27852C14.5701 4.66088 15.3966 5.23036 16.0803 5.95052C16.775 5.26753 17.5913 4.72036 18.487 4.33719C19.8163 3.78652 21.3403 3.68786 22.667 4.45319C23.9923 5.21852 24.671 6.58919 24.859 8.01452C24.979 8.93186 24.9097 9.91852 24.663 10.9079C25.6284 11.1386 26.5349 11.5687 27.3243 12.1705C28.4977 13.0825 29.3337 14.4212 29.3337 15.9999C29.3337 17.5705 28.507 18.9039 27.343 19.8132C26.58 20.4008 25.7054 20.8268 24.7723 21.0652C25.035 22.0265 25.1057 23.0025 24.975 23.9159C24.767 25.3785 24.0283 26.7612 22.6683 27.5465C21.299 28.3372 19.7217 28.2799 18.347 27.7212C17.4309 27.3388 16.6049 26.7693 15.9217 26.0492C15.1883 26.7559 14.3683 27.3105 13.5137 27.6625C12.1843 28.2132 10.6603 28.3119 9.33366 27.5465C8.00833 26.7812 7.33099 25.4105 7.14166 23.9852C7.026 23.017 7.09247 22.0356 7.33766 21.0919C6.37231 20.8609 5.46584 20.4308 4.67633 19.8292C3.50299 18.9172 2.66699 17.5785 2.66699 15.9999C2.66699 14.4292 3.49366 13.0972 4.65766 12.1865C5.42009 11.5986 6.29431 11.1721 7.22699 10.9332C6.96659 10.0066 6.89763 9.03665 7.02433 8.08252C7.23366 6.62119 7.97233 5.23852 9.33366 4.45319C10.7017 3.66386 12.279 3.71986 13.6537 4.27852ZM16.0003 10.6665C14.5858 10.6665 13.2293 11.2284 12.2291 12.2286C11.2289 13.2288 10.667 14.5854 10.667 15.9999C10.667 17.4143 11.2289 18.7709 12.2291 19.7711C13.2293 20.7713 14.5858 21.3332 16.0003 21.3332C17.4148 21.3332 18.7714 20.7713 19.7716 19.7711C20.7718 18.7709 21.3337 17.4143 21.3337 15.9999C21.3337 14.5854 20.7718 13.2288 19.7716 12.2286C18.7714 11.2284 17.4148 10.6665 16.0003 10.6665ZM16.0003 13.3332C16.7076 13.3332 17.3858 13.6141 17.8859 14.1142C18.386 14.6143 18.667 15.2926 18.667 15.9999C18.667 16.7071 18.386 17.3854 17.8859 17.8855C17.3858 18.3856 16.7076 18.6665 16.0003 18.6665C15.2931 18.6665 14.6148 18.3856 14.1147 17.8855C13.6146 17.3854 13.3337 16.7071 13.3337 15.9999C13.3337 15.2926 13.6146 14.6143 14.1147 14.1142C14.6148 13.6141 15.2931 13.3332 16.0003 13.3332Z" fill="#C8A26B"/>
</g>
<defs>
<clipPath id="clip0_1670_3699">
<rect width="32" height="32" fill="white"/>
</clipPath>
</defs>
</svg>
