<svg width="24" height="24" viewBox="0 0 24 24" fill="none" xmlns="http://www.w3.org/2000/svg">
<path d="M22.1704 9.86631C22.3338 9.4896 22.3539 9.06614 22.2268 8.67567C22.0997 8.28521 21.8343 7.95467 21.4804 7.74631L19.5604 6.60631C19.5376 6.59406 19.5177 6.57698 19.5022 6.55625C19.4866 6.53553 19.4758 6.51166 19.4704 6.48631L18.9704 4.29631C18.8796 3.89716 18.6472 3.54446 18.3162 3.30358C17.9852 3.06271 17.5782 2.94998 17.1704 2.98631L14.9404 3.18631C14.9156 3.19218 14.8897 3.19158 14.8652 3.18458C14.8407 3.17757 14.8184 3.1644 14.8004 3.14631L13.1104 1.66631C12.8018 1.40026 12.4079 1.25391 12.0004 1.25391C11.5929 1.25391 11.199 1.40026 10.8904 1.66631L9.20042 3.14631C9.18245 3.1644 9.16015 3.17757 9.13563 3.18458C9.11112 3.19158 9.08523 3.19218 9.06042 3.18631L6.83042 2.98631C6.42176 2.94819 6.01326 3.06071 5.68177 3.3027C5.35027 3.54469 5.11863 3.89948 5.03042 4.30031L4.53042 6.49031C4.52505 6.51566 4.51422 6.53953 4.49867 6.56026C4.48313 6.58098 4.46325 6.59806 4.44042 6.61031L2.52042 7.74631C2.16658 7.95467 1.90112 8.28521 1.77404 8.67567C1.64695 9.06614 1.667 9.4896 1.83042 9.86631L2.72042 11.9263C2.73988 11.9744 2.73988 12.0282 2.72042 12.0763L1.83042 14.1363C1.66782 14.5116 1.64823 14.9334 1.77535 15.3221C1.90247 15.7109 2.1675 16.0396 2.52042 16.2463L4.45042 17.4003C4.49108 17.429 4.5196 17.4718 4.53042 17.5203L5.03042 19.7103C5.11947 20.1104 5.35146 20.4643 5.68287 20.7054C6.01428 20.9466 6.42232 21.0586 6.83042 21.0203L9.06042 20.8103C9.08593 20.8086 9.11152 20.8122 9.1356 20.8208C9.15968 20.8294 9.18174 20.8428 9.20042 20.8603L10.8904 22.3403C11.1998 22.6048 11.5934 22.7502 12.0004 22.7502C12.4074 22.7502 12.8011 22.6048 13.1104 22.3403L14.8004 20.8603C14.8191 20.8428 14.8412 20.8294 14.8652 20.8208C14.8893 20.8122 14.9149 20.8086 14.9404 20.8103L17.1704 21.0203C17.5785 21.0586 17.9865 20.9466 18.318 20.7054C18.6494 20.4643 18.8814 20.1104 18.9704 19.7103L19.4704 17.5203C19.4758 17.495 19.4866 17.4711 19.5022 17.4504C19.5177 17.4296 19.5376 17.4126 19.5604 17.4003L21.4804 16.2503C21.8333 16.0436 22.0984 15.7149 22.2255 15.3261C22.3526 14.9374 22.333 14.5156 22.1704 14.1403L21.2804 12.0803C21.261 12.0322 21.261 11.9784 21.2804 11.9303L22.1704 9.86631ZM16.4904 9.98631L11.5304 15.0663C11.385 15.2057 11.1919 15.2844 10.9904 15.2863C10.8326 15.2878 10.6784 15.2387 10.5504 15.1463L7.61042 13.0463C7.44863 12.9296 7.33984 12.7534 7.30795 12.5565C7.27607 12.3596 7.32372 12.1581 7.44042 11.9963C7.55711 11.8345 7.73329 11.7257 7.93021 11.6938C8.12712 11.662 8.32863 11.7096 8.49042 11.8263L10.9004 13.5563L15.4204 8.93631C15.489 8.86551 15.571 8.80903 15.6617 8.77016C15.7523 8.73129 15.8497 8.7108 15.9483 8.70987C16.0469 8.70894 16.1447 8.72759 16.2361 8.76474C16.3274 8.8019 16.4105 8.85682 16.4804 8.92631C16.6212 9.06613 16.7013 9.25583 16.7031 9.45426C16.705 9.65269 16.6286 9.84386 16.4904 9.98631Z" fill="white"/>
</svg>
