<svg width="41" height="47" viewBox="0 0 41 47" fill="none" xmlns="http://www.w3.org/2000/svg">
<g id="Group">
<path id="Vector" d="M10.7272 32.9172C16.8467 31.2205 20.7885 31.7924 25.9451 35.1531C27.718 36.3028 30.087 34.6071 29.5858 32.5472C28.1421 26.541 28.891 22.5995 32.505 17.3293C33.7418 15.5175 32.1354 13.2378 30.0363 13.8257C23.9168 15.5225 19.9749 14.9505 14.8184 11.5898C13.0454 10.4402 10.6765 12.1358 11.1777 14.1958C12.6214 20.2019 11.8724 24.1434 8.25844 29.4137C7.00776 31.2234 8.61413 33.5031 10.7272 32.9172Z" fill="#83D0BA"/>
<path id="Vector_2" d="M10.7272 32.9172C16.8467 31.2205 20.7885 31.7924 25.9451 35.1531C27.718 36.3028 30.087 34.6071 29.5858 32.5472C28.1421 26.541 28.891 22.5995 32.505 17.3293C33.7418 15.5175 32.1354 13.2378 30.0363 13.8257C23.9168 15.5225 19.9749 14.9505 14.8184 11.5898C13.0454 10.4402 10.6765 12.1358 11.1777 14.1958C12.6214 20.2019 11.8724 24.1434 8.25844 29.4137C7.00776 31.2234 8.61413 33.5031 10.7272 32.9172Z" stroke="#231F20" stroke-width="2" stroke-miterlimit="10"/>
</g>
</svg>
