<svg width="51" height="51" viewBox="0 0 51 51" fill="none" xmlns="http://www.w3.org/2000/svg">
<g id="Group">
<path id="Vector" d="M25.5 50C39.031 50 50 39.031 50 25.5C50 11.969 39.031 1 25.5 1C11.969 1 1 11.969 1 25.5C1 39.031 11.969 50 25.5 50Z" fill="#ED6160"/>
<path id="Vector_2" d="M25.5 50C39.031 50 50 39.031 50 25.5C50 11.969 39.031 1 25.5 1C11.969 1 1 11.969 1 25.5C1 39.031 11.969 50 25.5 50Z" stroke="#352A25" stroke-miterlimit="10"/>
<path id="Vector_3" d="M33.2646 25.6166L25.6639 33.8729L17.8343 25.8331C15.2739 23.2015 16.2788 18.8044 19.7298 17.552C21.9253 16.7542 24.1796 17.5675 25.4567 19.2094C26.6874 17.5334 28.9169 16.6552 31.1341 17.3912C34.6222 18.5477 35.7508 22.9171 33.2646 25.6166Z" fill="white"/>
<path id="Vector_4" d="M33.2646 25.6166L25.6639 33.8729L17.8343 25.8331C15.2739 23.2015 16.2788 18.8044 19.7298 17.552C21.9253 16.7542 24.1796 17.5675 25.4567 19.2094C26.6874 17.5334 28.9169 16.6552 31.1341 17.3912C34.6222 18.5477 35.7508 22.9171 33.2646 25.6166Z" stroke="#352A25" stroke-miterlimit="10"/>
</g>
</svg>
