<svg width="80" height="80" viewBox="0 0 80 80" fill="none" xmlns="http://www.w3.org/2000/svg">
<circle cx="40" cy="40" r="40" fill="#C8A26B"/>
<path d="M55.75 40.0007C55.7509 40.3827 55.653 40.7584 55.4657 41.0913C55.2784 41.4242 55.0082 41.703 54.6812 41.9005L34.42 54.2952C34.0784 54.5044 33.6872 54.6186 33.2867 54.626C32.8862 54.6334 32.491 54.5338 32.1419 54.3374C31.7961 54.1441 31.508 53.8621 31.3074 53.5206C31.1067 53.179 31.0006 52.7901 31 52.394V27.6074C31.0006 27.2113 31.1067 26.8224 31.3074 26.4808C31.508 26.1393 31.7961 25.8573 32.1419 25.664C32.491 25.4676 32.8862 25.368 33.2867 25.3754C33.6872 25.3828 34.0784 25.497 34.42 25.7062L54.6812 38.1009C55.0082 38.2984 55.2784 38.5772 55.4657 38.9101C55.653 39.243 55.7509 39.6187 55.75 40.0007Z" fill="white"/>
</svg>
