<svg width="60" height="60" viewBox="0 0 60 60" fill="none" xmlns="http://www.w3.org/2000/svg">
<path d="M5.91855 19.8956H9.41121C9.38156 20.289 9.25102 19.6503 11.7616 29.2534C12.95 29.0349 14.1647 28.9786 15.3499 29.0788L12.9504 19.8957H16.4798C17.451 19.8957 18.2382 19.1084 18.2382 18.1373C18.2382 17.1662 17.451 16.3789 16.4798 16.3789H5.91855C4.94742 16.3789 4.16016 17.1662 4.16016 18.1373C4.16016 19.1083 4.94742 19.8956 5.91855 19.8956Z" fill="black"/>
<path d="M57.5113 56.0352H2.48848C2.06227 56.0352 1.7168 56.3806 1.7168 56.8068V59.2269C1.7168 59.6531 2.06227 59.9986 2.48848 59.9986H57.5113C57.9375 59.9986 58.283 59.6531 58.283 59.2269V56.8068C58.283 56.3806 57.9375 56.0352 57.5113 56.0352Z" fill="black"/>
<path d="M49.2264 38.4402C49.0933 38.4327 50.9823 38.7538 15.9741 32.6997C15.82 32.6223 11.4278 31.7715 7.68037 34.9433C5.43787 36.8412 4.16357 39.6042 4.18583 42.5231C4.22638 48.041 8.8179 52.5213 14.4092 52.5213C14.6374 52.5213 48.6817 52.5233 48.8489 52.5178C52.66 52.4077 55.7652 49.3316 55.8144 45.5676C55.8625 41.8104 52.9694 38.6805 49.2264 38.4402ZM29.2522 44.3261H20.6197C19.8847 46.4983 17.8274 48.0667 15.4102 48.0667C12.3788 48.0667 9.91232 45.6003 9.91232 42.5677C9.91232 39.5363 12.3788 37.0698 15.4102 37.0698C17.8274 37.0698 19.8847 38.6371 20.6197 40.8094H29.2522C30.2229 40.8094 31.0106 41.5971 31.0106 42.5678C31.0106 43.5395 30.2229 44.3261 29.2522 44.3261Z" fill="black"/>
<path d="M34.5499 14.1951C35.3995 14.6642 36.4706 14.3555 36.939 13.5046L38.3352 10.9749C39.1372 9.52132 38.8467 9.6971 40.566 9.6971H42.5811V33.7342C44.7428 34.1075 43.9408 33.9687 46.0979 34.3427V9.6971H46.9032C49.8491 9.6971 52.6262 8.13218 54.1524 5.61183L55.9331 2.66949C56.436 1.83839 56.1699 0.757572 55.3387 0.254603C54.5088 -0.248249 53.4268 0.016595 52.9239 0.847806C51.0678 3.91331 51.3337 3.47374 51.1432 3.79015C50.2918 5.19757 48.7708 6.18042 46.7074 6.18042H39.4769C37.9273 6.18042 36.4983 7.02441 35.7492 8.38191L33.8596 11.8061C33.3906 12.6559 33.6999 13.7261 34.5499 14.1951Z" fill="black"/>
<path d="M15.4109 40.5898C14.3183 40.5898 13.4297 41.4785 13.4297 42.571C13.4297 44.1171 15.1264 45.0596 16.4295 44.2696C18.1529 43.2328 17.4042 40.5898 15.4109 40.5898Z" fill="black"/>
</svg>
