<svg width="60" height="60" viewBox="0 0 60 60" fill="none" xmlns="http://www.w3.org/2000/svg">
<path d="M59.935 29.0585C59.5633 27.7258 58.7026 26.5593 57.4957 25.8126C55.8519 24.7973 53.7991 24.7051 52.0711 25.5691L51.6273 25.7909L51.6275 27.6044C51.6275 30.4627 50.9475 33.2667 49.6543 35.7983L59.0261 31.1123C59.7825 30.7344 60.1623 29.8728 59.935 29.0585Z" fill="black"/>
<path d="M45.8524 12.8339C43.3379 13.57 41.3369 15.5055 40.5078 17.9785L42.0642 19.5348C43.06 20.5304 43.6084 21.8545 43.6084 23.2632V38.1055C46.4386 35.4093 48.1113 31.6339 48.1113 27.6029L48.11 14.5246C48.1099 13.3491 46.9804 12.5035 45.8524 12.8339Z" fill="black"/>
<path d="M28.4181 10.8618C28.1059 10.5498 27.7138 10.384 27.3158 10.3527C28.5798 13.7798 28.202 17.6068 26.3341 20.7149C26.5427 20.9805 26.7659 21.2361 27.0071 21.4774L32.0743 26.5447V34.5633L22.0512 38.5726L17.3292 29.1297C16.5574 27.5861 16.8601 25.7218 18.0799 24.502L22.0512 20.5298C24.8255 17.7563 25.2826 13.5432 23.4227 10.2952C22.8431 9.2831 21.4665 9.08833 20.6416 9.9131L9.67852 20.8758C6.04816 24.5062 4.00934 29.4296 4.00934 34.5624V34.5635H1.75781C0.787031 34.5635 0 35.3505 0 36.3213V48.8429C0 49.8137 0.787031 50.6007 1.75781 50.6007H19.2165C19.7623 50.6007 20.3006 50.4737 20.7888 50.2296L39.1213 41.0633C39.7168 40.7655 40.093 40.1568 40.093 39.4911V23.2634C40.093 22.7972 39.9083 22.3507 39.5787 22.021L28.4181 10.8618Z" fill="black"/>
</svg>
