<svg width="60" height="60" viewBox="0 0 60 60" fill="none" xmlns="http://www.w3.org/2000/svg">
<path d="M52.7344 37.2241H50.9909C50.4339 37.2241 49.9105 36.9575 49.5829 36.5067L39.8148 23.0694C39.0341 22.0471 37.8219 21.4474 36.5363 21.4474H34.3886C33.9247 21.4474 33.5485 21.071 33.5485 20.6066V18.6148C33.5485 18.2216 33.7495 17.8579 34.0778 17.6419C36.12 16.2993 37.4606 13.9752 37.4299 11.3398C37.3825 7.28141 34.0285 3.98148 29.9732 4.00008C25.89 4.01888 22.5857 7.3375 22.5857 11.4286C22.5857 14.0262 23.9178 16.3124 25.9356 17.6402C26.2649 17.8568 26.4675 18.2206 26.4675 18.6151V20.6066C26.4675 21.0709 26.0914 21.4474 25.6274 21.4474H22.9101C21.6245 21.4474 20.4123 22.0471 19.6316 23.0694L9.87898 36.6144C9.55175 37.069 9.02612 37.3383 8.46627 37.3383H7.26546C5.46205 37.3382 4 38.8015 4 40.6066C4 42.4116 5.46195 43.8748 7.26546 43.8748H10.4733C8.49419 44.9814 7.15509 47.0976 7.15509 49.5278C7.15509 53.1023 10.0504 56 13.6218 56H41.0178L19.4962 44.0651C17.7853 43.4011 15.9629 43.0556 14.1183 43.0556H13.9915C14.2443 42.8534 14.4734 42.6185 14.6695 42.352L20.8704 33.1107V41.2563C20.9004 41.2705 20.9307 41.284 20.9602 41.3003L30.073 46.3553L38.5761 41.2499V33.1107L44.7927 42.2377C44.9978 42.5165 45.2387 42.7608 45.5052 42.9688C43.1542 43.0039 40.6715 43.6504 38.5761 44.8153V44.8049L33.1506 48.0625L47.0752 55.7865C50.048 55.2033 52.2914 52.5825 52.2914 49.4364V49.4053C52.2914 46.9641 50.9404 44.8538 48.9464 43.7607H52.7345C54.538 43.7607 56 42.2975 56 40.4925C56 38.6873 54.5379 37.2241 52.7344 37.2241Z" fill="black"/>
</svg>
