<svg width="60" height="60" viewBox="0 0 60 60" fill="none" xmlns="http://www.w3.org/2000/svg">
<g clip-path="url(#clip0_2125_3789)">
<path d="M59.9079 53.2402L50.7025 23.8905C50.3706 22.8324 49.2427 22.2422 48.1836 22.5745L44.7322 23.657L43.2862 19.0469C42.5867 20.3965 41.6766 21.6454 40.571 22.7511C40.4865 22.8355 40.4 22.9173 40.3137 22.9996L40.8972 24.86L37.4458 25.9425C36.3868 26.2746 35.7976 27.4025 36.1298 28.4615L45.3352 57.8112C45.6681 58.8726 46.7985 59.4584 47.8542 59.1272L58.5921 55.7594C59.6507 55.427 60.2399 54.2992 59.9079 53.2402Z" fill="black"/>
<path d="M29.9277 0.777344C23.6416 0.777344 18.546 5.87313 18.546 12.1591C18.546 12.4711 18.5591 12.78 18.5837 13.0858L15.2681 23.6567L11.8167 22.5741C10.757 22.2418 9.62941 22.8327 9.29776 23.8901L0.092569 53.2401C-0.239423 54.2984 0.349796 55.427 1.40858 55.759L12.1465 59.127C13.2005 59.4577 14.3319 58.8742 14.6654 57.8109L23.8707 28.4611C24.2028 27.4021 23.6136 26.2743 22.5547 25.9422L19.1033 24.8596L20.9092 19.1018C22.9903 21.8014 26.2557 23.5409 29.9277 23.5409C36.2135 23.5409 41.3094 18.4451 41.3094 12.1592C41.3094 5.87324 36.2137 0.777344 29.9277 0.777344ZM29.9896 19.1194C26.1482 19.1194 23.023 15.9941 23.023 12.1529C23.023 8.31156 26.148 5.18629 29.9896 5.18629C33.831 5.18629 36.9561 8.31156 36.9561 12.1529C36.9561 15.9941 33.831 19.1194 29.9896 19.1194Z" fill="black"/>
</g>
<defs>
<clipPath id="clip0_2125_3789">
<rect width="60" height="60" fill="white"/>
</clipPath>
</defs>
</svg>
