<svg width="60" height="60" viewBox="0 0 60 60" fill="none" xmlns="http://www.w3.org/2000/svg">
<g clip-path="url(#clip0_2125_3769)">
<path d="M59.4841 43.4812C58.6376 42.6346 57.7353 41.869 56.7829 41.1836C54.7536 43.5272 52.371 45.497 49.6846 47.0478C45.5235 49.4507 40.7909 50.7336 35.9883 50.7639C38.5385 51.7923 41.288 52.3319 44.1206 52.3319C49.9242 52.3319 55.3805 50.0718 59.4843 45.968C59.8139 45.6384 59.9992 45.1913 59.9992 44.7251C59.9991 44.2589 59.8138 43.8109 59.4841 43.4812Z" fill="#0F1D30"/>
<path d="M3.21621 41.1836C2.26371 41.8691 1.36148 42.6347 0.514922 43.4812C0.185273 43.8109 0 44.2589 0 44.7251C0 45.1913 0.185273 45.6384 0.514922 45.968C4.61871 50.0718 10.075 52.3319 15.8786 52.3319C18.7112 52.3319 21.4607 51.7923 24.0109 50.7639C19.208 50.7336 14.4757 49.4507 10.3141 47.0475C7.62797 45.497 5.24531 43.5272 3.21621 41.1836Z" fill="#0F1D30"/>
<path d="M12.0728 44.0041C14.9951 45.6916 18.3925 46.8232 22.0146 47.1511C15.7557 43.6869 12.3731 38.8774 10.7809 36.1196C9.02988 33.0871 7.84641 29.8012 7.25789 26.3438C5.50934 26.4187 3.76863 26.6798 2.07504 27.13C1.3016 27.3146 0.726562 28.0109 0.726562 28.8408C0.726562 28.9945 0.746719 29.1476 0.786563 29.2961C2.58187 35.9924 6.96539 41.0558 12.0728 44.0041Z" fill="#0F1D30"/>
<path d="M37.9863 47.151C41.6084 46.823 45.0059 45.6915 47.9282 44.004C53.0355 41.0557 57.4191 35.9923 59.2145 29.2961C59.2543 29.1476 59.2745 28.9945 59.2745 28.8408C59.2745 28.0109 58.6994 27.3146 57.926 27.13C56.2324 26.6798 54.4917 26.4186 52.7432 26.3438C52.1546 29.8012 50.9712 33.0871 49.2202 36.1196C47.6278 38.8774 44.2492 43.6846 37.9863 47.151Z" fill="#0F1D30"/>
<path d="M21.949 43.0005C20.1728 40.1314 17.4143 34.624 17.4143 27.0744C17.4143 23.2487 18.1224 19.5274 19.5172 15.9968C17.596 14.901 15.5361 14.0488 13.3915 13.4743C12.4535 13.2233 11.4901 13.7795 11.2387 14.7171C9.32014 21.8747 10.6733 28.9042 13.8244 34.3613C15.7374 37.6748 18.4848 40.7025 21.949 43.0005Z" fill="#0F1D30"/>
<path d="M38.0488 43.0016C41.5138 40.7035 44.2618 37.6753 46.1751 34.3614C49.3261 28.9041 50.6793 21.8747 48.7607 14.7171C48.5093 13.7795 47.5459 13.2232 46.608 13.4744C44.463 14.0488 42.4029 14.9012 40.4815 15.9973C41.8761 19.5277 42.5842 23.2488 42.5842 27.0744C42.5843 34.6304 39.8209 40.1394 38.0488 43.0016Z" fill="#0F1D30"/>
<path d="M31.2423 8.18289C30.9127 7.85324 30.4645 7.66797 29.9984 7.66797C29.5322 7.66797 29.0851 7.85324 28.7555 8.18289C24.1513 12.7871 20.9297 19.4335 20.9297 27.0771C20.9297 34.7243 24.1549 41.371 28.7555 45.9714C29.0851 46.3011 29.5332 46.4863 29.9994 46.4863C30.4656 46.4863 30.9127 46.3011 31.2423 45.9714C35.8417 41.3721 39.0681 34.7261 39.0681 27.0771C39.0682 19.43 35.8441 12.7845 31.2423 8.18289Z" fill="#0F1D30"/>
</g>
<defs>
<clipPath id="clip0_2125_3769">
<rect width="60" height="60" fill="white"/>
</clipPath>
</defs>
</svg>
