<svg width="60" height="60" viewBox="0 0 60 60" fill="none" xmlns="http://www.w3.org/2000/svg">
<g clip-path="url(#clip0_2125_3779)">
<path d="M44.3861 9.88723C47.5325 13.3443 49.4531 17.9358 49.4531 22.9676V27.3633H52.9688V22.9676C52.9688 10.2806 42.6384 0 30 0C17.3597 0 7.03125 10.2826 7.03125 22.9676V33.2227H10.5469V22.9676C10.5469 17.9358 12.4675 13.3443 15.6141 9.88723C14.9532 11.6026 14.5898 13.4646 14.5898 15.4102C14.5898 23.9074 21.5029 30.8203 30 30.8203C38.4973 30.8203 45.4102 23.9073 45.4102 15.4102C45.4102 13.4646 45.0469 11.6026 44.3861 9.88723ZM30 27.3047C23.4414 27.3047 18.1055 21.9688 18.1055 15.4102C18.1055 8.85258 23.4402 3.51562 30 3.51562C36.558 3.51562 41.8945 8.85082 41.8945 15.4102C41.8945 21.9689 36.5586 27.3047 30 27.3047Z" fill="black"/>
<path d="M15.2766 36.7383H2.30273C1.33242 36.7383 0.544922 37.5246 0.544922 38.4961C0.544922 39.4664 1.33242 40.2539 2.30273 40.2539H3.51562V54.7266C3.51562 57.634 5.88164 60 8.78906 60C11.6977 60 14.0637 57.634 14.0637 54.7266V40.2539H15.2766C16.2469 40.2539 17.0344 39.4664 17.0344 38.4961C17.0344 37.5246 16.2469 36.7383 15.2766 36.7383Z" fill="black"/>
<path d="M57.6965 30.8789H44.7227C43.7523 30.8789 42.9648 31.6652 42.9648 32.6367C42.9648 33.607 43.7523 34.3945 44.7227 34.3945H45.9355V48.8672C45.9355 51.7746 48.3016 54.1406 51.2102 54.1406C54.1176 54.1406 56.4836 51.7746 56.4836 48.8672V34.3945H57.6965C58.6668 34.3945 59.4543 33.607 59.4543 32.6367C59.4543 31.6652 58.6668 30.8789 57.6965 30.8789Z" fill="black"/>
</g>
<defs>
<clipPath id="clip0_2125_3779">
<rect width="60" height="60" fill="white"/>
</clipPath>
</defs>
</svg>
