<svg width="96" height="88" viewBox="0 0 96 88" fill="none" xmlns="http://www.w3.org/2000/svg">
<path d="M7.14844 84.3809C62.5267 84.3809 85.3447 84.3809 89.8313 84.3809" stroke="#6A6880" stroke-width="0.897959" stroke-linecap="round" stroke-linejoin="round"/>
<rect x="14.8359" y="39.1934" width="13.46" height="41.3414" rx="1.79592" fill="url(#paint0_linear_1040_37272)"/>
<rect x="14.8359" y="39.1934" width="13.46" height="41.3414" rx="1.79592" stroke="#6A6880" stroke-width="0.897959"/>
<rect x="33.1094" y="27.6567" width="13.46" height="52.8786" rx="1.79592" fill="url(#paint1_linear_1040_37272)" fill-opacity="0.5"/>
<rect x="33.1094" y="27.6567" width="13.46" height="52.8786" rx="1.79592" stroke="white" stroke-width="0.897959"/>
<rect x="51.375" y="39.1938" width="13.46" height="41.3414" rx="1.79592" fill="url(#paint2_linear_1040_37272)"/>
<rect x="51.375" y="39.1938" width="13.46" height="41.3414" rx="1.79592" stroke="#6A6880" stroke-width="0.897959"/>
<rect x="69.6406" y="46.8853" width="13.46" height="33.65" rx="1.79592" fill="url(#paint3_linear_1040_37272)"/>
<rect x="69.6406" y="46.8853" width="13.46" height="33.65" rx="1.79592" stroke="#6A6880" stroke-width="0.897959"/>
<path d="M20.3047 26.1417L37.8349 8.61145C38.1856 8.26077 38.7541 8.26077 39.1048 8.61145L57.2443 26.751C57.5983 27.105 58.1734 27.1011 58.5227 26.7424L81.0641 3.5918M81.0641 3.5918H74.1738M81.0641 3.5918V9.85565" stroke="url(#paint4_linear_1040_37272)" stroke-width="0.897959" stroke-linecap="round" stroke-linejoin="round"/>
<defs>
<linearGradient id="paint0_linear_1040_37272" x1="14.8359" y1="39.1934" x2="35.5951" y2="43.2582" gradientUnits="userSpaceOnUse">
<stop stop-color="#6B6981"/>
<stop offset="1" stop-color="#6A6A80" stop-opacity="0"/>
</linearGradient>
<linearGradient id="paint1_linear_1040_37272" x1="39.8394" y1="30.3007" x2="39.8394" y2="80.5353" gradientUnits="userSpaceOnUse">
<stop stop-color="white"/>
<stop offset="1" stop-color="white" stop-opacity="0"/>
</linearGradient>
<linearGradient id="paint2_linear_1040_37272" x1="51.375" y1="39.1938" x2="72.1341" y2="43.2587" gradientUnits="userSpaceOnUse">
<stop stop-color="#6B6981"/>
<stop offset="1" stop-color="#6A6A80" stop-opacity="0"/>
</linearGradient>
<linearGradient id="paint3_linear_1040_37272" x1="69.6406" y1="46.8853" x2="90.0165" y2="51.787" gradientUnits="userSpaceOnUse">
<stop stop-color="#6B6981"/>
<stop offset="1" stop-color="#6A6A80" stop-opacity="0"/>
</linearGradient>
<linearGradient id="paint4_linear_1040_37272" x1="81.1808" y1="5.06305" x2="16.7651" y2="24.2916" gradientUnits="userSpaceOnUse">
<stop stop-color="white"/>
<stop offset="1" stop-color="white" stop-opacity="0"/>
</linearGradient>
</defs>
</svg>
