<svg width="511" height="568" viewBox="0 0 511 568" fill="none" xmlns="http://www.w3.org/2000/svg">
<mask id="mask0_1320_2651" style="mask-type:alpha" maskUnits="userSpaceOnUse" x="-448" y="-30" width="951" height="642">
<path d="M399.719 364.873L400.054 364.832L390.969 313.488L450.614 347.544L460.892 399.03L399.908 364.639L399.719 364.873L399.53 365.106L461.817 400.231L451.232 347.214L390.075 312.294L399.406 365.037L399.53 365.106L399.719 364.873Z" fill="#D85A42" fill-opacity="0.35"/>
<path d="M409.333 419.201L409.666 419.16L400.167 365.464L461.047 399.796L471.793 453.621L409.52 418.967L409.333 419.201L409.146 419.435L472.715 454.812L461.665 399.464L399.274 364.281L409.02 419.366L409.146 419.435L409.333 419.201Z" fill="#D85A42" fill-opacity="0.35"/>
<path d="M419.387 476.038L419.722 475.997L409.777 419.788L471.944 454.383L483.189 510.71L419.573 475.803L419.387 476.038L419.202 476.273L484.11 511.89L472.562 454.05L408.886 418.614L419.074 476.205L419.202 476.273L419.387 476.038Z" fill="#D85A42" fill-opacity="0.35"/>
<path d="M429.918 535.564L430.252 535.523L419.832 476.62L483.34 511.468L495.12 570.471L430.103 535.326L429.918 535.564L429.735 535.8L496.038 571.638L483.957 511.133L418.942 475.457L429.606 535.731L429.735 535.8L429.918 535.564Z" fill="#D85A42" fill-opacity="0.35"/>
<path d="M336.91 329.454L337.244 329.419L329.426 278.348L390.208 313.054L399.271 364.281L337.099 329.221L336.91 329.454L336.721 329.687L400.164 365.465L390.833 312.728L328.565 277.173L336.593 329.616L336.721 329.687L336.91 329.454Z" fill="#D85A42" fill-opacity="0.35"/>
<path d="M345.185 383.504L345.519 383.468L337.34 330.037L399.406 365.037L408.886 418.614L345.372 383.27L345.185 383.504L344.996 383.739L409.776 419.788L400.032 364.709L336.481 328.872L344.868 383.667L344.996 383.739L345.185 383.504Z" fill="#D85A42" fill-opacity="0.35"/>
<path d="M353.844 440.075L354.179 440.039L345.613 384.082L409.019 419.366L418.942 475.457L354.031 439.84L353.844 440.075L353.659 440.311L419.831 476.62L409.644 419.036L344.755 382.927L353.529 440.239L353.659 440.311L353.844 440.075Z" fill="#D85A42" fill-opacity="0.35"/>
<path d="M362.919 499.348L363.253 499.313L354.274 440.647L419.074 476.204L429.475 534.988L363.102 499.111L362.919 499.348L362.735 499.584L430.362 536.139L419.699 475.872L353.417 439.502L362.604 499.513L362.735 499.584L362.919 499.348Z" fill="#D85A42" fill-opacity="0.35"/>
<path d="M272.895 293.355L273.231 293.325L266.729 242.548L328.682 277.922L336.481 328.872L273.084 293.122L272.895 293.355L272.705 293.589L337.34 330.037L329.313 277.6L265.902 241.392L272.575 293.516L272.705 293.589L272.895 293.355Z" fill="#D85A42" fill-opacity="0.35"/>
<path d="M279.779 347.105L280.115 347.075L273.31 293.928L336.596 329.616L344.757 382.927L279.967 346.871L279.779 347.105L279.591 347.34L345.615 384.081L337.227 329.292L272.484 292.781L279.46 347.266L279.591 347.34L279.779 347.105Z" fill="#D85A42" fill-opacity="0.35"/>
<path d="M286.985 403.388L287.321 403.358L280.192 347.674L344.869 383.667L353.418 439.502L287.171 403.153L286.985 403.388L286.799 403.623L354.274 440.647L345.502 383.341L279.366 346.536L286.665 403.55L286.799 403.623L286.985 403.388Z" fill="#D85A42" fill-opacity="0.35"/>
<path d="M294.539 462.386L294.875 462.356L287.397 403.951L353.53 440.239L362.492 498.78L294.722 462.15L294.539 462.386L294.354 462.623L363.347 499.915L354.161 439.911L286.572 402.824L294.219 462.55L294.354 462.623L294.539 462.386Z" fill="#D85A42" fill-opacity="0.35"/>
<path d="M302.469 524.302L302.803 524.272L294.951 462.944L362.606 499.513L372.012 560.959L302.649 524.064L302.469 524.302L302.285 524.539L372.865 562.082L363.236 499.183L294.129 461.828L302.149 524.466L302.285 524.539L302.469 524.302Z" fill="#D85A42" fill-opacity="0.35"/>
<path d="M207.64 256.556L207.976 256.532L202.844 206.068L265.999 242.129L272.484 292.781L207.829 256.322L207.64 256.556L207.451 256.789L273.31 293.928L266.637 241.811L202.052 204.932L207.317 256.714L207.451 256.789L207.64 256.556Z" fill="#D85A42" fill-opacity="0.35"/>
<path d="M213.072 309.984L213.408 309.959L208.033 257.119L272.575 293.516L279.364 346.536L213.258 309.75L213.072 309.984L212.883 310.218L280.19 347.674L273.213 293.195L207.242 255.992L212.748 310.143L212.883 310.218L213.072 309.984Z" fill="#D85A42" fill-opacity="0.35"/>
<path d="M218.765 365.955L219.102 365.931L213.469 310.542L279.459 347.266L286.573 402.824L218.951 365.719L218.765 365.955L218.579 366.19L287.397 403.951L280.097 346.944L212.677 309.425L218.443 366.115L218.579 366.19L218.765 365.955Z" fill="#D85A42" fill-opacity="0.35"/>
<path d="M224.733 424.655L225.07 424.631L219.159 366.51L286.664 403.55L294.127 461.828L224.918 424.418L224.733 424.655L224.55 424.891L294.949 462.944L287.302 403.225L218.369 365.401L224.411 424.816L224.55 424.891L224.733 424.655Z" fill="#D85A42" fill-opacity="0.35"/>
<path d="M231.002 486.288L231.339 486.265L225.129 425.204L294.22 462.55L302.056 523.749L231.184 486.051L231.002 486.288L230.82 486.526L302.877 524.854L294.857 462.222L224.34 424.106L230.68 486.45L230.82 486.526L231.002 486.288Z" fill="#D85A42" fill-opacity="0.35"/>
<path d="M237.592 551.08L237.929 551.057L231.397 486.832L302.147 524.466L310.385 588.809L237.771 550.842L237.592 551.08L237.412 551.319L311.205 589.903L302.785 524.136L230.608 485.745L237.269 551.245L237.412 551.319L237.592 551.08Z" fill="#D85A42" fill-opacity="0.35"/>
<path d="M141.102 219.034L141.438 219.017L137.731 168.891L202.122 205.657L207.241 255.992L141.291 218.801L141.102 219.034L140.912 219.269L208.033 257.119L202.768 205.344L136.971 167.775L140.775 219.19L140.912 219.269L141.102 219.034Z" fill="#D85A42" fill-opacity="0.35"/>
<path d="M145.03 272.118L145.367 272.1L141.483 219.588L207.316 256.714L212.677 309.425L145.217 271.884L145.03 272.118L144.842 272.352L213.469 310.542L207.962 256.397L140.724 218.481L144.703 272.275L144.842 272.352L145.03 272.118Z" fill="#D85A42" fill-opacity="0.35"/>
<path d="M149.143 327.754L149.48 327.736L145.406 272.668L212.747 310.143L218.367 365.401L149.328 327.518L149.143 327.754L148.957 327.989L219.158 366.51L213.394 309.825L144.648 271.568L148.816 327.912L148.957 327.989L149.143 327.754Z" fill="#D85A42" fill-opacity="0.35"/>
<path d="M153.46 386.13L153.797 386.113L149.521 328.299L218.44 366.115L224.337 424.106L153.643 385.894L153.46 386.13L153.275 386.366L225.126 425.204L219.085 365.794L148.763 327.208L153.133 386.289L153.275 386.366L153.46 386.13Z" fill="#D85A42" fill-opacity="0.35"/>
<path d="M157.995 447.455L158.333 447.438L153.839 386.67L224.41 424.817L230.606 485.745L158.177 447.218L157.995 447.455L157.814 447.693L231.395 486.832L225.056 424.494L153.082 385.589L157.669 447.615L157.814 447.693L157.995 447.455Z" fill="#D85A42" fill-opacity="0.35"/>
<path d="M162.769 511.958L163.106 511.94L158.376 447.99L230.68 486.45L237.198 550.542L162.948 511.719L162.769 511.958L162.589 512.196L237.986 551.619L231.325 486.126L157.62 446.92L162.441 512.119L162.589 512.196L162.769 511.958Z" fill="#D85A42" fill-opacity="0.35"/>
<path d="M73.252 180.772L73.59 180.762L71.3646 130.994L137.027 168.487L140.725 218.481L73.4408 180.538L73.252 180.772L73.0631 181.005L141.483 219.589L137.681 168.177L70.6395 129.897L72.9205 180.925L73.0631 181.005L73.252 180.772Z" fill="#D85A42" fill-opacity="0.35"/>
<path d="M75.6076 233.485L75.9443 233.475L73.613 181.317L140.776 219.19L144.649 271.568L75.7937 233.251L75.6076 233.485L75.4189 233.72L145.407 272.668L141.429 218.88L72.8876 180.228L75.2749 233.639L75.4189 233.72L75.6076 233.485Z" fill="#D85A42" fill-opacity="0.35"/>
<path d="M78.0789 288.76L78.4169 288.749L75.9699 234.025L144.703 272.275L148.765 327.209L78.2647 288.524L78.0789 288.76L77.8929 288.995L149.523 328.299L145.357 271.961L75.2452 232.945L77.749 288.915L77.8929 288.995L78.0789 288.76Z" fill="#D85A42" fill-opacity="0.35"/>
<path d="M80.6723 346.786L81.0103 346.775L78.4403 289.296L148.817 327.912L153.083 385.589L80.8568 346.55L80.6723 346.786L80.4892 347.022L153.84 386.67L149.471 327.596L77.7164 288.223L80.3413 346.943L80.4892 347.022L80.6723 346.786Z" fill="#D85A42" fill-opacity="0.35"/>
<path d="M83.4017 407.774L83.7384 407.765L81.0369 347.318L153.136 386.289L157.62 446.92L83.582 407.538L83.4017 407.774L83.2201 408.013L158.376 447.99L153.79 385.971L80.3126 346.254L83.0694 407.933L83.2201 408.013L83.4017 407.774Z" fill="#D85A42" fill-opacity="0.35"/>
<path d="M86.269 471.961L86.6057 471.95L83.7608 408.302L157.67 447.615L162.388 511.428L86.4478 471.722L86.269 471.961L86.0888 472.199L163.145 512.488L158.323 447.295L83.0375 407.249L85.9383 472.12L86.0888 472.199L86.269 471.961Z" fill="#D85A42" fill-opacity="0.35"/>
<path d="M89.2935 539.599L89.6316 539.589L86.6316 472.482L162.44 512.12L167.415 579.368L89.4708 539.358L89.2935 539.599L89.1162 539.839L168.169 580.416L163.095 511.797L85.9081 471.439L88.9629 539.76L89.1162 539.839L89.2935 539.599Z" fill="#D85A42" fill-opacity="0.35"/>
<path d="M4.0425 141.745L4.37994 141.742L3.69839 92.358L70.6697 130.598L72.8877 180.228L4.23139 141.511L4.0425 141.745L3.85367 141.978L73.6132 181.317L71.3314 130.294L3.00799 91.2811L3.70681 141.896L3.85367 141.978L4.0425 141.745Z" fill="#D85A42" fill-opacity="0.35"/>
<path d="M4.76712 194.063L5.10447 194.059L4.3899 142.28L72.9209 180.925L75.2459 232.945L4.95456 193.828L4.76712 194.063L4.57969 194.297L75.9706 234.025L73.5837 180.618L3.69888 141.21L4.43153 194.214L4.57969 194.297L4.76712 194.063Z" fill="#D85A42" fill-opacity="0.35"/>
<path d="M5.52437 248.948L5.86172 248.945L5.11074 194.593L75.2755 233.639L77.7162 288.223L5.70888 248.712L5.52437 248.948L5.3384 249.184L78.4401 289.296L75.9381 233.33L4.42059 193.532L5.18886 249.102L5.3384 249.184L5.52437 248.948Z" fill="#D85A42" fill-opacity="0.35"/>
<path d="M6.31954 306.596L6.65835 306.593L5.86851 249.475L77.7478 288.915L80.3102 346.254L6.50405 306.36L6.31954 306.596L6.1365 306.833L81.0345 347.318L78.4088 288.604L5.17786 248.421L5.98414 306.75L6.1365 306.833L6.31954 306.596Z" fill="#D85A42" fill-opacity="0.35"/>
<path d="M7.15616 367.22L7.49497 367.217L6.66456 307.119L80.3401 346.943L83.0365 407.249L7.3392 366.983L7.15616 367.22L6.97458 367.458L83.7598 408.302L81.0021 346.629L5.97484 306.074L6.82088 367.376L6.97458 367.458L7.15616 367.22Z" fill="#D85A42" fill-opacity="0.35"/>
<path d="M8.0403 431.057L8.37776 431.054L7.50277 367.738L83.068 407.933L85.9077 471.439L8.21907 430.818L8.0403 431.057L7.86018 431.296L86.6313 472.482L83.7312 407.617L6.81394 366.703L7.70393 431.214L7.86018 431.296L8.0403 431.057Z" fill="#D85A42" fill-opacity="0.35"/>
<path d="M8.9702 498.369L9.30754 498.365L8.38517 431.569L85.939 472.12L88.9322 539.083L9.1475 498.129L8.9702 498.369L8.79289 498.609L89.6546 540.115L86.6005 471.801L7.69603 430.544L8.63392 498.528L8.79289 498.609L8.9702 498.369Z" fill="#D85A42" fill-opacity="0.35"/>
<path d="M9.95132 569.447L10.2887 569.443L9.31333 498.877L88.9619 539.761L92.122 610.467L10.1257 569.205L9.95132 569.447L9.77683 569.688L92.8447 611.489L89.6231 539.438L8.62378 497.861L9.61519 569.607L9.77683 569.688L9.95132 569.447Z" fill="#D85A42" fill-opacity="0.35"/>
<path d="M-66.5625 101.929L-66.2243 101.934L-65.301 52.9596L3.01661 91.969L3.697 141.21L-66.3723 101.696L-66.5625 101.929L-66.7513 102.163L4.38802 142.28L3.68826 91.6692L-65.9568 51.9023L-66.9026 102.077L-66.7513 102.163L-66.5625 101.929Z" fill="#D85A42" fill-opacity="0.35"/>
<path d="M-67.5397 153.824L-67.2015 153.829L-66.2331 102.455L3.70799 141.896L4.4214 193.532L-67.3523 153.59L-67.5397 153.824L-67.7272 154.059L5.11155 194.593L4.37941 141.594L-66.8881 101.405L-67.8797 153.973L-67.7272 154.059L-67.5397 153.824Z" fill="#D85A42" fill-opacity="0.35"/>
<path d="M-68.5686 208.294L-68.2304 208.298L-67.2135 154.346L4.4293 194.215L5.17756 248.421L-68.3827 208.058L-68.5686 208.294L-68.7545 208.529L5.86821 249.475L5.10053 193.911L-67.8691 153.303L-68.9084 208.444L-68.7545 208.529L-68.5686 208.294Z" fill="#D85A42" fill-opacity="0.35"/>
<path d="M-69.6462 265.534L-69.3094 265.538L-68.2387 208.81L5.18936 249.102L5.97637 306.074L-69.4632 265.297L-69.6462 265.534L-69.8308 265.77L6.6661 307.119L5.86039 248.796L-68.8948 207.776L-69.9874 265.685L-69.8308 265.77L-69.6462 265.534Z" fill="#D85A42" fill-opacity="0.35"/>
<path d="M-70.7848 325.762L-70.4466 325.766L-69.3198 266.047L5.98327 306.75L6.81216 366.703L-70.6031 325.525L-70.7848 325.762L-70.9663 326L7.50099 367.739L6.65407 306.442L-69.9765 265.02L-71.1256 325.915L-70.9663 326L-70.7848 325.762Z" fill="#D85A42" fill-opacity="0.35"/>
<path d="M-71.9776 389.218L-71.6395 389.222L-70.4517 326.271L6.82426 367.376L7.69766 430.544L-71.7975 388.979L-71.9776 389.218L-72.1579 389.456L8.38679 431.569L7.49617 367.065L-71.109 325.252L-72.3184 389.373L-72.1579 389.456L-71.9776 389.218Z" fill="#D85A42" fill-opacity="0.35"/>
<path d="M-73.2425 456.168L-72.9043 456.174L-71.6508 389.722L7.70403 431.214L8.62454 497.861L-73.0652 455.928L-73.2425 456.168L-73.4185 456.408L9.3141 498.877L8.37556 430.9L-72.3083 388.713L-73.5831 456.325L-73.4185 456.408L-73.2425 456.168Z" fill="#D85A42" fill-opacity="0.35"/>
<path d="M-74.5752 526.911L-74.2369 526.916L-72.9128 456.669L8.63516 498.528L9.60854 568.943L-74.4006 526.671L-74.5752 526.911L-74.7496 527.153L10.2984 569.949L9.30769 498.21L-73.5694 455.669L-74.9156 527.069L-74.7496 527.153L-74.5752 526.911Z" fill="#D85A42" fill-opacity="0.35"/>
<path d="M444.004 343.429L449.747 341.489L457.828 351.323L452.105 353.3L444.004 343.429Z" fill="#D85A42" fill-opacity="0.35"/>
<path d="M454.294 395.649L460.126 393.479L468.4 403.603L462.589 405.813L454.294 395.649Z" fill="#D85A42" fill-opacity="0.35"/>
<path d="M465.604 450.222L471.437 448.052L479.71 458.176L473.9 460.386L465.604 450.222Z" fill="#D85A42" fill-opacity="0.35"/>
<path d="M476.568 507.136L482.4 504.965L490.674 515.09L484.864 517.299L476.568 507.136Z" fill="#D85A42" fill-opacity="0.35"/>
<path d="M488.89 567.346L494.722 565.175L502.996 575.3L497.185 577.509L488.89 567.346Z" fill="#D85A42" fill-opacity="0.35"/>
<path d="M383.474 308.867L389.486 307.032L397.557 316.907L391.565 318.78L383.474 308.867Z" fill="#D85A42" fill-opacity="0.35"/>
<path d="M392.525 360.816L398.637 358.752L406.899 368.92L400.809 371.026L392.525 360.816Z" fill="#D85A42" fill-opacity="0.35"/>
<path d="M401.986 415.113L408.199 412.801L416.662 423.281L410.47 425.635L401.986 415.113Z" fill="#D85A42" fill-opacity="0.35"/>
<path d="M411.884 471.921L418.203 469.34L426.875 480.147L420.579 482.773L411.884 471.921Z" fill="#D85A42" fill-opacity="0.35"/>
<path d="M422.248 531.418L428.677 528.544L437.569 539.699L431.166 542.621L422.248 531.418Z" fill="#D85A42" fill-opacity="0.35"/>
<path d="M321.818 273.661L328.107 271.934L336.162 281.852L329.895 283.615L321.818 273.661Z" fill="#D85A42" fill-opacity="0.35"/>
<path d="M329.58 325.32L335.98 323.366L344.226 333.58L337.849 335.573L329.58 325.32Z" fill="#D85A42" fill-opacity="0.35"/>
<path d="M337.694 379.337L344.209 377.136L352.656 387.662L346.164 389.906L337.694 379.337Z" fill="#D85A42" fill-opacity="0.35"/>
<path d="M346.19 435.875L352.824 433.406L361.481 444.265L354.871 446.78L346.19 435.875Z" fill="#D85A42" fill-opacity="0.35"/>
<path d="M355.093 495.118L361.849 492.357L370.727 503.568L363.995 506.377L355.093 495.118Z" fill="#D85A42" fill-opacity="0.35"/>
<path d="M364.428 557.262L371.313 554.184L380.424 565.769L373.565 568.898L364.428 557.262Z" fill="#D85A42" fill-opacity="0.35"/>
<path d="M259.002 237.792L265.577 236.18L273.618 246.139L267.062 247.79L259.002 237.792Z" fill="#D85A42" fill-opacity="0.35"/>
<path d="M265.421 289.141L272.119 287.302L280.351 297.56L273.674 299.439L265.421 289.141Z" fill="#D85A42" fill-opacity="0.35"/>
<path d="M272.139 342.854L278.967 340.771L287.398 351.345L280.593 353.474L272.139 342.854Z" fill="#D85A42" fill-opacity="0.35"/>
<path d="M279.174 399.103L286.133 396.752L294.773 407.664L287.836 410.06L279.174 399.103Z" fill="#D85A42" fill-opacity="0.35"/>
<path d="M286.549 458.067L293.647 455.426L302.508 466.694L295.434 469.384L286.549 458.067Z" fill="#D85A42" fill-opacity="0.35"/>
<path d="M294.289 519.952L301.531 516.995L310.624 528.641L303.408 531.65L294.289 519.952Z" fill="#D85A42" fill-opacity="0.35"/>
<path d="M194.99 201.243L201.861 199.749L209.886 209.748L203.034 211.281L194.99 201.243Z" fill="#D85A42" fill-opacity="0.35"/>
<path d="M200.021 252.259L207.028 250.54L215.241 260.842L208.255 262.602L200.021 252.259Z" fill="#D85A42" fill-opacity="0.35"/>
<path d="M205.281 305.649L212.432 303.686L220.844 314.308L213.715 316.315L205.281 305.649Z" fill="#D85A42" fill-opacity="0.35"/>
<path d="M210.797 361.583L218.095 359.354L226.716 370.317L219.44 372.591L210.797 361.583Z" fill="#D85A42" fill-opacity="0.35"/>
<path d="M216.576 420.246L224.027 417.729L232.869 429.054L225.44 431.62L216.576 420.246Z" fill="#D85A42" fill-opacity="0.35"/>
<path d="M222.649 481.845L230.261 479.013L239.333 490.721L231.747 493.606L222.649 481.845Z" fill="#D85A42" fill-opacity="0.35"/>
<path d="M229.032 546.606L236.812 543.428L246.127 555.545L238.374 558.779L229.032 546.606Z" fill="#D85A42" fill-opacity="0.35"/>
<path d="M129.754 163.994L136.93 162.622L144.935 172.662L137.778 174.072L129.754 163.994Z" fill="#D85A42" fill-opacity="0.35"/>
<path d="M133.336 214.654L140.664 213.059L148.858 223.406L141.55 225.042L133.336 214.654Z" fill="#D85A42" fill-opacity="0.35"/>
<path d="M137.082 267.695L144.567 265.859L152.958 276.53L145.496 278.41L137.082 267.695Z" fill="#D85A42" fill-opacity="0.35"/>
<path d="M141.008 323.291L148.656 321.192L157.256 332.206L149.63 334.352L141.008 323.291Z" fill="#D85A42" fill-opacity="0.35"/>
<path d="M145.133 381.628L152.953 379.24L161.771 390.621L153.975 393.058L145.133 381.628Z" fill="#D85A42" fill-opacity="0.35"/>
<path d="M149.463 442.916L157.46 440.214L166.509 451.983L158.536 454.739L149.463 442.916Z" fill="#D85A42" fill-opacity="0.35"/>
<path d="M154.019 507.383L162.204 504.338L171.494 516.521L163.335 519.624L154.019 507.383Z" fill="#D85A42" fill-opacity="0.35"/>
<path d="M63.2539 126.022L70.7471 124.779L78.7301 134.859L71.2558 136.142L63.2539 126.022Z" fill="#D85A42" fill-opacity="0.35"/>
<path d="M65.3275 176.303L72.9852 174.84L81.1561 185.23L73.5176 186.735L65.3275 176.303Z" fill="#D85A42" fill-opacity="0.35"/>
<path d="M67.4978 228.972L75.3288 227.269L83.6964 237.988L75.8863 239.736L67.4978 228.972Z" fill="#D85A42" fill-opacity="0.35"/>
<path d="M69.7756 284.203L77.7885 282.239L86.3629 293.305L78.3727 295.318L69.7756 284.203Z" fill="#D85A42" fill-opacity="0.35"/>
<path d="M72.1684 342.188L80.3687 339.937L89.1617 351.373L80.9829 353.674L72.1684 342.188Z" fill="#D85A42" fill-opacity="0.35"/>
<path d="M74.68 403.137L83.0786 400.573L92.1008 412.403L83.7254 415.02L74.68 403.137Z" fill="#D85A42" fill-opacity="0.35"/>
<path d="M77.322 467.282L85.9293 464.375L95.1917 476.626L86.6094 479.591L77.322 467.282Z" fill="#D85A42" fill-opacity="0.35"/>
<path d="M80.1086 534.885L88.9347 531.6L98.4509 544.3L89.6516 547.646L80.1086 534.885Z" fill="#D85A42" fill-opacity="0.35"/>
<path d="M-4.54588 87.3093L3.27583 86.1994L11.2344 96.3193L3.4317 97.4689L-4.54588 87.3093Z" fill="#D85A42" fill-opacity="0.35"/>
<path d="M-4.03955 137.187L3.9618 135.859L12.1073 146.292L4.12529 147.662L-4.03955 137.187Z" fill="#D85A42" fill-opacity="0.35"/>
<path d="M-3.50869 189.457L4.68235 187.891L13.0237 198.657L4.85342 200.267L-3.50869 189.457Z" fill="#D85A42" fill-opacity="0.35"/>
<path d="M-2.95641 244.296L5.43319 242.472L13.9804 253.59L5.61212 255.462L-2.95641 244.296Z" fill="#D85A42" fill-opacity="0.35"/>
<path d="M-2.37266 301.898L6.22497 299.791L14.9885 311.283L6.41385 313.442L-2.37266 301.898Z" fill="#D85A42" fill-opacity="0.35"/>
<path d="M-1.75585 362.479L7.06049 360.059L16.0511 371.95L7.25804 374.424L-1.75585 362.479Z" fill="#D85A42" fill-opacity="0.35"/>
<path d="M-1.11161 426.273L7.93385 423.511L17.1651 435.828L8.14328 438.649L-1.11161 426.273Z" fill="#D85A42" fill-opacity="0.35"/>
<path d="M-0.428482 493.544L8.85908 490.407L18.3421 503.179L9.08016 506.38L-0.428482 493.544Z" fill="#D85A42" fill-opacity="0.35"/>
<path d="M0.290817 564.586L9.834 561.034L19.5844 574.294L10.0672 577.913L0.290817 564.586Z" fill="#D85A42" fill-opacity="0.35"/>
<mask id="mask1_1320_2651" style="mask-type:luminance" maskUnits="userSpaceOnUse" x="391" y="315" width="67" height="67">
<path d="M396.755 315.044L443.285 343.709L442.932 343.83L443.466 344.497L396.92 315.821L397.285 315.708L396.755 315.044ZM450.671 353.501L451.129 354.073L451.431 353.969L456.028 373.888L457.05 381.14L450.671 353.501Z" fill="white"/>
</mask>
<g mask="url(#mask1_1320_2651)">
<rect width="71.4918" height="56.7211" transform="matrix(0.157712 0.9905 -1.00041 0.0467589 446.558 311.572)" fill="#D85A42" fill-opacity="0.35"/>
</g>
<mask id="mask2_1320_2651" style="mask-type:luminance" maskUnits="userSpaceOnUse" x="401" y="367" width="64" height="85">
<path d="M406.06 367.153L452.812 395.873L452.474 396.002L452.988 396.653L422.048 377.645L406.222 367.923L406.57 367.8L406.06 367.153Z" fill="white"/>
</mask>
<g mask="url(#mask2_1320_2651)">
<rect width="89.2507" height="51.5196" transform="matrix(0.153947 0.990766 -1.00028 0.0476279 451.323 363.907)" fill="#D85A42" fill-opacity="0.35"/>
</g>
<mask id="mask3_1320_2651" style="mask-type:luminance" maskUnits="userSpaceOnUse" x="410" y="421" width="60" height="85">
<path d="M415.775 421.619L462.2 449.841L462.301 450.57L457.57 447.695L415.936 422.384L416.27 422.254L415.775 421.619ZM428.031 480.165L469.885 505.277L469.886 505.278L428.031 480.165ZM444.53 489.4L469.785 504.551L469.785 504.552L444.53 489.4Z" fill="white"/>
</mask>
<g mask="url(#mask3_1320_2651)">
<rect width="88.6986" height="48.4028" transform="matrix(0.153122 0.990825 -1.00025 0.0478067 457.051 418.263)" fill="#D85A42" fill-opacity="0.35"/>
</g>
<mask id="mask4_1320_2651" style="mask-type:luminance" maskUnits="userSpaceOnUse" x="329" y="279" width="71" height="83">
<path d="M329.532 281.703L329.532 281.704L337.191 322.81L329.532 281.703ZM335.312 279.941L382.348 309.045L381.982 309.155L382.507 309.818L335.456 280.705L335.83 280.6L335.312 279.941ZM389.67 318.857L390.108 319.41L390.412 319.315L399.037 360.692L398.599 360.137L398.297 360.239L389.67 318.857Z" fill="white"/>
</mask>
<g mask="url(#mask4_1320_2651)">
<rect width="87.3144" height="58.5555" transform="matrix(0.155917 0.990626 -1.00034 0.0471905 386.836 276.212)" fill="#D85A42" fill-opacity="0.35"/>
</g>
<mask id="mask5_1320_2651" style="mask-type:luminance" maskUnits="userSpaceOnUse" x="338" y="331" width="71" height="87">
<path d="M338.504 338.977L345.505 376.578L345.504 376.578L338.504 338.977ZM338.234 334.071L338.235 334.071L346.23 377.017L338.234 334.071ZM343.39 331.652L360.095 341.875L391.301 360.971L390.949 361.091L391.46 361.74L343.535 332.412L343.897 332.299L343.39 331.652ZM353.797 386.723L402.671 416.263L402.669 416.263L353.799 386.723L353.797 386.723ZM398.824 371.09L399.264 371.647L399.563 371.542L408.564 414.756L408.125 414.196L407.827 414.309L398.824 371.09Z" fill="white"/>
</mask>
<g mask="url(#mask5_1320_2651)">
<rect width="90.6391" height="59.739" transform="matrix(0.155706 0.990641 -1.00034 0.0472387 395.976 328.153)" fill="#D85A42" fill-opacity="0.35"/>
</g>
<mask id="mask6_1320_2651" style="mask-type:luminance" maskUnits="userSpaceOnUse" x="352" y="385" width="67" height="88">
<path d="M352.166 385.715L400.794 415.206L400.456 415.334L400.951 415.968L352.307 386.469L352.656 386.347L352.166 385.715ZM362.99 443.259L412.618 472.96L412.617 472.96L362.991 443.258L362.99 443.259ZM408.494 425.633L408.931 426.193L409.228 426.077L418.585 471.2L418.148 470.636L417.852 470.76L408.494 425.633Z" fill="white"/>
</mask>
<g mask="url(#mask6_1320_2651)">
<rect width="92.7496" height="54.6663" transform="matrix(0.154239 0.990745 -1.00029 0.0475644 405.477 381.78)" fill="#D85A42" fill-opacity="0.35"/>
</g>
<mask id="mask7_1320_2651" style="mask-type:luminance" maskUnits="userSpaceOnUse" x="354" y="442" width="76" height="91">
<path d="M354.532 444.764L354.533 444.765L362.939 489.931L354.532 444.764ZM360.639 442.302L410.499 472.051L410.172 472.188L410.655 472.81L373.347 450.55L360.78 443.053L361.119 442.922L360.639 442.302ZM418.462 482.839L418.903 483.404L419.199 483.277L429.051 530.588L428.61 530.019L428.316 530.154L427.176 524.681L418.462 482.839Z" fill="white"/>
</mask>
<g mask="url(#mask7_1320_2651)">
<rect width="95.6017" height="62.5693" transform="matrix(0.155619 0.990647 -1.00033 0.0472583 415.524 438.625)" fill="#D85A42" fill-opacity="0.35"/>
</g>
<mask id="mask8_1320_2651" style="mask-type:luminance" maskUnits="userSpaceOnUse" x="266" y="244" width="71" height="84">
<path d="M272.756 244.235L320.646 273.874L320.267 273.977L320.786 274.635L272.88 244.987L273.27 244.891L272.756 244.235ZM281.441 296.575L330.292 326.458L281.442 296.575L281.441 296.575ZM281.566 297.323L330.43 327.214L330.431 327.216L281.566 297.323ZM327.957 283.737L328.379 284.271L328.685 284.186L332.605 305.234L336.339 325.281L335.917 324.743L335.612 324.836L327.957 283.737Z" fill="white"/>
</mask>
<g mask="url(#mask8_1320_2651)">
<rect width="88.447" height="58.5099" transform="matrix(0.155751 0.990638 -1.00034 0.0472284 323.825 240.458)" fill="#D85A42" fill-opacity="0.35"/>
</g>
<mask id="mask9_1320_2651" style="mask-type:luminance" maskUnits="userSpaceOnUse" x="273" y="295" width="72" height="85">
<path d="M274.043 297.944L281.003 340.62L281.003 340.619L274.043 297.944ZM279.496 295.641L328.374 325.53L328.007 325.642L328.512 326.287L279.62 296.389L279.997 296.283L279.496 295.641ZM335.896 335.707L336.319 336.246L336.622 336.151L344.629 379.114L344.207 378.572L343.904 378.675L336.893 341.059L335.896 335.707Z" fill="white"/>
</mask>
<g mask="url(#mask9_1320_2651)">
<rect width="89.0535" height="59.8028" transform="matrix(0.155934 0.990625 -1.00034 0.0471867 331.813 292.037)" fill="#D85A42" fill-opacity="0.35"/>
</g>
<mask id="mask10_1320_2651" style="mask-type:luminance" maskUnits="userSpaceOnUse" x="280" y="349" width="74" height="89">
<path d="M286.538 349.409L336.349 379.521L335.995 379.642L336.488 380.274L312.505 365.775L286.661 350.152L287.026 350.038L286.538 349.409ZM296.163 407.454L296.164 407.454L347.033 437.804L296.163 407.454ZM344.077 390.022L344.501 390.566L344.803 390.461L353.165 435.39L352.743 434.843L352.442 434.957L344.077 390.022Z" fill="white"/>
</mask>
<g mask="url(#mask10_1320_2651)">
<rect width="93.9637" height="60.9232" transform="matrix(0.155502 0.990656 -1.00033 0.0472848 339.706 345.761)" fill="#D85A42" fill-opacity="0.35"/>
</g>
<mask id="mask11_1320_2651" style="mask-type:luminance" maskUnits="userSpaceOnUse" x="288" y="405" width="75" height="93">
<path d="M288.258 408.479L295.87 455.253L295.87 455.252L288.258 408.479ZM293.951 405.706L344.762 436.039L344.42 436.168L344.898 436.786L294.075 406.446L294.426 406.323L293.951 405.706ZM303.9 465.753L355.803 496.307L303.9 465.754L303.9 465.753ZM352.71 446.887L353.133 447.434L353.432 447.317L362.181 494.361L361.758 493.81L361.46 493.936L361.107 492.039L352.71 446.887Z" fill="white"/>
</mask>
<g mask="url(#mask11_1320_2651)">
<rect width="96.718" height="61.9989" transform="matrix(0.155358 0.990666 -1.00032 0.0473171 348.651 402.131)" fill="#D85A42" fill-opacity="0.35"/>
</g>
<mask id="mask12_1320_2651" style="mask-type:luminance" maskUnits="userSpaceOnUse" x="203" y="207" width="70" height="84">
<path d="M209.043 207.852L257.829 238.048L257.437 238.142L257.949 238.796L209.147 208.591L209.551 208.505L209.043 207.852ZM265.129 247.961L265.533 248.478L265.844 248.402L272.494 289.205L272.087 288.683L271.779 288.766L267.851 264.665L265.129 247.961Z" fill="white"/>
</mask>
<g mask="url(#mask12_1320_2651)">
<rect width="87.4116" height="58.0247" transform="matrix(0.155793 0.990635 -1.00034 0.0472188 260.325 204.294)" fill="#D85A42" fill-opacity="0.35"/>
</g>
<mask id="mask13_1320_2651" style="mask-type:luminance" maskUnits="userSpaceOnUse" x="207" y="258" width="73" height="87">
<path d="M213.781 303.042L207.917 260.681L213.782 303.042L213.781 303.042ZM214.368 258.931L238.572 273.741L264.138 289.383L263.757 289.487L264.258 290.128L239.614 275.05L214.472 259.666L214.862 259.569L214.368 258.931ZM271.641 299.611L272.047 300.132L272.355 300.047L279.307 342.708L278.9 342.183L278.593 342.277L271.641 299.611Z" fill="white"/>
</mask>
<g mask="url(#mask13_1320_2651)">
<rect width="91.2215" height="60.2425" transform="matrix(0.15573 0.99064 -1.00034 0.0472331 266.625 255.418)" fill="#D85A42" fill-opacity="0.35"/>
</g>
<mask id="mask14_1320_2651" style="mask-type:luminance" maskUnits="userSpaceOnUse" x="214" y="312" width="73" height="89">
<path d="M220.004 312.38L251.428 331.378L270.789 343.083L270.421 343.195L270.908 343.824L220.106 313.111L220.485 313.005L220.004 312.38ZM278.505 353.642L278.912 354.169L279.218 354.072L286.489 398.721L286.083 398.192L285.778 398.296L278.505 353.642Z" fill="white"/>
</mask>
<g mask="url(#mask14_1320_2651)">
<rect width="93.3934" height="60.8142" transform="matrix(0.155556 0.990652 -1.00033 0.0472726 273.385 308.779)" fill="#D85A42" fill-opacity="0.35"/>
</g>
<mask id="mask15_1320_2651" style="mask-type:luminance" maskUnits="userSpaceOnUse" x="226" y="368" width="68" height="92">
<path d="M226.248 368.366L232.508 372.116L277.811 399.257L277.458 399.378L277.928 399.993L226.35 369.093L226.714 368.977L226.248 368.366ZM268.99 448.94L287.441 459.84L287.442 459.84L268.99 448.94ZM285.703 410.149L286.107 410.678L286.41 410.572L293.97 457.268L293.564 456.736L293.264 456.851L285.703 410.149Z" fill="white"/>
</mask>
<g mask="url(#mask15_1320_2651)">
<rect width="97.0722" height="55.1644" transform="matrix(0.153723 0.990782 -1.00027 0.0476763 280.521 364.723)" fill="#D85A42" fill-opacity="0.35"/>
</g>
<mask id="mask16_1320_2651" style="mask-type:luminance" maskUnits="userSpaceOnUse" x="225" y="427" width="77" height="95">
<path d="M231.881 478.393L225.131 429.59L231.882 478.393L231.881 478.393ZM231.999 427.084L284.993 458.272L284.65 458.402L285.11 459.005L266.555 448.084L232.102 427.807L232.455 427.685L231.999 427.084ZM293.169 469.557L293.577 470.092L293.879 469.975L296.026 483.165L301.869 519.052L301.461 518.514L301.16 518.64L293.169 469.557Z" fill="white"/>
</mask>
<g mask="url(#mask16_1320_2651)">
<rect width="99.4925" height="63.7316" transform="matrix(0.155349 0.990667 -1.00032 0.0473192 287.479 423.372)" fill="#D85A42" fill-opacity="0.35"/>
</g>
<mask id="mask17_1320_2651" style="mask-type:luminance" maskUnits="userSpaceOnUse" x="232" y="488" width="79" height="99">
<path d="M238.458 488.729L254.416 497.984L292.619 520.141L292.289 520.279L292.736 520.869L279.355 513.109L238.559 489.449L238.9 489.317L238.458 488.729ZM301.041 531.821L301.449 532.36L301.749 532.232L309.5 579.868L310.135 583.771L309.726 583.228L309.429 583.366L307.265 570.07L301.041 531.821Z" fill="white"/>
</mask>
<g mask="url(#mask17_1320_2651)">
<rect width="103.403" height="65.5514" transform="matrix(0.155216 0.990676 -1.00032 0.0473491 295.643 484.659)" fill="#D85A42" fill-opacity="0.35"/>
</g>
<mask id="mask18_1320_2651" style="mask-type:luminance" maskUnits="userSpaceOnUse" x="138" y="170" width="70" height="85">
<path d="M150.039 222.356L157.691 227.036L150.041 222.356L150.039 222.356ZM144.144 171.499L144.562 171.421L144.059 170.772L193.77 201.54L193.362 201.626L193.869 202.277L144.144 171.499ZM206.664 251.998L201.055 211.502L201.445 212.003L201.757 211.935L207.364 252.427L206.974 251.924L206.664 251.998Z" fill="white"/>
</mask>
<g mask="url(#mask18_1320_2651)">
<rect width="88.4671" height="59.1677" transform="matrix(0.155884 0.990629 -1.00034 0.0471979 195.25 167.215)" fill="#D85A42" fill-opacity="0.35"/>
</g>
<mask id="mask19_1320_2651" style="mask-type:luminance" maskUnits="userSpaceOnUse" x="141" y="221" width="72" height="87">
<path d="M147.998 222.225L148.404 222.137L147.915 221.502L155.569 226.183L198.693 252.556L198.298 252.65L198.792 253.288L147.998 222.225ZM212.061 305.213L206.189 262.839L206.58 263.344L206.89 263.268L212.761 305.637L212.37 305.129L212.061 305.213Z" fill="white"/>
</mask>
<g mask="url(#mask19_1320_2651)">
<rect width="91.2456" height="61.0318" transform="matrix(0.155886 0.990629 -1.00034 0.0471977 199.656 217.914)" fill="#D85A42" fill-opacity="0.35"/>
</g>
<mask id="mask20_1320_2651" style="mask-type:luminance" maskUnits="userSpaceOnUse" x="146" y="274" width="73" height="90">
<path d="M152.099 275.328L152.493 275.23L152.016 274.608L203.862 305.933L203.479 306.037L203.961 306.662L200.515 304.58L152.099 275.328ZM177.458 343.131L211.661 363.525L211.661 363.526L177.458 343.131ZM217.716 360.923L211.571 316.552L211.962 317.061L212.271 316.975L218.417 361.34L218.025 360.829L217.716 360.923Z" fill="white"/>
</mask>
<g mask="url(#mask20_1320_2651)">
<rect width="94.5663" height="62.0839" transform="matrix(0.155658 0.990645 -1.00033 0.0472496 204.944 270.697)" fill="#D85A42" fill-opacity="0.35"/>
</g>
<mask id="mask21_1320_2651" style="mask-type:luminance" maskUnits="userSpaceOnUse" x="149" y="330" width="76" height="93">
<path d="M163.321 390.333L217.448 422.183L217.448 422.184L163.321 390.333ZM156.449 330.98L156.829 330.873L156.365 330.263L209.286 361.844L208.918 361.957L209.385 362.569L175.223 342.184L156.449 330.98ZM223.645 419.316L217.213 372.817L217.603 373.33L217.911 373.234L224.344 419.729L223.951 419.212L223.645 419.316Z" fill="white"/>
</mask>
<g mask="url(#mask21_1320_2651)">
<rect width="97.7574" height="62.6158" transform="matrix(0.155348 0.990667 -1.00032 0.0473194 210.55 326.288)" fill="#D85A42" fill-opacity="0.35"/>
</g>
<mask id="mask22_1320_2651" style="mask-type:luminance" maskUnits="userSpaceOnUse" x="153" y="388" width="78" height="94">
<path d="M160.919 389.373L161.286 389.257L160.836 388.66L215.019 420.517L214.662 420.639L215.117 421.238L160.919 389.373ZM229.958 480.704L223.194 431.874L223.586 432.392L223.892 432.285L230.605 480.746L230.656 481.11L230.262 480.59L229.958 480.704Z" fill="white"/>
</mask>
<g mask="url(#mask22_1320_2651)">
<rect width="98.4003" height="65.0909" transform="matrix(0.155751 0.990638 -1.00034 0.0472285 216.533 385.025)" fill="#D85A42" fill-opacity="0.35"/>
</g>
<mask id="mask23_1320_2651" style="mask-type:luminance" maskUnits="userSpaceOnUse" x="158" y="449" width="80" height="99">
<path d="M164.591 504.08L158.851 453.077L164.592 504.081L164.591 504.08ZM165.631 450.708L165.987 450.584L165.549 449.999L186.615 462.209L220.92 482.095L220.575 482.225L221.017 482.812L212.518 477.885L165.631 450.708ZM236.432 545.146L232.858 519.321L229.334 493.85L229.727 494.371L230.031 494.253L237.129 545.543L236.735 545.018L236.432 545.146Z" fill="white"/>
</mask>
<g mask="url(#mask23_1320_2651)">
<rect width="104.026" height="67.3682" transform="matrix(0.155487 0.990657 -1.00033 0.0472881 222.536 445.895)" fill="#D85A42" fill-opacity="0.35"/>
</g>
<mask id="mask24_1320_2651" style="mask-type:luminance" maskUnits="userSpaceOnUse" x="70" y="132" width="72" height="85">
<path d="M73.3985 164.058L70.8472 134.251L70.8473 134.252L73.3985 164.058ZM82.3264 184.162L134.179 215.843L82.3266 184.163L82.3264 184.162ZM77.8301 133.668L78.2642 133.599L77.7674 132.955L128.535 164.336L128.112 164.413L128.615 165.061L77.8301 133.668ZM140.357 214.553L135.818 174.353L136.195 174.838L136.51 174.78L138.569 193.023L141.048 214.976L140.672 214.488L140.357 214.553Z" fill="white"/>
</mask>
<g mask="url(#mask24_1320_2651)">
<rect width="88.5473" height="61.8017" transform="matrix(0.156385 0.990593 -1.00036 0.0470821 129.455 129.511)" fill="#D85A42" fill-opacity="0.35"/>
</g>
<mask id="mask25_1320_2651" style="mask-type:luminance" maskUnits="userSpaceOnUse" x="73" y="183" width="72" height="86">
<path d="M77.3307 226.959L73.7565 185.225L73.7578 185.225L77.3307 226.959ZM85.002 237.657L85.0032 237.657L99.2741 246.268L85.002 237.657ZM80.2238 184.019L80.6465 183.941L80.1616 183.31L132.035 214.995L131.625 215.081L132.115 215.715L99.6502 195.886L80.2238 184.019ZM144.283 267.419L139.913 228.736L139.529 225.338L139.906 225.827L140.22 225.759L141.598 237.956L144.972 267.836L144.595 267.344L144.283 267.419Z" fill="white"/>
</mask>
<g mask="url(#mask25_1320_2651)">
<rect width="90.7555" height="63.5576" transform="matrix(0.156424 0.99059 -1.00036 0.0470731 133.162 179.809)" fill="#D85A42" fill-opacity="0.35"/>
</g>
<mask id="mask26_1320_2651" style="mask-type:luminance" maskUnits="userSpaceOnUse" x="83" y="236" width="67" height="90">
<path d="M83.1218 236.75L83.5279 236.663L83.0592 236.045L135.754 267.958L135.358 268.052L135.832 268.673L97.3079 245.342L83.1218 236.75ZM148.355 322.619L144.91 291.928L143.417 278.621L143.791 279.112L144.102 279.035L149.04 323.029L148.664 322.535L148.355 322.619Z" fill="white"/>
</mask>
<g mask="url(#mask26_1320_2651)">
<rect width="94.4489" height="58.2756" transform="matrix(0.154862 0.990701 -1.00031 0.0474278 137.169 232.128)" fill="#D85A42" fill-opacity="0.35"/>
</g>
<mask id="mask27_1320_2651" style="mask-type:luminance" maskUnits="userSpaceOnUse" x="77" y="291" width="77" height="93">
<path d="M85.4196 292.048L85.8159 291.951L85.3582 291.344L139.492 323.602L139.107 323.707L139.57 324.316L103.304 302.705L85.4196 292.048ZM152.634 380.873L147.419 334.645L147.795 335.141L148.107 335.055L151.566 365.719L153.322 381.277L152.944 380.777L152.634 380.873Z" fill="white"/>
</mask>
<g mask="url(#mask27_1320_2651)">
<rect width="97.9875" height="66.4251" transform="matrix(0.156046 0.990617 -1.00035 0.0471609 140.64 287.293)" fill="#D85A42" fill-opacity="0.35"/>
</g>
<mask id="mask28_1320_2651" style="mask-type:luminance" maskUnits="userSpaceOnUse" x="81" y="349" width="77" height="96">
<path d="M85.344 400.256L81.2209 352.036L81.2207 352.035L85.344 400.256ZM88.1979 350.092L88.5825 349.985L88.1369 349.391L141.859 380.957L143.518 381.933L143.146 382.046L143.596 382.642L141.051 381.147L88.1979 350.092ZM157.159 441.908L156.41 435.272L151.683 393.361L152.06 393.86L152.37 393.764L157.846 442.306L157.468 441.803L157.159 441.908Z" fill="white"/>
</mask>
<g mask="url(#mask28_1320_2651)">
<rect width="100.196" height="68.1806" transform="matrix(0.156091 0.990614 -1.00035 0.0471505 144.638 345.603)" fill="#D85A42" fill-opacity="0.35"/>
</g>
<mask id="mask29_1320_2651" style="mask-type:luminance" maskUnits="userSpaceOnUse" x="84" y="410" width="79" height="97">
<path d="M91.1381 411.095L91.5089 410.979L91.0752 410.398L146.6 442.53L147.788 443.218L147.429 443.34L147.867 443.925L94.2877 412.919L91.1381 411.095ZM161.968 506.11L156.205 455.055L156.584 455.561L156.893 455.453L162.654 506.502L162.275 505.994L161.968 506.11Z" fill="white"/>
</mask>
<g mask="url(#mask29_1320_2651)">
<rect width="101.838" height="69.9595" transform="matrix(0.156202 0.990606 -1.00035 0.0471247 149.485 406.682)" fill="#D85A42" fill-opacity="0.35"/>
</g>
<mask id="mask30_1320_2651" style="mask-type:luminance" maskUnits="userSpaceOnUse" x="86" y="474" width="82" height="104">
<path d="M90.744 530.898L86.1828 477.471L90.7453 530.898L90.744 530.898ZM94.2056 475.288L94.5642 475.163L94.1444 474.594L152.142 507.656L151.796 507.788L152.22 508.359L94.2056 475.288ZM166.86 573.645L162.111 531.497L160.807 519.923L161.185 520.431L161.492 520.312L162.164 526.282L167.544 574.028L167.166 573.516L166.86 573.645Z" fill="white"/>
</mask>
<g mask="url(#mask30_1320_2651)">
<rect width="108.487" height="72.325" transform="matrix(0.155846 0.990631 -1.00034 0.0472068 153.838 470.382)" fill="#D85A42" fill-opacity="0.35"/>
</g>
<mask id="mask31_1320_2651" style="mask-type:luminance" maskUnits="userSpaceOnUse" x="3" y="94" width="71" height="85">
<path d="M10.2966 95.0989L10.7466 95.0395L10.255 94.399L62.0536 126.399L61.615 126.466L62.1109 127.11L10.2966 95.0989ZM50.7914 168.734L66.3124 178.21L66.3125 178.212L50.7914 168.734ZM72.7407 176.336L71.8797 166.285L69.325 136.468L69.6869 136.936L70.003 136.886L73.4193 176.751L73.057 176.279L72.7407 176.336Z" fill="white"/>
</mask>
<g mask="url(#mask31_1320_2651)">
<rect width="89.1496" height="62.9646" transform="matrix(0.156519 0.990584 -1.00036 0.0470506 62.8809 90.8445)" fill="#D85A42" fill-opacity="0.35"/>
</g>
<mask id="mask32_1320_2651" style="mask-type:luminance" maskUnits="userSpaceOnUse" x="3" y="144" width="73" height="86">
<path d="M5.99467 187.128L3.63972 145.725L3.63979 145.725L5.99467 187.128ZM11.1008 145.053L11.5383 144.983L11.0594 144.355L64.056 176.692L63.631 176.768L64.1154 177.4L48.5746 167.919L11.1008 145.053ZM75.127 228.862L71.5441 187.094L71.9069 187.566L72.2222 187.507L75.8058 229.272L75.4438 228.796L75.127 228.862Z" fill="white"/>
</mask>
<g mask="url(#mask32_1320_2651)">
<rect width="90.2647" height="66.0883" transform="matrix(0.156912 0.990556 -1.00038 0.046957 65.335 140.668)" fill="#D85A42" fill-opacity="0.35"/>
</g>
<mask id="mask33_1320_2651" style="mask-type:luminance" maskUnits="userSpaceOnUse" x="12" y="196" width="67" height="91">
<path d="M15.648 252.424L70.7542 285.319L15.6493 252.424L15.648 252.424ZM12.3446 197.389L12.7667 197.31L12.3039 196.695L66.172 229.277L65.761 229.363L66.2294 229.981L56.9507 224.369L12.3446 197.389ZM77.5526 283.691L73.8289 240.002L74.1901 240.478L74.5036 240.41L78.2267 284.095L77.8664 283.617L77.5526 283.691Z" fill="white"/>
</mask>
<g mask="url(#mask33_1320_2651)">
<rect width="94.9829" height="60.8832" transform="matrix(0.155358 0.990666 -1.00032 0.0473173 67.3618 192.673)" fill="#D85A42" fill-opacity="0.35"/>
</g>
<mask id="mask34_1320_2651" style="mask-type:luminance" maskUnits="userSpaceOnUse" x="5" y="251" width="76" height="94">
<path d="M7.70999 299.019L5.12403 253.449L7.71127 299.019L7.70999 299.019ZM16.4863 310.925L73.1603 344.191L73.1617 344.192L16.4863 310.925ZM12.9464 252.301L13.3576 252.213L12.9046 251.609L68.2587 284.559L67.8576 284.655L68.316 285.261L12.9464 252.301ZM80.1128 341.595L79.8767 338.85L76.1782 295.671L76.5404 296.151L76.855 296.073L80.7891 341.994L80.4266 341.511L80.1128 341.595Z" fill="white"/>
</mask>
<g mask="url(#mask34_1320_2651)">
<rect width="98.0836" height="69.5878" transform="matrix(0.15657 0.99058 -1.00037 0.0470387 69.4907 247.823)" fill="#D85A42" fill-opacity="0.35"/>
</g>
<mask id="mask35_1320_2651" style="mask-type:luminance" maskUnits="userSpaceOnUse" x="7" y="309" width="77" height="94">
<path d="M13.9759 309.969L14.3755 309.871L13.9346 309.28L70.6044 342.541L70.2174 342.646L70.661 343.238L13.9759 309.969ZM82.8982 402.301L82.0435 392.322L78.7628 354.041L79.1255 354.525L79.4392 354.439L83.5739 402.693L83.2107 402.206L82.8982 402.301Z" fill="white"/>
</mask>
<g mask="url(#mask35_1320_2651)">
<rect width="99.7093" height="70.84" transform="matrix(0.156585 0.990579 -1.00037 0.0470351 72.0679 305.219)" fill="#D85A42" fill-opacity="0.35"/>
</g>
<mask id="mask36_1320_2651" style="mask-type:luminance" maskUnits="userSpaceOnUse" x="6" y="369" width="81" height="100">
<path d="M9.62749 422.753L6.76669 372.328L6.76685 372.33L9.62877 422.753L9.62749 422.753ZM14.9891 370.608L15.3754 370.5L14.9483 369.922L16.9955 371.107L72.9513 403.472L72.5762 403.587L73.0089 404.167L16.9957 371.769L14.9891 370.608ZM85.6992 466.144L82.4489 428.179L81.3529 415.385L81.716 415.873L82.0291 415.775L86.3747 466.53L86.0112 466.039L85.6992 466.144Z" fill="white"/>
</mask>
<g mask="url(#mask36_1320_2651)">
<rect width="104.656" height="73.1412" transform="matrix(0.1564 0.990592 -1.00036 0.0470786 74.1514 365.92)" fill="#D85A42" fill-opacity="0.35"/>
</g>
<mask id="mask37_1320_2651" style="mask-type:luminance" maskUnits="userSpaceOnUse" x="10" y="433" width="80" height="101">
<path d="M16.0994 434.457L16.473 434.34L16.0577 433.775L75.5293 467.618L75.1669 467.741L75.5864 468.309L16.0994 434.457ZM88.78 533.458L84.1977 479.974L84.5603 480.466L84.8732 480.357L89.4548 533.836L89.0904 533.34L88.78 533.458Z" fill="white"/>
</mask>
<g mask="url(#mask37_1320_2651)">
<rect width="106.411" height="74.916" transform="matrix(0.156483 0.990586 -1.00036 0.0470591 76.7017 429.766)" fill="#D85A42" fill-opacity="0.35"/>
</g>
<mask id="mask38_1320_2651" style="mask-type:luminance" maskUnits="userSpaceOnUse" x="10" y="501" width="83" height="104">
<path d="M17.2809 501.776L17.6413 501.649L17.2383 501.096L23.0023 504.321L78.1915 535.203L77.8409 535.336L78.248 535.891L17.2809 501.776ZM91.9578 604.438L87.1284 548.027L87.4914 548.524L87.8025 548.403L92.6324 604.809L92.2676 604.308L91.9578 604.438Z" fill="white"/>
</mask>
<g mask="url(#mask38_1320_2651)">
<rect width="110.318" height="76.601" transform="matrix(0.156326 0.990597 -1.00036 0.0470959 79.4897 496.869)" fill="#D85A42" fill-opacity="0.35"/>
</g>
<mask id="mask39_1320_2651" style="mask-type:luminance" maskUnits="userSpaceOnUse" x="-67" y="55" width="72" height="85">
<path d="M-65.2367 95.267L-66.2654 56.1128L-66.2653 56.1132L-65.2354 95.267L-65.2367 95.267ZM-57.1499 106.133L-3.01428 139.144L-3.01294 139.144L-57.1499 106.133ZM-58.6695 55.7713L-58.2029 55.7213L-58.69 55.0839L-5.75108 87.7427L-6.2062 87.8003L-5.71481 88.441L-58.6695 55.7713ZM3.76767 137.41L1.5167 97.8678L1.86443 98.3219L2.18362 98.2793L3.89506 128.314L4.43531 137.817L4.08727 137.361L3.76767 137.41Z" fill="white"/>
</mask>
<g mask="url(#mask39_1320_2651)">
<rect width="89.261" height="66.6608" transform="matrix(0.15712 0.990541 -1.00039 0.0469067 -5.1626 51.2641)" fill="#D85A42" fill-opacity="0.35"/>
</g>
<mask id="mask40_1320_2651" style="mask-type:luminance" maskUnits="userSpaceOnUse" x="-60" y="104" width="66" height="86">
<path d="M-57.5258 158.002L-57.5245 158.002L-12.3363 185.286L-57.5258 158.002ZM-59.1021 105.294L-58.6504 105.234L-59.1222 104.609L-46.5254 112.31L-5.23015 137.554L-5.67051 137.622L-5.19459 138.248L-59.1021 105.294ZM4.55291 189.348L2.21058 147.994L2.55716 148.45L2.8752 148.4L5.21706 189.75L4.86994 189.29L4.55291 189.348Z" fill="white"/>
</mask>
<g mask="url(#mask40_1320_2651)">
<rect width="91.2617" height="61.5583" transform="matrix(0.155987 0.990621 -1.00035 0.0471745 -4.53076 100.661)" fill="#D85A42" fill-opacity="0.35"/>
</g>
<mask id="mask41_1320_2651" style="mask-type:luminance" maskUnits="userSpaceOnUse" x="-60" y="156" width="66" height="91">
<path d="M-58.2424 212.515L-1.85827 246.134L-1.85699 246.134L-58.2424 212.515ZM-59.8916 157.215L-59.4533 157.145L-59.9125 156.534L-4.83767 189.806L-5.26471 189.884L-4.8012 190.498L-14.744 184.49L-59.8916 157.215ZM5.26352 243.95L2.8107 200.593L3.15753 201.052L3.47409 200.993L5.92628 244.347L5.58044 243.885L5.26352 243.95Z" fill="white"/>
</mask>
<g mask="url(#mask41_1320_2651)">
<rect width="95.1688" height="63.245" transform="matrix(0.155807 0.990634 -1.00034 0.0472156 -3.97461 152.651)" fill="#D85A42" fill-opacity="0.35"/>
</g>
<mask id="mask42_1320_2651" style="mask-type:luminance" maskUnits="userSpaceOnUse" x="-70" y="211" width="77" height="93">
<path d="M-68.0519 257.949L-69.2381 212.727L-68.0506 257.949L-68.0519 257.949ZM-59.3013 269.917L-1.31447 303.924L-1.31431 303.925L-59.3013 269.917ZM-61.0536 211.713L-60.6252 211.633L-61.0729 211.034L-4.46714 244.699L-4.88311 244.785L-4.43087 245.388L-61.0536 211.713ZM6.03543 301.475L3.44126 255.876L3.78876 256.34L4.10649 256.271L6.70018 301.866L6.35235 301.4L6.03543 301.475Z" fill="white"/>
</mask>
<g mask="url(#mask42_1320_2651)">
<rect width="98.7256" height="72.071" transform="matrix(0.156881 0.990558 -1.00038 0.0469645 -3.84912 206.926)" fill="#D85A42" fill-opacity="0.35"/>
</g>
<mask id="mask43_1320_2651" style="mask-type:luminance" maskUnits="userSpaceOnUse" x="-70" y="268" width="78" height="97">
<path d="M-68.5619 312.923L-69.6714 270.642L-69.6701 270.642L-68.5619 312.923ZM-60.1058 329.531L-0.717326 363.847L-60.1045 329.531L-60.1058 329.531ZM-61.9255 268.974L-61.5114 268.885L-61.9458 268.298L-3.9934 302.29L-4.39754 302.385L-3.9576 302.976L-61.9255 268.974ZM6.8738 361.793L4.14693 313.86L4.49609 314.327L4.81259 314.25L5.7949 331.517L7.53881 362.178L7.19045 361.708L6.8738 361.793Z" fill="white"/>
</mask>
<g mask="url(#mask43_1320_2651)">
<rect width="101.5" height="73.8028" transform="matrix(0.156839 0.990561 -1.00038 0.0469748 -3.34229 264.466)" fill="#D85A42" fill-opacity="0.35"/>
</g>
<mask id="mask44_1320_2651" style="mask-type:luminance" maskUnits="userSpaceOnUse" x="-72" y="328" width="81" height="101">
<path d="M-60.9147 393.718L-60.9134 393.718L-0.0196423 428.352L-60.9147 393.718ZM-62.8521 329.22L-62.4499 329.121L-62.8707 328.547L-3.50379 362.858L-3.89485 362.964L-3.46849 363.541L-62.8521 329.22ZM7.75066 425.298L4.88209 374.848L5.23032 375.318L5.54783 375.23L8.41448 425.677L8.06557 425.201L7.75066 425.298Z" fill="white"/>
</mask>
<g mask="url(#mask44_1320_2651)">
<rect width="105.314" height="76.1511" transform="matrix(0.156779 0.990565 -1.00037 0.0469891 -2.48779 324.693)" fill="#D85A42" fill-opacity="0.35"/>
</g>
<mask id="mask45_1320_2651" style="mask-type:luminance" maskUnits="userSpaceOnUse" x="-72" y="392" width="82" height="103">
<path d="M-70.6152 447.791L-71.5544 411.94L-70.6151 447.792L-70.6152 447.791ZM-63.7931 392.691L-63.4052 392.582L-63.8138 392.02L-43.8314 403.388L-2.96084 426.64L-3.33875 426.755L-2.92477 427.318L-63.7931 392.691ZM8.70307 492.246L8.28711 484.908L5.68238 439.073L6.03127 439.549L6.34721 439.451L8.77968 482.261L9.36709 492.619L9.019 492.139L8.70307 492.246Z" fill="white"/>
</mask>
<g mask="url(#mask45_1320_2651)">
<rect width="109.092" height="77.3122" transform="matrix(0.156557 0.990581 -1.00037 0.0470417 -2.00439 387.664)" fill="#D85A42" fill-opacity="0.35"/>
</g>
<mask id="mask46_1320_2651" style="mask-type:luminance" maskUnits="userSpaceOnUse" x="-65" y="458" width="76" height="109">
<path d="M-64.0258 459.642L-63.6521 459.524L-64.0442 458.977L-2.24407 493.77L-2.60434 493.893L-2.20793 494.443L-64.0258 459.642ZM9.70601 562.569L6.57853 506.635L6.92429 507.114L7.23552 507.005L8.3394 526.749L10.3635 562.933L10.0173 562.451L9.70601 562.569Z" fill="white"/>
</mask>
<g mask="url(#mask46_1320_2651)">
<rect width="113.12" height="64.5332" transform="matrix(0.153778 0.990778 -1.00027 0.0476643 -0.756836 454.902)" fill="#D85A42" fill-opacity="0.35"/>
</g>
<mask id="mask47_1320_2651" style="mask-type:luminance" maskUnits="userSpaceOnUse" x="444" y="341" width="11" height="13">
<path d="M444.06 343.243L444.411 343.122L449.443 341.412L453.296 346.235L454.212 352.765L452.514 353.358L452.213 353.462L451.758 352.891L444.591 343.909L444.06 343.243Z" fill="white"/>
</mask>
<g mask="url(#mask47_1320_2651)">
<rect width="14.0565" height="10.2652" transform="matrix(0.156858 0.99056 -1.00038 0.046975 452.845 340.098)" fill="#D85A42" fill-opacity="0.35"/>
</g>
<mask id="mask48_1320_2651" style="mask-type:luminance" maskUnits="userSpaceOnUse" x="454" y="394" width="6" height="8">
<path d="M454.339 395.564L454.676 395.436L458.242 394.074L459.324 401.913L454.85 396.214L454.339 395.564Z" fill="white"/>
</mask>
<g mask="url(#mask48_1320_2651)">
<rect width="10.0535" height="5.42493" transform="matrix(0.152907 0.99084 -1.00024 0.0478685 458.581 392.994)" fill="#D85A42" fill-opacity="0.35"/>
</g>
<mask id="mask49_1320_2651" style="mask-type:luminance" maskUnits="userSpaceOnUse" x="383" y="306" width="15" height="13">
<path d="M383.528 308.602L383.9 308.49L389.251 306.872L396.959 316.503L397.493 317.171L397.126 317.284L392.101 318.844L391.792 318.94L391.347 318.382L384.063 309.269L383.528 308.602Z" fill="white"/>
</mask>
<g mask="url(#mask49_1320_2651)">
<rect width="14.0554" height="14.1207" transform="matrix(0.159342 0.990386 -1.00048 0.0462893 396.478 305.677)" fill="#D85A42" fill-opacity="0.35"/>
</g>
<mask id="mask50_1320_2651" style="mask-type:luminance" maskUnits="userSpaceOnUse" x="392" y="358" width="15" height="14">
<path d="M392.593 360.548L392.951 360.427L398.09 358.692L398.397 358.588L398.842 359.147L406.309 368.531L406.831 369.185L406.476 369.309L401.355 371.082L401.05 371.188L400.603 370.627L393.113 361.202L392.593 360.548Z" fill="white"/>
</mask>
<g mask="url(#mask50_1320_2651)">
<rect width="14.7549" height="14.7522" transform="matrix(0.159319 0.990387 -1.00048 0.0462978 405.677 357.057)" fill="#D85A42" fill-opacity="0.35"/>
</g>
<mask id="mask51_1320_2651" style="mask-type:luminance" maskUnits="userSpaceOnUse" x="402" y="412" width="15" height="14">
<path d="M402.062 414.843L402.408 414.715L402.409 414.715L407.645 412.747L407.948 412.633L408.394 413.198L416.075 422.906L416.583 423.548L416.24 423.679L411.023 425.685L410.72 425.803L410.274 425.237L402.569 415.484L402.062 414.843Z" fill="white"/>
</mask>
<g mask="url(#mask51_1320_2651)">
<rect width="15.3409" height="15.3895" transform="matrix(0.159335 0.990386 -1.00048 0.0462919 415.839 411.197)" fill="#D85A42" fill-opacity="0.35"/>
</g>
<mask id="mask52_1320_2651" style="mask-type:luminance" maskUnits="userSpaceOnUse" x="411" y="469" width="16" height="14">
<path d="M411.972 471.649L412.304 471.512L412.305 471.512L417.641 469.293L417.942 469.168L418.388 469.737L426.293 479.789L426.786 480.417L426.456 480.556L421.141 482.817L420.84 482.944L420.392 482.375L412.463 472.276L411.972 471.649Z" fill="white"/>
</mask>
<g mask="url(#mask52_1320_2651)">
<rect width="15.7754" height="14.7005" transform="matrix(0.158937 0.990413 -1.00046 0.0464214 425.635 468.08)" fill="#D85A42" fill-opacity="0.35"/>
</g>
<mask id="mask53_1320_2651" style="mask-type:luminance" maskUnits="userSpaceOnUse" x="422" y="528" width="16" height="15">
<path d="M422.349 531.144L422.67 530.997L428.108 528.504L428.406 528.368L428.852 528.941L436.991 539.357L437.47 539.971L437.153 540.12L431.737 542.656L431.44 542.797L430.992 542.222L422.828 531.758L422.349 531.144Z" fill="white"/>
</mask>
<g mask="url(#mask53_1320_2651)">
<rect width="16.3621" height="15.337" transform="matrix(0.158961 0.990412 -1.00046 0.0464178 436.165 527.058)" fill="#D85A42" fill-opacity="0.35"/>
</g>
<mask id="mask54_1320_2651" style="mask-type:luminance" maskUnits="userSpaceOnUse" x="321" y="271" width="16" height="13">
<path d="M321.87 273.388L322.256 273.284L327.87 271.775L335.58 281.457L336.108 282.122L335.727 282.228L330.442 283.688L330.13 283.774L329.701 283.235L329.701 283.234L322.399 274.052L321.87 273.388Z" fill="white"/>
</mask>
<g mask="url(#mask54_1320_2651)">
<rect width="14.1688" height="14.1149" transform="matrix(0.159301 0.990389 -1.00047 0.0463043 334.912 270.387)" fill="#D85A42" fill-opacity="0.35"/>
</g>
<mask id="mask55_1320_2651" style="mask-type:luminance" maskUnits="userSpaceOnUse" x="329" y="323" width="16" height="13">
<path d="M329.64 325.045L330.013 324.932L335.422 323.297L335.732 323.203L336.161 323.745L343.646 333.2L344.161 333.853L343.794 333.967L338.402 335.64L338.401 335.64L338.093 335.736L337.663 335.193L330.154 325.696L330.154 325.695L329.64 325.045Z" fill="white"/>
</mask>
<g mask="url(#mask55_1320_2651)">
<rect width="14.7738" height="15.419" transform="matrix(0.159511 0.990374 -1.00049 0.0462244 343.447 321.928)" fill="#D85A42" fill-opacity="0.35"/>
</g>
<mask id="mask56_1320_2651" style="mask-type:luminance" maskUnits="userSpaceOnUse" x="337" y="376" width="16" height="15">
<path d="M337.769 379.059L338.129 378.938L343.648 377.073L343.649 377.073L343.956 376.969L344.386 377.515L352.084 387.3L352.085 387.3L352.586 387.938L352.231 388.061L346.73 389.967L346.423 390.073L345.992 389.524L338.27 379.697L337.769 379.059Z" fill="white"/>
</mask>
<g mask="url(#mask56_1320_2651)">
<rect width="15.3371" height="15.2562" transform="matrix(0.159293 0.990389 -1.00047 0.0463069 351.537 375.652)" fill="#D85A42" fill-opacity="0.35"/>
</g>
<mask id="mask57_1320_2651" style="mask-type:luminance" maskUnits="userSpaceOnUse" x="346" y="433" width="16" height="14">
<path d="M346.273 435.596L346.621 435.465L352.252 433.35L352.558 433.235L352.988 433.787L360.91 443.919L360.911 443.919L361.398 444.543L361.055 444.675L355.443 446.834L355.139 446.951L354.709 446.4L354.707 446.399L346.759 436.219L346.273 435.596Z" fill="white"/>
</mask>
<g mask="url(#mask57_1320_2651)">
<rect width="15.7951" height="15.3655" transform="matrix(0.159184 0.990396 -1.00047 0.0463426 360.055 432.061)" fill="#D85A42" fill-opacity="0.35"/>
</g>
<mask id="mask58_1320_2651" style="mask-type:luminance" maskUnits="userSpaceOnUse" x="355" y="492" width="16" height="15">
<path d="M355.186 494.836L355.52 494.696L361.267 492.308L361.569 492.182L362 492.737L370.157 503.238L370.631 503.849L370.3 503.99L364.575 506.424L364.273 506.553L363.841 505.997L355.659 495.445L355.186 494.836Z" fill="white"/>
</mask>
<g mask="url(#mask58_1320_2651)">
<rect width="16.3621" height="15.337" transform="matrix(0.158975 0.990411 -1.00046 0.046409 369.381 491.126)" fill="#D85A42" fill-opacity="0.35"/>
</g>
<mask id="mask59_1320_2651" style="mask-type:luminance" maskUnits="userSpaceOnUse" x="364" y="554" width="17" height="16">
<path d="M364.534 556.978L364.856 556.829L370.72 554.142L371.021 554.004L371.453 554.564L379.853 565.454L380.315 566.052L379.997 566.201L374.155 568.938L373.855 569.078L373.423 568.518L364.994 557.574L364.534 556.978Z" fill="white"/>
</mask>
<g mask="url(#mask59_1320_2651)">
<rect width="16.9482" height="15.9741" transform="matrix(0.159008 0.990409 -1.00046 0.0463991 378.978 552.887)" fill="#D85A42" fill-opacity="0.35"/>
</g>
<mask id="mask60_1320_2651" style="mask-type:luminance" maskUnits="userSpaceOnUse" x="259" y="236" width="15" height="12">
<path d="M259.047 237.511L259.447 237.417L265.334 236.021L273.043 245.756L273.567 246.418L273.17 246.514L267.616 247.871L267.3 247.948L266.887 247.425L259.57 238.172L259.047 237.511Z" fill="white"/>
</mask>
<g mask="url(#mask60_1320_2651)">
<rect width="14.1877" height="14.7817" transform="matrix(0.159504 0.990375 -1.00049 0.0462273 272.623 234.697)" fill="#D85A42" fill-opacity="0.35"/>
</g>
<mask id="mask61_1320_2651" style="mask-type:luminance" maskUnits="userSpaceOnUse" x="265" y="287" width="16" height="13">
<path d="M265.478 288.858L265.865 288.753L271.555 287.224L271.869 287.14L272.283 287.666L279.782 297.192L279.783 297.192L280.293 297.841L279.91 297.947L274.237 299.515L273.924 299.601L273.51 299.075L265.987 289.505L265.478 288.858Z" fill="white"/>
</mask>
<g mask="url(#mask61_1320_2651)">
<rect width="14.7549" height="14.7522" transform="matrix(0.159319 0.990387 -1.00048 0.0462978 279.225 285.813)" fill="#D85A42" fill-opacity="0.35"/>
</g>
<mask id="mask62_1320_2651" style="mask-type:luminance" maskUnits="userSpaceOnUse" x="272" y="340" width="16" height="14">
<path d="M272.205 342.569L272.579 342.456L278.393 340.699L278.704 340.604L279.118 341.133L279.119 341.134L286.832 350.995L287.329 351.63L286.958 351.745L281.164 353.543L280.853 353.64L280.439 353.109L272.701 343.203L272.205 342.569Z" fill="white"/>
</mask>
<g mask="url(#mask62_1320_2651)">
<rect width="15.3371" height="15.2562" transform="matrix(0.159293 0.990389 -1.00047 0.0463069 285.912 339.071)" fill="#D85A42" fill-opacity="0.35"/>
</g>
<mask id="mask63_1320_2651" style="mask-type:luminance" maskUnits="userSpaceOnUse" x="279" y="396" width="16" height="15">
<path d="M279.25 398.815L279.611 398.692L285.55 396.687L285.86 396.581L286.273 397.115L294.211 407.327L294.694 407.95L294.338 408.073L294.336 408.074L288.418 410.123L288.108 410.231L287.695 409.696L279.732 399.436L279.25 398.815Z" fill="white"/>
</mask>
<g mask="url(#mask63_1320_2651)">
<rect width="15.9276" height="16.0261" transform="matrix(0.15935 0.990385 -1.00048 0.0462866 293.682 394.966)" fill="#D85A42" fill-opacity="0.35"/>
</g>
<mask id="mask64_1320_2651" style="mask-type:luminance" maskUnits="userSpaceOnUse" x="286" y="455" width="17" height="15">
<path d="M286.635 457.777L286.984 457.647L293.053 455.368L293.359 455.251L293.774 455.789L293.775 455.79L301.947 466.374L301.947 466.375L302.416 466.983L302.071 467.116L296.023 469.442L295.717 469.559L295.302 469.021L287.104 458.385L287.103 458.385L286.635 457.777Z" fill="white"/>
</mask>
<g mask="url(#mask64_1320_2651)">
<rect width="15.9238" height="15.8927" transform="matrix(0.159323 0.990387 -1.00048 0.046293 301.021 454.177)" fill="#D85A42" fill-opacity="0.35"/>
</g>
<mask id="mask65_1320_2651" style="mask-type:luminance" maskUnits="userSpaceOnUse" x="294" y="516" width="17" height="16">
<path d="M294.388 519.659L294.723 519.519L300.925 516.942L301.23 516.815L301.646 517.357L310.063 528.337L310.519 528.932L310.186 529.073L304.008 531.701L303.703 531.83L303.288 531.287L294.843 520.253L294.388 519.659Z" fill="white"/>
</mask>
<g mask="url(#mask65_1320_2651)">
<rect width="16.8539" height="16.6458" transform="matrix(0.15927 0.99039 -1.00047 0.0463117 309.338 515.576)" fill="#D85A42" fill-opacity="0.35"/>
</g>
<mask id="mask66_1320_2651" style="mask-type:luminance" maskUnits="userSpaceOnUse" x="195" y="199" width="15" height="13">
<path d="M195.031 200.954L195.447 200.868L201.615 199.591L209.323 209.376L209.841 210.036L209.43 210.123L203.595 211.37L203.277 211.439L202.88 210.932L195.548 201.612L195.031 200.954Z" fill="white"/>
</mask>
<g mask="url(#mask66_1320_2651)">
<rect width="13.6392" height="15.48" transform="matrix(0.159791 0.990355 -1.00051 0.0460883 209.094 198.533)" fill="#D85A42" fill-opacity="0.35"/>
</g>
<mask id="mask67_1320_2651" style="mask-type:luminance" maskUnits="userSpaceOnUse" x="200" y="250" width="16" height="13">
<path d="M200.068 251.967L200.47 251.872L206.454 250.454L206.77 250.378L207.167 250.887L214.682 260.487L215.186 261.132L214.788 261.23L208.822 262.686L208.506 262.763L208.109 262.254L200.571 252.611L200.068 251.967Z" fill="white"/>
</mask>
<g mask="url(#mask67_1320_2651)">
<rect width="14.2066" height="15.4492" transform="matrix(0.15966 0.990364 -1.0005 0.046159 214.294 249.183)" fill="#D85A42" fill-opacity="0.35"/>
</g>
<mask id="mask68_1320_2651" style="mask-type:luminance" maskUnits="userSpaceOnUse" x="205" y="303" width="16" height="14">
<path d="M205.34 305.355L205.729 305.25L211.847 303.605L211.849 303.605L212.163 303.52L212.561 304.033L220.289 313.971L220.779 314.601L220.393 314.708L214.294 316.394L213.98 316.481L213.582 315.967L205.831 305.986L205.34 305.355Z" fill="white"/>
</mask>
<g mask="url(#mask68_1320_2651)">
<rect width="15.2275" height="15.3953" transform="matrix(0.159372 0.990383 -1.00048 0.0462783 219.703 302.079)" fill="#D85A42" fill-opacity="0.35"/>
</g>
<mask id="mask69_1320_2651" style="mask-type:luminance" maskUnits="userSpaceOnUse" x="210" y="359" width="17" height="14">
<path d="M210.869 361.285L211.245 361.171L217.503 359.279L217.818 359.185L218.216 359.7L226.166 369.994L226.644 370.612L226.272 370.729L220.032 372.665L219.72 372.761L219.321 372.244L211.346 361.904L211.346 361.903L210.869 361.285Z" fill="white"/>
</mask>
<g mask="url(#mask69_1320_2651)">
<rect width="15.2464" height="16.0623" transform="matrix(0.159562 0.99037 -1.00049 0.0462003 225.489 358.12)" fill="#D85A42" fill-opacity="0.35"/>
</g>
<mask id="mask70_1320_2651" style="mask-type:luminance" maskUnits="userSpaceOnUse" x="216" y="417" width="17" height="15">
<path d="M216.662 419.946L217.024 419.824L223.428 417.66L223.74 417.555L224.14 418.076L232.324 428.745L232.788 429.351L232.429 429.475L226.046 431.685L225.735 431.794L225.336 431.272L217.125 420.551L217.125 420.55L216.662 419.946Z" fill="white"/>
</mask>
<g mask="url(#mask70_1320_2651)">
<rect width="16.3813" height="16.0028" transform="matrix(0.159207 0.990395 -1.00047 0.0463349 231.431 416.295)" fill="#D85A42" fill-opacity="0.35"/>
</g>
<mask id="mask71_1320_2651" style="mask-type:luminance" maskUnits="userSpaceOnUse" x="222" y="478" width="18" height="16">
<path d="M222.747 481.543L223.097 481.411L229.65 478.95L229.652 478.95L229.96 478.834L230.36 479.359L238.79 490.429L239.241 491.021L238.894 491.155L232.364 493.665L232.055 493.784L231.655 493.258L223.197 482.134L222.747 481.543Z" fill="white"/>
</mask>
<g mask="url(#mask71_1320_2651)">
<rect width="16.9826" height="17.1731" transform="matrix(0.159386 0.990382 -1.00048 0.0462699 238.275 477.687)" fill="#D85A42" fill-opacity="0.35"/>
</g>
<mask id="mask72_1320_2651" style="mask-type:luminance" maskUnits="userSpaceOnUse" x="229" y="543" width="18" height="16">
<path d="M229.139 546.3L229.477 546.159L236.184 543.373L236.491 543.245L236.892 543.773L245.58 555.269L246.016 555.848L245.682 555.99L239 558.831L238.693 558.962L238.292 558.432L229.575 546.877L229.139 546.3Z" fill="white"/>
</mask>
<g mask="url(#mask72_1320_2651)">
<rect width="18.0032" height="17.121" transform="matrix(0.159063 0.990405 -1.00046 0.0463811 244.853 541.927)" fill="#D85A42" fill-opacity="0.35"/>
</g>
<mask id="mask73_1320_2651" style="mask-type:luminance" maskUnits="userSpaceOnUse" x="129" y="162" width="16" height="13">
<path d="M129.791 163.695L130.222 163.618L136.683 162.465L144.386 172.302L144.899 172.958L144.473 173.036L138.348 174.169L138.027 174.228L137.643 173.738L130.303 164.35L129.791 163.695Z" fill="white"/>
</mask>
<g mask="url(#mask73_1320_2651)">
<rect width="13.6355" height="15.3463" transform="matrix(0.159772 0.990356 -1.0005 0.0460994 143.947 161.352)" fill="#D85A42" fill-opacity="0.35"/>
</g>
<mask id="mask74_1320_2651" style="mask-type:luminance" maskUnits="userSpaceOnUse" x="133" y="212" width="16" height="14">
<path d="M133.378 214.353L133.795 214.267L140.082 212.965L140.402 212.899L140.785 213.392L148.309 223.063L148.31 223.063L148.809 223.705L148.395 223.793L142.126 225.134L141.807 225.202L141.423 224.708L133.877 214.994L133.378 214.353Z" fill="white"/>
</mask>
<g mask="url(#mask74_1320_2651)">
<rect width="14.2253" height="16.1174" transform="matrix(0.159773 0.990356 -1.0005 0.0460987 147.881 211.64)" fill="#D85A42" fill-opacity="0.35"/>
</g>
<mask id="mask75_1320_2651" style="mask-type:luminance" maskUnits="userSpaceOnUse" x="137" y="265" width="16" height="14">
<path d="M137.139 267.391L137.544 267.296L143.98 265.77L144.298 265.694L144.681 266.191L152.419 276.204L152.904 276.832L152.504 276.93L146.086 278.497L145.769 278.575L145.386 278.079L137.624 268.019L137.139 267.391Z" fill="white"/>
</mask>
<g mask="url(#mask75_1320_2651)">
<rect width="14.7889" height="15.953" transform="matrix(0.159647 0.990364 -1.00049 0.0461627 151.967 264.52)" fill="#D85A42" fill-opacity="0.35"/>
</g>
<mask id="mask76_1320_2651" style="mask-type:luminance" maskUnits="userSpaceOnUse" x="141" y="321" width="17" height="14">
<path d="M141.071 322.985L141.463 322.879L148.054 321.107L148.37 321.023L148.755 321.522L156.715 331.895L157.188 332.51L156.801 332.618L150.229 334.434L149.912 334.521L149.528 334.02L141.543 323.599L141.071 322.985Z" fill="white"/>
</mask>
<g mask="url(#mask76_1320_2651)">
<rect width="15.8331" height="16.699" transform="matrix(0.159552 0.990371 -1.00049 0.0462071 156.36 319.638)" fill="#D85A42" fill-opacity="0.35"/>
</g>
<mask id="mask77_1320_2651" style="mask-type:luminance" maskUnits="userSpaceOnUse" x="145" y="379" width="17" height="15">
<path d="M145.21 381.318L145.588 381.204L152.341 379.163L152.656 379.067L153.04 379.57L161.234 390.326L161.693 390.928L161.319 391.044L154.587 393.133L154.272 393.231L153.888 392.727L145.667 381.919L145.21 381.318Z" fill="white"/>
</mask>
<g mask="url(#mask77_1320_2651)">
<rect width="15.8293" height="16.5655" transform="matrix(0.159535 0.990372 -1.00049 0.0462119 160.353 377.957)" fill="#D85A42" fill-opacity="0.35"/>
</g>
<mask id="mask78_1320_2651" style="mask-type:luminance" maskUnits="userSpaceOnUse" x="149" y="440" width="18" height="15">
<path d="M149.555 442.603L149.919 442.48L156.839 440.143L157.152 440.036L157.536 440.543L165.976 451.704L166.422 452.293L166.06 452.419L159.164 454.807L158.851 454.916L158.465 454.407L149.999 443.192L149.555 442.603Z" fill="white"/>
</mask>
<g mask="url(#mask78_1320_2651)">
<rect width="16.9864" height="17.3065" transform="matrix(0.159408 0.990381 -1.00048 0.0462648 165.322 438.465)" fill="#D85A42" fill-opacity="0.35"/>
</g>
<mask id="mask79_1320_2651" style="mask-type:luminance" maskUnits="userSpaceOnUse" x="154" y="504" width="18" height="16">
<path d="M154.123 507.067L154.475 506.935L161.567 504.272L161.879 504.155L162.263 504.666L162.263 504.668L170.961 516.258L171.393 516.834L171.045 516.969L163.976 519.686L163.664 519.806L163.28 519.294L154.554 507.642L154.123 507.067Z" fill="white"/>
</mask>
<g mask="url(#mask79_1320_2651)">
<rect width="17.5497" height="17.144" transform="matrix(0.159214 0.990394 -1.00047 0.0463309 169.896 502.737)" fill="#D85A42" fill-opacity="0.35"/>
</g>
<mask id="mask80_1320_2651" style="mask-type:luminance" maskUnits="userSpaceOnUse" x="63" y="124" width="16" height="13">
<path d="M63.2837 125.714L63.7303 125.647L70.4955 124.623L78.1929 134.513L78.6996 135.165L78.2571 135.234L71.8298 136.247L71.5079 136.297L71.1392 135.823L71.1392 135.823L63.7889 126.365L63.2837 125.714Z" fill="white"/>
</mask>
<g mask="url(#mask80_1320_2651)">
<rect width="13.6392" height="15.48" transform="matrix(0.159777 0.990356 -1.0005 0.0460962 77.6133 123.238)" fill="#D85A42" fill-opacity="0.35"/>
</g>
<mask id="mask81_1320_2651" style="mask-type:luminance" maskUnits="userSpaceOnUse" x="65" y="174" width="17" height="13">
<path d="M65.3684 175.993L65.8004 175.916L72.4027 174.738L72.7246 174.68L73.0935 175.157L80.6252 184.899L80.6254 184.9L81.1193 185.538L80.689 185.617L74.1054 186.835L74.1041 186.835L73.7836 186.894L73.4148 186.417L65.8612 176.632L65.861 176.631L65.3684 175.993Z" fill="white"/>
</mask>
<g mask="url(#mask81_1320_2651)">
<rect width="14.1118" height="16.1236" transform="matrix(0.159807 0.990354 -1.00051 0.0460782 80.2139 173.622)" fill="#D85A42" fill-opacity="0.35"/>
</g>
<mask id="mask82_1320_2651" style="mask-type:luminance" maskUnits="userSpaceOnUse" x="67" y="227" width="17" height="13">
<path d="M67.5438 228.659L67.9635 228.573L74.7291 227.172L75.0509 227.105L75.4187 227.585L83.1646 237.674L83.6447 238.3L83.2292 238.388L83.2279 238.388L76.4801 239.831L76.1599 239.9L75.7906 239.419L68.0226 229.285L67.5438 228.659Z" fill="white"/>
</mask>
<g mask="url(#mask82_1320_2651)">
<rect width="14.8077" height="16.621" transform="matrix(0.159765 0.990357 -1.0005 0.0461032 82.8657 226.038)" fill="#D85A42" fill-opacity="0.35"/>
</g>
<mask id="mask83_1320_2651" style="mask-type:luminance" maskUnits="userSpaceOnUse" x="69" y="282" width="18" height="14">
<path d="M69.8329 283.887L70.2404 283.79L77.1785 282.147L77.4987 282.071L77.8667 282.554L85.8359 293.006L86.3021 293.619L85.8988 293.718L78.9803 295.407L78.6605 295.486L78.2923 295.001L70.2989 284.498L69.8329 283.887Z" fill="white"/>
</mask>
<g mask="url(#mask83_1320_2651)">
<rect width="15.375" height="16.5904" transform="matrix(0.159634 0.990366 -1.00049 0.046171 85.2314 280.739)" fill="#D85A42" fill-opacity="0.35"/>
</g>
<mask id="mask84_1320_2651" style="mask-type:luminance" maskUnits="userSpaceOnUse" x="72" y="339" width="18" height="15">
<path d="M72.236 341.869L72.6288 341.763L79.7452 339.849L80.0639 339.765L80.4321 340.251L88.6351 351.091L89.0886 351.69L88.6974 351.798L81.602 353.758L81.6022 353.759L81.2838 353.846L80.9154 353.359L72.688 342.467L72.6866 342.466L72.236 341.869Z" fill="white"/>
</mask>
<g mask="url(#mask84_1320_2651)">
<rect width="15.8482" height="17.2331" transform="matrix(0.159667 0.990363 -1.0005 0.0461549 87.9336 338.696)" fill="#D85A42" fill-opacity="0.35"/>
</g>
<mask id="mask85_1320_2651" style="mask-type:luminance" maskUnits="userSpaceOnUse" x="74" y="400" width="19" height="16">
<path d="M74.7608 402.814L75.1415 402.698L82.4427 400.491L82.7596 400.396L83.1282 400.887L91.5756 412.138L92.0163 412.723L91.6398 412.84L84.3601 415.098L84.0424 415.197L83.6737 414.705L75.2002 403.399L74.7608 402.814Z" fill="white"/>
</mask>
<g mask="url(#mask85_1320_2651)">
<rect width="16.4154" height="17.2028" transform="matrix(0.15954 0.990372 -1.00049 0.0462096 90.9038 399.236)" fill="#D85A42" fill-opacity="0.35"/>
</g>
<mask id="mask86_1320_2651" style="mask-type:luminance" maskUnits="userSpaceOnUse" x="77" y="464" width="19" height="16">
<path d="M77.4177 466.956L77.7851 466.832L85.2792 464.3L85.5955 464.194L85.9644 464.689L94.6682 476.376L95.0951 476.95L94.7307 477.076L87.2613 479.662L86.9441 479.772L86.5763 479.276L77.8432 467.528L77.4177 466.956Z" fill="white"/>
</mask>
<g mask="url(#mask86_1320_2651)">
<rect width="17.4553" height="17.8163" transform="matrix(0.159423 0.99038 -1.00048 0.0462577 93.5127 463.195)" fill="#D85A42" fill-opacity="0.35"/>
</g>
<mask id="mask87_1320_2651" style="mask-type:luminance" maskUnits="userSpaceOnUse" x="80" y="531" width="19" height="17">
<path d="M80.219 534.556L80.5742 534.422L88.2679 531.533L88.2692 531.533L88.5834 531.414L88.9527 531.913L97.9268 544.067L98.3398 544.627L97.9899 544.762L90.3191 547.711L90.0039 547.832L89.6358 547.332L80.6318 535.114L80.219 534.556Z" fill="white"/>
</mask>
<g mask="url(#mask87_1320_2651)">
<rect width="18.0376" height="18.3202" transform="matrix(0.159401 0.990381 -1.00048 0.0462662 97.146 530.249)" fill="#D85A42" fill-opacity="0.35"/>
</g>
<mask id="mask88_1320_2651" style="mask-type:luminance" maskUnits="userSpaceOnUse" x="-5" y="86" width="17" height="12">
<path d="M-4.52411 86.9913L-4.06128 86.9332L3.01935 86.0437L10.7077 95.9869L11.209 96.6348L10.7503 96.6949L4.01035 97.5807L3.68576 97.6236L3.33203 97.1648L-4.02425 87.6388L-4.52411 86.9913Z" fill="white"/>
</mask>
<g mask="url(#mask88_1320_2651)">
<rect width="13.6579" height="16.1487" transform="matrix(0.159854 0.990351 -1.00051 0.0460414 10.4141 84.6196)" fill="#D85A42" fill-opacity="0.35"/>
</g>
<mask id="mask89_1320_2651" style="mask-type:luminance" maskUnits="userSpaceOnUse" x="-5" y="135" width="18" height="13">
<path d="M-4.00624 136.866L-3.55691 136.798L3.37157 135.749L3.69636 135.7L4.05016 136.161L11.5887 145.975L12.0761 146.611L11.631 146.681L4.71872 147.77L4.39419 147.821L4.04033 147.359L4.04026 147.359L-3.51896 137.501L-3.52033 137.5L-4.00624 136.866Z" fill="white"/>
</mask>
<g mask="url(#mask89_1320_2651)">
<rect width="13.6579" height="16.1487" transform="matrix(0.159867 0.99035 -1.00051 0.0460335 11.1011 134.578)" fill="#D85A42" fill-opacity="0.35"/>
</g>
<mask id="mask90_1320_2651" style="mask-type:luminance" maskUnits="userSpaceOnUse" x="-4" y="187" width="17" height="14">
<path d="M-3.46988 189.133L-3.03407 189.055L4.07699 187.787L4.40025 187.728L4.75441 188.193L12.5056 198.355L12.9791 198.978L12.5476 199.058L5.45424 200.369L5.13117 200.429L4.77698 199.964L-2.99653 189.755L-3.46988 189.133Z" fill="white"/>
</mask>
<g mask="url(#mask90_1320_2651)">
<rect width="14.1304" height="16.7924" transform="matrix(0.159874 0.99035 -1.00051 0.046027 11.8335 186.68)" fill="#D85A42" fill-opacity="0.35"/>
</g>
<mask id="mask91_1320_2651" style="mask-type:luminance" maskUnits="userSpaceOnUse" x="-3" y="242" width="17" height="14">
<path d="M-2.90111 243.969L-2.47866 243.882L4.82028 242.371L5.14344 242.305L5.49635 242.772L13.469 253.304L13.4703 253.304L13.9313 253.914L13.5131 254.003L6.23237 255.559L5.90969 255.629L5.55662 255.161L-2.44032 244.578L-2.44163 244.578L-2.90111 243.969Z" fill="white"/>
</mask>
<g mask="url(#mask91_1320_2651)">
<rect width="15.2803" height="17.2645" transform="matrix(0.159767 0.990357 -1.0005 0.0461026 12.7559 240.916)" fill="#D85A42" fill-opacity="0.35"/>
</g>
<mask id="mask92_1320_2651" style="mask-type:luminance" maskUnits="userSpaceOnUse" x="-3" y="299" width="18" height="15">
<path d="M-2.30813 301.568L-1.89789 301.471L5.5957 299.695L5.597 299.695L5.91861 299.619L6.27174 300.089L14.478 311.014L14.9263 311.611L14.5202 311.709L7.04538 313.535L6.7241 313.613L6.36951 313.142L-1.86117 302.164L-1.86133 302.163L-2.30813 301.568Z" fill="white"/>
</mask>
<g mask="url(#mask92_1320_2651)">
<rect width="15.9617" height="17.227" transform="matrix(0.159648 0.990364 -1.00049 0.0461626 13.499 298.335)" fill="#D85A42" fill-opacity="0.35"/>
</g>
<mask id="mask93_1320_2651" style="mask-type:luminance" maskUnits="userSpaceOnUse" x="-2" y="359" width="18" height="16">
<path d="M-1.67663 362.145L-1.27986 362.038L6.41959 359.969L6.74076 359.883L7.09426 360.357L15.5447 371.698L15.9789 372.281L15.5864 372.389L7.9087 374.511L7.58656 374.6L7.23306 374.125L7.2329 374.124L-1.24383 362.726L-1.67663 362.145Z" fill="white"/>
</mask>
<g mask="url(#mask93_1320_2651)">
<rect width="16.4154" height="17.2028" transform="matrix(0.15954 0.990372 -1.00049 0.0462096 14.4028 358.572)" fill="#D85A42" fill-opacity="0.35"/>
</g>
<mask id="mask94_1320_2651" style="mask-type:luminance" maskUnits="userSpaceOnUse" x="-2" y="423" width="20" height="16">
<path d="M-1.01706 425.936L-0.633799 425.82L7.27854 423.428L7.27984 423.428L7.59908 423.331L7.95296 423.809L16.6599 435.594L17.0814 436.163L16.7024 436.281L8.81117 438.73L8.49076 438.829L8.13674 438.349L-0.59699 426.504L-1.01706 425.936Z" fill="white"/>
</mask>
<g mask="url(#mask94_1320_2651)">
<rect width="17.4742" height="18.4834" transform="matrix(0.159578 0.990369 -1.00049 0.0461937 15.7485 422.055)" fill="#D85A42" fill-opacity="0.35"/>
</g>
<mask id="mask95_1320_2651" style="mask-type:luminance" maskUnits="userSpaceOnUse" x="-1" y="490" width="20" height="17">
<path d="M-0.328608 493.203L0.0400737 493.079L8.17667 490.33L8.4968 490.222L8.84969 490.705L17.8256 502.961L18.2346 503.518L17.869 503.646L9.75529 506.455L9.43679 506.565L9.08243 506.081L0.0776549 493.759L-0.328608 493.203Z" fill="white"/>
</mask>
<g mask="url(#mask95_1320_2651)">
<rect width="18.6085" height="18.4243" transform="matrix(0.159277 0.99039 -1.00047 0.0463111 16.7324 488.732)" fill="#D85A42" fill-opacity="0.35"/>
</g>
<mask id="mask96_1320_2651" style="mask-type:luminance" maskUnits="userSpaceOnUse" x="0" y="560" width="20" height="19">
<path d="M0.409699 564.241L0.766246 564.107L9.1366 560.964L9.45481 560.844L9.80932 561.332L19.0686 574.093L19.4637 574.637L19.11 574.773L10.7658 577.981L10.4466 578.103L10.0934 577.615L0.80329 564.783L0.409699 564.241Z" fill="white"/>
</mask>
<g mask="url(#mask96_1320_2651)">
<rect width="19.7616" height="19.0326" transform="matrix(0.159136 0.9904 -1.00047 0.0463572 18.1167 559.226)" fill="#D85A42" fill-opacity="0.35"/>
</g>
</mask>
<g mask="url(#mask0_1320_2651)">
<rect x="13.7285" y="6.10352e-05" width="468" height="566" fill="url(#paint0_linear_1320_2651)"/>
</g>
<defs>
<linearGradient id="paint0_linear_1320_2651" x1="-9.93942" y1="157.5" x2="-88.4297" y2="156.586" gradientUnits="userSpaceOnUse">
<stop stop-color="#B7DCE2" stop-opacity="0.46"/>
<stop offset="1" stop-color="#D9F0F7" stop-opacity="0"/>
</linearGradient>
</defs>
</svg>
