<svg width="368" height="490" viewBox="0 0 368 490" fill="none" xmlns="http://www.w3.org/2000/svg">
<path style="mix-blend-mode:multiply" opacity="0.7" d="M2.43414 363.545C2.46969 368.06 3.28723 372.226 5.66751 375.094C5.69159 375.123 5.70991 375.115 5.72171 375.081C5.99815 374.132 6.22266 373.169 6.41279 372.195C7.27227 370.844 7.34669 368.338 7.28228 366.006C7.79691 361.061 8.13017 356.065 9.81788 351.469C10.9856 348.287 12.6288 345.439 14.5641 343.102C15.2371 342.479 15.9246 341.892 16.6121 341.305C18.0531 340.085 19.5293 338.867 21.0297 337.882C21.1037 337.844 21.1777 337.806 21.2605 337.769C23.6175 336.699 26.2628 336.183 28.5999 336.986C33.3252 338.614 34.3497 346.231 29.2371 349.816C26.9679 351.407 24.3995 351.646 22.0843 352.95C19.8065 354.231 17.7296 356.158 15.853 358.429C11.6841 363.484 8.27379 370.515 5.77113 377.279C4.39846 380.991 4.0632 384.369 4.78201 388.243C5.06608 389.772 5.43525 391.237 5.8792 392.655C7.01802 397.097 9.19136 400.929 11.5689 404.239C11.7826 404.532 11.997 404.816 12.2106 405.108C15.9098 410.328 20.3586 414.754 24.3432 418.716C24.4578 418.823 24.3998 417.854 24.3825 417.746C24.297 417.199 24.2297 416.645 24.172 416.083C24.2011 416.156 24.2389 416.23 24.268 416.303C24.3269 416.441 24.3237 415.76 24.2728 415.631C24.2082 415.458 24.1347 415.283 24.0701 415.11C24.0474 414.86 24.0422 414.612 24.0283 414.363C24.6124 412.821 24.2373 410.09 24.3638 408.314C24.7129 403.647 25.8717 399.235 26.3839 394.626C27.3032 390.733 28.3322 386.902 29.2377 383.274C29.6025 382.12 29.933 380.954 30.1978 379.729C30.4077 378.73 30.5826 377.728 30.7494 376.716C32.4723 368.734 35.4346 356.534 42.0984 361.434C42.7303 361.904 43.2491 362.453 43.6654 363.064C43.7227 363.219 43.7809 363.366 43.8287 363.529C45.0858 367.318 44.6317 372.074 43.1706 375.991C43.0784 376.239 42.9606 376.477 42.8597 376.725C42.3687 377.7 41.8318 378.591 41.2624 379.347C39.1317 382.207 36.6427 384.398 34.5929 387.345C31.0593 392.419 28.456 398.812 27.5626 405.688C26.2836 415.601 28.8375 426.72 34.992 432.09C38.7852 435.398 43.1182 435.727 47.5772 435.519C50.2455 435.66 52.9462 435.221 55.6548 435.1C58.7224 435.126 61.7162 435.596 64.506 437.305C65.2655 437.937 66.0093 438.646 66.8045 439.069C66.9111 439.166 67.0184 439.255 67.1331 439.363C67.1962 439.554 67.2593 439.745 67.3232 439.927C67.3515 440.009 67.3682 439.816 67.36 439.603C67.6038 439.854 67.8556 440.115 68.0971 440.392C68.1613 440.469 68.1802 440.249 68.1832 440.214C68.8543 432.734 73.1422 427.017 76.6714 421.173C76.6691 421.2 76.6837 421.236 76.6902 421.263C76.7117 421.424 76.7306 421.205 76.7176 421.151C76.7191 421.133 76.7206 421.116 76.7126 421.106C77.331 420.089 77.9239 419.061 78.4648 418.019C81.5145 412.195 84.8216 405.439 86.5076 398.604C88.8223 389.196 82.8391 382.249 77.574 378.159C73.7016 375.154 69.5142 373.032 65.7106 370.051C63.5809 368.381 58.3681 362.349 57.1158 357.376C57.0637 357.159 57.0212 356.934 56.9779 356.718C56.4871 353.995 57.3172 351.652 60.7318 350.628C60.8768 350.587 61.0306 350.548 61.1742 350.525C62.8469 350.722 64.5037 351.616 66.0441 352.528C66.2626 352.662 66.481 352.795 66.6995 352.929C69.7399 355.836 72.4515 360.608 74.2018 363.396C78.3247 369.961 81.6965 377.338 84.3968 385.32C84.4106 385.366 84.4347 385.394 84.4648 385.353C87.5385 381.406 88.8299 374.839 90.0723 369.558C91.1599 364.945 91.8606 360.202 91.5878 355.463C91.421 352.574 90.8464 349.49 89.8277 346.837C89.8322 346.784 89.8348 346.651 89.8099 346.632C89.7771 346.602 89.7442 346.573 89.7114 346.544C88.0585 342.42 85.3258 339.433 81.3875 340.067C75.9326 340.95 71.1249 343.358 65.7047 342.608C64.9525 342.508 64.1931 342.389 63.4793 342.151C62.3437 341.779 60.4084 340.727 59.2984 339.03C59.3558 339.186 59.4212 339.351 59.4881 339.498C61.441 343.629 66.3315 344.06 70.5635 343.611C66.8136 344.42 63.0815 344.611 60.1837 341.999C59.2646 341.168 58.4451 340.001 58.2313 338.478C58.1925 338.21 58.1801 337.943 58.1772 337.669C58.2891 337.705 58.3995 337.759 58.5114 337.795C58.5202 337.796 58.5379 337.487 58.4875 337.457C58.3946 337.404 58.3018 337.352 58.2002 337.299C58.2441 336.79 58.3312 336.293 58.4797 335.802C58.3715 337.057 58.7125 338.131 59.2992 339.022C58.901 337.996 58.6572 336.719 58.6791 335.438C58.7368 335.488 58.7952 335.528 58.8434 335.585C58.8434 335.585 58.8539 335.462 58.8379 335.443C58.7898 335.386 58.7328 335.328 58.6847 335.271C58.6869 335.244 58.6892 335.218 58.6922 335.183C59.0881 334.182 59.6872 333.287 60.3712 332.638C61.7686 331.308 63.4492 330.798 65.0818 330.434C65.1089 330.428 65.1448 330.422 65.1719 330.416C65.6242 330.402 66.0495 330.394 66.4324 330.365C71.1574 330.047 76.0977 330.207 80.6687 331.778C80.8062 331.825 80.9341 331.88 81.0716 331.927C81.7316 332.276 82.3878 332.669 83.0219 333.113C87.7351 336.421 91.3616 342.793 91.8562 350.09C91.8295 351.017 91.7473 351.868 91.5863 352.606C91.5692 352.702 91.643 353.283 91.6842 353.216C91.7475 353.097 91.8203 352.971 91.8835 352.853C91.8699 353.011 91.8834 353.162 91.8698 353.32C94.9539 346.995 97.9071 340.341 99.1946 333.1C99.6781 330.364 99.8954 327.534 99.7963 324.783C99.7895 323.323 99.7108 321.874 99.5414 320.453C99.2332 317.87 98.5061 316.144 97.5383 314.645C97.6625 314.744 97.7859 314.852 97.91 314.951C97.91 314.951 97.9138 314.907 97.9146 314.898C97.6922 314.605 97.4499 314.336 97.2076 314.068C96.9557 313.604 96.6942 313.148 96.4041 312.716C94.9376 310.537 92.9996 308.901 91.9389 306.324C91.6685 305.664 91.4633 304.965 91.2963 304.234C91.3219 304.245 91.3467 304.265 91.3811 304.277C91.3811 304.277 91.3879 304.198 91.3791 304.197C91.3455 304.176 91.3119 304.156 91.279 304.126C90.8676 302.331 90.6711 300.403 90.2684 298.608C89.7639 296.352 88.7715 294.214 87.5224 292.284C87.3006 291.779 87.0773 291.291 86.8246 290.835C84.5533 286.703 81.427 283.355 77.6975 281.875C72.4537 279.795 67.0463 282.797 62.2034 279.248C58.9164 276.841 55.559 275.765 52.5543 280.964C49.3413 286.526 49.9092 294.103 48.6999 300.333C48.6716 300.251 48.6388 300.222 48.6239 300.291C48.4504 301.072 48.2682 301.853 48.1122 302.636C44.9893 286.213 38.7374 269.962 33.8747 256.583C26.8585 237.294 18.6485 219.539 9.91181 202.969C2.88152 189.694 -4.63628 176.944 -14.3906 169C-8.75286 173.591 -4.03031 184.49 0.25307 191.759C5.30062 200.324 10.1324 209.34 14.7332 218.777C23.8816 237.551 32.0673 257.949 39.0904 279.724C42.1975 289.351 44.6213 299.619 47.4617 309.568C46.7052 311.264 45.3306 312.021 44.4122 311.181C44.3819 311.019 44.3612 310.849 44.3309 310.688C44.2653 310.319 44.239 310.83 44.2635 310.956C44.2612 310.982 44.2685 311.001 44.275 311.028C43.9613 310.665 43.7089 310.103 43.5758 309.287C43.2808 307.474 43.7026 305.352 43.301 303.442C42.8228 301.189 41.9089 299.27 40.7738 297.66C37.7067 293.317 33.0184 290.746 28.5169 289.19C28.0796 289.028 27.6408 288.884 27.2006 288.758C27.0367 288.708 26.8641 288.658 26.7003 288.609C26.7003 288.609 26.6828 288.607 26.674 288.606C26.0699 288.43 25.465 288.263 24.8754 288.124C21.9914 287.407 17.939 286.182 14.9305 287.524C12.5838 288.578 11.6556 291.443 10.7379 294.496C10.22 296.194 9.76056 297.933 9.3011 299.671C9.28202 299.687 9.25568 299.685 9.22783 299.7C9.20875 299.716 9.21269 299.876 9.23752 299.896C8.64711 302.127 8.06548 304.36 7.37499 306.521C7.251 306.625 7.12776 306.721 7.01102 306.843C6.99119 306.868 7.0127 307.029 7.02224 307.021C7.08825 306.974 7.15274 306.944 7.218 306.905C6.27542 308.912 5.29196 310.88 4.41963 312.892C3.57468 314.279 2.72974 315.666 2.14235 317.349C1.88483 318.079 1.69605 318.832 1.53362 319.588C1.40432 319.754 1.28532 319.903 1.21402 320.012C1.19418 320.036 1.2275 320.163 1.2275 320.163C1.28624 320.097 1.36482 320.007 1.47201 319.892C0.737194 323.492 0.924884 327.267 1.48456 330.731C2.6657 338.069 4.47862 344.338 3.49654 352.552C3.05651 356.22 2.39695 359.87 2.42385 363.562L2.43414 363.545ZM5.1484 388.098C4.50681 384.354 4.99272 381.282 6.07759 378.137C5.26692 381.385 4.89501 384.776 5.1484 388.098ZM13.6758 362.957C13.7162 362.898 13.7479 362.839 13.7883 362.78C14.8945 361.133 16.0963 359.609 17.3738 358.233C16.0895 359.688 14.8721 361.29 13.6758 362.957ZM23.9313 416.31C23.5635 416.676 22.8103 416.178 21.9751 415.398C22.2837 415.513 22.5712 415.564 22.8312 415.525C23.1995 415.459 23.4724 415.27 23.689 415.015C23.7785 415.208 23.868 415.402 23.9487 415.595C23.9555 416.029 23.9504 416.294 23.9305 416.318L23.9313 416.31ZM23.9408 414.762C23.9408 414.762 23.919 414.707 23.9037 414.679C23.9052 414.662 23.9243 414.646 23.9346 414.629C23.9308 414.673 23.9358 414.718 23.9408 414.762ZM32.4426 367.334C32.6482 366.591 32.9049 365.87 33.1946 365.178C32.9233 365.863 32.6753 366.584 32.4426 367.334ZM27.8691 414.552C28.1179 416.9 28.5564 419.203 29.188 421.319C28.5221 419.191 28.082 416.906 27.8691 414.552ZM34.9608 430.707C34.7461 430.529 34.5505 430.335 34.3461 430.141C34.6177 430.377 34.8923 430.577 35.175 430.787C35.1976 430.834 35.2114 430.879 35.2347 430.916C35.1434 430.847 35.0513 430.786 34.9608 430.707ZM35.2507 430.935C35.2507 430.935 35.2144 430.844 35.1911 430.806C36.2385 431.587 37.3507 432.231 38.4785 432.797C38.6737 432.894 38.8688 432.99 39.0648 433.078C37.7522 432.602 36.4659 431.925 35.2507 430.935ZM44.7081 416.251C44.5681 415.823 44.4662 415.363 44.3818 414.905C44.5976 415.481 44.9575 415.822 45.2833 415.531C45.1324 415.845 44.9493 416.122 44.7081 416.251ZM46.8152 410.895C46.5235 411.816 46.223 412.737 45.932 413.65C46.0502 412.996 46.1349 412.322 46.2463 411.748C46.484 410.53 46.7128 409.311 46.8898 408.079C46.8936 408.035 46.8633 407.873 46.8625 407.882C46.5675 408.945 46.358 410.042 46.1404 411.129C45.9704 411.972 45.7638 414.369 45.1991 414.763C43.7595 415.763 44.4618 411.205 44.7707 410.188C44.9074 409.731 45.0777 409.294 45.2648 408.868C45.3952 408.587 45.5335 408.316 45.6799 408.055C45.7375 407.9 45.8 407.791 45.8587 407.725C45.9232 407.695 45.987 407.674 46.0587 407.663C46.1947 407.727 46.3381 408.014 46.4786 408.539C46.4848 408.672 46.5932 409.159 46.5914 408.77C46.5921 408.248 46.5414 407.81 46.4174 407.402C46.7787 407.521 47.1024 407.974 47.1806 408.502C47.2977 409.3 47.0494 410.128 46.8064 410.894L46.8152 410.895ZM85.6912 390.934C86.1011 393.261 86.0209 395.731 85.6025 398.225C85.5745 398.037 85.5289 397.847 85.4928 397.65C85.8565 395.381 85.9551 393.107 85.6824 390.934L85.6912 390.934ZM82.8457 406.604C83.9782 403.933 84.9449 400.929 85.4556 397.876C85.4932 398.056 85.5315 398.228 85.569 398.408C85.0578 401.363 84.0744 404.357 82.9068 407.229C82.8899 407.015 82.8626 406.818 82.8457 406.604ZM71.4396 428.605C71.1769 429.086 70.9288 429.605 70.6734 430.104C71.6844 427.715 72.8004 425.44 73.9838 423.206C73.9942 423.393 74.0054 423.571 74.0159 423.758C74.0113 423.81 74.0576 423.991 74.0617 423.841C74.0654 423.594 74.0507 423.354 74.036 423.114C74.2891 422.64 74.5422 422.166 74.7954 421.693C74.8223 421.996 74.85 422.29 74.8579 422.609C74.8564 422.627 74.8744 422.726 74.8797 422.664C74.9123 422.287 74.9097 421.906 74.8895 421.524C75.3516 420.679 75.8224 419.835 76.2933 418.991C76.3588 419.359 76.4347 419.711 76.4915 420.078C74.8196 422.951 73.045 425.682 71.4396 428.605ZM81.4995 409.496C81.9462 408.623 82.3895 407.688 82.8022 406.698C82.8199 406.903 82.8472 407.1 82.8649 407.305C82.4499 408.322 82.0101 409.319 81.5638 410.289C81.5426 410.022 81.5126 409.754 81.4914 409.486L81.4995 409.496ZM80.2205 411.916C80.6406 411.147 81.0535 410.36 81.4583 409.563C81.489 409.822 81.511 410.081 81.5417 410.34C81.108 411.267 80.6757 412.176 80.2282 413.058C80.2352 412.669 80.2238 412.288 80.2125 411.906L80.2205 411.916ZM78.9021 414.792C78.9171 414.926 78.953 414.921 78.938 414.787C78.9245 414.635 78.9015 414.492 78.888 414.34C79.2868 413.614 79.6944 412.888 80.0947 412.144C80.1171 412.5 80.149 412.847 80.1619 413.211C79.3816 414.772 78.5994 416.253 77.8724 417.605C77.4492 418.409 77.002 419.185 76.5548 419.96C76.4988 419.584 76.4339 419.206 76.3691 418.829C76.5994 418.416 76.8289 418.011 77.0592 417.597C77.0898 417.653 77.1116 417.708 77.1509 417.764C77.3173 417.681 77.2586 417.747 77.3332 417.497C77.3363 417.462 77.3446 417.365 77.3205 417.337C77.3045 417.318 77.2877 417.307 77.2716 417.288L77.2693 417.315C77.2628 417.287 77.2563 417.26 77.2498 417.233C77.5212 416.752 77.7935 416.263 78.0649 415.782C78.0837 415.872 78.1032 415.953 78.122 416.043C78.148 416.152 78.1436 415.895 78.1379 415.859C78.1241 415.814 78.1199 415.76 78.1061 415.715C78.3467 415.284 78.5968 414.846 78.8381 414.407C78.8531 414.54 78.8784 414.658 78.8934 414.792L78.9021 414.792ZM74.7494 377.367C70.832 374.986 66.5494 372.635 63.2727 369.186C66.7005 372.525 70.8086 374.745 74.7494 377.367ZM68.6271 435.678C68.4953 436.49 68.3383 437.387 68.1407 437.627C68.1114 437.66 68.0652 437.682 68.0366 437.706C68.2201 437.015 68.4196 436.342 68.6271 435.678ZM87.7002 376.758C87.2516 378.268 86.7581 380.915 85.8699 382.085C85.5201 382.551 85.2229 382.817 84.9642 382.945C86.9894 378.847 88.5546 374.337 89.5868 369.649C89.6006 369.694 89.6143 369.74 89.6274 369.794C89.0447 372.141 88.3757 374.463 87.6914 376.758L87.7002 376.758ZM90.5674 365.558C90.3302 366.873 90.0228 368.183 89.7073 369.482C89.6943 369.428 89.6725 369.373 89.6594 369.319C90.488 365.454 90.964 361.47 91.0404 357.504C91.1197 353.503 90.7187 349.329 89.016 346.298C89.0992 346.358 89.181 346.436 89.2643 346.496C91.7277 351.786 91.6916 359.391 90.5587 365.557L90.5674 365.558ZM86.6348 342.722C87.6006 343.628 88.3894 344.74 89.0329 345.998C88.9095 345.891 88.7854 345.791 88.662 345.683C86.2203 341.987 82.2739 341.382 78.3477 341.875C81.2152 340.937 83.9738 340.237 86.6348 342.722ZM68.2759 354.038C70.6165 355.93 72.1948 358.967 74.0855 361.563C78.5077 367.633 81.5755 375.355 84.5936 383.037C83.88 383.002 83.4365 381.681 82.8313 380.081C82.0677 378.06 81.2572 376.07 80.3887 374.138C77.1752 366.978 73.2863 360.468 68.8416 354.865C68.5783 354.533 68.2654 354.161 67.918 353.777C68.0342 353.867 68.1606 353.94 68.2767 354.029L68.2759 354.038ZM65.3228 314.806C66.3658 314.303 67.3858 313.656 68.2464 313.217C69.4031 312.627 70.8187 312.112 72.1727 311.388C69.9905 312.996 67.6714 314.141 65.3316 314.806L65.3228 314.806ZM85.6292 289.821C84.6831 288.687 83.6656 287.661 82.6456 286.768C82.6471 286.751 82.6509 286.707 82.6333 286.706C82.607 286.703 82.5894 286.702 82.5631 286.699C81.7818 286.013 80.9937 285.405 80.242 284.889C79.6408 284.475 79.0247 284.13 78.3968 283.819C78.6877 283.729 78.9763 283.666 79.253 283.636C81.702 284.989 83.8588 287.165 85.6285 289.83L85.6292 289.821ZM74.3789 282.093C75.9683 282.23 77.4843 282.705 78.9074 283.438C78.613 283.466 78.3061 283.537 77.9977 283.625C76.3975 282.895 74.722 282.423 72.9999 282.08C73.4618 282.058 73.9135 282.053 74.3701 282.092L74.3789 282.093ZM71.3128 303.812C72.1307 303.458 72.9661 303.106 73.7865 303.132C74.6158 303.159 75.4415 303.637 75.8004 304.606C75.8222 304.661 75.8352 304.715 75.8482 304.769C75.8598 304.841 75.8713 304.913 75.874 304.984C76.2423 309.846 70.8435 311.106 68.1732 312.424C66.7043 313.146 65.1284 314.187 63.6226 314.518C62.9641 314.664 61.5358 314.506 60.608 313.877C59.9937 312.382 61.5152 310.125 62.8662 308.923C65.4925 306.575 68.3711 305.098 71.3128 303.812ZM58.1905 278.079C59.3928 278.192 60.4397 278.874 61.4688 279.662C60.2708 279.09 59.2464 278.453 58.0971 278.239C58.1279 278.189 58.1596 278.13 58.1905 278.079ZM57.8304 278.048C57.9007 278.054 57.9709 278.06 58.0412 278.066C58.0103 278.117 57.9794 278.167 57.9493 278.209C57.4342 278.129 56.8845 278.143 56.289 278.278C56.7703 278.134 57.2822 278.045 57.8304 278.048ZM55.0491 314.531C55.0559 314.452 55.0795 314.383 55.0951 314.305C55.4153 313.669 55.9888 313.276 56.5087 313.197C56.9481 313.128 57.3166 313.266 57.663 313.455C57.6768 313.501 57.6826 313.537 57.6876 313.581C57.5065 313.424 57.2774 313.413 56.9978 313.681C56.9787 313.697 56.9899 313.875 57.017 313.869C57.3445 313.764 57.5966 313.919 57.7407 314.196C57.7279 314.346 57.7157 314.486 57.6941 314.635C57.5165 315.566 56.8372 316.366 56.1653 316.361C55.4933 316.356 54.9322 315.476 55.0491 314.531ZM57.0747 353.542C56.9053 354.173 56.8149 354.811 56.7853 355.463C56.6685 354.046 56.8317 352.769 57.4471 351.787C57.6103 351.536 57.8121 351.349 58.0285 351.2C57.6579 351.805 57.3351 352.573 57.0747 353.542ZM55.8645 333.71C55.8057 333.775 55.7302 333.831 55.6546 333.886C54.7518 334.507 53.8028 333.611 53.1952 332.86C52.3002 331.748 51.757 330.25 51.5846 328.555C51.8318 328.355 52.0432 328.161 52.2583 327.923C52.978 328.914 53.7712 329.769 54.5629 330.643C54.5797 330.653 54.5958 330.672 54.6118 330.691C54.9834 331.307 55.3343 331.956 55.6376 332.646C55.7707 332.95 55.8779 333.348 55.8645 333.71ZM51.8049 327.539C51.954 327.348 52.1314 327.239 52.3159 327.255C52.1327 327.328 51.9647 327.429 51.8049 327.539ZM52.3773 327.261C52.3773 327.261 52.422 327.256 52.4476 327.267C52.4756 327.455 52.5116 327.653 52.5396 327.841C52.4988 327.802 52.4667 327.764 52.425 327.734C52.4517 327.63 52.4247 327.327 52.3766 327.269L52.3773 327.261ZM48.8444 301.531C48.8607 301.444 48.8656 301.285 48.8456 301.107C49.532 297.556 49.8071 291.9 50.8498 287.089C50.721 287.866 50.6273 288.645 50.5358 289.398C50.0778 293.481 49.6293 297.556 49.172 301.63C49.0188 302.997 48.9714 304.78 48.7784 306.506C48.6403 305.645 48.4941 304.774 48.3385 303.911C48.4723 303.18 48.645 302.407 48.8444 301.531ZM46.7259 311.947C46.5314 312.151 46.3479 312.33 46.1682 312.465C46.1574 312.384 46.1467 312.304 46.1447 312.224C46.3294 312.134 46.5229 312.044 46.7259 311.947ZM45.8684 312.351C45.9425 312.313 46.0245 312.284 46.0993 312.238C46.1093 312.327 46.12 312.408 46.1213 312.496C46.0457 312.552 45.9702 312.607 45.8866 312.653C45.8773 312.555 45.8681 312.457 45.8596 312.35L45.8684 312.351ZM30.0733 305.416C31.0214 306.63 32.4779 307.18 33.629 307.784C34.5178 308.249 35.4624 308.888 36.447 309.371C35.2613 309.066 34.1008 308.674 32.9883 308.135C32.1981 307.758 30.8382 306.703 30.0821 305.417L30.0733 305.416ZM37.7358 334.04C37.5956 333.922 37.5187 333.686 37.4761 333.461C37.1699 331.983 37.6756 330.222 38.5192 329.057C38.7999 328.674 39.1096 328.364 39.4434 328.083C38.7943 328.841 38.2839 329.939 38.0732 330.947C37.9115 331.694 37.7909 333.196 38.0554 334.13C37.9485 334.138 37.8359 334.111 37.7446 334.041L37.7358 334.04ZM38.4737 333.998C38.2801 333.371 38.1094 331.861 38.1637 331.538C38.396 330.178 39.2341 328.87 40.1105 328.247C40.5066 327.963 41.0146 327.715 41.4464 327.734C42.0282 327.758 42.1586 327.99 42.2668 328.787C42.2783 328.859 42.2818 328.921 42.2941 328.984C42.2192 329.34 42.1003 329.692 41.9757 330.009C41.1873 331.87 39.9022 333.334 38.4649 333.997L38.4737 333.998ZM50.8372 397.998C51.3064 396.968 51.7015 395.976 51.9138 395.463C52.1474 394.908 52.514 394.144 52.889 393.283C52.3872 395 51.6204 396.712 50.8372 397.998ZM45.7497 312.393C45.7582 312.5 45.7674 312.598 45.7759 312.705C45.3405 312.933 44.9782 312.928 44.6669 312.742C44.97 312.715 45.3261 312.587 45.7497 312.393ZM42.222 301.385C42.7122 302.781 42.8364 304.419 42.9086 306.044C42.7897 304.858 42.6793 303.778 42.5181 303.082C42.2078 301.755 41.7407 300.503 41.1679 299.348C41.5922 299.968 41.9584 300.646 42.214 301.375L42.222 301.385ZM46.6272 360.108C46.6155 359.833 46.6126 359.558 46.6185 359.284C46.7545 358.323 47.0038 357.38 47.3624 356.606C47.5805 356.13 47.8316 355.576 48.1998 355.307C49.135 354.618 49.3261 355.891 49.214 356.987C49.2056 357.083 49.2897 357.648 49.3209 357.491C49.3855 357.152 49.4397 356.626 49.4412 356.095C49.5734 356.717 49.6689 357.353 49.7286 357.996C49.7263 358.022 49.7233 358.057 49.721 358.083L49.6936 357.683C49.6877 357.957 49.665 358.22 49.6416 358.492C49.4386 359.616 49.1573 360.724 48.792 361.781C48.3101 363.164 47.675 364.887 47.1044 364.015C46.8415 362.754 46.6797 361.448 46.6264 360.117L46.6272 360.108ZM49.7913 358.602C49.823 359.056 49.8363 359.518 49.8225 359.985L49.7576 358.891C49.7659 358.795 49.7742 358.698 49.7825 358.602L49.7913 358.602ZM51.0568 387.136C50.1789 388.493 49.4073 390.364 49.0355 391.394C49.557 389.448 50.2433 387.747 51.0568 387.136ZM51.9159 386.918C52.1588 386.974 52.4021 387.128 52.6619 387.398C53.2538 388.024 53.4691 389.016 53.4417 390.154C53.1253 391.26 52.6963 392.337 52.4574 392.954C51.5978 395.127 50.6644 397.744 49.461 399.596C49.3428 399.736 49.2245 399.876 49.0975 400.016C48.9025 400.123 48.696 400.158 48.5081 400.08C48.3454 399.093 48.1908 398.115 48.0282 397.128C48.1054 396.232 48.2527 395.139 48.4572 393.998C48.8016 393.081 49.2664 392.307 49.7575 391.535C49.859 391.385 49.703 390.628 49.653 390.695C49.3944 391.026 49.168 391.396 48.9583 391.776C49.5979 390 50.5521 387.756 51.9159 386.918ZM42.2718 327.292C42.3816 327.558 42.4165 327.871 42.4054 328.206C42.2309 327.766 41.9619 327.398 41.6899 327.269C41.4005 327.137 41.1202 327.104 40.8332 327.15C41.0911 327.031 41.3484 326.921 41.6129 326.828C41.7953 326.764 41.9946 326.711 42.1523 326.831C42.2597 326.919 42.3037 327.127 42.2718 327.292ZM37.9636 304.194C38.5641 304.617 39.1703 305.076 39.6141 305.778C39.8167 306.096 39.9701 306.472 40.0757 306.888C40.108 307.13 40.1498 307.364 40.1916 307.597C40.2113 307.882 40.2126 308.174 40.1606 308.47C40.1083 308.563 40.0496 308.629 39.9901 308.703C38.6189 305.931 36.8711 303.834 34.6933 302.62C34.7237 302.473 34.7302 301.987 34.6461 301.935C33.9629 301.549 32.5011 301.06 31.2538 301.059C33.364 300.285 36.572 303.198 37.9724 304.195L37.9636 304.194ZM30.0844 302.002C30.1554 301.999 30.2264 301.997 30.3054 302.003C31.029 301.615 31.9438 301.676 32.7995 301.909C32.798 301.926 32.7965 301.944 32.8052 301.945C35.5841 303.37 37.9873 305.664 39.7265 308.99C39.6979 309.014 39.6781 309.039 39.6502 309.054C37.0272 309.722 33.91 307.295 31.7333 305.966C31.2963 305.698 30.7299 305.393 30.3703 304.946C29.9356 304.652 29.7512 304.123 29.8266 303.351C29.7451 303.167 29.6965 303.013 29.6559 302.868C29.7431 302.574 29.875 302.276 30.0851 301.993L30.0844 302.002ZM23.0701 297.576C22.901 297.588 22.7288 297.635 22.5567 297.682L22.4431 297.46C22.6539 297.478 22.8623 297.523 23.0701 297.576ZM24.0598 298.307C24.0633 298.369 24.0763 298.423 24.0931 298.434C24.9204 298.894 25.6455 299.514 26.0186 300.626C25.9741 300.834 25.8776 301.029 25.7499 301.177C24.1109 301.717 22.4594 300.761 21.7668 298.737C22.5311 298.184 23.3007 298.082 24.0598 298.307ZM19.1187 288.097L19.1171 288.114C19.4283 288.097 19.7188 288.113 20.0159 288.156C18.6355 288.365 17.2569 288.759 15.8841 289.393C15.6349 289.513 15.3762 289.641 15.1255 289.779C14.72 289.761 14.3123 289.77 13.9008 289.823C15.3727 288.552 17.1995 288.091 19.1187 288.097ZM11.5629 293.444C12.0875 291.976 12.8101 290.879 13.6497 290.067C13.9681 290.068 14.2858 290.078 14.6027 290.096C13.928 290.533 13.2787 291.088 12.7444 291.847C11.8589 293.089 11.3501 294.682 10.9245 296.335C10.8497 296.381 10.7661 296.427 10.6898 296.491C10.6708 296.507 10.6865 296.633 10.7048 296.625C10.7598 296.603 10.8147 296.582 10.8697 296.56C10.6299 297.495 10.4157 298.44 10.1694 299.348C10.0243 299.389 9.87128 299.42 9.72472 299.478C10.2817 297.429 10.873 295.392 11.5717 293.444L11.5629 293.444ZM9.61315 299.849C9.75592 299.834 9.89067 299.811 10.0334 299.796C9.6032 301.299 9.06333 302.738 8.46427 304.146C8.85258 302.72 9.23286 301.284 9.62193 299.849L9.61315 299.849ZM4.27078 345.621C4.26094 345.735 4.224 345.855 4.21417 345.97C4.21522 345.855 4.21552 345.749 4.21658 345.634C4.14747 343.151 3.77722 340.774 3.32341 338.444C3.35398 337.987 3.41741 337.559 3.49839 337.132C3.71084 338.362 3.88817 339.59 4.01932 340.839C4.18394 342.419 4.25847 344.018 4.27078 345.621ZM10.3174 348.238C10.5683 347.791 10.8344 347.372 11.1166 346.971C8.43499 352.322 7.89086 358.123 7.22834 364.374C7.1894 363.388 7.15016 362.509 7.18784 361.867C7.44419 357.147 8.11992 352.18 10.3254 348.248L10.3174 348.238ZM2.87664 317.041C2.72964 317.515 2.60021 317.99 2.4788 318.475C2.40022 318.566 2.31286 318.656 2.23429 318.746C2.39688 318.194 2.61367 317.629 2.86711 317.049L2.87664 317.041ZM2.11666 319.187C2.19524 319.097 2.29137 319.008 2.37949 318.909C2.22084 319.621 2.07021 320.342 1.97076 321.085C1.90204 321.575 1.86041 322.058 1.82757 322.542C1.79669 322.592 1.7658 322.642 1.73492 322.693C1.71433 322.726 1.74613 322.871 1.75567 322.863C1.7755 322.838 1.79609 322.804 1.81592 322.779C1.7737 323.475 1.74979 324.163 1.76177 324.845C1.65286 322.721 1.66068 320.988 2.11666 319.187ZM1.93763 327.629C2.24657 330.717 2.90404 333.763 3.44434 336.835C3.3588 337.315 3.29886 337.805 3.29237 338.291C3.23604 338.021 3.18925 337.742 3.13292 337.472C2.38367 333.745 2.21481 332.112 1.93838 327.62L1.93763 327.629ZM4.20541 346.995C4.21676 346.863 4.25446 346.734 4.26657 346.593C4.22013 353.702 3.06134 360.989 3.10922 368.132C2.41492 363.87 3.01994 358.8 3.56109 354.574C3.88442 352.054 4.17338 349.522 4.20541 346.995Z" fill="url(#paint0_linear_1907_525)"/>
<path style="mix-blend-mode:multiply" d="M297.111 213.543C293.674 213.581 290.227 213.276 287.095 212.367C288.82 213.097 290.327 213.592 291.301 213.738C292.937 213.98 294.992 213.795 297.111 213.543ZM296.743 206.063C294.258 205.197 291.745 204.345 289.275 203.673C291.751 204.629 294.232 205.54 296.743 206.063ZM280.279 208.846C282.249 210.516 284.57 211.634 287.085 212.364C284.947 211.461 282.477 210.214 280.279 208.846ZM274.239 239.751C278.809 240.277 283.464 240.675 288.059 240.894C288.451 240.914 288.764 240.771 288.177 240.707C283.52 240.197 278.825 239.861 274.23 239.66C274.034 239.65 274.043 239.724 274.239 239.751ZM99.6398 113.667C97.9869 113.858 96.2897 114.478 94.6799 115.37C95.267 115.129 95.8644 114.91 96.4753 114.719C97.1319 114.514 98.2987 114.072 99.6502 113.67L99.6398 113.667ZM146.779 255.453C147.571 256.642 148.434 258.248 149.412 259.929C151.623 263.749 153.286 267.747 154.796 271.697C158.634 281.738 161.91 301.81 174.777 306.549C184.126 309.992 196.127 306.293 202.838 302.25C209.402 298.296 204.471 292.352 197.133 286.747C194.159 283.521 190.835 280.561 187.247 277.971C181.793 274.034 175.509 270.681 170.673 266.245C169.263 264.244 168.106 262.12 167.416 259.918C166.923 258.342 166.047 255.578 166.698 254.213C167.58 252.354 168.282 251.363 168.9 250.935C169.827 251.164 170.765 251.596 171.649 252.115C172.128 252.639 172.653 253.184 173.284 253.539C176.466 255.344 180.366 263.106 182.411 266.259C184.354 269.254 186.229 272.272 188.334 275.171C190.754 278.507 193.433 281.589 196.373 284.275C197.263 285.147 198.185 285.995 199.207 286.76C199.715 287.148 200.246 287.509 200.779 287.858C205.791 291.436 211.457 293.89 217.85 294.629C229.07 295.926 238.117 291.362 242.581 282.848C242.894 282.741 243.206 282.633 243.515 282.518C243.663 282.464 243.259 282.347 242.882 282.286C243.224 281.591 243.548 280.879 243.82 280.131C243.849 280.047 243.473 279.934 243.477 279.941C242.885 279.741 242.29 279.533 241.691 279.336C241.056 278.419 239.816 277.811 238.714 277.363C233.585 275.266 228.074 273.927 222.724 272.397C215.335 269.361 208.134 265.834 201.446 261.287C199.794 260.167 197.604 258.672 195.406 256.965C193.447 255.246 191.578 253.536 189.844 251.925C189.838 251.911 189.824 251.9 189.81 251.89C187.781 249.614 186.341 247.21 186.289 244.874C186.259 243.681 186.439 242.778 186.77 242.114C187.331 241.73 188.036 241.572 188.827 241.754C190.176 242.066 191.287 243.196 192.308 244.231C195.554 247.515 199.105 250.497 202.856 253.173C207.472 257.063 212.485 259.711 217.878 261.689C224.657 264.664 231.772 266.721 238.889 267.718C241.131 268.423 243.383 269.167 245.687 269.998C248.401 270.979 248.75 271.557 251.575 272.102C252.764 272.334 253.965 272.483 255.14 272.471C262.386 272.39 268.019 266.637 268.966 260.153C269.378 257.323 268.336 255.49 266.524 254.239C268.913 254.404 271.308 254.436 273.698 254.279C277.453 254.036 286.614 252.221 284.321 248.232C284.78 248.193 284.526 248.046 284.122 247.929C283.649 247.255 282.865 246.531 281.673 245.735C280.498 244.957 279.178 244.275 277.781 243.648C290.896 244.195 312.219 242.337 308.2 232.496C307.039 229.645 303.222 228.251 299.039 227.52C287.691 223.533 274.871 225.735 264.12 222.014C260.132 219.565 251.304 210.573 264.099 213.133C267.743 213.863 274.086 219.333 277.955 221.049C286.331 224.763 313.998 231.361 311.34 216.269C311.472 216.127 311.613 216.007 311.741 215.858C311.78 215.813 311.505 215.747 311.219 215.711C311.018 214.793 310.737 213.817 310.314 212.745C310.172 212.379 308.909 212.46 308.625 212.502C307.984 212.595 307.336 212.691 306.66 212.783C305.847 212.36 304.949 212.099 304.086 212.056C301.902 211.957 299.944 212.739 297.979 213.454C297.692 213.488 297.405 213.523 297.125 213.554C297.342 213.553 297.555 213.528 297.772 213.528C297.305 213.693 296.845 213.854 296.378 214.002C290.455 215.814 283.043 214.474 278.225 209.986C277.103 208.94 276.095 207.681 275.803 206.268C275.73 205.939 275.717 205.624 275.721 205.327C276.824 206.495 278.465 207.717 280.303 208.86C279.778 208.419 279.28 207.948 278.808 207.42C276.996 205.414 276.339 204.125 276.423 203.294C276.737 202.865 277.14 202.496 277.616 202.17C279.174 201.764 281.966 202.204 284.352 202.579C285.968 202.831 287.63 203.217 289.303 203.676C286.475 202.586 283.657 201.499 280.818 200.944C282.385 200.664 284.098 200.705 285.641 201.113C290.265 202.326 294.902 205.164 299.444 204.393C302.068 203.949 303.906 202.487 305.143 200.465C305.29 202.513 305.288 204.485 304.809 205.272C302.993 208.234 301.279 206.788 298.239 206.356C297.747 206.29 297.255 206.171 296.771 206.067C299.475 207.008 302.161 207.968 304.749 208.757C304.902 208.805 305.855 208.944 305.872 208.727C306.108 205.443 306.134 202.175 305.954 198.91C307.497 195.203 307.517 190.27 306.714 186.021C306.071 182.625 305.036 178.974 302.839 176.207C300.518 170.669 290.512 170.322 285.151 171.663C281.362 172.608 277.693 174.251 274.527 176.251C271.131 178.405 268.839 182.43 265.562 184.292C263.66 185.368 262.269 185.779 261.27 185.741C260.665 185.495 260.095 185.198 259.579 184.848C258.054 182.537 260.301 176.407 262.109 174.49C264.021 172.463 266.596 171.036 269.103 169.738C275.57 167.524 283.377 167.093 290.61 166.662C291.065 166.633 291.537 166.587 292 166.502C292.747 166.61 293.483 166.732 294.18 166.881C294.386 166.93 296.383 167.145 296.297 166.77C293.832 156.586 285.906 144.05 274.301 141.958C272.302 141.595 270.256 141.638 268.219 141.806C266.611 141.515 264.998 141.34 263.397 141.297C259.405 141.195 255.537 141.815 251.919 143.025C251.299 143.125 250.685 143.239 250.057 143.395C247.984 143.92 246.086 144.646 244.316 145.51C248.959 141.625 252.028 136.946 249.82 131.64C247.76 126.679 239.872 120.94 235.643 117.922C233.163 116.151 230.921 114.96 228.046 114.726C220.027 114.069 215.063 121.531 210.817 126.848C206.18 132.65 201.921 138.659 198.031 144.821C194.698 150.105 192.327 157.181 188.475 161.787C187.993 162.784 187.428 163.717 186.77 164.582C184.119 163.788 181.473 163.001 178.833 162.21C178.421 161.628 179.17 159.495 179.244 158.947C179.755 155.191 182.661 151.017 184.424 147.803C187.499 142.2 191.111 137.025 195.999 132.839C203.034 126.824 211.468 122.626 218.111 115.907C218.942 115.202 219.69 114.432 220.261 113.583C221.238 112.425 222.16 111.206 223.013 109.882C223.048 109.848 223.049 109.813 223.004 109.774C222.317 109.142 221.577 108.51 220.806 107.884C219.701 105.492 217.14 104.073 214.795 102.922C212.926 102.002 210.98 101.085 209.016 100.237C202.56 96.9753 195.63 94.8719 189.83 95.3746C179.713 96.2531 176.207 107.899 173.193 116.25C170.55 123.571 168.508 131.079 166.066 138.277C164.817 141.946 163.411 148.755 160.809 151.221C156.952 154.882 152.23 151.312 152.288 145.97C152.381 137.737 157.097 128.65 159.41 120.932C161.654 113.448 165.788 104.99 166.368 96.6688C167.143 85.5008 158.902 86.8274 151.705 87.4583C140.993 88.3988 130.467 88.7018 129.639 101.754C129.144 109.478 131.072 117.437 132.689 125.113C133.32 128.125 139.829 155.387 129.554 149.326C122.775 145.326 125.98 127.471 126.253 122.181C126.729 112.998 127.211 103.683 127.697 94.2347C127.704 94.032 126.738 94.082 126.661 94.1019C120.441 95.1375 104.608 98.0233 103.333 105.786C102.883 108.539 105.5 111.042 106.545 113.455C104.821 112.439 101.978 112.988 99.6641 113.681C101.369 113.491 103.02 113.743 104.472 114.682C104.913 114.965 105.273 115.19 105.582 115.379C99.6176 115.058 93.9586 116.751 90.0942 120.721C86.0878 124.845 84.3238 131.507 85.7708 138.076C84.2357 133.121 84.1533 128.047 86.4743 123.4C87.8037 120.742 91.0337 117.401 94.6971 115.387C87.9436 118.122 83.0462 123.78 83.4918 132.534C83.7882 138.339 86.3129 144.586 90.1147 149.469C91.4964 151.25 93.2578 152.882 94.9908 154.545C96.5215 156.688 98.0419 158.827 99.5692 160.963C100.266 161.938 100.972 163.021 101.524 164.108C102.531 168.797 100.667 173.744 93.5438 168.078C90.8521 165.941 88.7579 159.92 87.4612 156.752C85.7211 152.488 84.1494 148.176 82.6902 143.828C82.2185 140.409 81.607 136.988 80.306 133.614C80.0866 133.807 79.8775 134.021 79.6511 134.217C79.5239 133.793 79.3897 133.371 79.2625 132.946C79.1754 132.658 78.0554 132.748 77.9348 132.876C73.2986 137.818 61.1389 152.344 64.9047 163.044C64.8416 163.058 64.7923 163.081 64.7918 163.116C64.5637 173.099 70.6559 184.23 80.2386 189.289C83.596 191.061 87.0206 191.733 90.4409 192.198C101.54 193.71 111.467 194.2 122.176 201.822C121.655 201.822 121.157 201.907 121.194 202.002C121.529 202.838 121.723 203.544 121.816 204.15C93.0535 193.453 61.9645 187.033 37.0871 181.518C2.51829 173.845 -30.1407 168.992 -60.9165 165.807C-85.2816 163.291 -108.836 161.826 -127 166.785C-116.531 163.922 -97.7915 167.159 -84.3378 168.01C-68.3303 169.026 -51.6842 170.661 -34.4455 172.948C0.370641 177.558 37.5155 184.776 76.533 194.718C90.6074 198.309 105.047 202.817 119.57 207.12C116.084 207.398 109.54 204.422 106.321 203.547C104.161 202.959 102.068 202.581 99.9497 202.511C94.7597 202.336 89.9629 203.873 85.7714 206.16C80.8461 208.15 76.7908 211.491 74.278 216.1C73.7618 217.045 73.3533 218.05 72.9862 219.087C68.0422 230.828 72.6148 247.078 84.8783 258.995C85.1751 259.285 86.5857 259.437 86.7711 259.174C89.8168 254.715 92.95 250.256 96.2053 245.817C98.3778 242.857 101.771 235.703 105.862 233.622C108.832 242.336 104.563 248.342 99.1999 252.749C96.0391 255.354 89.6109 258.079 89.8803 263.289C90.1215 267.991 96.0753 273.536 99.3554 277.161C103.008 281.196 109.308 285.427 112.205 289.731C112.424 290.06 114.292 290.259 114.223 289.954C112.929 284.475 112.017 278.942 111.715 273.574C111.751 266.914 112.291 260.323 113.972 254.405C115.535 249.898 117.933 245.787 121.424 242.267C122.36 251.245 120.817 259.172 119.436 267.255C118.245 274.221 115.804 283.867 121.167 291.477C125.22 297.238 132.765 298.028 138.483 299.475C143.47 300.738 148.478 302.008 153.513 303.281C155.391 303.754 159.776 305.551 161.747 305.119C164.7 304.473 163.447 303.212 161.337 300.229C156.251 293.049 150.269 286.276 146.169 278.55C142.53 271.686 140.374 263.776 142.234 257.242C142.554 256.124 142.869 255.285 143.188 254.688C143.977 254.307 144.887 254.232 145.831 254.713C146.189 254.896 146.497 255.156 146.783 255.443L146.779 255.453ZM188.423 306.127C179.71 307.646 174.647 306.351 170.675 302.123C174.635 304.62 179.32 305.725 183.585 305.712C186.274 305.706 188.836 305.31 191.34 304.743C191.34 304.743 191.361 304.75 191.371 304.753C191.434 304.775 191.926 304.806 191.794 304.731C191.749 304.71 191.697 304.691 191.649 304.663C193.816 304.153 195.933 303.521 198.047 302.881C198.735 302.67 199.451 302.428 200.137 302.14C197.105 304.292 192.281 305.451 188.423 306.127ZM229.784 292.499C223.124 295.266 214.766 294.609 207.363 291.024C212.009 292.607 216.964 293.121 221.593 292.906C226.628 292.67 231.678 291.514 235.569 288.947C236.525 288.32 238.303 286.861 239.77 285.188C237.495 288.476 232.062 291.554 229.784 292.499ZM215.055 269.878C214.043 269.49 213.042 269.071 212.061 268.625C210.418 267.865 208.762 266.937 207.108 265.905C209.708 267.331 212.365 268.643 215.055 269.878ZM87.655 254.787C85.576 257.294 86.1774 258.071 83.1369 255.356C81.043 253.485 79.1172 250.291 77.6714 247.552C79.214 250.114 81.7884 254.219 83.6023 255.061C84.9437 255.681 86.033 254.755 86.7966 253.873L95.5428 243.854C92.9438 247.585 90.4661 251.405 87.655 254.787ZM111.368 285.916C111.44 286.263 111.502 286.607 111.581 286.95C109.361 284.819 106.685 282.839 104.559 280.758C104.464 280.544 104.383 280.34 104.298 280.129C106.579 282.17 108.937 284.104 111.378 285.92L111.368 285.916ZM102.947 278.915C103.009 279.042 103.052 279.168 103.11 279.288C101.82 277.949 100.271 276.414 98.7441 274.764C100.11 276.188 101.507 277.571 102.954 278.912L102.947 278.915ZM98.6187 256.2C96.0455 258.008 92.7708 259.981 91.9145 262.827C92.2226 257.572 99.9174 254 103.858 250.602C102.475 252.807 100.723 254.714 98.6153 256.193L98.6187 256.2ZM159.831 240.617C158.933 240.86 157.89 240.644 156.907 240.155C157.795 240.482 158.769 240.593 159.848 240.401C160.279 240.323 160.631 240.17 160.945 239.992C160.643 240.285 160.273 240.508 159.828 240.628L159.831 240.617ZM260.698 253.503C264.801 254.985 267.884 257.358 266.334 262.128C262.822 272.969 253.239 271.054 243.386 268.184C247.326 268.485 251.249 268.464 255.108 268.075C260.885 267.489 267.688 264.139 265.651 258.612C264.76 256.194 262.495 254.528 259.91 253.346C260.168 253.395 260.433 253.458 260.698 253.503ZM277.836 245.002C279.491 246.017 281.453 246.484 282.146 247.703C281.622 247.679 281.095 247.612 280.568 247.563C279.18 246.237 277.654 245.073 276.042 244.038C276.667 244.343 277.278 244.656 277.836 245.002ZM247.108 246.909C258.228 252.813 272.49 254.976 281.465 248.449C281.327 248.308 281.182 248.169 281.037 248.031C281.47 248.065 281.9 248.109 282.329 248.136C282.553 248.922 282.326 249.978 281.343 251.556C279.714 254.167 270.706 253.693 264.065 252.996C260.481 251.689 255.694 251.415 252.065 250.66C248.449 249.343 244.909 247.659 241.646 245.65C229.789 238.366 222.237 225.24 208.801 220.993C208.484 220.895 207.263 220.669 207.074 220.977C200.066 232.779 230.455 244.773 240.993 248.197C231.227 245.832 221.659 243.085 213.669 237.335C213.75 237.357 213.84 237.383 213.924 237.412C214.021 237.434 214.776 237.451 214.575 237.358C213.939 237.048 213.247 236.784 212.551 236.53C211.814 235.957 211.087 235.37 210.375 234.742C209.19 233.691 208.048 232.532 207.097 231.282C207.542 231.431 207.991 231.587 208.44 231.726C208.552 231.759 209.276 231.748 209.088 231.665C208.309 231.329 207.502 231.007 206.681 230.692C205.899 229.559 205.276 228.359 204.939 227.089C204.164 224.155 205.302 220.905 208.098 220.222C211.122 219.489 214.514 221.818 217.235 224.054C226.943 232.03 236.043 241.03 247.108 246.909ZM247.27 249.435C235.352 246.192 222.013 241.447 213.09 232.544C211.613 231.07 207.044 226.592 208.091 224.68C210.417 220.438 216.275 225.552 218.52 227.358C222.854 230.846 226.515 235.042 230.63 238.74C235.619 243.223 241.27 246.813 247.259 249.432L247.27 249.435ZM148.398 227.041C148.088 225.879 148.206 224.398 148.736 223.213C148.642 226.002 150.219 229.929 151.029 232.394C151.187 232.883 151.372 233.375 151.569 233.87C150.259 231.664 149.024 229.395 148.394 227.034L148.398 227.041ZM142.388 232.195C142.018 230.351 141.565 228.659 141.323 227.621C141.155 226.895 140.954 225.742 140.623 224.573C141.624 227.094 142.205 229.678 142.388 232.195ZM152.074 229.831C151.543 228.177 150.801 226.409 150.506 224.737C150.408 224.194 150.409 222.292 150.871 221.235C151.067 221.192 151.267 221.174 151.483 221.173C151.321 221.321 151.171 221.515 151.052 221.79C151.045 221.811 151.334 221.853 151.373 221.825C153.974 219.518 157.415 229.403 158.262 231.208C159.152 233.122 163.28 242.398 156.459 238.922C153.813 237.579 152.838 232.258 152.067 229.835L152.074 229.831ZM139.329 221.752C139.112 221.483 138.874 221.259 138.603 221.095C138.642 221.103 138.68 221.11 138.722 221.125C138.986 221.24 139.178 221.494 139.332 221.759L139.329 221.752ZM175.118 230.189C173.941 229.282 172.774 227.71 171.994 226.689C169.389 223.294 167.848 219.515 167.089 215.609C167.07 215.497 166.83 215.414 166.533 215.375C166.597 214.753 166.686 214.163 166.881 213.687C167.889 213.078 169.166 212.791 170.576 212.978C171.871 213.663 172.874 214.984 173.865 216.207C176.455 219.41 178.856 223.103 180.202 226.82C180.532 227.737 180.934 228.819 180.792 229.73C180.67 230.519 180.216 230.981 179.601 231.2C178.156 231.247 176.598 230.88 175.118 230.189ZM161.961 235.377C161.405 233.327 160.359 231.019 159.203 228.791C160.556 230.924 161.613 233.131 161.961 235.377ZM182.345 228.129C181.472 224.4 177.905 217.936 173.95 214.264C176.114 215.615 177.886 217.737 179.34 219.882C181.236 222.691 182.82 225.789 183.028 228.858C183.051 229.211 183.056 229.582 182.912 229.877C182.783 230.148 182.536 230.337 182.271 230.491C182.524 229.865 182.57 229.079 182.349 228.118L182.345 228.129ZM195.989 218.937C194.992 218.203 192.082 215.65 189.819 213.071C188.962 211.602 188.304 210.079 187.472 208.466C187.424 208.368 187.201 208.302 186.936 208.256C186.917 207.857 187.027 207.527 187.292 207.286C188.304 206.9 189.302 206.791 190.259 206.902C191.943 207.225 193.594 208.234 194.927 209.5C196.049 210.564 196.969 211.803 197.816 213.087C198.523 214.335 199.111 215.622 199.667 216.916C199.829 217.307 200.027 217.715 200.196 218.119C200.177 219.032 199.7 219.878 198.824 220.042C197.881 220.211 196.855 219.578 195.993 218.944L195.989 218.937ZM147.77 215.431C147.398 216.349 146.404 216.36 145.687 215.595C145.751 213.75 145.39 211.945 145.254 210.083C145.649 209.84 146.157 209.759 146.628 209.87C146.956 210.459 147.248 211.081 147.366 211.433C147.807 212.704 148.236 214.294 147.77 215.431ZM165.753 214.658C165.771 214.875 165.778 215.088 165.834 215.33C165.502 215.343 165.239 215.392 165.262 215.494C165.826 218.33 167.153 222.065 169.166 225.295C167.975 223.873 166.909 222.331 165.884 220.803C164.279 218.418 164.509 216.145 165.76 214.655L165.753 214.658ZM306.376 234.003C306.102 234.049 305.822 234.08 305.542 234.128C305.755 233.366 305.71 232.536 305.295 231.66C305.288 231.646 305.281 231.632 305.275 231.618C306.01 232.313 306.419 233.105 306.379 234.01L306.376 234.003ZM298.779 238.856C301.364 238.293 304.212 236.838 305.252 234.841C305.589 234.8 305.925 234.759 306.258 234.711C305.116 239.301 298.04 240.794 293.948 241.868C288.431 243.658 282.617 243.664 276.49 241.911L272.164 241.458C271.234 241.134 270.309 240.817 269.39 240.497C265.487 238.711 261.417 237.17 257.585 235.332C256.355 234.746 255.15 234.104 253.96 233.437C251.585 231.129 249.557 228.55 247.667 225.79C247.07 224.915 246.366 223.692 245.563 222.318C259.64 235.632 280.684 242.809 298.779 238.856ZM247.119 228.052C247.751 228.893 248.415 229.692 249.094 230.467C244.18 227.181 239.669 223.274 235.77 218.872C234.434 217.365 233.315 215.283 232.85 213.389C237.128 209.359 245.048 225.294 247.112 228.056L247.119 228.052ZM276.338 216.143C279.581 217.892 283.181 219.053 286.694 219.586C293.342 221.357 300.322 222.055 306.27 219.718C307.184 219.364 308.096 218.879 308.71 218.192C308.893 218.103 309.079 218.022 309.259 217.926C308.939 219.635 307.824 221.39 306.61 222.541C303.759 225.23 289.824 224.281 285.781 223.283C283.317 222.677 280.769 221.356 278.454 220.269C275.299 218.79 271.081 215.272 266.948 212.902C270.096 213.846 273.221 214.993 276.349 216.146L276.338 216.143ZM256.854 211.294C254.727 212.93 254.248 214.49 254.823 215.949C254.053 214.75 253.72 213.469 254.364 212.411C254.929 211.478 256.014 211.119 257.228 211.044C257.108 211.119 256.988 211.195 256.865 211.298L256.854 211.294ZM236.5 211.347C235.437 210.836 234.335 210.605 233.193 210.792C233.007 210.821 232.853 210.878 232.684 210.925C232.868 209.76 233.54 208.888 234.897 208.64C235.402 209.559 235.942 210.462 236.5 211.347ZM124.009 187.668C124.114 187.67 124.219 187.654 124.212 187.64C124.038 187.316 123.878 186.985 123.715 186.665C123.645 186.412 123.575 186.159 123.512 185.903C123.498 185.84 123.408 185.797 123.286 185.76C122.222 183.47 121.436 181.089 121.118 178.707C121.177 177.732 121.336 176.786 121.607 175.891C121.827 175.178 122.252 174.46 122.804 174.019C123.287 174.211 123.86 174.733 124.529 175.738C125.564 177.305 126.006 179.297 126.546 180.989C127.647 184.434 130.09 189.47 129.992 192.843C129.954 194.112 129.656 194.664 129.228 194.784C129.005 194.77 128.771 194.736 128.541 194.673C127.412 194.116 125.936 192.051 125.305 190.871C124.742 189.815 124.344 188.757 124.012 187.676L124.009 187.668ZM115.258 188.929C113.925 188.705 112.501 187.5 111.355 186.37C110.447 185.48 109.512 184.534 108.676 183.54C108.392 183.061 108.143 182.617 107.938 182.247C107.367 181.246 106.174 178.454 106.228 176.752C106.847 176.236 107.896 176.25 108.788 176.748C108.989 176.859 109.173 177.005 109.36 177.14C110.513 178.484 111.446 180.109 112.245 181.546C112.965 182.839 113.629 184.159 114.244 185.485C114.707 186.477 115.934 188.316 115.261 188.918L115.258 188.929ZM124.019 173.588C124.274 173.595 124.539 173.641 124.817 173.784C125.703 174.233 126.224 175.258 126.631 176.19C128.117 179.587 129.291 183.057 130.168 186.524C129.296 183.984 128.269 181.572 127.866 180.29C127.223 178.222 125.958 175.013 124.023 173.595L124.019 173.588ZM138.663 187.428C138.547 187.458 138.455 187.519 138.346 187.563C138.957 187.12 139.74 186.89 140.571 186.974C140.628 187.164 140.674 187.35 140.731 187.539C140.696 187.521 140.669 187.5 140.634 187.482C140.022 187.24 139.214 187.274 138.663 187.428ZM140.21 193.826C140.12 194.286 139.949 194.777 139.705 194.956C139.639 194.927 139.573 194.915 139.51 194.876C139.129 194.644 138.815 194.283 138.622 193.882C138.584 193.787 138.547 193.692 138.52 193.601C138.503 193.565 138.493 193.527 138.483 193.488C138.444 193.299 138.422 193.11 138.407 192.917C138.409 192.812 138.393 192.707 138.411 192.603L138.401 192.868C138.372 192.413 138.403 191.956 138.429 191.526C138.434 191.428 137.793 191.287 137.324 191.287C137.311 191.259 137.297 191.231 137.297 191.196C137.672 189.869 138.473 188.527 139.515 187.988C140.501 189.274 140.376 192.93 140.207 193.802L140.21 193.826ZM175.242 190.117C175.101 190.185 174.964 190.243 174.827 190.283C173.077 189.679 171.652 187.468 170.874 185.517C170.673 184.328 170.6 183.209 170.245 182.043L170.259 182.036C170.186 181.759 170.138 181.479 170.092 181.205C170.076 177.992 171.273 174.99 173.627 173.141C175.411 172.539 177.624 173.345 178.409 175.561C178.931 177.037 178.872 178.872 178.821 180.312C178.716 183.167 177.812 188.823 175.253 190.121L175.242 190.117ZM274.464 178.044C279.249 174.507 282.595 173.219 287.981 173.117C285.795 173.965 283.737 175.186 281.991 176.55C277.1 180.39 272.796 185.389 266.509 186.413C266.236 186.458 265.952 186.482 265.672 186.496C269.105 184.741 271.3 180.372 274.461 178.037L274.464 178.044ZM201.812 177.378C201.876 177.565 201.94 177.751 201.993 177.968C202.683 180.96 202.498 184.115 201.4 186.677C201.025 187.553 200.358 189.048 199.439 189.787C197.881 190.21 195.984 189.842 194.704 188.577C194.533 188.26 194.384 187.915 194.298 187.523C194.284 187.494 194.26 187.463 194.222 187.438C194.237 187.413 194.237 187.378 194.258 187.351L194.153 187.402C193.983 187.319 193.686 187.28 193.396 187.273C193.828 184.268 194.056 181.058 195.597 178.533C196.244 177.465 197.53 176.244 198.798 175.779C199.866 175.94 200.966 176.528 201.808 177.371L201.812 177.378ZM293.635 166.112C293.523 166.096 293.411 166.081 293.303 166.055C293.395 166.011 293.49 165.956 293.574 165.898C293.591 165.968 293.615 166.035 293.635 166.112ZM266.491 160.094C266.487 160.175 266.482 160.255 266.47 160.339C266.271 161.112 264.915 162.133 263.181 163.179C263.174 163.183 263.167 163.186 263.159 163.19C256.565 165.787 250.525 169.314 245.257 173.614C243.059 175.406 237.615 176.683 236.553 173.984C236.626 171.422 240.644 168.507 242.252 167.217C246.77 163.575 253.401 159.545 259.777 159.12C264.613 158.796 266.415 159.254 266.491 160.094ZM238.635 168.123C238.823 167.937 239.007 167.744 239.199 167.564C242.233 164.717 245.892 162.497 249.93 160.988C246.49 162.547 243.345 164.501 240.836 166.426C240.285 166.848 239.484 167.435 238.628 168.127L238.635 168.123ZM233.433 157.361C230.791 161.452 228.89 166.087 225.533 169.472C225.065 169.942 224.556 170.379 224.012 170.781C227.626 166.437 230.473 160.937 232.056 158.626C233.586 156.384 235.234 154.441 237.012 152.748C235.696 154.192 234.486 155.732 233.433 157.361ZM276.752 144.532C278.935 145.24 281.021 146.394 283.205 148.343C281.193 146.858 279.021 145.58 276.752 144.532ZM244.263 130.653C244.369 130.602 243.876 130.553 243.785 130.58C243.785 130.58 243.778 130.584 243.771 130.587C242.096 128.271 239.721 126.249 237.468 124.447C233.006 120.873 227.78 117.068 222.594 117.943C222.009 118.044 221.45 118.218 220.913 118.417C229.219 113.56 235.733 119.598 242.489 125.78C249.511 132.206 249.516 137.335 243.584 143.494C243.389 143.701 243.092 143.949 242.749 144.21C244.758 141.971 246.281 139.246 246.019 136.1C245.856 134.181 245.071 132.433 243.943 130.817C244.055 130.762 244.154 130.697 244.267 130.643L244.263 130.653ZM197.416 148.938C199.906 144.783 202.605 140.039 205.622 135.412C200.595 143.694 196.556 152.602 191.364 160.382C191.176 160.585 191.002 160.8 190.87 161.029C190.859 161.043 190.883 161.057 190.922 161.065C190.904 161.082 190.897 161.103 190.886 161.117C190.14 162.215 189.182 163.304 188.118 164.191C192.719 158.998 196.772 150.031 197.43 148.931L197.416 148.938ZM226.973 155.925C229.239 154.613 233.089 152.787 237.039 150.486C232.286 154.807 228.711 160.364 225.31 165.994C224.145 167.929 222.675 171.14 220.655 172.62C219.787 172.944 218.893 173.16 217.975 173.273C216.818 173.233 215.243 173.1 213.725 172.888C213.182 172.716 212.65 172.496 212.126 172.219C211.143 171.696 210.178 170.92 209.783 169.887C210.761 168.407 212.494 166.406 212.87 165.981C216.636 161.755 221.984 158.806 226.973 155.925ZM210.921 166.081C211.06 165.918 211.212 165.766 211.357 165.618C211.52 165.452 211.694 165.308 211.86 165.149C211.527 165.467 211.215 165.774 210.914 166.084L210.921 166.081ZM158.348 168.639C158.86 171.89 158.409 175.287 158.092 178.366C158.004 179.19 157.959 180.697 157.732 182.005C157.682 182.081 157.646 182.168 157.589 182.248C154.499 186.329 152.53 180.655 151.945 177.578C151.193 173.651 151.519 169.708 153.014 166.389C153.49 165.325 154.357 164.281 155.39 163.921C157.138 164.179 158.061 166.806 158.348 168.639ZM171.334 126.613C173.524 119.737 175.703 112.623 178.976 106.135C180.035 104.034 181.324 100.736 183.269 99.3707C184.151 98.7532 185.451 98.3335 186.982 98.0533C186.708 98.186 186.426 98.3221 186.162 98.4759C180.72 101.697 178.244 108.303 176.098 114.446C174.022 120.39 171.965 126.265 169.939 132.081C170.56 129.61 171.02 127.616 171.348 126.606L171.334 126.613ZM214.173 118.523C212.694 119.629 211.261 120.581 210.332 121.282C201.346 128.075 192.035 133.044 185.815 142.433C184.159 144.935 180.203 150.208 178.145 155.327C178.237 154.979 178.329 154.63 178.442 154.306C183.886 137.851 198.626 127.028 214.177 118.53L214.173 118.523ZM117.33 152.708C117.948 155.657 117.556 158.799 115.875 160.601C117.301 157.498 115.491 151.652 114.039 148.108C112.041 143.239 109.826 138.44 109.16 133.291C108.973 131.844 108.975 130.446 109.046 129.048C110.004 133.474 111.281 137.84 113.112 142.078C114.646 145.609 116.568 149.083 117.334 152.715L117.33 152.708ZM164.999 95.5071C164.992 95.7622 164.954 96.024 164.936 96.2755C163.637 92.0063 159.24 88.7306 155.081 88.049C155.025 88.0413 154.966 88.044 154.907 88.0292C160.447 88.4076 165.142 90.3236 164.999 95.5071ZM131.16 106.715C130.768 98.6115 131.438 92.7044 138.939 90.0601C141.075 89.3055 145.718 88.2767 150.508 88.0192C147.534 88.406 144.695 89.4833 141.96 90.5621C138.03 92.1143 133.845 93.9289 132.168 98.0044C130.629 101.736 131.597 106.416 132.441 110.749C133.537 116.394 134.378 122.013 134.982 127.574C133.417 120.637 131.498 113.593 131.163 106.722L131.16 106.715ZM148.589 144.407C148.007 139.755 149.826 135.577 151.616 131.629L161.1 110.686C160.707 111.813 160.325 112.927 159.996 114.024C157.942 120.913 155.91 127.721 153.904 134.439C152.674 138.559 148.875 146.526 151.998 151.407C150.202 149.523 148.901 146.904 148.592 144.414L148.589 144.407ZM104.959 108.378C103.982 103.232 108.313 101.556 111.424 99.765C113.041 98.8356 114.752 98.0089 116.485 97.2838C118.997 95.0972 121.651 94.8565 124.422 96.53C120.177 98.3822 115.96 100.221 111.781 102.05C109.615 102.993 107.306 104.108 106.491 106.482C105.96 108.042 106.169 109.894 106.38 111.677C106.395 111.834 106.418 111.988 106.433 112.146C105.778 110.934 105.2 109.703 104.948 108.374L104.959 108.378ZM126.032 97.6879C126.077 97.727 126.126 97.7556 126.171 97.7947C126.109 98.9792 126.052 100.153 125.987 101.331C127.114 106.465 125.35 113.665 125.083 118.735C124.744 125.22 123.731 131.927 124.29 138.455C124.65 142.684 126.481 150.334 131.444 151.261C128.507 151.508 125.214 148.593 123.901 145.373C122.482 141.899 122.734 138.235 123.022 134.753C124.006 122.633 125.007 110.279 126.029 97.6984L126.032 97.6879ZM106.923 159.597C104.026 155.596 102.395 148.162 102.125 144.532C102.228 143.397 102.382 142.281 102.554 141.181C102.65 140.588 102.769 140.01 102.872 139.413C104.163 134.682 106.712 127.615 107.759 121.968C107.875 122.728 107.998 123.485 108.131 124.246C108.085 130.546 107.818 135.381 110.355 142.23C112.167 147.128 118.854 157.729 114.175 161.18C113.645 161.575 113.127 161.851 112.628 162.04C110.743 162.075 108.69 161.113 106.927 159.604L106.923 159.597ZM133.425 169.91C133.177 167.833 133.127 164.532 134.391 163.087C134.614 162.831 134.823 162.652 135.031 162.508C135.799 162.389 136.531 162.504 137.216 162.842C137.909 163.575 138.49 164.796 139.013 165.985C141.038 170.641 143.029 175.983 142.945 180.712C142.895 183.411 141.821 185.788 139.398 182.913C138.1 181.378 137.077 179.746 136.18 178.034C134.9 175.423 133.782 172.768 133.432 169.906L133.425 169.91ZM75.5311 170.316C79.8481 171.451 84.3426 171.606 88.4343 174.16C89.9773 175.125 91.3696 176.64 92.351 178.293C91.5891 177.22 90.5991 176.214 89.4106 175.408C87.1895 173.902 84.7927 173.507 82.4752 172.934C77.9623 171.807 73.7499 170.691 70.7323 168.346C72.2797 169.248 73.9457 169.91 75.5275 170.327L75.5311 170.316ZM71.9829 141.545C73.12 139.927 74.5315 137.135 76.2387 136.283C77.4285 135.691 77.9957 135.373 78.3441 135.466C73.6927 139.98 69.8759 145.359 67.037 151.342C68.0786 147.713 69.9335 144.454 71.9863 141.552L71.9829 141.545ZM84.4441 154.894C84.1857 153.82 83.9835 152.737 83.7987 151.654C86.0585 158.88 88.9551 166.346 94.1769 169.622C89.3877 166.935 85.8118 160.597 84.4545 154.897L84.4441 154.894ZM66.487 170.737C65.9949 168.839 65.2907 165.55 65.8037 165.623C65.7862 165.623 69.0228 171.456 69.6934 172.556C68.5374 171.153 67.4415 169.694 66.4304 168.177C66.3456 169.025 66.369 169.882 66.4833 170.747L66.487 170.737ZM67.5294 167.307C68.3288 168.188 69.2792 169.023 70.4296 169.804C76.9785 174.245 94.1659 172.276 92.6931 183.815C92.5209 185.184 92.013 186.037 91.2762 186.489C89.0646 187.141 86.0212 185.946 83.5129 184.476C82.0349 183.61 80.6038 182.643 79.2086 181.607C76.9871 179.867 75.0737 178.1 74.0574 176.968C71.3906 174.02 69.2698 170.764 67.5435 167.3L67.5294 167.307ZM98.6693 192.64C90.4518 191.646 82.6202 191.862 75.4839 185.326C73.2249 183.257 71.258 180.787 69.6711 178.133C71.9368 181.275 75.1097 184.031 78.418 185.81C78.8238 186.056 79.2476 186.268 79.6788 186.442C86.7159 189.683 94.0039 189.851 101.272 191.521C107.365 192.918 114.175 195.366 119.872 199.159C120.614 199.651 121.294 200.286 121.879 200.993C121.813 200.999 121.736 201.002 121.669 201.008C114.005 195.751 106.925 193.643 98.6623 192.644L98.6693 192.64ZM121.85 201.129C121.895 201.133 121.944 201.127 121.989 201.131C122.048 201.198 122.11 201.273 122.161 201.343C122.057 201.272 121.953 201.201 121.85 201.129ZM216.934 203.777C219.271 205.235 221.453 207.81 222.976 210.026C223.604 210.929 224.258 211.959 224.46 213.007C224.102 213.901 222.86 214.224 221.787 213.908C220.631 213.564 219.646 212.712 218.727 211.871C216.879 210.185 215.081 208.441 213.321 206.669C212.717 204.053 213.157 201.426 216.923 203.773L216.934 203.777ZM158.629 206.674C158.655 206.28 158.754 205.91 158.916 205.58C159.228 205.291 159.56 205.026 159.895 204.786C159.952 204.741 160.019 204.7 160.079 204.662C160.135 204.67 160.177 204.667 160.243 204.678C160.33 204.697 160.372 204.712 160.431 204.726C161.287 205.581 161.744 207.174 161.945 208.128C162.08 208.766 162.054 209.934 161.66 210.575C161.287 210.79 160.852 210.896 160.38 210.873C160.356 210.858 160.328 210.854 160.3 210.833C159.162 210.185 158.566 207.694 158.622 206.678L158.629 206.674ZM106.452 205.22C101.957 204.076 97.4744 203.803 93.2893 204.306C99.4711 202.742 105.395 204.22 112.363 206.418C114.149 206.988 115.697 207.568 117.503 207.91C119.15 208.226 120.558 208.283 122.041 208.244C121.978 208.274 121.935 208.312 121.861 208.339C118.39 209.852 110.327 206.195 106.459 205.217L106.452 205.22ZM134.927 209.43C135.255 208.959 135.645 208.545 136.149 208.258C136.361 208.642 136.572 209.043 136.766 209.444C136.825 209.728 136.87 210.019 136.922 210.307C136.259 210.011 135.595 209.715 134.927 209.43ZM134.583 212.905C134.555 212.397 134.691 211.959 134.85 211.534C135.613 211.747 136.379 211.967 137.139 212.173C137.188 212.688 137.229 213.276 137.19 213.807C136.717 214.409 135.923 214.723 135.153 214.531C134.827 214.02 134.605 213.363 134.576 212.908L134.583 212.905ZM103.044 216.08C102.969 216.247 102.91 216.414 102.849 216.592C102.842 216.577 102.849 216.557 102.842 216.543L102.98 215.912C102.993 215.975 103.017 216.024 103.044 216.08C103.859 214.21 105.888 213.125 108.142 213.495C108.175 213.652 108.2 213.831 108.18 214.041C108.183 214.065 108.239 214.09 108.333 214.123C108.139 214.998 107.876 215.82 107.322 216.505C106.991 216.899 106.609 217.24 106.168 217.514C106.168 217.514 106.161 217.517 106.154 217.52C105.993 217.564 105.828 217.6 105.653 217.615C104.68 217.686 103.37 217.078 103.034 216.077L103.044 216.08ZM96.7121 217.118C97.1241 217.162 97.5247 217.272 97.8994 217.49C97.5347 217.311 97.1273 217.186 96.7121 217.118ZM87.1135 224.475C86.6125 222.199 88.1692 220.318 89.6685 219.324C90.7432 218.709 91.9072 218.207 92.9401 217.847C95.0111 217.245 97.3295 217.227 98.2092 219.425C97.7189 221.572 96.5238 222.818 94.716 223.874C93.5777 224.537 92.3398 225.066 91.0308 225.43C89.7989 225.773 87.5753 226.544 87.1205 224.472L87.1135 224.475ZM99.2491 219.834C99.2604 220.037 99.2542 220.239 99.2167 220.431C99.1411 220.85 98.9719 221.218 98.7506 221.551C98.9779 221.033 99.0589 220.464 98.9272 219.85C99.0426 219.855 99.1545 219.853 99.2455 219.844L99.2491 219.834ZM88.5681 226.299C89.5265 226.27 90.537 226.007 91.2349 225.852C91.9469 225.69 93.0207 225.397 94.1419 224.968C92.2868 225.891 90.1586 226.589 88.5681 226.299ZM106.827 231.002C106.945 231.57 107.043 232.13 107.122 232.691C106.651 232.615 106.043 232.648 105.881 232.674C105.657 232.713 105.447 232.763 105.233 232.823L106.827 231.002ZM119.822 231.875C119.993 230.629 120.46 229.17 120.587 228.553C120.744 227.782 120.929 227.016 121.128 226.26C121.464 225.768 121.785 225.282 122.026 224.758C122.952 222.721 123.372 220.304 124.275 218.2C124.466 217.752 124.763 217.27 125.171 217.055C125.467 220.559 125.732 223.965 125.182 227.244C125.026 228.161 124.252 231.662 123.11 233.629C121.817 234.132 120.402 233.47 119.826 231.865L119.822 231.875ZM138.49 239.454C138.319 239.189 138.162 238.9 138.012 238.591C138.124 238.606 138.243 238.601 138.236 238.569C137.563 234.77 136.463 230.804 136.356 227.026C136.336 226.446 136.269 223.63 136.728 222.245C136.955 221.961 137.217 221.713 137.517 221.49C138.793 221.793 139.433 225.956 139.618 226.752C140.458 230.358 141.332 234.555 141.003 237.97C141.053 238.953 140.835 239.831 140.36 240.591C139.537 240.363 138.938 239.967 138.504 239.447L138.49 239.454ZM122.357 239.993C122.644 239.724 122.903 239.434 123.207 239.183C123.296 239.547 123.368 239.912 123.441 240.277C123.313 240.104 122.846 240.017 122.36 240L122.357 239.993ZM151.575 302.273C149.526 301.752 146.771 301.243 143.776 300.633C143.783 300.63 143.811 300.616 143.804 300.62C143.412 300.115 143.062 299.606 142.691 299.108C148.651 300.517 154.65 301.933 160.68 303.36C159.195 304.833 153.903 302.867 151.575 302.273ZM161.034 302.781C160.971 303.011 160.85 303.191 160.697 303.343C159.074 300.324 157.119 297.431 155.056 294.564C157.127 297.088 161.251 301.972 161.034 302.781ZM144.589 279.557C144.801 279.941 145.027 280.318 145.252 280.695C145.229 280.646 145.191 280.603 145.16 280.557C142.022 275.414 139.682 269.494 139.512 264.219C139.899 269.225 141.8 274.558 144.593 279.564L144.589 279.557ZM120.853 279.977C120.669 281.159 120.773 282.507 121.172 283.834C121.232 284.282 121.303 284.734 121.374 285.186C121.77 287.461 122.454 289.883 124.102 291.891C126.782 295.154 131.098 296.359 134.95 297.267L141.764 298.879C142.17 299.413 142.575 299.946 143.012 300.473C136.202 299.067 128.385 297.123 124.746 293.403C120.055 288.602 120.042 282.036 120.386 276.963C121.208 264.939 125.441 254.115 123.539 240.785C126.187 254.779 120.406 266.873 120.849 279.97L120.853 279.977ZM165.131 251.688C164.042 253.118 164.015 255.345 164.54 257.687C163.826 255.384 163.869 252.976 165.131 251.688Z" fill="url(#paint1_linear_1907_525)" fill-opacity="0.8"/>
<defs>
<linearGradient id="paint0_linear_1907_525" x1="17.9894" y1="163.355" x2="135.491" y2="217.405" gradientUnits="userSpaceOnUse">
<stop stop-color="#D99979"/>
<stop offset="0.25" stop-color="#D99979" stop-opacity="0.8"/>
<stop offset="1" stop-color="#D99979" stop-opacity="0.3"/>
</linearGradient>
<linearGradient id="paint1_linear_1907_525" x1="-44.6986" y1="117.443" x2="221.087" y2="218.207" gradientUnits="userSpaceOnUse">
<stop stop-color="#D99979"/>
<stop offset="0.25" stop-color="#D99979" stop-opacity="0.8"/>
<stop offset="1" stop-color="#D99979" stop-opacity="0.3"/>
</linearGradient>
</defs>
</svg>
