<svg width="88" height="88" viewBox="0 0 88 88" fill="none" xmlns="http://www.w3.org/2000/svg">
<circle cx="43.8843" cy="43.7617" r="29.6656" stroke="#6A6880" stroke-width="0.812757"/>
<path fill-rule="evenodd" clip-rule="evenodd" d="M43.8843 73.0205C60.0437 73.0205 73.1435 59.9207 73.1435 43.7612C73.1435 27.6018 60.0437 14.502 43.8843 14.502C27.7248 14.502 14.625 27.6018 14.625 43.7612C14.625 59.9207 27.7248 73.0205 43.8843 73.0205ZM43.8819 65.7058C56.0015 65.7058 65.8264 55.8809 65.8264 43.7613C65.8264 31.6418 56.0015 21.8169 43.8819 21.8169C31.7624 21.8169 21.9375 31.6418 21.9375 43.7613C21.9375 55.8809 31.7624 65.7058 43.8819 65.7058Z" fill="url(#paint0_linear_1040_37315)"/>
<circle cx="43.8895" cy="43.7616" r="21.5381" fill="url(#paint1_linear_1040_37315)" fill-opacity="0.5" stroke="white" stroke-width="0.812757"/>
<path d="M44 34.5688V52.3035" stroke="white" stroke-width="0.812757" stroke-linecap="round" stroke-linejoin="round"/>
<path d="M48.0723 37.7935H41.9612C41.2049 37.7935 40.4795 38.0907 39.9447 38.6198C39.4098 39.149 39.1094 39.8666 39.1094 40.6149C39.1094 41.3632 39.4098 42.0808 39.9447 42.6099C40.4795 43.1391 41.2049 43.4363 41.9612 43.4363H46.0353C46.7917 43.4363 47.517 43.7336 48.0519 44.2627C48.5867 44.7918 48.8872 45.5095 48.8872 46.2577C48.8872 47.006 48.5867 47.7237 48.0519 48.2528C47.517 48.7819 46.7917 49.0792 46.0353 49.0792H39.1094" stroke="white" stroke-width="0.812757" stroke-linecap="round" stroke-linejoin="round"/>
<path d="M43.6105 8.28735C43.4518 8.12865 43.4518 7.87135 43.6105 7.71265L46.1967 5.12647C46.3554 4.96777 46.6127 4.96777 46.7714 5.12647C46.9301 5.28517 46.9301 5.54247 46.7714 5.70118L44.4726 8L46.7714 10.2988C46.9301 10.4575 46.9301 10.7148 46.7714 10.8735C46.6127 11.0322 46.3554 11.0322 46.1967 10.8735L43.6105 8.28735ZM43.8978 78.6729C63.3014 78.6729 79.0311 62.9432 79.0311 43.5397H79.8439C79.8439 63.3921 63.7503 79.4857 43.8978 79.4857V78.6729ZM79.0311 43.5397C79.0311 24.1361 63.3014 8.40638 43.8978 8.40638V7.59362C63.7503 7.59362 79.8439 23.6872 79.8439 43.5397H79.0311Z" fill="url(#paint2_linear_1040_37315)"/>
<path d="M43.952 78.7917C44.1107 78.9504 44.1107 79.2078 43.952 79.3665L41.3658 81.9526C41.2071 82.1113 40.9498 82.1113 40.7911 81.9526C40.6324 81.7939 40.6324 81.5366 40.7911 81.3779L43.0899 79.0791L40.7911 76.7803C40.6324 76.6216 40.6324 76.3643 40.7911 76.2056C40.9498 76.0469 41.2071 76.0469 41.3658 76.2056L43.952 78.7917ZM43.6646 8.40617C24.2611 8.40617 8.53137 24.1359 8.53138 43.5394L7.71862 43.5394C7.71862 23.687 23.8122 7.59341 43.6646 7.59341L43.6646 8.40617ZM8.53138 43.5394C8.53138 62.943 24.2611 78.6727 43.6647 78.6727L43.6647 79.4855C23.8122 79.4855 7.71862 63.3919 7.71862 43.5394L8.53138 43.5394Z" fill="url(#paint3_linear_1040_37315)"/>
<defs>
<linearGradient id="paint0_linear_1040_37315" x1="14.625" y1="14.502" x2="83.4452" y2="55.8915" gradientUnits="userSpaceOnUse">
<stop stop-color="#6B6981"/>
<stop offset="1" stop-color="#6A6A80" stop-opacity="0"/>
</linearGradient>
<linearGradient id="paint1_linear_1040_37315" x1="43.8895" y1="24.7431" x2="43.8895" y2="64.8933" gradientUnits="userSpaceOnUse">
<stop stop-color="white"/>
<stop offset="1" stop-color="white" stop-opacity="0"/>
</linearGradient>
<linearGradient id="paint2_linear_1040_37315" x1="61.6677" y1="11.554" x2="61.6677" y2="79.0793" gradientUnits="userSpaceOnUse">
<stop stop-color="white"/>
<stop offset="1" stop-color="white" stop-opacity="0"/>
</linearGradient>
<linearGradient id="paint3_linear_1040_37315" x1="25.8948" y1="75.5251" x2="25.8948" y2="7.99979" gradientUnits="userSpaceOnUse">
<stop stop-color="white"/>
<stop offset="1" stop-color="white" stop-opacity="0"/>
</linearGradient>
</defs>
</svg>
