<svg width="936" height="1306" viewBox="0 0 936 1306" fill="none" xmlns="http://www.w3.org/2000/svg">
<path opacity="0.1" fill-rule="evenodd" clip-rule="evenodd" d="M35.6647 23.043V0L36.7257 0V23.043L70.6979 23.043V0L71.7589 0V23.043L105.729 23.043V0L106.79 0V23.043L140.762 23.043V0L141.823 0V23.043L175.796 23.043V0L176.857 0V23.043L210.829 23.043V0L211.89 0V23.043L245.86 23.043V0L246.921 0V23.043L280.893 23.043V0L281.954 0V23.043L315.926 23.043V0L316.987 0V23.043L350.958 23.043V0L352.019 0V23.043L385.991 23.043V0L387.052 0V23.043L421.024 23.043V0L422.085 0V23.043L456.057 23.043V0L457.118 0V23.043L491.089 23.043V0L492.15 0V23.043L526.122 23.043V0L527.183 0V23.043L561.155 23.043V0L562.216 0V23.043L596.188 23.043V0L597.249 0V23.043L631.219 23.0431V0L632.28 0V23.0431L666.253 23.0431V0L667.314 0V23.0431L701.286 23.0431V0L702.347 0V23.0431L736.319 23.0431V0L737.38 0V23.0431L771.35 23.0431V0L772.411 0V23.0431L806.383 23.0431V0L807.444 0V23.0431L841.417 23.0431V0L842.478 0V23.0431L876.448 23.0431V0L877.509 0V23.0431L911.481 23.0431V0L912.542 0V23.0431L946.514 23.0431V0L947.575 0V23.0431L981.548 23.0431V0L982.609 0V23.0431L1033.84 23.0431V24.1041L982.609 24.1041V58.9882L1033.84 58.9882V60.0491L982.609 60.0491V94.9259L1033.84 94.9259V95.9869L982.609 95.9869V130.871H1033.84V131.932H982.609V166.817H1033.84V167.878H982.609V202.754H1033.84V203.815H982.609V238.695H1033.84V239.756H982.609V274.637H1033.84V275.698H982.609V310.578H1033.84V311.639H982.609V346.523H1033.84V347.584H982.609V382.461H1033.84V383.522H982.609V418.406H1033.84V419.467H982.609V454.352H1033.84V455.413H982.609L982.609 490.289H1033.84V491.35H982.609V526.23H1033.84V527.291H982.609V562.172H1033.84V563.233H982.609V598.113H1033.84V599.174H982.609V634.063H1033.84V635.123H982.609V670H1033.84V671.061H982.609V705.941H1033.84V707.002H982.609V741.887H1033.84V742.948H982.609L982.608 777.824H1033.84V778.885H982.608V813.77H1033.84V814.831H982.608V849.707H1033.84V850.768H982.608V885.652H1033.84V886.713H982.608V921.598H1033.84V922.659H982.608V957.535H1033.84V958.596H982.608V993.48H1033.84V994.541H982.608V1029.43H1033.84V1030.49H982.608V1065.36H1033.84V1066.42H982.608V1101.3H1033.84V1102.37H982.608V1137.25H1033.84V1138.31H982.608V1173.19H1033.84V1174.25H982.608V1209.14H1033.84V1210.2H982.608V1245.07H1033.84V1246.13H982.608V1281.02H1033.84V1282.08H982.608V1316.96H1033.84V1318.02H982.608V1352.9H1033.84V1353.96H982.608V1388.84H1033.84V1389.9H982.608L982.608 1424.78H1033.84V1425.84H982.608V1460.73H1033.84V1461.79H982.608V1496.67H1033.84V1497.73H982.608V1530.11H981.547V1497.73H947.575V1530.11H946.514V1497.73L912.542 1497.73V1530.11H911.481V1497.73H877.509V1530.11H876.448V1497.73H842.478V1530.11H841.417V1497.73H807.444V1530.11H806.383V1497.73L772.411 1497.73V1530.11H771.35V1497.73H737.38V1530.11H736.319V1497.73H702.347V1530.11H701.286V1497.73H667.314V1530.11H666.253V1497.73H632.28V1530.11H631.219V1497.73H597.249V1530.11H596.188V1497.73H562.216V1530.11H561.155V1497.73H527.183V1530.11H526.122V1497.73H492.149V1530.11H491.089V1497.73H457.118V1530.11H456.057V1497.73H422.085V1530.11H421.024V1497.73H387.052V1530.11H385.991V1497.73H352.019V1530.11H350.958V1497.73H316.987V1530.11H315.926V1497.73H281.954V1530.11H280.893V1497.73L246.921 1497.73L246.921 1530.11H245.86L245.86 1497.73H211.89L211.89 1530.11H210.829L210.829 1497.73H176.857L176.857 1530.11H175.796L175.796 1497.73H141.823L141.823 1530.11H140.762L140.762 1497.73H106.79V1530.11H105.729V1497.73H71.7589V1530.11H70.6979V1497.73H36.7256V1530.11H35.6647V1497.73H0L0 1496.67H35.6647L35.6647 1461.79H0L0 1460.73H35.6647V1425.84H0L0 1424.78H35.6647L35.6647 1389.9H0L0 1388.84H35.6647L35.6647 1353.96H0L0 1352.9H35.6647V1318.02H0L0 1316.96H35.6647L35.6647 1282.08H0L0 1281.02H35.6647L35.6647 1246.13H0L0 1245.07H35.6647L35.6647 1210.2H0L0 1209.14H35.6647L35.6647 1174.25H0L0 1173.19H35.6647V1138.31H0L0 1137.25H35.6647L35.6647 1102.37H0L0 1101.3H35.6647L35.6647 1066.42H0L0 1065.36H35.6647L35.6647 1030.49H0L0 1029.43H35.6647L35.6647 994.541H0L0 993.48H35.6647V958.596H0L0 957.535H35.6647L35.6647 922.659H0L0 921.598H35.6647L35.6647 886.713H0L0 885.652H35.6647L35.6647 850.768H0L0 849.707H35.6647L35.6647 814.83H0L0 813.769H35.6647L35.6647 778.885H0L0 777.824H35.6647L35.6647 742.948H0L0 741.887H35.6647L35.6647 707.002H0L0 705.941H35.6647L35.6647 671.061H0L0 670H35.6647L35.6647 635.123H0L0 634.062H35.6647L35.6647 599.174H0L0 598.113H35.6647L35.6647 563.233H0L0 562.172H35.6647L35.6647 527.291H0L0 526.23H35.6647L35.6647 491.35H0L0 490.289H35.6647V455.412H0L0 454.351H35.6647L35.6647 419.467H0L0 418.406H35.6647L35.6647 383.522H0L0 382.461H35.6647L35.6647 347.584H0L0 346.523H35.6647L35.6647 311.639H0L0 310.578H35.6647V275.697H0.000122133L0.000122133 274.636H35.6647L35.6647 239.756H0.000122133L0.000122133 238.695H35.6647L35.6647 203.815H0.000122133L0.000122133 202.754H35.6647V167.877H0.000122133L0.000122133 166.816H35.6647L35.6647 131.932H0.000122133L0.000122133 130.871H35.6647V95.9868L0.000122133 95.9868L0.000122133 94.9258L35.6647 94.9258L35.6647 60.049L0.000122133 60.049L0.000122133 58.988L35.6647 58.988L35.6647 24.1039L0.000122133 24.1039L0.000122133 23.043L35.6647 23.043ZM36.7257 24.1039L36.7257 58.988L70.6979 58.988L70.6979 24.104L36.7257 24.1039ZM71.7589 24.104L71.7589 58.988L105.729 58.9881L105.729 24.104L71.7589 24.104ZM106.79 24.104L106.79 58.9881L140.762 58.9881V24.104L106.79 24.104ZM141.823 24.104V58.9881L175.796 58.9881V24.104L141.823 24.104ZM176.857 24.104V58.9881L210.829 58.9881V24.104L176.857 24.104ZM211.89 24.104V58.9881L245.86 58.9881V24.104L211.89 24.104ZM246.921 24.104V58.9881L280.893 58.9881V24.104L246.921 24.104ZM281.954 24.104V58.9881L315.926 58.9881V24.104L281.954 24.104ZM316.987 24.104V58.9881L350.958 58.9881V24.104L316.987 24.104ZM352.019 24.104V58.9881L385.991 58.9881V24.104L352.019 24.104ZM387.052 24.104V58.9881L421.024 58.9881V24.104L387.052 24.104ZM422.085 24.104V58.9881L456.057 58.9881V24.104L422.085 24.104ZM457.118 24.104V58.9881L491.089 58.9881V24.104L457.118 24.104ZM492.15 24.104V58.9881L526.122 58.9881V24.104L492.15 24.104ZM527.183 24.104V58.9881L561.155 58.9881V24.104L527.183 24.104ZM562.216 24.104V58.9881L596.188 58.9881V24.104L562.216 24.104ZM597.249 24.104V58.9881L631.219 58.9881V24.104L597.249 24.104ZM632.28 24.104V58.9881L666.253 58.9881V24.104L632.28 24.104ZM667.314 24.104V58.9881L701.286 58.9881V24.104L667.314 24.104ZM702.347 24.104V58.9881L736.319 58.9881V24.104L702.347 24.104ZM737.38 24.104V58.9881L771.35 58.9881V24.104L737.38 24.104ZM772.411 24.104V58.9881L806.383 58.9881V24.104L772.411 24.104ZM807.444 24.104V58.9881L841.417 58.9881V24.1041L807.444 24.104ZM842.478 24.1041V58.9881L876.448 58.9882V24.1041L842.478 24.1041ZM877.509 24.1041V58.9882L911.481 58.9882V24.1041L877.509 24.1041ZM912.542 24.1041V58.9882L946.514 58.9882V24.1041L912.542 24.1041ZM947.575 24.1041V58.9882L981.548 58.9882V24.1041L947.575 24.1041ZM981.548 60.0491L947.575 60.0491V94.9259L981.548 94.9259V60.0491ZM981.548 95.9869H947.575V130.871L981.548 130.871V95.9869ZM981.548 131.932L947.575 131.932V166.817L981.548 166.817V131.932ZM981.548 167.878L947.575 167.878V202.754L981.548 202.754V167.878ZM981.548 203.815L947.575 203.815V238.695L981.548 238.695V203.815ZM981.548 239.756L947.575 239.756V274.637H981.548V239.756ZM981.548 275.698H947.575V310.578H981.548V275.698ZM981.548 311.639H947.575V346.523H981.548V311.639ZM981.548 347.584H947.575V382.461H981.548V347.584ZM981.548 383.522H947.575V418.406H981.548V383.522ZM981.548 419.467H947.575V454.352H981.548V419.467ZM981.548 455.413H947.575L947.575 490.289H981.548L981.548 455.413ZM981.548 491.35H947.575V526.23H981.548V491.35ZM981.548 527.291H947.575V562.172H981.548V527.291ZM981.548 563.233H947.575V598.113H981.548V563.233ZM981.548 599.174H947.575V634.063H981.548V599.174ZM981.548 635.123H947.575V670H981.548V635.123ZM981.548 671.061H947.575V705.941H981.548V671.061ZM981.548 707.002H947.575V741.887H981.548V707.002ZM981.548 742.948H947.575L947.575 777.824H981.547L981.548 742.948ZM981.547 778.885H947.575V813.77H981.547V778.885ZM981.547 814.831H947.575V849.707H981.547V814.831ZM981.547 850.768H947.575V885.652H981.547V850.768ZM981.547 886.713H947.575V921.598H981.547V886.713ZM981.547 922.659H947.575V957.535H981.547V922.659ZM981.547 958.596H947.575V993.48H981.547V958.596ZM981.547 994.541H947.575V1029.43H981.547V994.541ZM981.547 1030.49H947.575V1065.36H981.547V1030.49ZM981.547 1066.42H947.575V1101.3H981.547V1066.42ZM981.547 1102.37H947.575V1137.25H981.547V1102.37ZM981.547 1138.31H947.575V1173.19H981.547V1138.31ZM981.547 1174.25H947.575V1209.14H981.547V1174.25ZM981.547 1210.2H947.575V1245.07H981.547V1210.2ZM981.547 1246.13H947.575V1281.02H981.547V1246.13ZM981.547 1282.08H947.575V1316.96H981.547V1282.08ZM981.547 1318.02H947.575V1352.9H981.547V1318.02ZM981.547 1353.96H947.575V1388.84H981.547V1353.96ZM981.547 1389.9H947.575L947.575 1424.78H981.547L981.547 1389.9ZM981.547 1425.84H947.575V1460.73H981.547V1425.84ZM981.547 1461.79H947.575V1496.67H981.547V1461.79ZM946.514 1496.67V1461.79L912.542 1461.79V1496.67L946.514 1496.67ZM911.481 1496.67V1461.79H877.509V1496.67H911.481ZM876.448 1496.67V1461.79H842.478V1496.67H876.448ZM841.417 1496.67V1461.79H807.444V1496.67H841.417ZM806.383 1496.67V1461.79L772.411 1461.79V1496.67H806.383ZM771.35 1496.67V1461.79H737.38V1496.67H771.35ZM736.319 1496.67V1461.79H702.347V1496.67H736.319ZM701.286 1496.67V1461.79H667.314V1496.67H701.286ZM666.253 1496.67V1461.79H632.28V1496.67H666.253ZM631.219 1496.67V1461.79H597.249V1496.67H631.219ZM596.188 1496.67V1461.79H562.216V1496.67H596.188ZM561.155 1496.67V1461.79H527.183V1496.67H561.155ZM526.122 1496.67V1461.79H492.149V1496.67L526.122 1496.67ZM491.089 1496.67V1461.79H457.118V1496.67H491.089ZM456.057 1496.67V1461.79H422.085V1496.67H456.057ZM421.024 1496.67V1461.79H387.052V1496.67H421.024ZM385.991 1496.67V1461.79H352.019V1496.67H385.991ZM350.958 1496.67V1461.79H316.987V1496.67H350.958ZM315.926 1496.67V1461.79H281.954V1496.67H315.926ZM280.893 1496.67V1461.79L246.921 1461.79V1496.67H280.893ZM245.86 1496.67V1461.79H211.89V1496.67H245.86ZM210.829 1496.67V1461.79H176.857V1496.67H210.829ZM175.796 1496.67V1461.79H141.823V1496.67H175.796ZM140.762 1496.67V1461.79H106.79V1496.67H140.762ZM105.729 1496.67V1461.79H71.7589V1496.67H105.729ZM70.6979 1496.67V1461.79H36.7257L36.7256 1496.67H70.6979ZM36.7257 1460.73H70.6979L70.6979 1425.84H36.7257V1460.73ZM36.7257 1424.78H70.6979V1389.9H36.7257L36.7257 1424.78ZM36.7257 1388.84H70.6979V1353.96H36.7257L36.7257 1388.84ZM36.7257 1352.9H70.6979L70.6979 1318.02H36.7257V1352.9ZM36.7257 1316.96H70.6979V1282.08H36.7257L36.7257 1316.96ZM36.7257 1281.02H70.6979V1246.13H36.7257L36.7257 1281.02ZM36.7257 1245.07H70.6979L70.6979 1210.2H36.7257L36.7257 1245.07ZM36.7257 1209.14H70.6979V1174.25H36.7257L36.7257 1209.14ZM36.7257 1173.19H70.6979V1138.31H36.7257V1173.19ZM36.7257 1137.25H70.6979L70.6979 1102.37H36.7257L36.7257 1137.25ZM36.7257 1101.3H70.6979V1066.42H36.7257L36.7257 1101.3ZM36.7257 1065.36H70.6979L70.6979 1030.49H36.7257L36.7257 1065.36ZM36.7257 1029.43H70.6979V994.541H36.7257L36.7257 1029.43ZM36.7257 993.48H70.6979L70.6979 958.596H36.7257V993.48ZM36.7257 957.535H70.6979V922.659H36.7257L36.7257 957.535ZM36.7257 921.598H70.6979V886.713H36.7257L36.7257 921.598ZM36.7257 885.652H70.6979L70.6979 850.768H36.7257L36.7257 885.652ZM36.7257 849.707H70.6979V814.83H36.7257L36.7257 849.707ZM36.7257 813.769H70.6979V778.885H36.7257L36.7257 813.769ZM36.7257 777.824H70.6979L70.6979 742.948H36.7257L36.7257 777.824ZM36.7257 741.887H70.6979V707.002H36.7257L36.7257 741.887ZM36.7257 705.941H70.6979V671.061H36.7257L36.7257 705.941ZM36.7257 670H70.6979L70.6979 635.123H36.7257L36.7257 670ZM36.7257 634.062H70.6979V599.174H36.7257L36.7257 634.062ZM36.7257 598.113H70.6979V563.233H36.7257L36.7257 598.113ZM36.7257 562.172H70.6979V527.291H36.7257L36.7257 562.172ZM36.7257 526.23H70.6979L70.6979 491.35H36.7257L36.7257 526.23ZM36.7257 490.289H70.6979L70.6979 455.412H36.7257V490.289ZM36.7257 454.351H70.6979V419.467H36.7257L36.7257 454.351ZM36.7257 418.406H70.6979L70.6979 383.522H36.7257L36.7257 418.406ZM36.7257 382.461H70.6979V347.584H36.7257L36.7257 382.461ZM36.7257 346.523H70.6979V311.639H36.7257L36.7257 346.523ZM36.7257 310.578H70.6979L70.6979 275.697H36.7257V310.578ZM36.7257 274.636H70.6979V239.756L36.7257 239.756L36.7257 274.636ZM36.7257 238.695L70.6979 238.695V203.815L36.7257 203.815L36.7257 238.695ZM36.7257 202.754L70.6979 202.754L70.6979 167.877L36.7257 167.877V202.754ZM36.7257 166.816L70.6979 166.816V131.932L36.7257 131.932L36.7257 166.816ZM36.7257 130.871L70.6979 130.871V95.9868L36.7257 95.9868V130.871ZM36.7257 94.9258L70.6979 94.9258V60.049L36.7257 60.049L36.7257 94.9258ZM71.7589 60.049V94.9258L105.729 94.9258L105.729 60.049L71.7589 60.049ZM106.79 60.049V94.9258H140.762V60.049L106.79 60.049ZM141.823 60.049V94.9258L175.796 94.9258V60.049L141.823 60.049ZM176.857 60.049V94.9258L210.829 94.9258V60.049L176.857 60.049ZM211.89 60.049V94.9258H245.86V60.049L211.89 60.049ZM246.921 60.049V94.9258L280.893 94.9258V60.049L246.921 60.049ZM281.954 60.049V94.9258L315.926 94.9258V60.0491L281.954 60.049ZM316.987 60.0491V94.9258H350.958V60.0491L316.987 60.0491ZM352.019 60.0491V94.9258L385.991 94.9258V60.0491L352.019 60.0491ZM387.052 60.0491V94.9258L421.024 94.9258V60.0491L387.052 60.0491ZM422.085 60.0491V94.9258L456.057 94.9258V60.0491L422.085 60.0491ZM457.118 60.0491V94.9258L491.089 94.9258V60.0491L457.118 60.0491ZM492.15 60.0491V94.9258L526.122 94.9258V60.0491L492.15 60.0491ZM527.183 60.0491V94.9258L561.155 94.9259V60.0491L527.183 60.0491ZM562.216 60.0491V94.9259H596.188V60.0491L562.216 60.0491ZM597.249 60.0491V94.9259L631.219 94.9259V60.0491L597.249 60.0491ZM632.28 60.0491V94.9259L666.253 94.9259V60.0491L632.28 60.0491ZM667.314 60.0491V94.9259H701.286V60.0491L667.314 60.0491ZM702.347 60.0491V94.9259L736.319 94.9259V60.0491L702.347 60.0491ZM737.38 60.0491V94.9259L771.35 94.9259V60.0491L737.38 60.0491ZM772.411 60.0491V94.9259L806.383 94.9259V60.0491L772.411 60.0491ZM807.444 60.0491V94.9259L841.417 94.9259V60.0491L807.444 60.0491ZM842.478 60.0491V94.9259L876.448 94.9259V60.0491L842.478 60.0491ZM877.509 60.0491V94.9259L911.481 94.9259V60.0491L877.509 60.0491ZM912.542 60.0491V94.9259H946.514V60.0491L912.542 60.0491ZM946.514 95.9869L912.542 95.9869V130.871H946.514V95.9869ZM946.514 131.932H912.542V166.817H946.514V131.932ZM946.514 167.878H912.542V202.754H946.514V167.878ZM946.514 203.815H912.542V238.695H946.514V203.815ZM946.514 239.756H912.542V274.637H946.514V239.756ZM946.514 275.698H912.542V310.578H946.514V275.698ZM946.514 311.639H912.542V346.523H946.514V311.639ZM946.514 347.584H912.542V382.461H946.514V347.584ZM946.514 383.522H912.542V418.406H946.514V383.522ZM946.514 419.467H912.542V454.352H946.514V419.467ZM946.514 455.413H912.542L912.542 490.289H946.514L946.514 455.413ZM946.514 491.35H912.542V526.23H946.514V491.35ZM946.514 527.291H912.542V562.172H946.514V527.291ZM946.514 563.233H912.542V598.113H946.514V563.233ZM946.514 599.174H912.542V634.063H946.514V599.174ZM946.514 635.123H912.542V670H946.514V635.123ZM946.514 671.061H912.542V705.941H946.514V671.061ZM946.514 707.002H912.542V741.887H946.514V707.002ZM946.514 742.948H912.542L912.542 777.824H946.514L946.514 742.948ZM946.514 778.885H912.542V813.77H946.514V778.885ZM946.514 814.831H912.542V849.707H946.514V814.831ZM946.514 850.768H912.542V885.652H946.514V850.768ZM946.514 886.713H912.542V921.598H946.514V886.713ZM946.514 922.659H912.542V957.535H946.514V922.659ZM946.514 958.596H912.542V993.48H946.514V958.596ZM946.514 994.541H912.542V1029.43L946.514 1029.43V994.541ZM946.514 1030.49L912.542 1030.49V1065.36L946.514 1065.36V1030.49ZM946.514 1066.42L912.542 1066.42V1101.3L946.514 1101.3V1066.42ZM946.514 1102.37L912.542 1102.37V1137.25L946.514 1137.25V1102.37ZM946.514 1138.31L912.542 1138.31V1173.19L946.514 1173.19V1138.31ZM946.514 1174.25L912.542 1174.25V1209.14L946.514 1209.14V1174.25ZM946.514 1210.2L912.542 1210.2V1245.07L946.514 1245.07V1210.2ZM946.514 1246.13L912.542 1246.13V1281.02L946.514 1281.02V1246.13ZM946.514 1282.08L912.542 1282.08V1316.96L946.514 1316.96V1282.08ZM946.514 1318.02L912.542 1318.02V1352.9L946.514 1352.9V1318.02ZM946.514 1353.96L912.542 1353.96V1388.84L946.514 1388.84V1353.96ZM946.514 1389.9L912.542 1389.9L912.542 1424.78L946.514 1424.78L946.514 1389.9ZM946.514 1425.84L912.542 1425.84V1460.73L946.514 1460.73V1425.84ZM911.481 1460.73V1425.84H877.509V1460.73H911.481ZM876.448 1460.73V1425.84H842.478V1460.73H876.448ZM841.417 1460.73V1425.84H807.444V1460.73H841.417ZM806.383 1460.73V1425.84L772.411 1425.84V1460.73H806.383ZM771.35 1460.73V1425.84H737.38V1460.73H771.35ZM736.319 1460.73V1425.84H702.347V1460.73H736.319ZM701.286 1460.73V1425.84H667.314V1460.73H701.286ZM666.253 1460.73V1425.84H632.28V1460.73H666.253ZM631.219 1460.73V1425.84H597.249V1460.73H631.219ZM596.188 1460.73V1425.84H562.216V1460.73H596.188ZM561.155 1460.73V1425.84H527.183V1460.73H561.155ZM526.122 1460.73V1425.84H492.149V1460.73L526.122 1460.73ZM491.089 1460.73V1425.84H457.118V1460.73H491.089ZM456.057 1460.73V1425.84H422.085V1460.73H456.057ZM421.024 1460.73V1425.84H387.052V1460.73H421.024ZM385.991 1460.73V1425.84H352.019V1460.73H385.991ZM350.958 1460.73V1425.84H316.987V1460.73H350.958ZM315.926 1460.73V1425.84H281.954V1460.73H315.926ZM280.893 1460.73V1425.84L246.921 1425.84V1460.73H280.893ZM245.86 1460.73V1425.84H211.89V1460.73H245.86ZM210.829 1460.73V1425.84H176.857V1460.73H210.829ZM175.796 1460.73V1425.84H141.823V1460.73H175.796ZM140.762 1460.73V1425.84H106.79L106.79 1460.73H140.762ZM105.729 1460.73L105.729 1425.84H71.7589L71.7589 1460.73H105.729ZM71.7589 1424.78H105.729V1389.9H71.7589V1424.78ZM71.7589 1388.84H105.729V1353.96H71.7589V1388.84ZM71.7589 1352.9H105.729L105.729 1318.02H71.7589L71.7589 1352.9ZM71.7589 1316.96H105.729V1282.08H71.7589V1316.96ZM71.7589 1281.02H105.729L105.729 1246.13H71.7589V1281.02ZM71.7589 1245.07H105.729L105.729 1210.2H71.7589L71.7589 1245.07ZM71.7589 1209.14H105.729V1174.25H71.7589V1209.14ZM71.7589 1173.19H105.729V1138.31H71.7589V1173.19ZM71.7589 1137.25H105.729L105.729 1102.37H71.7589L71.7589 1137.25ZM71.7589 1101.3H105.729V1066.42H71.7589V1101.3ZM71.7589 1065.36H105.729V1030.49H71.7589L71.7589 1065.36ZM71.7589 1029.43H105.729V994.541H71.7589V1029.43ZM71.7589 993.48H105.729L105.729 958.596H71.7589L71.7589 993.48ZM71.7589 957.535H105.729L105.729 922.659H71.7589V957.535ZM71.7589 921.598H105.729V886.713H71.7589V921.598ZM71.7589 885.652H105.729L105.729 850.768H71.7589L71.7589 885.652ZM71.7589 849.707H105.729V814.83H71.7589V849.707ZM71.7589 813.769H105.729V778.885H71.7589V813.769ZM71.7589 777.824H105.729L105.729 742.948H71.7589L71.7589 777.824ZM71.7589 741.887H105.729V707.002H71.7589V741.887ZM71.7589 705.941H105.729V671.061H71.7589V705.941ZM71.7589 670H105.729L105.729 635.123H71.7589L71.7589 670ZM71.7589 634.062H105.729V599.174H71.7589V634.062ZM71.7589 598.113H105.729L105.729 563.233H71.7589V598.113ZM71.7589 562.172H105.729V527.291H71.7589V562.172ZM71.7589 526.23H105.729L105.729 491.35H71.7589L71.7589 526.23ZM71.7589 490.289H105.729V455.412H71.7589L71.7589 490.289ZM71.7589 454.351H105.729L105.729 419.467H71.7589V454.351ZM71.7589 418.406H105.729L105.729 383.522H71.7589L71.7589 418.406ZM71.7589 382.461H105.729V347.584H71.7589V382.461ZM71.7589 346.523H105.729V311.639H71.7589V346.523ZM71.7589 310.578H105.729L105.729 275.697H71.7589L71.7589 310.578ZM71.7589 274.636H105.729L105.729 239.756H71.7589V274.636ZM71.7589 238.695H105.729V203.815H71.7589V238.695ZM71.7589 202.754H105.729L105.729 167.877H71.7589L71.7589 202.754ZM71.7589 166.816H105.729V131.932H71.7589V166.816ZM71.7589 130.871H105.729V95.9868L71.7589 95.9868V130.871ZM106.79 95.9868V130.871L140.762 130.871L140.762 95.9868H106.79ZM141.823 95.9868L141.823 130.871L175.796 130.871L175.796 95.9868L141.823 95.9868ZM176.857 95.9868L176.857 130.871H210.829L210.829 95.9868H176.857ZM211.89 95.9868L211.89 130.871H245.86L245.86 95.9868L211.89 95.9868ZM246.921 95.9868L246.921 130.871H280.893V95.9868L246.921 95.9868ZM281.954 95.9868V130.871L315.926 130.871V95.9868L281.954 95.9868ZM316.987 95.9868V130.871L350.958 130.871V95.9868L316.987 95.9868ZM352.019 95.9868V130.871H385.991V95.9868H352.019ZM387.052 95.9868V130.871L421.024 130.871V95.9868L387.052 95.9868ZM422.085 95.9868V130.871H456.057V95.9868H422.085ZM457.118 95.9868V130.871H491.089V95.9868H457.118ZM492.15 95.9868V130.871L526.122 130.871V95.9868L492.15 95.9868ZM527.183 95.9868V130.871H561.155V95.9868H527.183ZM562.216 95.9868V130.871L596.188 130.871V95.9868L562.216 95.9868ZM597.249 95.9868V130.871H631.219V95.9868H597.249ZM632.28 95.9868V130.871H666.253V95.9868L632.28 95.9868ZM667.314 95.9868V130.871H701.286V95.9869L667.314 95.9868ZM702.347 95.9869V130.871H736.319V95.9869H702.347ZM737.38 95.9869V130.871L771.35 130.871V95.9869L737.38 95.9869ZM772.411 95.9869V130.871H806.383V95.9869H772.411ZM807.444 95.9869V130.871L841.417 130.871V95.9869L807.444 95.9869ZM842.478 95.9869V130.871L876.448 130.871V95.9869L842.478 95.9869ZM877.509 95.9869V130.871H911.481V95.9869L877.509 95.9869ZM911.481 131.932H877.509V166.817H911.481V131.932ZM911.481 167.878H877.509V202.754H911.481V167.878ZM911.481 203.815H877.509V238.695H911.481V203.815ZM911.481 239.756H877.509V274.637L911.481 274.637V239.756ZM911.481 275.698L877.509 275.698V310.578L911.481 310.578V275.698ZM911.481 311.639L877.509 311.639V346.523L911.481 346.523V311.639ZM911.481 347.584L877.509 347.584V382.461L911.481 382.461V347.584ZM911.481 383.522L877.509 383.522V418.406L911.481 418.406V383.522ZM911.481 419.467L877.509 419.467V454.352L911.481 454.352V419.467ZM911.481 455.413L877.509 455.413L877.509 490.289L911.481 490.289L911.481 455.413ZM911.481 491.35L877.509 491.35V526.23H911.481V491.35ZM911.481 527.291H877.509V562.172H911.481V527.291ZM911.481 563.233H877.509V598.113H911.481V563.233ZM911.481 599.174H877.509V634.063H911.481V599.174ZM911.481 635.123H877.509V670H911.481V635.123ZM911.481 671.061H877.509V705.941H911.481V671.061ZM911.481 707.002H877.509V741.887H911.481V707.002ZM911.481 742.948H877.509L877.509 777.824H911.481L911.481 742.948ZM911.481 778.885H877.509V813.77H911.481V778.885ZM911.481 814.831H877.509V849.707H911.481V814.831ZM911.481 850.768H877.509V885.652H911.481V850.768ZM911.481 886.713H877.509V921.598H911.481V886.713ZM911.481 922.659H877.509V957.535H911.481V922.659ZM911.481 958.596H877.509V993.48H911.481V958.596ZM911.481 994.541H877.509V1029.43H911.481V994.541ZM911.481 1030.49H877.509V1065.36H911.481V1030.49ZM911.481 1066.42H877.509V1101.3H911.481V1066.42ZM911.481 1102.37H877.509V1137.25H911.481V1102.37ZM911.481 1138.31H877.509V1173.19H911.481V1138.31ZM911.481 1174.25H877.509V1209.14H911.481V1174.25ZM911.481 1210.2H877.509V1245.07H911.481V1210.2ZM911.481 1246.13H877.509V1281.02H911.481V1246.13ZM911.481 1282.08H877.509V1316.96H911.481V1282.08ZM911.481 1318.02H877.509V1352.9H911.481V1318.02ZM911.481 1353.96H877.509V1388.84H911.481V1353.96ZM911.481 1389.9H877.509L877.509 1424.78H911.481L911.481 1389.9ZM876.448 1424.78L876.448 1389.9H842.478L842.478 1424.78H876.448ZM841.417 1424.78L841.417 1389.9H807.444L807.444 1424.78H841.417ZM806.383 1424.78L806.383 1389.9L772.411 1389.9L772.411 1424.78H806.383ZM771.35 1424.78L771.35 1389.9H737.38L737.38 1424.78H771.35ZM736.319 1424.78L736.319 1389.9H702.347L702.347 1424.78H736.319ZM701.286 1424.78L701.286 1389.9H667.314L667.314 1424.78H701.286ZM666.253 1424.78L666.253 1389.9H632.28L632.28 1424.78H666.253ZM631.219 1424.78L631.219 1389.9H597.249L597.249 1424.78H631.219ZM596.188 1424.78L596.188 1389.9H562.216L562.216 1424.78H596.188ZM561.155 1424.78L561.155 1389.9H527.183L527.183 1424.78H561.155ZM526.122 1424.78L526.122 1389.9H492.149V1424.78L526.122 1424.78ZM491.089 1424.78V1389.9H457.118V1424.78H491.089ZM456.057 1424.78V1389.9H422.085V1424.78H456.057ZM421.024 1424.78V1389.9H387.052V1424.78H421.024ZM385.991 1424.78V1389.9H352.019V1424.78H385.991ZM350.958 1424.78V1389.9H316.987V1424.78H350.958ZM315.926 1424.78V1389.9H281.954V1424.78H315.926ZM280.893 1424.78V1389.9L246.921 1389.9V1424.78H280.893ZM245.86 1424.78V1389.9H211.89V1424.78H245.86ZM210.829 1424.78V1389.9H176.857V1424.78H210.829ZM175.796 1424.78V1389.9H141.823V1424.78H175.796ZM140.762 1424.78V1389.9H106.79V1424.78H140.762ZM106.79 1388.84H140.762V1353.96H106.79V1388.84ZM106.79 1352.9H140.762L140.762 1318.02H106.79L106.79 1352.9ZM106.79 1316.96H140.762V1282.08H106.79V1316.96ZM106.79 1281.02H140.762L140.762 1246.13H106.79V1281.02ZM106.79 1245.07H140.762V1210.2H106.79L106.79 1245.07ZM106.79 1209.14H140.762V1174.25H106.79V1209.14ZM106.79 1173.19H140.762V1138.31H106.79V1173.19ZM106.79 1137.25H140.762V1102.37H106.79L106.79 1137.25ZM106.79 1101.3H140.762V1066.42H106.79V1101.3ZM106.79 1065.36H140.762L140.762 1030.49H106.79L106.79 1065.36ZM106.79 1029.43H140.762V994.541H106.79V1029.43ZM106.79 993.48H140.762V958.596H106.79L106.79 993.48ZM106.79 957.535H140.762L140.762 922.659H106.79V957.535ZM106.79 921.598H140.762V886.713H106.79V921.598ZM106.79 885.652H140.762V850.768H106.79L106.79 885.652ZM106.79 849.707H140.762V814.83H106.79V849.707ZM106.79 813.769H140.762L140.762 778.885H106.79V813.769ZM106.79 777.824H140.762V742.948H106.79L106.79 777.824ZM106.79 741.887H140.762V707.002H106.79V741.887ZM106.79 705.941H140.762V671.061H106.79V705.941ZM106.79 670H140.762V635.123H106.79L106.79 670ZM106.79 634.062H140.762V599.174H106.79V634.062ZM106.79 598.113H140.762L140.762 563.233H106.79V598.113ZM106.79 562.172H140.762V527.291H106.79V562.172ZM106.79 526.23H140.762V491.35L106.79 491.35L106.79 526.23ZM106.79 490.289L140.762 490.289V455.412L106.79 455.412L106.79 490.289ZM106.79 454.351L140.762 454.351V419.467L106.79 419.467V454.351ZM106.79 418.406L140.762 418.406V383.522L106.79 383.522L106.79 418.406ZM106.79 382.461L140.762 382.461L140.762 347.584L106.79 347.584V382.461ZM106.79 346.523L140.762 346.523V311.639L106.79 311.639V346.523ZM106.79 310.578L140.762 310.578V275.697L106.79 275.697L106.79 310.578ZM106.79 274.636L140.762 274.637V239.756L106.79 239.756V274.636ZM106.79 238.695L140.762 238.695V203.815L106.79 203.815V238.695ZM106.79 202.754L140.762 202.754L140.762 167.877L106.79 167.877L106.79 202.754ZM106.79 166.816L140.762 166.816V131.932L106.79 131.932V166.816ZM141.823 131.932V166.816L175.796 166.816V131.932L141.823 131.932ZM176.857 131.932V166.816H210.829V131.932H176.857ZM211.89 131.932V166.816H245.86V131.932H211.89ZM246.921 131.932V166.816H280.893V131.932H246.921ZM281.954 131.932V166.816L315.926 166.816V131.932L281.954 131.932ZM316.987 131.932V166.816L350.958 166.816V131.932L316.987 131.932ZM352.019 131.932V166.816H385.991V131.932H352.019ZM387.052 131.932V166.816L421.024 166.816V131.932L387.052 131.932ZM422.085 131.932V166.816H456.057V131.932H422.085ZM457.118 131.932V166.816H491.089V131.932H457.118ZM492.15 131.932V166.816L526.122 166.816V131.932L492.15 131.932ZM527.183 131.932V166.816H561.155V131.932H527.183ZM562.216 131.932V166.816L596.188 166.816V131.932L562.216 131.932ZM597.249 131.932V166.816H631.219V131.932H597.249ZM632.28 131.932V166.816H666.253V131.932H632.28ZM667.314 131.932V166.816H701.286V131.932H667.314ZM702.347 131.932V166.816H736.319V131.932H702.347ZM737.38 131.932V166.816L771.35 166.817V131.932L737.38 131.932ZM772.411 131.932V166.817H806.383V131.932H772.411ZM807.444 131.932V166.817L841.417 166.817V131.932L807.444 131.932ZM842.478 131.932V166.817L876.448 166.817V131.932L842.478 131.932ZM876.448 167.878L842.478 167.877V202.754L876.448 202.754V167.878ZM876.448 203.815L842.478 203.815V238.695L876.448 238.695V203.815ZM876.448 239.756L842.478 239.756V274.637H876.448V239.756ZM876.448 275.698H842.478V310.578H876.448V275.698ZM876.448 311.639H842.478V346.523H876.448V311.639ZM876.448 347.584H842.478V382.461H876.448V347.584ZM876.448 383.522H842.478V418.406H876.448V383.522ZM876.448 419.467H842.478V454.352H876.448V419.467ZM876.448 455.413H842.478L842.478 490.289H876.448L876.448 455.413ZM876.448 491.35H842.478V526.23H876.448V491.35ZM876.448 527.291H842.478V562.172H876.448V527.291ZM876.448 563.233H842.478V598.113H876.448V563.233ZM876.448 599.174H842.478V634.063H876.448V599.174ZM876.448 635.123H842.478V670H876.448V635.123ZM876.448 671.061H842.478V705.941H876.448V671.061ZM876.448 707.002H842.478V741.887H876.448V707.002ZM876.448 742.948H842.478L842.478 777.824H876.448L876.448 742.948ZM876.448 778.885H842.478V813.77H876.448V778.885ZM876.448 814.831H842.478V849.707H876.448V814.831ZM876.448 850.768H842.478V885.652H876.448V850.768ZM876.448 886.713H842.478V921.598H876.448V886.713ZM876.448 922.659H842.478V957.535H876.448V922.659ZM876.448 958.596H842.478V993.48H876.448V958.596ZM876.448 994.541H842.478V1029.43H876.448V994.541ZM876.448 1030.49H842.478V1065.36H876.448V1030.49ZM876.448 1066.42H842.478V1101.3H876.448V1066.42ZM876.448 1102.37H842.478V1137.25H876.448V1102.37ZM876.448 1138.31H842.478V1173.19H876.448V1138.31ZM876.448 1174.25H842.478V1209.14H876.448V1174.25ZM876.448 1210.2H842.478V1245.07H876.448V1210.2ZM876.448 1246.13H842.478V1281.02H876.448V1246.13ZM876.448 1282.08H842.478V1316.96H876.448V1282.08ZM876.448 1318.02H842.478V1352.9H876.448V1318.02ZM876.448 1353.96H842.478V1388.84H876.448V1353.96ZM841.417 1388.84V1353.96H807.444V1388.84H841.417ZM806.383 1388.84V1353.96L772.411 1353.96V1388.84H806.383ZM771.35 1388.84V1353.96H737.38V1388.84H771.35ZM736.319 1388.84V1353.96H702.347V1388.84H736.319ZM701.286 1388.84V1353.96H667.314V1388.84H701.286ZM666.253 1388.84V1353.96H632.28V1388.84H666.253ZM631.219 1388.84V1353.96H597.249V1388.84H631.219ZM596.188 1388.84V1353.96H562.216V1388.84H596.188ZM561.155 1388.84V1353.96H527.183V1388.84H561.155ZM526.122 1388.84V1353.96H492.149V1388.84L526.122 1388.84ZM491.089 1388.84V1353.96H457.118V1388.84H491.089ZM456.057 1388.84V1353.96H422.085V1388.84H456.057ZM421.024 1388.84V1353.96H387.052V1388.84H421.024ZM385.991 1388.84V1353.96H352.019V1388.84H385.991ZM350.958 1388.84V1353.96H316.987V1388.84H350.958ZM315.926 1388.84V1353.96H281.954V1388.84H315.926ZM280.893 1388.84V1353.96L246.921 1353.96V1388.84H280.893ZM245.86 1388.84V1353.96H211.89V1388.84H245.86ZM210.829 1388.84V1353.96H176.857V1388.84H210.829ZM175.796 1388.84V1353.96H141.823V1388.84H175.796ZM141.823 1352.9H175.796L175.796 1318.02H141.823L141.823 1352.9ZM141.823 1316.96H175.796V1282.08H141.823V1316.96ZM141.823 1281.02H175.796L175.796 1246.13H141.823L141.823 1281.02ZM141.823 1245.07H175.796V1210.2H141.823V1245.07ZM141.823 1209.14H175.796V1174.25H141.823V1209.14ZM141.823 1173.19H175.796V1138.31H141.823V1173.19ZM141.823 1137.25H175.796V1102.37H141.823V1137.25ZM141.823 1101.3H175.796V1066.42H141.823V1101.3ZM141.823 1065.36H175.796L175.796 1030.49H141.823L141.823 1065.36ZM141.823 1029.43H175.796V994.541H141.823V1029.43ZM141.823 993.48H175.796V958.596H141.823V993.48ZM141.823 957.535H175.796L175.796 922.659H141.823L141.823 957.535ZM141.823 921.598H175.796V886.713H141.823V921.598ZM141.823 885.652H175.796V850.768H141.823V885.652ZM141.823 849.707H175.796V814.83H141.823V849.707ZM141.823 813.769H175.796L175.796 778.885H141.823L141.823 813.769ZM141.823 777.824H175.796V742.948H141.823V777.824ZM141.823 741.887H175.796V707.002H141.823V741.887ZM141.823 705.941H175.796V671.061H141.823V705.941ZM141.823 670H175.796V635.123H141.823V670ZM141.823 634.062H175.796V599.174H141.823V634.062ZM141.823 598.113H175.796L175.796 563.233H141.823L141.823 598.113ZM141.823 562.172H175.796V527.291H141.823V562.172ZM141.823 526.23H175.796V491.35H141.823V526.23ZM141.823 490.289H175.796V455.412H141.823V490.289ZM141.823 454.351H175.796V419.467H141.823V454.351ZM141.823 418.406H175.796V383.522H141.823V418.406ZM141.823 382.461H175.796L175.796 347.584H141.823L141.823 382.461ZM141.823 346.523H175.796V311.639H141.823V346.523ZM141.823 310.578H175.796V275.697H141.823V310.578ZM141.823 274.637H175.796V239.756L141.823 239.756V274.637ZM141.823 238.695L175.796 238.695V203.815L141.823 203.815V238.695ZM141.823 202.754L175.796 202.754L175.796 167.877L141.823 167.877L141.823 202.754ZM176.857 167.877L176.857 202.754H210.829L210.829 167.877H176.857ZM211.89 167.877L211.89 202.754H245.86L245.86 167.877H211.89ZM246.921 167.877L246.921 202.754H280.893V167.877H246.921ZM281.954 167.877V202.754L315.926 202.754V167.877L281.954 167.877ZM316.987 167.877V202.754L350.958 202.754V167.877L316.987 167.877ZM352.019 167.877V202.754H385.991V167.877H352.019ZM387.052 167.877V202.754L421.024 202.754V167.877L387.052 167.877ZM422.085 167.877V202.754H456.057V167.877H422.085ZM457.118 167.877V202.754H491.089V167.877H457.118ZM492.15 167.877V202.754L526.122 202.754V167.877L492.15 167.877ZM527.183 167.877V202.754H561.155V167.877H527.183ZM562.216 167.877V202.754L596.188 202.754V167.877L562.216 167.877ZM597.249 167.877V202.754H631.219V167.877H597.249ZM632.28 167.877V202.754H666.253V167.877H632.28ZM667.314 167.877V202.754H701.286V167.877H667.314ZM702.347 167.877V202.754H736.319V167.877H702.347ZM737.38 167.877V202.754L771.35 202.754V167.877L737.38 167.877ZM772.411 167.877V202.754H806.383V167.877H772.411ZM807.444 167.877V202.754L841.417 202.754V167.877L807.444 167.877ZM841.417 203.815L807.444 203.815V238.695L841.417 238.695V203.815ZM841.417 239.756L807.444 239.756V274.637H841.417V239.756ZM841.417 275.698H807.444V310.578H841.417V275.698ZM841.417 311.639H807.444V346.523H841.417V311.639ZM841.417 347.584H807.444V382.461H841.417V347.584ZM841.417 383.522H807.444V418.406H841.417V383.522ZM841.417 419.467H807.444V454.352H841.417V419.467ZM841.417 455.413H807.444L807.444 490.289H841.417L841.417 455.413ZM841.417 491.35H807.444V526.23H841.417V491.35ZM841.417 527.291H807.444V562.172H841.417V527.291ZM841.417 563.233H807.444V598.113H841.417V563.233ZM841.417 599.174H807.444V634.063H841.417V599.174ZM841.417 635.123H807.444V670H841.417V635.123ZM841.417 671.061H807.444V705.941H841.417V671.061ZM841.417 707.002H807.444V741.887H841.417V707.002ZM841.417 742.948H807.444L807.444 777.824H841.417L841.417 742.948ZM841.417 778.885H807.444V813.77H841.417V778.885ZM841.417 814.831H807.444V849.707H841.417V814.831ZM841.417 850.768H807.444V885.652H841.417V850.768ZM841.417 886.713H807.444V921.598H841.417V886.713ZM841.417 922.659H807.444V957.535H841.417V922.659ZM841.417 958.596H807.444V993.48H841.417V958.596ZM841.417 994.541H807.444V1029.43H841.417V994.541ZM841.417 1030.49H807.444V1065.36H841.417V1030.49ZM841.417 1066.42H807.444V1101.3H841.417V1066.42ZM841.417 1102.37H807.444V1137.25H841.417V1102.37ZM841.417 1138.31H807.444V1173.19H841.417V1138.31ZM841.417 1174.25H807.444V1209.14H841.417V1174.25ZM841.417 1210.2H807.444V1245.07H841.417V1210.2ZM841.417 1246.13H807.444V1281.02H841.417V1246.13ZM841.417 1282.08H807.444V1316.96H841.417V1282.08ZM841.417 1318.02H807.444V1352.9H841.417V1318.02ZM806.383 1352.9V1318.02L772.411 1318.02V1352.9H806.383ZM771.35 1352.9V1318.02H737.38V1352.9H771.35ZM736.319 1352.9V1318.02H702.347V1352.9H736.319ZM701.286 1352.9V1318.02H667.314V1352.9H701.286ZM666.253 1352.9V1318.02H632.28V1352.9H666.253ZM631.219 1352.9V1318.02H597.249V1352.9H631.219ZM596.188 1352.9V1318.02H562.216V1352.9H596.188ZM561.155 1352.9V1318.02H527.183V1352.9H561.155ZM526.122 1352.9V1318.02H492.149V1352.9L526.122 1352.9ZM491.089 1352.9V1318.02H457.118V1352.9H491.089ZM456.057 1352.9V1318.02H422.085V1352.9H456.057ZM421.024 1352.9V1318.02H387.052V1352.9H421.024ZM385.991 1352.9V1318.02H352.019V1352.9H385.991ZM350.958 1352.9V1318.02H316.987V1352.9H350.958ZM315.926 1352.9V1318.02H281.954V1352.9H315.926ZM280.893 1352.9V1318.02L246.921 1318.02L246.921 1352.9H280.893ZM245.86 1352.9L245.86 1318.02H211.89L211.89 1352.9H245.86ZM210.829 1352.9L210.829 1318.02H176.857L176.857 1352.9H210.829ZM176.857 1316.96H210.829V1282.08H176.857V1316.96ZM176.857 1281.02H210.829L210.829 1246.13H176.857L176.857 1281.02ZM176.857 1245.07H210.829V1210.2H176.857V1245.07ZM176.857 1209.14H210.829V1174.25H176.857V1209.14ZM176.857 1173.19H210.829V1138.31H176.857V1173.19ZM176.857 1137.25H210.829V1102.37H176.857V1137.25ZM176.857 1101.3H210.829V1066.42H176.857V1101.3ZM176.857 1065.36H210.829L210.829 1030.49H176.857L176.857 1065.36ZM176.857 1029.43H210.829V994.541H176.857V1029.43ZM176.857 993.48H210.829V958.596H176.857V993.48ZM176.857 957.535H210.829L210.829 922.659H176.857L176.857 957.535ZM176.857 921.598H210.829V886.713H176.857V921.598ZM176.857 885.652H210.829V850.768H176.857V885.652ZM176.857 849.707H210.829V814.83H176.857V849.707ZM176.857 813.769H210.829L210.829 778.885H176.857L176.857 813.769ZM176.857 777.824H210.829V742.948H176.857V777.824ZM176.857 741.887H210.829V707.002H176.857V741.887ZM176.857 705.941H210.829V671.061H176.857V705.941ZM176.857 670H210.829V635.123H176.857V670ZM176.857 634.062H210.829V599.174H176.857V634.062ZM176.857 598.113H210.829L210.829 563.233H176.857L176.857 598.113ZM176.857 562.172H210.829V527.291H176.857V562.172ZM176.857 526.23H210.829V491.35H176.857V526.23ZM176.857 490.289H210.829V455.412H176.857V490.289ZM176.857 454.351H210.829V419.467H176.857V454.351ZM176.857 418.406H210.829V383.522H176.857V418.406ZM176.857 382.461H210.829L210.829 347.584H176.857L176.857 382.461ZM176.857 346.523H210.829V311.639H176.857V346.523ZM176.857 310.578H210.829V275.697H176.857V310.578ZM176.857 274.637H210.829V239.756H176.857V274.637ZM176.857 238.695H210.829V203.815H176.857V238.695ZM211.89 203.815V238.695H245.86V203.815H211.89ZM246.921 203.815V238.695H280.893L280.893 203.815H246.921ZM281.954 203.815L281.954 238.695L315.926 238.695L315.926 203.815L281.954 203.815ZM316.987 203.815L316.987 238.695L350.958 238.695L350.958 203.815L316.987 203.815ZM352.019 203.815L352.019 238.695H385.991L385.991 203.815H352.019ZM387.052 203.815L387.052 238.695L421.024 238.695L421.024 203.815L387.052 203.815ZM422.085 203.815L422.085 238.695H456.057L456.057 203.815H422.085ZM457.118 203.815L457.118 238.695H491.089L491.089 203.815H457.118ZM492.15 203.815L492.15 238.695L526.122 238.695V203.815L492.15 203.815ZM527.183 203.815V238.695H561.155V203.815H527.183ZM562.216 203.815V238.695L596.188 238.695V203.815L562.216 203.815ZM597.249 203.815V238.695H631.219V203.815H597.249ZM632.28 203.815V238.695H666.253V203.815H632.28ZM667.314 203.815V238.695H701.286V203.815H667.314ZM702.347 203.815V238.695H736.319V203.815H702.347ZM737.38 203.815V238.695L771.35 238.695V203.815L737.38 203.815ZM772.411 203.815V238.695H806.383V203.815H772.411ZM806.383 239.756H772.411V274.637H806.383V239.756ZM806.383 275.698H772.411V310.578H806.383V275.698ZM806.383 311.639H772.411V346.523H806.383V311.639ZM806.383 347.584H772.411V382.461H806.383V347.584ZM806.383 383.522H772.411V418.406H806.383V383.522ZM806.383 419.467H772.411V454.352H806.383V419.467ZM806.383 455.413H772.411L772.411 490.289H806.383L806.383 455.413ZM806.383 491.35H772.411V526.23L806.383 526.23V491.35ZM806.383 527.291L772.411 527.291V562.172L806.383 562.172V527.291ZM806.383 563.233L772.411 563.233V598.113L806.383 598.113V563.233ZM806.383 599.174L772.411 599.174V634.062L806.383 634.063V599.174ZM806.383 635.123L772.411 635.123V670L806.383 670V635.123ZM806.383 671.061L772.411 671.061V705.941L806.383 705.941V671.061ZM806.383 707.002L772.411 707.002V741.887L806.383 741.887V707.002ZM806.383 742.948L772.411 742.948L772.411 777.824L806.383 777.824L806.383 742.948ZM806.383 778.885L772.411 778.885V813.769L806.383 813.77V778.885ZM806.383 814.831L772.411 814.83V849.707L806.383 849.707V814.831ZM806.383 850.768L772.411 850.768V885.652L806.383 885.652V850.768ZM806.383 886.713L772.411 886.713V921.598L806.383 921.598V886.713ZM806.383 922.659L772.411 922.659V957.535L806.383 957.535V922.659ZM806.383 958.596L772.411 958.596V993.48L806.383 993.48V958.596ZM806.383 994.541L772.411 994.541V1029.43H806.383V994.541ZM806.383 1030.49L772.411 1030.49V1065.36H806.383V1030.49ZM806.383 1066.42L772.411 1066.42V1101.3H806.383V1066.42ZM806.383 1102.37L772.411 1102.37V1137.25H806.383V1102.37ZM806.383 1138.31L772.411 1138.31V1173.19H806.383V1138.31ZM806.383 1174.25L772.411 1174.25V1209.14H806.383V1174.25ZM806.383 1210.2L772.411 1210.2V1245.07H806.383V1210.2ZM806.383 1246.13L772.411 1246.13V1281.02H806.383V1246.13ZM806.383 1282.08L772.411 1282.08V1316.96H806.383V1282.08ZM771.35 1316.96V1282.08H737.38V1316.96H771.35ZM736.319 1316.96V1282.08H702.347V1316.96H736.319ZM701.286 1316.96V1282.08H667.314V1316.96H701.286ZM666.253 1316.96V1282.08H632.28V1316.96H666.253ZM631.219 1316.96V1282.08H597.249V1316.96H631.219ZM596.188 1316.96V1282.08H562.216V1316.96H596.188ZM561.155 1316.96V1282.08H527.183V1316.96H561.155ZM526.122 1316.96V1282.08H492.149V1316.96L526.122 1316.96ZM491.089 1316.96V1282.08H457.118V1316.96H491.089ZM456.057 1316.96V1282.08H422.085V1316.96H456.057ZM421.024 1316.96V1282.08H387.052V1316.96H421.024ZM385.991 1316.96V1282.08H352.019V1316.96H385.991ZM350.958 1316.96V1282.08H316.987V1316.96H350.958ZM315.926 1316.96V1282.08H281.954V1316.96H315.926ZM280.893 1316.96V1282.08L246.921 1282.08V1316.96H280.893ZM245.86 1316.96V1282.08H211.89V1316.96H245.86ZM211.89 1281.02H245.86L245.86 1246.13H211.89L211.89 1281.02ZM211.89 1245.07H245.86V1210.2H211.89V1245.07ZM211.89 1209.14H245.86V1174.25H211.89V1209.14ZM211.89 1173.19H245.86V1138.31H211.89V1173.19ZM211.89 1137.25H245.86V1102.37H211.89V1137.25ZM211.89 1101.3H245.86V1066.42H211.89V1101.3ZM211.89 1065.36H245.86L245.86 1030.49H211.89L211.89 1065.36ZM211.89 1029.43H245.86V994.541H211.89V1029.43ZM211.89 993.48H245.86V958.596H211.89V993.48ZM211.89 957.535H245.86L245.86 922.659H211.89L211.89 957.535ZM211.89 921.598H245.86V886.713H211.89V921.598ZM211.89 885.652H245.86V850.768H211.89V885.652ZM211.89 849.707H245.86V814.83H211.89V849.707ZM211.89 813.769H245.86L245.86 778.885H211.89L211.89 813.769ZM211.89 777.824H245.86V742.948H211.89V777.824ZM211.89 741.887H245.86V707.002H211.89V741.887ZM211.89 705.941H245.86V671.061H211.89V705.941ZM211.89 670H245.86V635.123H211.89V670ZM211.89 634.062H245.86V599.174H211.89V634.062ZM211.89 598.113H245.86L245.86 563.233H211.89L211.89 598.113ZM211.89 562.172H245.86V527.291H211.89V562.172ZM211.89 526.23H245.86V491.35L211.89 491.35V526.23ZM211.89 490.289L245.86 490.289V455.412L211.89 455.412V490.289ZM211.89 454.351L245.86 454.351V419.467L211.89 419.467V454.351ZM211.89 418.406L245.86 418.406V383.522L211.89 383.522V418.406ZM211.89 382.461L245.86 382.461L245.86 347.584L211.89 347.584L211.89 382.461ZM211.89 346.523L245.86 346.523V311.639L211.89 311.639V346.523ZM211.89 310.578L245.86 310.578V275.697L211.89 275.697V310.578ZM211.89 274.637L245.86 274.637V239.756H211.89V274.637ZM246.921 239.756V274.637H280.893V239.756H246.921ZM281.954 239.756V274.637H315.926V239.756L281.954 239.756ZM316.987 239.756V274.637H350.958V239.756L316.987 239.756ZM352.019 239.756V274.637H385.991V239.756H352.019ZM387.052 239.756V274.637L421.024 274.637V239.756L387.052 239.756ZM422.085 239.756V274.637H456.057V239.756H422.085ZM457.118 239.756V274.637H491.089V239.756H457.118ZM492.15 239.756V274.637H526.122V239.756L492.15 239.756ZM527.183 239.756V274.637H561.155V239.756H527.183ZM562.216 239.756V274.637H596.188V239.756L562.216 239.756ZM597.249 239.756V274.637H631.219V239.756H597.249ZM632.28 239.756V274.637L666.253 274.637V239.756H632.28ZM667.314 239.756V274.637L701.286 274.637V239.756H667.314ZM702.347 239.756V274.637H736.319V239.756H702.347ZM737.38 239.756V274.637H771.35V239.756L737.38 239.756ZM771.35 275.698H737.38V310.578H771.35V275.698ZM771.35 311.639H737.38V346.523H771.35V311.639ZM771.35 347.584H737.38V382.461H771.35V347.584ZM771.35 383.522H737.38V418.406H771.35V383.522ZM771.35 419.467H737.38V454.352H771.35V419.467ZM771.35 455.413H737.38L737.38 490.289H771.35L771.35 455.413ZM771.35 491.35H737.38V526.23H771.35V491.35ZM771.35 527.291H737.38V562.172H771.35V527.291ZM771.35 563.233H737.38V598.113H771.35V563.233ZM771.35 599.174H737.38V634.062H771.35V599.174ZM771.35 635.123H737.38V670H771.35V635.123ZM771.35 671.061H737.38V705.941H771.35V671.061ZM771.35 707.002H737.38V741.887H771.35V707.002ZM771.35 742.948H737.38L737.38 777.824H771.35L771.35 742.948ZM771.35 778.885H737.38V813.769H771.35V778.885ZM771.35 814.83H737.38V849.707H771.35V814.83ZM771.35 850.768H737.38V885.652H771.35V850.768ZM771.35 886.713H737.38V921.598H771.35V886.713ZM771.35 922.659H737.38V957.535H771.35V922.659ZM771.35 958.596H737.38V993.48H771.35V958.596ZM771.35 994.541H737.38V1029.43H771.35V994.541ZM771.35 1030.49H737.38V1065.36H771.35V1030.49ZM771.35 1066.42H737.38V1101.3H771.35V1066.42ZM771.35 1102.37H737.38V1137.25H771.35V1102.37ZM771.35 1138.31H737.38V1173.19H771.35V1138.31ZM771.35 1174.25H737.38V1209.14H771.35V1174.25ZM771.35 1210.2H737.38V1245.07H771.35V1210.2ZM771.35 1246.13H737.38V1281.02H771.35V1246.13ZM736.319 1281.02V1246.13H702.347V1281.02H736.319ZM701.286 1281.02V1246.13H667.314V1281.02H701.286ZM666.253 1281.02V1246.13H632.28V1281.02H666.253ZM631.219 1281.02V1246.13H597.249V1281.02H631.219ZM596.188 1281.02V1246.13H562.216V1281.02H596.188ZM561.155 1281.02V1246.13H527.183V1281.02H561.155ZM526.122 1281.02V1246.13H492.149V1281.02L526.122 1281.02ZM491.089 1281.02V1246.13H457.118V1281.02H491.089ZM456.057 1281.02V1246.13H422.085V1281.02H456.057ZM421.024 1281.02V1246.13H387.052V1281.02H421.024ZM385.991 1281.02V1246.13H352.019V1281.02H385.991ZM350.958 1281.02V1246.13H316.987V1281.02H350.958ZM315.926 1281.02V1246.13H281.954V1281.02H315.926ZM280.893 1281.02V1246.13L246.921 1246.13L246.921 1281.02H280.893ZM246.921 1245.07H280.893V1210.2L246.921 1210.2V1245.07ZM246.921 1209.14H280.893V1174.25L246.921 1174.25V1209.14ZM246.921 1173.19H280.893L280.893 1138.31L246.921 1138.31V1173.19ZM246.921 1137.25H280.893V1102.37L246.921 1102.37V1137.25ZM246.921 1101.3H280.893V1066.42L246.921 1066.42V1101.3ZM246.921 1065.36H280.893V1030.49L246.921 1030.49L246.921 1065.36ZM246.921 1029.43H280.893V994.541L246.921 994.541V1029.43ZM246.921 993.48L280.893 993.48V958.596L246.921 958.596V993.48ZM246.921 957.535L280.893 957.535V922.659L246.921 922.659L246.921 957.535ZM246.921 921.598L280.893 921.598V886.713L246.921 886.713V921.598ZM246.921 885.652L280.893 885.652V850.768L246.921 850.768V885.652ZM246.921 849.707L280.893 849.707V814.83L246.921 814.83V849.707ZM246.921 813.769L280.893 813.769V778.885L246.921 778.885L246.921 813.769ZM246.921 777.824L280.893 777.824V742.948L246.921 742.948V777.824ZM246.921 741.887L280.893 741.887V707.002L246.921 707.002V741.887ZM246.921 705.941L280.893 705.941L280.893 671.061L246.921 671.061V705.941ZM246.921 670L280.893 670V635.123L246.921 635.123V670ZM246.921 634.062L280.893 634.062V599.174L246.921 599.174V634.062ZM246.921 598.113L280.893 598.113V563.233L246.921 563.233L246.921 598.113ZM246.921 562.172L280.893 562.172V527.291L246.921 527.291V562.172ZM246.921 526.23L280.893 526.23V491.35H246.921V526.23ZM246.921 490.289H280.893V455.412H246.921V490.289ZM246.921 454.351H280.893V419.467H246.921V454.351ZM246.921 418.406H280.893V383.522H246.921V418.406ZM246.921 382.461H280.893V347.584H246.921L246.921 382.461ZM246.921 346.523H280.893V311.639H246.921V346.523ZM246.921 310.578H280.893V275.697H246.921V310.578ZM281.954 275.697V310.578H315.926V275.697H281.954ZM316.987 275.697V310.578H350.958V275.697H316.987ZM352.019 275.697V310.578H385.991V275.697H352.019ZM387.052 275.697V310.578L421.024 310.578V275.698L387.052 275.697ZM422.085 275.698V310.578H456.057V275.698H422.085ZM457.118 275.698V310.578H491.089V275.698H457.118ZM492.15 275.698V310.578H526.122V275.698H492.15ZM527.183 275.698V310.578H561.155V275.698H527.183ZM562.216 275.698V310.578H596.188V275.698H562.216ZM597.249 275.698V310.578H631.219V275.698H597.249ZM632.28 275.698V310.578L666.253 310.578V275.698L632.28 275.698ZM667.314 275.698V310.578L701.286 310.578V275.698L667.314 275.698ZM702.347 275.698V310.578H736.319V275.698H702.347ZM736.319 311.639H702.347V346.523H736.319V311.639ZM736.319 347.584H702.347V382.461H736.319V347.584ZM736.319 383.522H702.347V418.406H736.319V383.522ZM736.319 419.467H702.347V454.352H736.319V419.467ZM736.319 455.413H702.347L702.347 490.289H736.319L736.319 455.413ZM736.319 491.35H702.347V526.23H736.319V491.35ZM736.319 527.291H702.347V562.172H736.319V527.291ZM736.319 563.233H702.347V598.113H736.319V563.233ZM736.319 599.174H702.347V634.062H736.319V599.174ZM736.319 635.123H702.347V670H736.319V635.123ZM736.319 671.061H702.347V705.941H736.319V671.061ZM736.319 707.002H702.347V741.887H736.319V707.002ZM736.319 742.948H702.347L702.347 777.824H736.319L736.319 742.948ZM736.319 778.885H702.347V813.769H736.319V778.885ZM736.319 814.83H702.347V849.707H736.319V814.83ZM736.319 850.768H702.347V885.652H736.319V850.768ZM736.319 886.713H702.347V921.598H736.319V886.713ZM736.319 922.659H702.347V957.535H736.319V922.659ZM736.319 958.596H702.347V993.48H736.319V958.596ZM736.319 994.541H702.347V1029.43H736.319V994.541ZM736.319 1030.49H702.347V1065.36H736.319V1030.49ZM736.319 1066.42H702.347V1101.3H736.319V1066.42ZM736.319 1102.37H702.347V1137.25H736.319V1102.37ZM736.319 1138.31H702.347V1173.19H736.319V1138.31ZM736.319 1174.25H702.347V1209.14H736.319V1174.25ZM736.319 1210.2H702.347V1245.07H736.319V1210.2ZM701.286 1245.07V1210.2H667.314V1245.07H701.286ZM666.253 1245.07V1210.2H632.28V1245.07H666.253ZM631.219 1245.07V1210.2H597.249V1245.07H631.219ZM596.188 1245.07V1210.2H562.216V1245.07H596.188ZM561.155 1245.07V1210.2H527.183V1245.07H561.155ZM526.122 1245.07V1210.2H492.149V1245.07L526.122 1245.07ZM491.089 1245.07V1210.2H457.118V1245.07H491.089ZM456.057 1245.07V1210.2H422.085V1245.07H456.057ZM421.024 1245.07V1210.2H387.052V1245.07H421.024ZM385.991 1245.07V1210.2H352.019V1245.07H385.991ZM350.958 1245.07V1210.2H316.987V1245.07H350.958ZM315.926 1245.07V1210.2H281.954V1245.07H315.926ZM281.954 1209.14H315.926V1174.25H281.954V1209.14ZM281.954 1173.19H315.926L315.926 1138.31H281.954L281.954 1173.19ZM281.954 1137.25H315.926V1102.37H281.954V1137.25ZM281.954 1101.3H315.926V1066.42H281.954V1101.3ZM281.954 1065.36H315.926V1030.49H281.954V1065.36ZM281.954 1029.43H315.926V994.541H281.954V1029.43ZM281.954 993.48H315.926V958.596H281.954V993.48ZM281.954 957.535H315.926V922.659H281.954V957.535ZM281.954 921.598H315.926V886.713H281.954V921.598ZM281.954 885.652H315.926V850.768H281.954V885.652ZM281.954 849.707H315.926V814.83H281.954V849.707ZM281.954 813.769H315.926V778.885H281.954V813.769ZM281.954 777.824H315.926V742.948H281.954V777.824ZM281.954 741.887H315.926V707.002H281.954V741.887ZM281.954 705.941H315.926L315.926 671.061H281.954L281.954 705.941ZM281.954 670H315.926V635.123H281.954V670ZM281.954 634.062H315.926V599.174H281.954V634.062ZM281.954 598.113H315.926V563.233H281.954V598.113ZM281.954 562.172H315.926V527.291H281.954V562.172ZM281.954 526.23H315.926V491.35H281.954V526.23ZM281.954 490.289H315.926V455.412H281.954V490.289ZM281.954 454.351H315.926V419.467H281.954V454.351ZM281.954 418.406H315.926V383.522H281.954V418.406ZM281.954 382.461H315.926V347.584H281.954V382.461ZM281.954 346.523H315.926V311.639H281.954V346.523ZM316.987 311.639V346.523H350.958V311.639H316.987ZM352.019 311.639V346.523H385.991V311.639H352.019ZM387.052 311.639V346.523L421.024 346.523V311.639L387.052 311.639ZM422.085 311.639V346.523H456.057V311.639H422.085ZM457.118 311.639V346.523H491.089V311.639H457.118ZM492.15 311.639V346.523H526.122V311.639H492.15ZM527.183 311.639V346.523H561.155V311.639H527.183ZM562.216 311.639V346.523H596.188V311.639H562.216ZM597.249 311.639V346.523H631.219V311.639H597.249ZM632.28 311.639V346.523L666.253 346.523V311.639L632.28 311.639ZM667.314 311.639V346.523L701.286 346.523V311.639L667.314 311.639ZM701.286 347.584L667.314 347.584V382.461L701.286 382.461V347.584ZM701.286 383.522L667.314 383.522V418.406L701.286 418.406V383.522ZM701.286 419.467L667.314 419.467V454.352L701.286 454.352V419.467ZM701.286 455.413L667.314 455.413L667.314 490.289L701.286 490.289L701.286 455.413ZM701.286 491.35L667.314 491.35V526.23H701.286V491.35ZM701.286 527.291H667.314V562.172H701.286V527.291ZM701.286 563.233H667.314V598.113H701.286V563.233ZM701.286 599.174H667.314V634.062H701.286V599.174ZM701.286 635.123H667.314V670H701.286V635.123ZM701.286 671.061H667.314V705.941H701.286V671.061ZM701.286 707.002H667.314V741.887H701.286V707.002ZM701.286 742.948H667.314L667.314 777.824H701.286L701.286 742.948ZM701.286 778.885H667.314V813.769H701.286V778.885ZM701.286 814.83H667.314V849.707H701.286V814.83ZM701.286 850.768H667.314V885.652H701.286V850.768ZM701.286 886.713H667.314V921.598H701.286V886.713ZM701.286 922.659H667.314V957.535H701.286V922.659ZM701.286 958.596H667.314V993.48H701.286V958.596ZM701.286 994.541H667.314V1029.43H701.286V994.541ZM701.286 1030.49H667.314V1065.36H701.286V1030.49ZM701.286 1066.42H667.314V1101.3H701.286V1066.42ZM701.286 1102.37H667.314V1137.25H701.286V1102.37ZM701.286 1138.31H667.314V1173.19H701.286V1138.31ZM701.286 1174.25H667.314V1209.14H701.286V1174.25ZM666.253 1209.14V1174.25H632.28V1209.14H666.253ZM631.219 1209.14V1174.25H597.249V1209.14H631.219ZM596.188 1209.14V1174.25H562.216V1209.14H596.188ZM561.155 1209.14V1174.25H527.183V1209.14H561.155ZM526.122 1209.14V1174.25H492.149V1209.14L526.122 1209.14ZM491.089 1209.14V1174.25H457.118V1209.14H491.089ZM456.057 1209.14V1174.25H422.085V1209.14H456.057ZM421.024 1209.14V1174.25H387.052V1209.14H421.024ZM385.991 1209.14V1174.25H352.019V1209.14H385.991ZM350.958 1209.14V1174.25H316.987V1209.14H350.958ZM316.987 1173.19H350.958L350.958 1138.31H316.987L316.987 1173.19ZM316.987 1137.25H350.958V1102.37H316.987V1137.25ZM316.987 1101.3H350.958V1066.42H316.987V1101.3ZM316.987 1065.36H350.958V1030.49H316.987V1065.36ZM316.987 1029.43H350.958V994.541H316.987V1029.43ZM316.987 993.48H350.958V958.596H316.987V993.48ZM316.987 957.535H350.958V922.659H316.987V957.535ZM316.987 921.598H350.958V886.713H316.987V921.598ZM316.987 885.652H350.958V850.768H316.987V885.652ZM316.987 849.707H350.958V814.83H316.987V849.707ZM316.987 813.769H350.958V778.885H316.987V813.769ZM316.987 777.824H350.958V742.948H316.987V777.824ZM316.987 741.887H350.958V707.002H316.987V741.887ZM316.987 705.941H350.958L350.958 671.061H316.987L316.987 705.941ZM316.987 670H350.958V635.123H316.987V670ZM316.987 634.062H350.958V599.174H316.987V634.062ZM316.987 598.113H350.958V563.233H316.987V598.113ZM316.987 562.172H350.958V527.291H316.987V562.172ZM316.987 526.23H350.958V491.35H316.987V526.23ZM316.987 490.289H350.958V455.412H316.987V490.289ZM316.987 454.351H350.958V419.467H316.987V454.351ZM316.987 418.406H350.958V383.522H316.987V418.406ZM316.987 382.461H350.958V347.584H316.987V382.461ZM352.019 347.584V382.461H385.991V347.584H352.019ZM387.052 347.584V382.461L421.024 382.461V347.584L387.052 347.584ZM422.085 347.584V382.461H456.057V347.584H422.085ZM457.118 347.584V382.461H491.089V347.584H457.118ZM492.15 347.584V382.461H526.122V347.584H492.15ZM527.183 347.584V382.461H561.155V347.584H527.183ZM562.216 347.584V382.461H596.188V347.584H562.216ZM597.249 347.584V382.461H631.219V347.584H597.249ZM632.28 347.584V382.461L666.253 382.461V347.584L632.28 347.584ZM666.253 383.522L632.28 383.522V418.406L666.253 418.406V383.522ZM666.253 419.467L632.28 419.467V454.352L666.253 454.352V419.467ZM666.253 455.413L632.28 455.412L632.28 490.289L666.253 490.289L666.253 455.413ZM666.253 491.35L632.28 491.35V526.23H666.253V491.35ZM666.253 527.291H632.28V562.172H666.253V527.291ZM666.253 563.233H632.28V598.113H666.253V563.233ZM666.253 599.174H632.28V634.062H666.253V599.174ZM666.253 635.123H632.28V670H666.253V635.123ZM666.253 671.061H632.28V705.941H666.253V671.061ZM666.253 707.002H632.28V741.887H666.253V707.002ZM666.253 742.948H632.28L632.28 777.824H666.253L666.253 742.948ZM666.253 778.885H632.28V813.769H666.253V778.885ZM666.253 814.83H632.28V849.707H666.253V814.83ZM666.253 850.768H632.28V885.652H666.253V850.768ZM666.253 886.713H632.28V921.598H666.253V886.713ZM666.253 922.659H632.28V957.535H666.253V922.659ZM666.253 958.596H632.28V993.48H666.253V958.596ZM666.253 994.541H632.28V1029.43H666.253V994.541ZM666.253 1030.49H632.28V1065.36H666.253V1030.49ZM666.253 1066.42H632.28V1101.3H666.253V1066.42ZM666.253 1102.37H632.28V1137.25H666.253V1102.37ZM666.253 1138.31H632.28V1173.19H666.253V1138.31ZM631.219 1173.19V1138.31H597.249V1173.19H631.219ZM596.188 1173.19V1138.31H562.216V1173.19H596.188ZM561.155 1173.19V1138.31H527.183V1173.19H561.155ZM526.122 1173.19V1138.31H492.15L492.149 1173.19L526.122 1173.19ZM491.089 1173.19L491.089 1138.31H457.118L457.118 1173.19H491.089ZM456.057 1173.19L456.057 1138.31H422.085L422.085 1173.19H456.057ZM421.024 1173.19L421.024 1138.31H387.052L387.052 1173.19H421.024ZM385.991 1173.19L385.991 1138.31H352.019L352.019 1173.19H385.991ZM352.019 1137.25H385.991V1102.37H352.019V1137.25ZM352.019 1101.3H385.991V1066.42H352.019V1101.3ZM352.019 1065.36H385.991V1030.49H352.019V1065.36ZM352.019 1029.43H385.991V994.541H352.019V1029.43ZM352.019 993.48H385.991V958.596H352.019V993.48ZM352.019 957.535H385.991V922.659H352.019V957.535ZM352.019 921.598H385.991V886.713H352.019V921.598ZM352.019 885.652H385.991V850.768H352.019V885.652ZM352.019 849.707H385.991V814.83H352.019V849.707ZM352.019 813.769H385.991V778.885H352.019V813.769ZM352.019 777.824H385.991V742.948H352.019V777.824ZM352.019 741.887H385.991V707.002H352.019V741.887ZM352.019 705.941H385.991L385.991 671.061H352.019L352.019 705.941ZM352.019 670H385.991V635.123H352.019V670ZM352.019 634.062H385.991V599.174H352.019V634.062ZM352.019 598.113H385.991V563.233H352.019V598.113ZM352.019 562.172H385.991V527.291H352.019V562.172ZM352.019 526.23H385.991V491.35H352.019V526.23ZM352.019 490.289H385.991V455.412H352.019V490.289ZM352.019 454.351H385.991V419.467H352.019V454.351ZM352.019 418.406H385.991V383.522H352.019V418.406ZM387.052 383.522V418.406L421.024 418.406V383.522L387.052 383.522ZM422.085 383.522V418.406H456.057V383.522H422.085ZM457.118 383.522V418.406H491.089V383.522H457.118ZM492.15 383.522V418.406H526.122V383.522H492.15ZM527.183 383.522V418.406H561.155V383.522H527.183ZM562.216 383.522V418.406H596.188V383.522H562.216ZM597.249 383.522V418.406H631.219V383.522H597.249ZM631.219 419.467H597.249V454.352H631.219V419.467ZM631.219 455.412H597.249L597.249 490.289H631.219L631.219 455.412ZM631.219 491.35H597.249V526.23H631.219V491.35ZM631.219 527.291H597.249V562.172H631.219V527.291ZM631.219 563.233H597.249V598.113H631.219V563.233ZM631.219 599.174H597.249V634.062H631.219V599.174ZM631.219 635.123H597.249V670H631.219V635.123ZM631.219 671.061H597.249V705.941H631.219V671.061ZM631.219 707.002H597.249V741.887H631.219V707.002ZM631.219 742.948H597.249L597.249 777.824H631.219L631.219 742.948ZM631.219 778.885H597.249V813.769H631.219V778.885ZM631.219 814.83H597.249V849.707H631.219V814.83ZM631.219 850.768H597.249V885.652H631.219V850.768ZM631.219 886.713H597.249V921.598H631.219V886.713ZM631.219 922.659H597.249V957.535H631.219V922.659ZM631.219 958.596H597.249V993.48H631.219V958.596ZM631.219 994.541H597.249V1029.43H631.219V994.541ZM631.219 1030.49H597.249V1065.36H631.219V1030.49ZM631.219 1066.42H597.249V1101.3H631.219V1066.42ZM631.219 1102.37H597.249V1137.25H631.219V1102.37ZM596.188 1137.25V1102.37H562.216V1137.25H596.188ZM561.155 1137.25V1102.37H527.183V1137.25H561.155ZM526.122 1137.25V1102.37H492.15V1137.25L526.122 1137.25ZM491.089 1137.25V1102.37H457.118V1137.25H491.089ZM456.057 1137.25V1102.37H422.085V1137.25H456.057ZM421.024 1137.25V1102.37H387.052V1137.25H421.024ZM387.052 1101.3H421.024V1066.42H387.052V1101.3ZM387.052 1065.36H421.024V1030.49H387.052V1065.36ZM387.052 1029.43H421.024V994.541H387.052V1029.43ZM387.052 993.48H421.024V958.596H387.052V993.48ZM387.052 957.535H421.024V922.659H387.052V957.535ZM387.052 921.598H421.024V886.713H387.052V921.598ZM387.052 885.652H421.024V850.768H387.052V885.652ZM387.052 849.707H421.024V814.83H387.052V849.707ZM387.052 813.769H421.024V778.885H387.052V813.769ZM387.052 777.824H421.024V742.948H387.052V777.824ZM387.052 741.887H421.024V707.002H387.052V741.887ZM387.052 705.941H421.024L421.024 671.061H387.052L387.052 705.941ZM387.052 670H421.024V635.123H387.052V670ZM387.052 634.062H421.024V599.174H387.052V634.062ZM387.052 598.113H421.024V563.233H387.052V598.113ZM387.052 562.172H421.024V527.291H387.052V562.172ZM387.052 526.23H421.024V491.35L387.052 491.35V526.23ZM387.052 490.289L421.024 490.289V455.412L387.052 455.412V490.289ZM387.052 454.351L421.024 454.352V419.467L387.052 419.467V454.351ZM422.085 419.467V454.352H456.057V419.467H422.085ZM457.118 419.467V454.352H491.089V419.467H457.118ZM492.15 419.467V454.352H526.122V419.467H492.15ZM527.183 419.467V454.352H561.155V419.467H527.183ZM562.216 419.467V454.352H596.188V419.467H562.216ZM596.188 455.412H562.216L562.216 490.289H596.188L596.188 455.412ZM596.188 491.35H562.216V526.23H596.188V491.35ZM596.188 527.291H562.216V562.172H596.188V527.291ZM596.188 563.233H562.216V598.113H596.188V563.233ZM596.188 599.174H562.216V634.062H596.188V599.174ZM596.188 635.123H562.216V670H596.188V635.123ZM596.188 671.061H562.216V705.941H596.188V671.061ZM596.188 707.002H562.216V741.887H596.188V707.002ZM596.188 742.948H562.216L562.216 777.824H596.188L596.188 742.948ZM596.188 778.885H562.216V813.769H596.188V778.885ZM596.188 814.83H562.216V849.707H596.188V814.83ZM596.188 850.768H562.216V885.652H596.188V850.768ZM596.188 886.713H562.216V921.598H596.188V886.713ZM596.188 922.659H562.216V957.535H596.188V922.659ZM596.188 958.596H562.216V993.48H596.188V958.596ZM596.188 994.541H562.216V1029.43H596.188V994.541ZM596.188 1030.49H562.216V1065.36H596.188V1030.49ZM596.188 1066.42H562.216V1101.3H596.188V1066.42ZM561.155 1101.3V1066.42H527.183V1101.3H561.155ZM526.122 1101.3V1066.42H492.15V1101.3L526.122 1101.3ZM491.089 1101.3V1066.42H457.118V1101.3H491.089ZM456.057 1101.3V1066.42H422.085V1101.3H456.057ZM422.085 1065.36H456.057V1030.49H422.085V1065.36ZM422.085 1029.43H456.057V994.541H422.085V1029.43ZM422.085 993.48H456.057V958.596H422.085V993.48ZM422.085 957.535H456.057V922.659H422.085V957.535ZM422.085 921.598H456.057V886.713H422.085V921.598ZM422.085 885.652H456.057V850.768H422.085V885.652ZM422.085 849.707H456.057V814.83H422.085V849.707ZM422.085 813.769H456.057V778.885H422.085V813.769ZM422.085 777.824H456.057V742.948H422.085V777.824ZM422.085 741.887H456.057V707.002H422.085V741.887ZM422.085 705.941H456.057L456.057 671.061H422.085L422.085 705.941ZM422.085 670H456.057V635.123H422.085V670ZM422.085 634.062H456.057V599.174H422.085V634.062ZM422.085 598.113H456.057V563.233H422.085V598.113ZM422.085 562.172H456.057V527.291H422.085V562.172ZM422.085 526.23H456.057V491.35H422.085V526.23ZM422.085 490.289H456.057V455.412H422.085V490.289ZM457.118 455.412V490.289H491.089V455.412H457.118ZM492.15 455.412V490.289H526.122L526.122 455.412H492.15ZM527.183 455.412L527.183 490.289H561.155L561.155 455.412H527.183ZM561.155 491.35H527.183V526.23H561.155V491.35ZM561.155 527.291H527.183V562.172H561.155V527.291ZM561.155 563.233H527.183V598.113H561.155V563.233ZM561.155 599.174H527.183V634.062H561.155V599.174ZM561.155 635.123H527.183V670H561.155V635.123ZM561.155 671.061H527.183V705.941H561.155V671.061ZM561.155 707.002H527.183V741.887H561.155V707.002ZM561.155 742.948H527.183L527.183 777.824H561.155L561.155 742.948ZM561.155 778.885H527.183V813.769H561.155V778.885ZM561.155 814.83H527.183V849.707H561.155V814.83ZM561.155 850.768H527.183V885.652H561.155V850.768ZM561.155 886.713H527.183V921.598H561.155V886.713ZM561.155 922.659H527.183V957.535H561.155V922.659ZM561.155 958.596H527.183V993.48H561.155V958.596ZM561.155 994.541H527.183V1029.43H561.155V994.541ZM561.155 1030.49H527.183V1065.36H561.155V1030.49ZM526.122 1065.36V1030.49H492.15V1065.36L526.122 1065.36ZM491.089 1065.36V1030.49H457.118V1065.36H491.089ZM457.118 1029.43H491.089V994.541L457.118 994.541V1029.43ZM457.118 993.48L491.089 993.48V958.596L457.118 958.596V993.48ZM457.118 957.535L491.089 957.535V922.659L457.118 922.659V957.535ZM457.118 921.598L491.089 921.598V886.713L457.118 886.713V921.598ZM457.118 885.652L491.089 885.652V850.768L457.118 850.768V885.652ZM457.118 849.707L491.089 849.707V814.83L457.118 814.83V849.707ZM457.118 813.769L491.089 813.769V778.885L457.118 778.885V813.769ZM457.118 777.824L491.089 777.824V742.948L457.118 742.948V777.824ZM457.118 741.887L491.089 741.887V707.002L457.118 707.002V741.887ZM457.118 705.941L491.089 705.941L491.089 671.061L457.118 671.061L457.118 705.941ZM457.118 670L491.089 670V635.123L457.118 635.123V670ZM457.118 634.062L491.089 634.062V599.174L457.118 599.174V634.062ZM457.118 598.113L491.089 598.113V563.233L457.118 563.233V598.113ZM457.118 562.172L491.089 562.172V527.291L457.118 527.291V562.172ZM457.118 526.23L491.089 526.23V491.35H457.118V526.23ZM492.15 491.35V526.23H526.122V491.35H492.15ZM526.122 527.291H492.15V562.172H526.122V527.291ZM526.122 563.233H492.15V598.113H526.122V563.233ZM526.122 599.174H492.15V634.062H526.122V599.174ZM526.122 635.123H492.15V670H526.122V635.123ZM526.122 671.061H492.15L492.15 705.941H526.122V671.061ZM526.122 707.002H492.15V741.887H526.122V707.002ZM526.122 742.948H492.15V777.824H526.122L526.122 742.948ZM526.122 778.885H492.15V813.769H526.122V778.885ZM526.122 814.83H492.15V849.707H526.122V814.83ZM526.122 850.768H492.15V885.652H526.122V850.768ZM526.122 886.713H492.15V921.598H526.122V886.713ZM526.122 922.659H492.15V957.535H526.122V922.659ZM526.122 958.596H492.15V993.48H526.122V958.596ZM526.122 994.541H492.15V1029.43L526.122 1029.43V994.541Z" fill="url(#paint0_linear_2125_3874)"/>
<defs>
<linearGradient id="paint0_linear_2125_3874" x1="477.121" y1="335.264" x2="1028.91" y2="943.315" gradientUnits="userSpaceOnUse">
<stop stop-opacity="0"/>
<stop offset="1"/>
</linearGradient>
</defs>
</svg>
