<svg width="624" height="1242" viewBox="0 0 624 1242" fill="none" xmlns="http://www.w3.org/2000/svg">
<path opacity="0.1" fill-rule="evenodd" clip-rule="evenodd" d="M588.177 1218.07V1241.11H587.116V1218.07L553.144 1218.07V1241.11H552.083V1218.07L518.113 1218.07V1241.11H517.052V1218.07L483.079 1218.07V1241.11H482.018V1218.07L448.046 1218.07V1241.11H446.985V1218.07L413.013 1218.07V1241.11H411.952V1218.07L377.982 1218.07V1241.11H376.921V1218.07L342.949 1218.07V1241.11H341.888V1218.07L307.915 1218.07V1241.11H306.854V1218.07L272.884 1218.07V1241.11H271.823V1218.07L237.851 1218.07V1241.11H236.79V1218.07L202.818 1218.07V1241.11H201.757V1218.07L167.784 1218.07V1241.11H166.724V1218.07L132.753 1218.07V1241.11H131.692V1218.07L97.72 1218.07V1241.11H96.6591V1218.07L62.6868 1218.07V1241.11H61.6259V1218.07L27.6536 1218.07V1241.11H26.5927V1218.07L-7.37762 1218.07V1241.11H-8.4386V1218.07L-42.4108 1218.07V1241.11H-43.4718V1218.07L-77.444 1218.07V1241.11H-78.505V1218.07L-112.477 1218.07V1241.11H-113.538V1218.07L-147.508 1218.07V1241.11H-148.569V1218.07L-182.542 1218.07V1241.11H-183.603V1218.07L-217.575 1218.07V1241.11H-218.636V1218.07L-252.606 1218.07V1241.11H-253.667V1218.07L-287.639 1218.07V1241.11H-288.7V1218.07L-322.673 1218.07V1241.11H-323.734V1218.07L-357.706 1218.07V1241.11H-358.767V1218.07L-410.001 1218.07V1217.01L-358.767 1217.01V1182.12L-410.001 1182.12V1181.06L-358.767 1181.06V1146.18L-410.001 1146.18V1145.12L-358.767 1145.12V1110.24H-410.001V1109.18H-358.767V1074.29H-410.001V1073.23H-358.767V1038.36H-410.001V1037.29H-358.767V1002.41H-410.001V1001.35H-358.767V966.473H-410.001V965.412H-358.767V930.531H-410.001V929.47H-358.767V894.586H-410.001V893.525H-358.767V858.648H-410.001V857.587H-358.767V822.703H-410.001V821.642H-358.767V786.758H-410.001V785.697H-358.767V750.82H-410.001V749.759H-358.767V714.879H-410.001V713.818H-358.767V678.938H-410.001V677.877H-358.767V642.996H-410.001V641.935H-358.767V607.047H-410.001V605.986H-358.767V571.109H-410.001V570.048H-358.767V535.168H-410.001V534.107H-358.767V499.223H-410.001V498.162H-358.767L-358.767 463.285H-410.001V462.224H-358.767V427.34H-410.001V426.279H-358.767V391.402H-410.001V390.341H-358.767V355.457H-410.001V354.396H-358.767V319.512H-410.001V318.451H-358.767V283.574H-410.001V282.513H-358.767V247.629H-410.001V246.568H-358.767V211.684H-410.001V210.623H-358.767V175.746H-410.001V174.685H-358.767V139.805H-410.001V138.744H-358.767V103.863H-410.001V102.802H-358.767V67.9219H-410.001V66.8608H-358.767V31.9727H-410.001V30.9116H-358.767V-3.96094H-410.001V-5.02197H-358.767V-39.9062H-410.001V-40.9673H-358.767V-75.8516H-410.001V-76.9126H-358.767V-111.789H-410.001V-112.85H-358.767V-147.734H-410.001V-148.795H-358.767V-183.672H-410.001V-184.733H-358.767V-219.617H-410.001V-220.678H-358.767V-255.562H-410.001V-256.624H-358.767V-288.999H-357.706V-256.624H-323.733V-288.999H-322.672V-256.624H-288.7V-288.999H-287.639V-256.624H-253.667V-288.999H-252.606V-256.624H-218.636V-288.999H-217.575V-256.624H-183.603V-288.999H-182.542V-256.624L-148.569 -256.623V-288.999H-147.508V-256.623H-113.538V-288.999H-112.477V-256.623H-78.5049V-288.999H-77.444V-256.623H-43.4717V-288.999H-42.4108V-256.623H-8.43854V-288.999H-7.37756V-256.623H26.5927V-288.999H27.6537V-256.623H61.6259V-288.999H62.6869V-256.623H96.6591V-288.999H97.7201V-256.623H131.692V-288.999H132.753V-256.623H166.724V-288.999H167.785V-256.623H201.757V-288.999H202.818V-256.623H236.79V-288.999H237.851V-256.623H271.823V-288.999H272.884V-256.623H306.854V-288.999H307.915V-256.623H341.888V-288.999H342.949V-256.623L376.921 -256.623V-288.999H377.982V-256.623H411.952V-288.999H413.013V-256.623H446.985V-288.999H448.046V-256.623H482.018V-288.999H483.079V-256.623H517.052V-288.999H518.113V-256.623H552.083V-288.999H553.144V-256.623H587.116V-288.999H588.177V-256.623H623.842V-255.562H588.177L588.177 -220.678H623.842V-219.617H588.177V-184.733H623.842V-183.672H588.177L588.177 -148.795H623.842V-147.734H588.177V-112.85H623.842V-111.789H588.177V-76.9124H623.842V-75.8514H588.177L588.177 -40.967H623.842V-39.9061H588.177V-5.02173H623.842V-3.96082H588.177L588.177 30.9119H623.842V31.9728H588.177V66.8611H623.842V67.922H588.177V102.802H623.842V103.863H588.177L588.177 138.744H623.842V139.805H588.177V174.685H623.842V175.746H588.177L588.177 210.623H623.842V211.684H588.177V246.568H623.842V247.629H588.177V282.513H623.842V283.574H588.177L588.177 318.451H623.842V319.512H588.177V354.396H623.842V355.457H588.177L588.177 390.341H623.842V391.402H588.177V426.279H623.842V427.34H588.177V462.224H623.842V463.285H588.177L588.177 498.162H623.842V499.223H588.177V534.107H623.842V535.168H588.177L588.177 570.049H623.842V571.109H588.177V605.986H623.842V607.047H588.177V641.935H623.842V642.996H588.177L588.177 677.877H623.842V678.938H588.177V713.818H623.842V714.879H588.177L588.177 749.759H623.842V750.82H588.177V785.697H623.842V786.758H588.177V821.642H623.842V822.703H588.177L588.177 857.588H623.842V858.649H588.177V893.525H623.842V894.586H588.177L588.177 929.47H623.842V930.531H588.177V965.412H623.842V966.473H588.177V1001.35H623.842V1002.41H588.177L588.177 1037.29H623.842V1038.36H588.177V1073.23H623.842V1074.29H588.177L588.177 1109.18H623.842V1110.24H588.177V1145.12L623.842 1145.12V1146.18L588.177 1146.18V1181.06L623.842 1181.06V1182.12L588.177 1182.12L588.177 1217.01L623.842 1217.01V1218.07L588.177 1218.07ZM587.116 1217.01L587.116 1182.12L553.144 1182.12V1217.01L587.116 1217.01ZM552.083 1217.01V1182.12L518.113 1182.12V1217.01L552.083 1217.01ZM517.052 1217.01V1182.12L483.079 1182.12V1217.01L517.052 1217.01ZM482.018 1217.01V1182.12L448.046 1182.12V1217.01L482.018 1217.01ZM446.985 1217.01V1182.12L413.013 1182.12V1217.01L446.985 1217.01ZM411.952 1217.01V1182.12L377.982 1182.12V1217.01L411.952 1217.01ZM376.921 1217.01V1182.12L342.949 1182.12V1217.01L376.921 1217.01ZM341.888 1217.01V1182.12L307.915 1182.12V1217.01L341.888 1217.01ZM306.854 1217.01V1182.12L272.884 1182.12V1217.01L306.854 1217.01ZM271.823 1217.01V1182.12L237.851 1182.12V1217.01L271.823 1217.01ZM236.79 1217.01V1182.12L202.818 1182.12V1217.01L236.79 1217.01ZM201.757 1217.01V1182.12L167.784 1182.12V1217.01L201.757 1217.01ZM166.724 1217.01V1182.12L132.753 1182.12V1217.01L166.724 1217.01ZM131.692 1217.01V1182.12L97.72 1182.12V1217.01L131.692 1217.01ZM96.6591 1217.01V1182.12L62.6868 1182.12V1217.01L96.6591 1217.01ZM61.6259 1217.01V1182.12L27.6536 1182.12V1217.01L61.6259 1217.01ZM26.5927 1217.01V1182.12L-7.37762 1182.12V1217.01L26.5927 1217.01ZM-8.4386 1217.01V1182.12L-42.4108 1182.12V1217.01L-8.4386 1217.01ZM-43.4718 1217.01V1182.12L-77.444 1182.12V1217.01L-43.4718 1217.01ZM-78.505 1217.01V1182.12L-112.477 1182.12V1217.01L-78.505 1217.01ZM-113.538 1217.01V1182.12L-147.508 1182.12V1217.01L-113.538 1217.01ZM-148.569 1217.01V1182.12L-182.542 1182.12V1217.01L-148.569 1217.01ZM-183.603 1217.01V1182.12L-217.575 1182.12V1217.01L-183.603 1217.01ZM-218.636 1217.01V1182.12L-252.606 1182.12V1217.01L-218.636 1217.01ZM-253.667 1217.01V1182.12L-287.639 1182.12V1217.01L-253.667 1217.01ZM-288.7 1217.01V1182.12L-322.673 1182.12V1217.01L-288.7 1217.01ZM-323.734 1217.01V1182.12L-357.706 1182.12V1217.01L-323.734 1217.01ZM-357.706 1181.06L-323.734 1181.06V1146.18L-357.706 1146.18V1181.06ZM-357.706 1145.12H-323.734V1110.24L-357.706 1110.24V1145.12ZM-357.706 1109.18L-323.734 1109.18V1074.29L-357.706 1074.29V1109.18ZM-357.706 1073.23L-323.734 1073.23V1038.36L-357.706 1038.36V1073.23ZM-357.706 1037.29L-323.734 1037.29V1002.41L-357.706 1002.41V1037.29ZM-357.706 1001.35L-323.734 1001.35V966.473H-357.706V1001.35ZM-357.706 965.412H-323.734V930.531H-357.706V965.412ZM-357.706 929.47H-323.734V894.586H-357.706V929.47ZM-357.706 893.525H-323.734V858.648H-357.706V893.525ZM-357.706 857.587H-323.734V822.703H-357.706V857.587ZM-357.706 821.642H-323.734V786.758H-357.706V821.642ZM-357.706 785.697H-323.734V750.82H-357.706V785.697ZM-357.706 749.759H-323.734V714.879H-357.706V749.759ZM-357.706 713.818H-323.734V678.938H-357.706V713.818ZM-357.706 677.877H-323.734V642.996H-357.706V677.877ZM-357.706 641.935H-323.734V607.047H-357.706V641.935ZM-357.706 605.986H-323.734V571.109H-357.706V605.986ZM-357.706 570.048H-323.734V535.168H-357.706V570.048ZM-357.706 534.107H-323.734V499.223H-357.706V534.107ZM-357.706 498.162H-323.734L-323.733 463.285H-357.706L-357.706 498.162ZM-357.706 462.224H-323.733V427.34H-357.706V462.224ZM-357.706 426.279H-323.733V391.402H-357.706V426.279ZM-357.706 390.341H-323.733V355.457H-357.706V390.341ZM-357.706 354.396H-323.733V319.512H-357.706V354.396ZM-357.706 318.451H-323.733V283.574H-357.706V318.451ZM-357.706 282.513H-323.733V247.629H-357.706V282.513ZM-357.706 246.568H-323.733V211.684H-357.706V246.568ZM-357.706 210.623H-323.733V175.746H-357.706V210.623ZM-357.706 174.685H-323.733V139.805H-357.706V174.685ZM-357.706 138.744H-323.733V103.863H-357.706V138.744ZM-357.706 102.802H-323.733V67.9219H-357.706V102.802ZM-357.706 66.8608H-323.733V31.9727H-357.706V66.8608ZM-357.706 30.9116H-323.733V-3.96094H-357.706V30.9116ZM-357.706 -5.02197H-323.733V-39.9062H-357.706V-5.02197ZM-357.706 -40.9673H-323.733V-75.8516H-357.706V-40.9673ZM-357.706 -76.9126H-323.733V-111.789H-357.706V-76.9126ZM-357.706 -112.85H-323.733V-147.734H-357.706V-112.85ZM-357.706 -148.795H-323.733V-183.672H-357.706V-148.795ZM-357.706 -184.733H-323.733V-219.617H-357.706V-184.733ZM-357.706 -220.678H-323.733V-255.562H-357.706V-220.678ZM-322.672 -255.562V-220.678H-288.7V-255.562H-322.672ZM-287.639 -255.562V-220.678H-253.667V-255.562H-287.639ZM-252.606 -255.562V-220.678H-218.636V-255.562H-252.606ZM-217.575 -255.562V-220.678H-183.603V-255.562H-217.575ZM-182.542 -255.562V-220.678L-148.569 -220.678V-255.562H-182.542ZM-147.508 -255.562V-220.678H-113.538V-255.562H-147.508ZM-112.477 -255.562V-220.678H-78.5049V-255.562H-112.477ZM-77.444 -255.562V-220.678H-43.4717V-255.562H-77.444ZM-42.4108 -255.562V-220.678H-8.43854V-255.562H-42.4108ZM-7.37756 -255.562V-220.678H26.5927V-255.562H-7.37756ZM27.6537 -255.562V-220.678H61.6259V-255.562H27.6537ZM62.6869 -255.562V-220.678H96.6591V-255.562H62.6869ZM97.7201 -255.562V-220.678H131.692V-255.562L97.7201 -255.562ZM132.753 -255.562V-220.678H166.724V-255.562H132.753ZM167.785 -255.562V-220.678H201.757V-255.562H167.785ZM202.818 -255.562V-220.678H236.79V-255.562H202.818ZM237.851 -255.562V-220.678H271.823V-255.562H237.851ZM272.884 -255.562V-220.678H306.854V-255.562H272.884ZM307.915 -255.562V-220.678H341.888V-255.562H307.915ZM342.949 -255.562V-220.678L376.921 -220.678V-255.562H342.949ZM377.982 -255.562V-220.678H411.952V-255.562H377.982ZM413.013 -255.562V-220.678H446.985V-255.562H413.013ZM448.046 -255.562V-220.678H482.018V-255.562H448.046ZM483.079 -255.562V-220.678H517.052V-255.562H483.079ZM518.113 -255.562V-220.678H552.083V-255.562H518.113ZM553.144 -255.562V-220.678H587.116L587.116 -255.562H553.144ZM587.116 -219.617H553.144L553.144 -184.733H587.116V-219.617ZM587.116 -183.672H553.144V-148.795H587.116L587.116 -183.672ZM587.116 -147.734H553.144V-112.85H587.116V-147.734ZM587.116 -111.789H553.144V-76.9124H587.116V-111.789ZM587.116 -75.8514H553.144V-40.967H587.116L587.116 -75.8514ZM587.116 -39.9061H553.144V-5.02173H587.116V-39.9061ZM587.116 -3.96082H553.144L553.144 30.9119H587.116L587.116 -3.96082ZM587.116 31.9728H553.144V66.8611H587.116V31.9728ZM587.116 67.922H553.144V102.802H587.116V67.922ZM587.116 103.863H553.144V138.744H587.116L587.116 103.863ZM587.116 139.805H553.144V174.685H587.116V139.805ZM587.116 175.746H553.144L553.144 210.623H587.116L587.116 175.746ZM587.116 211.684H553.144V246.568H587.116V211.684ZM587.116 247.629H553.144V282.513H587.116V247.629ZM587.116 283.574H553.144V318.451H587.116L587.116 283.574ZM587.116 319.512H553.144V354.396H587.116V319.512ZM587.116 355.457H553.144L553.144 390.341H587.116L587.116 355.457ZM587.116 391.402H553.144V426.279H587.116V391.402ZM587.116 427.34H553.144V462.224H587.116V427.34ZM587.116 463.285H553.144V498.162H587.116L587.116 463.285ZM587.116 499.223H553.144V534.107H587.116V499.223ZM587.116 535.168H553.144V570.049H587.116L587.116 535.168ZM587.116 571.109H553.144L553.144 605.986H587.116V571.109ZM587.116 607.047H553.144V641.935H587.116V607.047ZM587.116 642.996H553.144V677.877H587.116L587.116 642.996ZM587.116 678.938H553.144V713.818H587.116V678.938ZM587.116 714.879H553.144V749.759H587.116L587.116 714.879ZM587.116 750.82H553.144L553.144 785.697H587.116V750.82ZM587.116 786.758H553.144V821.642H587.116V786.758ZM587.116 822.703H553.144V857.588H587.116L587.116 822.703ZM587.116 858.649H553.144V893.525H587.116V858.649ZM587.116 894.586H553.144V929.47H587.116L587.116 894.586ZM587.116 930.531H553.144L553.144 965.412H587.116V930.531ZM587.116 966.473H553.144V1001.35L587.116 1001.35V966.473ZM587.116 1002.41L553.144 1002.41V1037.29L587.116 1037.29L587.116 1002.41ZM587.116 1038.36L553.144 1038.36V1073.23L587.116 1073.23V1038.36ZM587.116 1074.29L553.144 1074.29V1109.18L587.116 1109.18L587.116 1074.29ZM587.116 1110.24L553.144 1110.24V1145.12H587.116V1110.24ZM587.116 1146.18H553.144V1181.06L587.116 1181.06V1146.18ZM552.083 1181.06V1146.18L518.113 1146.18L518.113 1181.06L552.083 1181.06ZM517.052 1181.06V1146.18H483.079V1181.06L517.052 1181.06ZM482.018 1181.06V1146.18L448.046 1146.18V1181.06L482.018 1181.06ZM446.985 1181.06V1146.18L413.013 1146.18V1181.06L446.985 1181.06ZM411.952 1181.06V1146.18H377.982V1181.06L411.952 1181.06ZM376.921 1181.06V1146.18L342.949 1146.18V1181.06L376.921 1181.06ZM341.888 1181.06V1146.18L307.915 1146.18V1181.06L341.888 1181.06ZM306.854 1181.06V1146.18H272.884V1181.06L306.854 1181.06ZM271.823 1181.06V1146.18L237.851 1146.18V1181.06L271.823 1181.06ZM236.79 1181.06V1146.18H202.818V1181.06L236.79 1181.06ZM201.757 1181.06V1146.18L167.784 1146.18V1181.06L201.757 1181.06ZM166.724 1181.06V1146.18L132.753 1146.18V1181.06L166.724 1181.06ZM131.692 1181.06V1146.18H97.72V1181.06L131.692 1181.06ZM96.6591 1181.06V1146.18L62.6868 1146.18V1181.06L96.6591 1181.06ZM61.6259 1181.06V1146.18H27.6536V1181.06L61.6259 1181.06ZM26.5927 1181.06V1146.18L-7.37762 1146.18V1181.06L26.5927 1181.06ZM-8.4386 1181.06V1146.18L-42.4108 1146.18V1181.06L-8.4386 1181.06ZM-43.4718 1181.06V1146.18H-77.444V1181.06L-43.4718 1181.06ZM-78.505 1181.06V1146.18L-112.477 1146.18V1181.06L-78.505 1181.06ZM-113.538 1181.06V1146.18H-147.508V1181.06L-113.538 1181.06ZM-148.569 1181.06V1146.18L-182.542 1146.18V1181.06L-148.569 1181.06ZM-183.603 1181.06V1146.18L-217.575 1146.18V1181.06L-183.603 1181.06ZM-218.636 1181.06V1146.18H-252.606V1181.06L-218.636 1181.06ZM-253.667 1181.06V1146.18L-287.639 1146.18V1181.06L-253.667 1181.06ZM-288.7 1181.06V1146.18H-322.673V1181.06L-288.7 1181.06ZM-322.673 1145.12L-288.7 1145.12V1110.24H-322.673V1145.12ZM-322.673 1109.18H-288.7V1074.29H-322.673V1109.18ZM-322.673 1073.23H-288.7V1038.36H-322.673V1073.23ZM-322.673 1037.29H-288.7V1002.41H-322.673V1037.29ZM-322.673 1001.35H-288.7V966.473H-322.673V1001.35ZM-322.673 965.412H-288.7V930.531H-322.673V965.412ZM-322.673 929.47H-288.7V894.586H-322.673V929.47ZM-322.673 893.525H-288.7V858.648H-322.673V893.525ZM-322.673 857.587H-288.7V822.703H-322.673V857.587ZM-322.673 821.642H-288.7V786.758H-322.673V821.642ZM-322.673 785.697H-288.7V750.82H-322.673V785.697ZM-322.673 749.759H-288.7V714.879H-322.673V749.759ZM-322.673 713.818H-288.7V678.938H-322.673V713.818ZM-322.673 677.877H-288.7V642.996H-322.673V677.877ZM-322.673 641.935H-288.7V607.047H-322.673V641.935ZM-322.673 605.986H-288.7V571.109H-322.673V605.986ZM-322.673 570.048H-288.7V535.168H-322.673V570.048ZM-322.673 534.107H-288.7V499.223H-322.673V534.107ZM-322.673 498.162H-288.7L-288.7 463.285H-322.672L-322.673 498.162ZM-322.672 462.224H-288.7V427.34H-322.672V462.224ZM-322.672 426.279H-288.7V391.402H-322.672V426.279ZM-322.672 390.341H-288.7V355.457H-322.672V390.341ZM-322.672 354.396H-288.7V319.512H-322.672V354.396ZM-322.672 318.451H-288.7V283.574H-322.672V318.451ZM-322.672 282.513H-288.7V247.629H-322.672V282.513ZM-322.672 246.568H-288.7V211.684H-322.672V246.568ZM-322.672 210.623H-288.7V175.746H-322.672V210.623ZM-322.672 174.685H-288.7V139.805H-322.672V174.685ZM-322.672 138.744H-288.7V103.863H-322.672V138.744ZM-322.672 102.802H-288.7V67.9219H-322.672V102.802ZM-322.672 66.8608H-288.7V31.9727H-322.672V66.8608ZM-322.672 30.9116H-288.7V-3.96094H-322.672V30.9116ZM-322.672 -5.02197H-288.7V-39.9062H-322.672V-5.02197ZM-322.672 -40.9673H-288.7V-75.8516H-322.672V-40.9673ZM-322.672 -76.9126H-288.7V-111.789H-322.672V-76.9126ZM-322.672 -112.85H-288.7V-147.734H-322.672V-112.85ZM-322.672 -148.795H-288.7V-183.672H-322.672V-148.795ZM-322.672 -184.733H-288.7V-219.617H-322.672V-184.733ZM-287.639 -219.617V-184.733H-253.667V-219.617H-287.639ZM-252.606 -219.617V-184.733H-218.636V-219.617H-252.606ZM-217.575 -219.617V-184.733H-183.603V-219.617H-217.575ZM-182.542 -219.617V-184.733L-148.569 -184.733V-219.617H-182.542ZM-147.508 -219.617V-184.733H-113.538V-219.617H-147.508ZM-112.477 -219.617V-184.733H-78.5049V-219.617H-112.477ZM-77.444 -219.617V-184.733H-43.4717V-219.617H-77.444ZM-42.4108 -219.617V-184.733H-8.43854V-219.617H-42.4108ZM-7.37756 -219.617V-184.733H26.5927V-219.617H-7.37756ZM27.6537 -219.617V-184.733H61.6259V-219.617H27.6537ZM62.6869 -219.617V-184.733H96.6591V-219.617H62.6869ZM97.7201 -219.617V-184.733H131.692V-219.617L97.7201 -219.617ZM132.753 -219.617V-184.733H166.724V-219.617H132.753ZM167.785 -219.617V-184.733H201.757V-219.617H167.785ZM202.818 -219.617V-184.733H236.79V-219.617H202.818ZM237.851 -219.617V-184.733H271.823V-219.617H237.851ZM272.884 -219.617V-184.733H306.854V-219.617H272.884ZM307.915 -219.617V-184.733H341.888V-219.617H307.915ZM342.949 -219.617V-184.733L376.921 -184.733V-219.617H342.949ZM377.982 -219.617V-184.733H411.952V-219.617H377.982ZM413.013 -219.617V-184.733H446.985V-219.617H413.013ZM448.046 -219.617V-184.733H482.018V-219.617H448.046ZM483.079 -219.617V-184.733H517.052L517.052 -219.617H483.079ZM518.113 -219.617L518.113 -184.733H552.083L552.083 -219.617H518.113ZM552.083 -183.672H518.113V-148.795H552.083V-183.672ZM552.083 -147.734H518.113V-112.85H552.083V-147.734ZM552.083 -111.789H518.113V-76.9124H552.083V-111.789ZM552.083 -75.8514H518.113V-40.967H552.083V-75.8514ZM552.083 -39.9061H518.113L518.113 -5.02173H552.083V-39.9061ZM552.083 -3.96082H518.113V30.9119H552.083L552.083 -3.96082ZM552.083 31.9728H518.113V66.8611H552.083V31.9728ZM552.083 67.922H518.113V102.802H552.083V67.922ZM552.083 103.863H518.113L518.113 138.744H552.083V103.863ZM552.083 139.805H518.113V174.685H552.083V139.805ZM552.083 175.746H518.113V210.623H552.083L552.083 175.746ZM552.083 211.684H518.113V246.568H552.083V211.684ZM552.083 247.629H518.113V282.513H552.083V247.629ZM552.083 283.574H518.113L518.113 318.451H552.083V283.574ZM552.083 319.512H518.113V354.396H552.083V319.512ZM552.083 355.457H518.113V390.341H552.083L552.083 355.457ZM552.083 391.402H518.113V426.279H552.083V391.402ZM552.083 427.34H518.113V462.224H552.083V427.34ZM552.083 463.285H518.113L518.113 498.162H552.083V463.285ZM552.083 499.223H518.113V534.107H552.083V499.223ZM552.083 535.168H518.113V570.049H552.083V535.168ZM552.083 571.109H518.113V605.986H552.083L552.083 571.109ZM552.083 607.047H518.113V641.935H552.083V607.047ZM552.083 642.996H518.113L518.113 677.877H552.083V642.996ZM552.083 678.938H518.113V713.818H552.083V678.938ZM552.083 714.879H518.113V749.759H552.083V714.879ZM552.083 750.82H518.113V785.697H552.083L552.083 750.82ZM552.083 786.758H518.113L518.113 821.642H552.083V786.758ZM552.083 822.703H518.113V857.588H552.083V822.703ZM552.083 858.649H518.113V893.525H552.083V858.649ZM552.083 894.586H518.113V929.47H552.083V894.586ZM552.083 930.531H518.113V965.412H552.083L552.083 930.531ZM552.083 966.473H518.113L518.113 1001.35H552.083V966.473ZM552.083 1002.41H518.113V1037.29H552.083V1002.41ZM552.083 1038.36H518.113V1073.23H552.083V1038.36ZM552.083 1074.29H518.113V1109.18H552.083V1074.29ZM552.083 1110.24H518.113V1145.12L552.083 1145.12V1110.24ZM517.052 1145.12V1110.24H483.079V1145.12H517.052ZM482.018 1145.12V1110.24L448.046 1110.24V1145.12L482.018 1145.12ZM446.985 1145.12V1110.24H413.013V1145.12H446.985ZM411.952 1145.12V1110.24H377.982V1145.12L411.952 1145.12ZM376.921 1145.12V1110.24H342.949V1145.12L376.921 1145.12ZM341.888 1145.12V1110.24L307.915 1110.24V1145.12H341.888ZM306.854 1145.12V1110.24H272.884V1145.12L306.854 1145.12ZM271.823 1145.12V1110.24H237.851V1145.12H271.823ZM236.79 1145.12V1110.24L202.818 1110.24V1145.12L236.79 1145.12ZM201.757 1145.12V1110.24H167.784V1145.12H201.757ZM166.724 1145.12V1110.24H132.753V1145.12H166.724ZM131.692 1145.12V1110.24L97.72 1110.24V1145.12L131.692 1145.12ZM96.6591 1145.12V1110.24H62.6868V1145.12H96.6591ZM61.6259 1145.12V1110.24H27.6536V1145.12L61.6259 1145.12ZM26.5927 1145.12V1110.24H-7.37762V1145.12H26.5927ZM-8.4386 1145.12V1110.24H-42.4108V1145.12L-8.4386 1145.12ZM-43.4718 1145.12V1110.24H-77.444V1145.12L-43.4718 1145.12ZM-78.505 1145.12V1110.24H-112.477V1145.12H-78.505ZM-113.538 1145.12V1110.24L-147.508 1110.24V1145.12L-113.538 1145.12ZM-148.569 1145.12V1110.24H-182.542V1145.12H-148.569ZM-183.603 1145.12V1110.24H-217.575V1145.12L-183.603 1145.12ZM-218.636 1145.12V1110.24L-252.606 1110.24V1145.12H-218.636ZM-253.667 1145.12V1110.24H-287.639V1145.12L-253.667 1145.12ZM-287.639 1109.18H-253.667V1074.29H-287.639V1109.18ZM-287.639 1073.23H-253.667V1038.36H-287.639V1073.23ZM-287.639 1037.29H-253.667V1002.41H-287.639V1037.29ZM-287.639 1001.35H-253.667V966.473L-287.639 966.473V1001.35ZM-287.639 965.412L-253.667 965.412V930.531L-287.639 930.531V965.412ZM-287.639 929.47L-253.667 929.47V894.586L-287.639 894.586V929.47ZM-287.639 893.525L-253.667 893.525V858.648L-287.639 858.648V893.525ZM-287.639 857.587L-253.667 857.587V822.703L-287.639 822.703V857.587ZM-287.639 821.642L-253.667 821.642V786.758L-287.639 786.758V821.642ZM-287.639 785.697L-253.667 785.697V750.82L-287.639 750.82V785.697ZM-287.639 749.759L-253.667 749.759V714.879H-287.639V749.759ZM-287.639 713.818H-253.667V678.938H-287.639V713.818ZM-287.639 677.877H-253.667V642.996H-287.639V677.877ZM-287.639 641.935H-253.667V607.047H-287.639V641.935ZM-287.639 605.986H-253.667V571.109H-287.639V605.986ZM-287.639 570.048H-253.667V535.168H-287.639V570.048ZM-287.639 534.107H-253.667V499.223H-287.639V534.107ZM-287.639 498.162H-253.667L-253.667 463.285H-287.639L-287.639 498.162ZM-287.639 462.224H-253.667V427.34H-287.639V462.224ZM-287.639 426.279H-253.667V391.402H-287.639V426.279ZM-287.639 390.341H-253.667V355.457H-287.639V390.341ZM-287.639 354.396H-253.667V319.512H-287.639V354.396ZM-287.639 318.451H-253.667V283.574H-287.639V318.451ZM-287.639 282.513H-253.667V247.629H-287.639V282.513ZM-287.639 246.568H-253.667V211.684H-287.639V246.568ZM-287.639 210.623H-253.667V175.746H-287.639V210.623ZM-287.639 174.685H-253.667V139.805H-287.639V174.685ZM-287.639 138.744H-253.667V103.863H-287.639V138.744ZM-287.639 102.802H-253.667V67.9219H-287.639V102.802ZM-287.639 66.8608H-253.667V31.9727H-287.639V66.8608ZM-287.639 30.9116H-253.667V-3.96094H-287.639V30.9116ZM-287.639 -5.02197H-253.667V-39.9062H-287.639V-5.02197ZM-287.639 -40.9673H-253.667V-75.8516H-287.639V-40.9673ZM-287.639 -76.9126H-253.667V-111.789H-287.639V-76.9126ZM-287.639 -112.85H-253.667V-147.734H-287.639V-112.85ZM-287.639 -148.795H-253.667V-183.672H-287.639V-148.795ZM-252.606 -183.672V-148.795H-218.636V-183.672H-252.606ZM-217.575 -183.672V-148.795H-183.603V-183.672H-217.575ZM-182.542 -183.672V-148.795L-148.569 -148.795V-183.672H-182.542ZM-147.508 -183.672V-148.795H-113.538V-183.672H-147.508ZM-112.477 -183.672V-148.795H-78.5049V-183.672H-112.477ZM-77.444 -183.672V-148.795H-43.4717V-183.672H-77.444ZM-42.4108 -183.672V-148.795H-8.43854V-183.672H-42.4108ZM-7.37756 -183.672V-148.795H26.5927V-183.672H-7.37756ZM27.6537 -183.672V-148.795H61.6259V-183.672H27.6537ZM62.6869 -183.672V-148.795H96.6591V-183.672H62.6869ZM97.7201 -183.672V-148.795H131.692V-183.672L97.7201 -183.672ZM132.753 -183.672V-148.795H166.724V-183.672H132.753ZM167.785 -183.672V-148.795H201.757V-183.672H167.785ZM202.818 -183.672V-148.795H236.79V-183.672H202.818ZM237.851 -183.672V-148.795H271.823V-183.672H237.851ZM272.884 -183.672V-148.795H306.854V-183.672H272.884ZM307.915 -183.672V-148.795H341.888V-183.672H307.915ZM342.949 -183.672V-148.795L376.921 -148.795V-183.672H342.949ZM377.982 -183.672V-148.795H411.952V-183.672H377.982ZM413.013 -183.672V-148.795H446.985V-183.672H413.013ZM448.046 -183.672V-148.795H482.018V-183.672H448.046ZM483.079 -183.672V-148.795H517.052V-183.672H483.079ZM517.052 -147.734H483.079V-112.85H517.052V-147.734ZM517.052 -111.789H483.079L483.079 -76.9124H517.052V-111.789ZM517.052 -75.8514H483.079V-40.967H517.052V-75.8514ZM517.052 -39.9061H483.079V-5.02173H517.052V-39.9061ZM517.052 -3.96082H483.079V30.9119H517.052L517.052 -3.96082ZM517.052 31.9728H483.079V66.8611H517.052V31.9728ZM517.052 67.922H483.079V102.802H517.052V67.922ZM517.052 103.863H483.079V138.744H517.052V103.863ZM517.052 139.805H483.079V174.685H517.052V139.805ZM517.052 175.746H483.079V210.623H517.052L517.052 175.746ZM517.052 211.684H483.079V246.568H517.052V211.684ZM517.052 247.629H483.079V282.513H517.052V247.629ZM517.052 283.574H483.079L483.079 318.451H517.052V283.574ZM517.052 319.512H483.079V354.396H517.052V319.512ZM517.052 355.457H483.079V390.341H517.052L517.052 355.457ZM517.052 391.402H483.079V426.279H517.052V391.402ZM517.052 427.34H483.079V462.224H517.052V427.34ZM517.052 463.285H483.079V498.162H517.052V463.285ZM517.052 499.223H483.079V534.107H517.052V499.223ZM517.052 535.168H483.079V570.049H517.052V535.168ZM517.052 571.109H483.079V605.986H517.052L517.052 571.109ZM517.052 607.047H483.079V641.935H517.052V607.047ZM517.052 642.996H483.079L483.079 677.877H517.052V642.996ZM517.052 678.938H483.079V713.818H517.052V678.938ZM517.052 714.879H483.079V749.759L517.052 749.759V714.879ZM517.052 750.82L483.079 750.82V785.697L517.052 785.697L517.052 750.82ZM517.052 786.758L483.079 786.758V821.642L517.052 821.642V786.758ZM517.052 822.703L483.079 822.703V857.588L517.052 857.588V822.703ZM517.052 858.649L483.079 858.649V893.525L517.052 893.525V858.649ZM517.052 894.586L483.079 894.586V929.47L517.052 929.47V894.586ZM517.052 930.531L483.079 930.531V965.412L517.052 965.412L517.052 930.531ZM517.052 966.473L483.079 966.473V1001.35H517.052V966.473ZM517.052 1002.41H483.079V1037.29H517.052V1002.41ZM517.052 1038.36H483.079L483.079 1073.23H517.052V1038.36ZM517.052 1074.29H483.079V1109.18H517.052V1074.29ZM482.018 1109.18V1074.29L448.046 1074.29V1109.18L482.018 1109.18ZM446.985 1109.18V1074.29H413.013V1109.18H446.985ZM411.952 1109.18V1074.29H377.982V1109.18H411.952ZM376.921 1109.18V1074.29H342.949V1109.18H376.921ZM341.888 1109.18V1074.29L307.915 1074.29V1109.18L341.888 1109.18ZM306.854 1109.18V1074.29H272.884V1109.18H306.854ZM271.823 1109.18V1074.29H237.851V1109.18H271.823ZM236.79 1109.18V1074.29L202.818 1074.29V1109.18L236.79 1109.18ZM201.757 1109.18V1074.29H167.784V1109.18H201.757ZM166.724 1109.18V1074.29H132.753V1109.18H166.724ZM131.692 1109.18V1074.29L97.72 1074.29V1109.18L131.692 1109.18ZM96.6591 1109.18V1074.29H62.6868V1109.18H96.6591ZM61.6259 1109.18V1074.29H27.6536V1109.18H61.6259ZM26.5927 1109.18V1074.29H-7.37762V1109.18H26.5927ZM-8.4386 1109.18V1074.29H-42.4108V1109.18H-8.4386ZM-43.4718 1109.18V1074.29H-77.444V1109.18H-43.4718ZM-78.505 1109.18V1074.29H-112.477V1109.18H-78.505ZM-113.538 1109.18V1074.29L-147.508 1074.29V1109.18L-113.538 1109.18ZM-148.569 1109.18V1074.29H-182.542V1109.18H-148.569ZM-183.603 1109.18V1074.29H-217.575V1109.18H-183.603ZM-218.636 1109.18V1074.29L-252.606 1074.29V1109.18L-218.636 1109.18ZM-252.606 1073.23L-218.636 1073.23V1038.36L-252.606 1038.36V1073.23ZM-252.606 1037.29L-218.636 1037.29V1002.41L-252.606 1002.41V1037.29ZM-252.606 1001.35L-218.636 1001.35V966.473H-252.606V1001.35ZM-252.606 965.412H-218.636V930.531H-252.606V965.412ZM-252.606 929.47H-218.636V894.586H-252.606V929.47ZM-252.606 893.525H-218.636V858.648H-252.606V893.525ZM-252.606 857.587H-218.636V822.703H-252.606V857.587ZM-252.606 821.642H-218.636V786.758H-252.606V821.642ZM-252.606 785.697H-218.636V750.82H-252.606V785.697ZM-252.606 749.759H-218.636V714.879H-252.606V749.759ZM-252.606 713.818H-218.636V678.938H-252.606V713.818ZM-252.606 677.877H-218.636V642.996H-252.606V677.877ZM-252.606 641.935H-218.636V607.047H-252.606V641.935ZM-252.606 605.986H-218.636V571.109H-252.606V605.986ZM-252.606 570.048H-218.636V535.168H-252.606V570.048ZM-252.606 534.107H-218.636V499.223H-252.606V534.107ZM-252.606 498.162H-218.636L-218.636 463.285H-252.606L-252.606 498.162ZM-252.606 462.224H-218.636V427.34H-252.606V462.224ZM-252.606 426.279H-218.636V391.402H-252.606V426.279ZM-252.606 390.341H-218.636V355.457H-252.606V390.341ZM-252.606 354.396H-218.636V319.512H-252.606V354.396ZM-252.606 318.451H-218.636V283.574H-252.606V318.451ZM-252.606 282.513H-218.636V247.629H-252.606V282.513ZM-252.606 246.568H-218.636V211.684H-252.606V246.568ZM-252.606 210.623H-218.636V175.746H-252.606V210.623ZM-252.606 174.685H-218.636V139.805H-252.606V174.685ZM-252.606 138.744H-218.636V103.863H-252.606V138.744ZM-252.606 102.802H-218.636V67.9219H-252.606V102.802ZM-252.606 66.8608H-218.636V31.9727H-252.606V66.8608ZM-252.606 30.9116H-218.636V-3.96094H-252.606V30.9116ZM-252.606 -5.02197H-218.636V-39.9062H-252.606V-5.02197ZM-252.606 -40.9673H-218.636V-75.8516H-252.606V-40.9673ZM-252.606 -76.9126H-218.636V-111.789H-252.606V-76.9126ZM-252.606 -112.85H-218.636V-147.734H-252.606V-112.85ZM-217.575 -147.734V-112.85H-183.603V-147.734H-217.575ZM-182.542 -147.734V-112.85L-148.569 -112.85V-147.734H-182.542ZM-147.508 -147.734V-112.85H-113.538V-147.734H-147.508ZM-112.477 -147.734V-112.85H-78.5049V-147.734H-112.477ZM-77.444 -147.734V-112.85H-43.4717V-147.734H-77.444ZM-42.4108 -147.734V-112.85H-8.43854V-147.734H-42.4108ZM-7.37756 -147.734V-112.85H26.5927V-147.734H-7.37756ZM27.6537 -147.734V-112.85H61.6259V-147.734H27.6537ZM62.6869 -147.734V-112.85H96.6591V-147.734H62.6869ZM97.7201 -147.734V-112.85H131.692V-147.734L97.7201 -147.734ZM132.753 -147.734V-112.85H166.724V-147.734H132.753ZM167.785 -147.734V-112.85H201.757V-147.734H167.785ZM202.818 -147.734V-112.85H236.79V-147.734H202.818ZM237.851 -147.734V-112.85H271.823V-147.734H237.851ZM272.884 -147.734V-112.85H306.854V-147.734H272.884ZM307.915 -147.734V-112.85H341.888V-147.734H307.915ZM342.949 -147.734V-112.85L376.921 -112.85V-147.734H342.949ZM377.982 -147.734V-112.85H411.952V-147.734H377.982ZM413.013 -147.734V-112.85H446.985V-147.734H413.013ZM448.046 -147.734V-112.85H482.018V-147.734H448.046ZM482.018 -111.789H448.046L448.046 -76.9124H482.018L482.018 -111.789ZM482.018 -75.8514H448.046V-40.967H482.018V-75.8514ZM482.018 -39.9061H448.046V-5.02173H482.018V-39.9061ZM482.018 -3.96082H448.046V30.9119H482.018V-3.96082ZM482.018 31.9728H448.046V66.8611H482.018V31.9728ZM482.018 67.922H448.046V102.802H482.018V67.922ZM482.018 103.863H448.046V138.744H482.018V103.863ZM482.018 139.805H448.046V174.685H482.018V139.805ZM482.018 175.746H448.046V210.623H482.018V175.746ZM482.018 211.684H448.046V246.568H482.018V211.684ZM482.018 247.629H448.046V282.513H482.018V247.629ZM482.018 283.574H448.046L448.046 318.451H482.018L482.018 283.574ZM482.018 319.512H448.046V354.396H482.018V319.512ZM482.018 355.457H448.046V390.341H482.018V355.457ZM482.018 391.402H448.046V426.279H482.018V391.402ZM482.018 427.34H448.046V462.224H482.018V427.34ZM482.018 463.285H448.046V498.162H482.018V463.285ZM482.018 499.223H448.046V534.107H482.018V499.223ZM482.018 535.168H448.046V570.049H482.018V535.168ZM482.018 571.109H448.046V605.986H482.018V571.109ZM482.018 607.047H448.046V641.935H482.018V607.047ZM482.018 642.996H448.046L448.046 677.877H482.018L482.018 642.996ZM482.018 678.938H448.046V713.818H482.018V678.938ZM482.018 714.879H448.046V749.759H482.018V714.879ZM482.018 750.82H448.046V785.697H482.018V750.82ZM482.018 786.758H448.046V821.642H482.018V786.758ZM482.018 822.703H448.046V857.588H482.018V822.703ZM482.018 858.649H448.046V893.525H482.018V858.649ZM482.018 894.586H448.046V929.47H482.018V894.586ZM482.018 930.531H448.046V965.412H482.018V930.531ZM482.018 966.473H448.046V1001.35L482.018 1001.35V966.473ZM482.018 1002.41L448.046 1002.41V1037.29L482.018 1037.29V1002.41ZM482.018 1038.36L448.046 1038.36L448.046 1073.23L482.018 1073.23L482.018 1038.36ZM446.985 1073.23L446.985 1038.36H413.013L413.013 1073.23H446.985ZM411.952 1073.23L411.952 1038.36H377.982L377.982 1073.23H411.952ZM376.921 1073.23L376.921 1038.36H342.949V1073.23H376.921ZM341.888 1073.23V1038.36L307.915 1038.36V1073.23L341.888 1073.23ZM306.854 1073.23V1038.36H272.884V1073.23H306.854ZM271.823 1073.23V1038.36H237.851V1073.23H271.823ZM236.79 1073.23V1038.36L202.818 1038.36V1073.23L236.79 1073.23ZM201.757 1073.23V1038.36H167.784V1073.23H201.757ZM166.724 1073.23V1038.36H132.753V1073.23H166.724ZM131.692 1073.23V1038.36L97.72 1038.36V1073.23L131.692 1073.23ZM96.6591 1073.23V1038.36H62.6868V1073.23H96.6591ZM61.6259 1073.23V1038.36H27.6536V1073.23H61.6259ZM26.5927 1073.23V1038.36H-7.37762V1073.23H26.5927ZM-8.4386 1073.23V1038.36H-42.4108V1073.23H-8.4386ZM-43.4718 1073.23V1038.36H-77.444V1073.23H-43.4718ZM-78.505 1073.23V1038.36H-112.477V1073.23H-78.505ZM-113.538 1073.23V1038.36L-147.508 1038.36V1073.23L-113.538 1073.23ZM-148.569 1073.23V1038.36H-182.542V1073.23H-148.569ZM-183.603 1073.23V1038.36H-217.575V1073.23H-183.603ZM-217.575 1037.29H-183.603V1002.41H-217.575V1037.29ZM-217.575 1001.35H-183.603V966.473H-217.575V1001.35ZM-217.575 965.412H-183.603V930.531H-217.575V965.412ZM-217.575 929.47H-183.603V894.586H-217.575V929.47ZM-217.575 893.525H-183.603V858.648H-217.575V893.525ZM-217.575 857.587H-183.603V822.703H-217.575V857.587ZM-217.575 821.642H-183.603V786.758H-217.575V821.642ZM-217.575 785.697H-183.603V750.82H-217.575V785.697ZM-217.575 749.759H-183.603V714.879H-217.575V749.759ZM-217.575 713.818H-183.603V678.938H-217.575V713.818ZM-217.575 677.877H-183.603V642.996H-217.575V677.877ZM-217.575 641.935H-183.603V607.047H-217.575V641.935ZM-217.575 605.986H-183.603V571.109H-217.575V605.986ZM-217.575 570.048H-183.603V535.168H-217.575V570.048ZM-217.575 534.107H-183.603V499.223H-217.575V534.107ZM-217.575 498.162H-183.603L-183.603 463.285H-217.575L-217.575 498.162ZM-217.575 462.224H-183.603V427.34H-217.575V462.224ZM-217.575 426.279H-183.603V391.402H-217.575V426.279ZM-217.575 390.341H-183.603V355.457H-217.575V390.341ZM-217.575 354.396H-183.603V319.512H-217.575V354.396ZM-217.575 318.451H-183.603V283.574H-217.575V318.451ZM-217.575 282.513H-183.603V247.629H-217.575V282.513ZM-217.575 246.568H-183.603V211.684H-217.575V246.568ZM-217.575 210.623H-183.603V175.746H-217.575V210.623ZM-217.575 174.685H-183.603V139.805H-217.575V174.685ZM-217.575 138.744H-183.603V103.863H-217.575V138.744ZM-217.575 102.802H-183.603V67.9219H-217.575V102.802ZM-217.575 66.8608H-183.603V31.9727H-217.575V66.8608ZM-217.575 30.9116H-183.603V-3.96094H-217.575V30.9116ZM-217.575 -5.02197H-183.603V-39.9062H-217.575V-5.02197ZM-217.575 -40.9673H-183.603V-75.8516H-217.575V-40.9673ZM-217.575 -76.9126H-183.603V-111.789H-217.575V-76.9126ZM-182.542 -111.789V-76.9126L-148.569 -76.9125V-111.789H-182.542ZM-147.508 -111.789V-76.9125H-113.538V-111.789H-147.508ZM-112.477 -111.789V-76.9125H-78.5049V-111.789H-112.477ZM-77.444 -111.789V-76.9125H-43.4717V-111.789H-77.444ZM-42.4108 -111.789V-76.9125H-8.43854V-111.789H-42.4108ZM-7.37756 -111.789V-76.9125H26.5927V-111.789H-7.37756ZM27.6537 -111.789V-76.9125H61.6259V-111.789H27.6537ZM62.6869 -111.789V-76.9125H96.6591V-111.789H62.6869ZM97.7201 -111.789V-76.9125H131.692V-111.789L97.7201 -111.789ZM132.753 -111.789V-76.9125H166.724V-111.789H132.753ZM167.785 -111.789V-76.9125H201.757V-111.789H167.785ZM202.818 -111.789V-76.9125H236.79V-111.789H202.818ZM237.851 -111.789V-76.9125H271.823V-111.789H237.851ZM272.884 -111.789V-76.9125H306.854V-111.789H272.884ZM307.915 -111.789V-76.9125H341.888V-111.789H307.915ZM342.949 -111.789V-76.9125L376.921 -76.9124L376.921 -111.789H342.949ZM377.982 -111.789L377.982 -76.9124H411.952L411.952 -111.789H377.982ZM413.013 -111.789L413.013 -76.9124H446.985L446.985 -111.789H413.013ZM446.985 -75.8514H413.013V-40.967H446.985V-75.8514ZM446.985 -39.9061H413.013V-5.02173H446.985V-39.9061ZM446.985 -3.96082H413.013V30.9119H446.985V-3.96082ZM446.985 31.9728H413.013V66.8611H446.985V31.9728ZM446.985 67.922H413.013V102.802H446.985V67.922ZM446.985 103.863H413.013V138.744H446.985V103.863ZM446.985 139.805H413.013V174.685H446.985V139.805ZM446.985 175.746H413.013V210.623H446.985V175.746ZM446.985 211.684H413.013V246.568H446.985V211.684ZM446.985 247.629H413.013V282.513H446.985V247.629ZM446.985 283.574H413.013L413.013 318.451H446.985L446.985 283.574ZM446.985 319.512H413.013V354.396H446.985V319.512ZM446.985 355.457H413.013V390.341H446.985V355.457ZM446.985 391.402H413.013V426.279H446.985V391.402ZM446.985 427.34H413.013V462.224H446.985V427.34ZM446.985 463.285H413.013V498.162H446.985V463.285ZM446.985 499.223H413.013V534.107H446.985V499.223ZM446.985 535.168H413.013V570.049H446.985V535.168ZM446.985 571.109H413.013V605.986H446.985V571.109ZM446.985 607.047H413.013V641.935H446.985V607.047ZM446.985 642.996H413.013L413.013 677.877H446.985L446.985 642.996ZM446.985 678.938H413.013V713.818H446.985V678.938ZM446.985 714.879H413.013V749.759H446.985V714.879ZM446.985 750.82H413.013V785.697H446.985V750.82ZM446.985 786.758H413.013V821.642H446.985V786.758ZM446.985 822.703H413.013V857.588H446.985V822.703ZM446.985 858.649H413.013V893.525H446.985V858.649ZM446.985 894.586H413.013V929.47H446.985V894.586ZM446.985 930.531H413.013V965.412H446.985V930.531ZM446.985 966.473H413.013V1001.35H446.985V966.473ZM446.985 1002.41H413.013V1037.29H446.985V1002.41ZM411.952 1037.29V1002.41H377.982V1037.29H411.952ZM376.921 1037.29V1002.41H342.949V1037.29H376.921ZM341.888 1037.29V1002.41L307.915 1002.41V1037.29L341.888 1037.29ZM306.854 1037.29V1002.41H272.884V1037.29H306.854ZM271.823 1037.29V1002.41H237.851V1037.29H271.823ZM236.79 1037.29V1002.41L202.818 1002.41V1037.29L236.79 1037.29ZM201.757 1037.29V1002.41H167.784V1037.29H201.757ZM166.724 1037.29V1002.41H132.753V1037.29H166.724ZM131.692 1037.29V1002.41L97.72 1002.41V1037.29L131.692 1037.29ZM96.6591 1037.29V1002.41H62.6868V1037.29H96.6591ZM61.6259 1037.29V1002.41H27.6536V1037.29H61.6259ZM26.5927 1037.29V1002.41H-7.37762V1037.29H26.5927ZM-8.4386 1037.29V1002.41H-42.4108V1037.29H-8.4386ZM-43.4718 1037.29V1002.41H-77.444V1037.29H-43.4718ZM-78.505 1037.29V1002.41H-112.477V1037.29H-78.505ZM-113.538 1037.29V1002.41L-147.508 1002.41V1037.29L-113.538 1037.29ZM-148.569 1037.29V1002.41H-182.542V1037.29H-148.569ZM-182.542 1001.35H-148.569V966.473H-182.542V1001.35ZM-182.542 965.412H-148.569V930.531H-182.542V965.412ZM-182.542 929.47H-148.569V894.586H-182.542V929.47ZM-182.542 893.525H-148.569V858.648H-182.542V893.525ZM-182.542 857.587H-148.569V822.703H-182.542V857.587ZM-182.542 821.642H-148.569V786.758H-182.542V821.642ZM-182.542 785.697H-148.569V750.82H-182.542V785.697ZM-182.542 749.759H-148.569V714.879L-182.542 714.879V749.759ZM-182.542 713.818L-148.569 713.818V678.938L-182.542 678.938V713.818ZM-182.542 677.877L-148.569 677.877V642.996L-182.542 642.996V677.877ZM-182.542 641.935L-148.569 641.935V607.047L-182.542 607.047V641.935ZM-182.542 605.986L-148.569 605.986V571.109L-182.542 571.109V605.986ZM-182.542 570.048L-148.569 570.048V535.168L-182.542 535.168V570.048ZM-182.542 534.107L-148.569 534.107V499.223L-182.542 499.223V534.107ZM-182.542 498.162L-148.569 498.162L-148.569 463.285L-182.542 463.285L-182.542 498.162ZM-182.542 462.224L-148.569 462.224V427.34L-182.542 427.34V462.224ZM-182.542 426.279L-148.569 426.279V391.402L-182.542 391.402V426.279ZM-182.542 390.341L-148.569 390.341V355.457L-182.542 355.457V390.341ZM-182.542 354.396L-148.569 354.396V319.512L-182.542 319.512V354.396ZM-182.542 318.451L-148.569 318.451V283.574L-182.542 283.574V318.451ZM-182.542 282.513L-148.569 282.513V247.629L-182.542 247.629V282.513ZM-182.542 246.568L-148.569 246.568V211.684H-182.542V246.568ZM-182.542 210.623L-148.569 210.623V175.746H-182.542V210.623ZM-182.542 174.685L-148.569 174.685V139.805H-182.542V174.685ZM-182.542 138.744L-148.569 138.744V103.863H-182.542V138.744ZM-182.542 102.802L-148.569 102.802V67.9219H-182.542V102.802ZM-182.542 66.8608L-148.569 66.861V31.9727H-182.542V66.8608ZM-182.542 30.9116L-148.569 30.9117V-3.96094H-182.542V30.9116ZM-182.542 -5.02197L-148.569 -5.02185V-39.9062H-182.542V-5.02197ZM-182.542 -40.9673L-148.569 -40.9672V-75.8516H-182.542V-40.9673ZM-147.508 -75.8516V-40.9672H-113.538V-75.8516H-147.508ZM-112.477 -75.8516V-40.9672H-78.5049V-75.8516H-112.477ZM-77.444 -75.8516V-40.9672H-43.4717V-75.8516H-77.444ZM-42.4108 -75.8516V-40.9672H-8.43854V-75.8516H-42.4108ZM-7.37756 -75.8516V-40.9672H26.5927V-75.8516H-7.37756ZM27.6537 -75.8516V-40.9672H61.6259V-75.8516H27.6537ZM62.6869 -75.8516V-40.9672H96.6591V-75.8516H62.6869ZM97.7201 -75.8516V-40.9672H131.692V-75.8514L97.7201 -75.8516ZM132.753 -75.8514V-40.9672H166.724V-75.8514H132.753ZM167.785 -75.8514V-40.9672H201.757V-75.8514H167.785ZM202.818 -75.8514V-40.9672H236.79V-75.8514H202.818ZM237.851 -75.8514V-40.9672H271.823V-75.8514H237.851ZM272.884 -75.8514V-40.9672H306.854V-75.8514H272.884ZM307.915 -75.8514V-40.9672H341.888V-75.8514H307.915ZM342.949 -75.8514V-40.9672L376.921 -40.967V-75.8514H342.949ZM377.982 -75.8514V-40.967H411.952V-75.8514H377.982ZM411.952 -39.9061H377.982V-5.02173H411.952V-39.9061ZM411.952 -3.96082H377.982V30.9119H411.952V-3.96082ZM411.952 31.9728H377.982V66.8611H411.952V31.9728ZM411.952 67.922H377.982V102.802H411.952V67.922ZM411.952 103.863H377.982V138.744H411.952V103.863ZM411.952 139.805H377.982V174.685H411.952V139.805ZM411.952 175.746H377.982V210.623H411.952V175.746ZM411.952 211.684H377.982V246.568H411.952V211.684ZM411.952 247.629H377.982V282.513H411.952V247.629ZM411.952 283.574H377.982L377.982 318.451H411.952L411.952 283.574ZM411.952 319.512H377.982V354.396H411.952V319.512ZM411.952 355.457H377.982V390.341H411.952V355.457ZM411.952 391.402H377.982V426.279H411.952V391.402ZM411.952 427.34H377.982V462.224H411.952V427.34ZM411.952 463.285H377.982V498.162H411.952V463.285ZM411.952 499.223H377.982V534.107H411.952V499.223ZM411.952 535.168H377.982V570.049H411.952V535.168ZM411.952 571.109H377.982V605.986H411.952V571.109ZM411.952 607.047H377.982V641.935H411.952V607.047ZM411.952 642.996H377.982L377.982 677.877H411.952L411.952 642.996ZM411.952 678.938H377.982V713.818H411.952V678.938ZM411.952 714.879H377.982V749.759H411.952V714.879ZM411.952 750.82H377.982V785.697H411.952V750.82ZM411.952 786.758H377.982V821.642H411.952V786.758ZM411.952 822.703H377.982V857.588H411.952V822.703ZM411.952 858.649H377.982V893.525H411.952V858.649ZM411.952 894.586H377.982V929.47H411.952V894.586ZM411.952 930.531H377.982V965.412H411.952V930.531ZM411.952 966.473H377.982V1001.35H411.952V966.473ZM376.921 1001.35V966.473H342.949V1001.35H376.921ZM341.888 1001.35V966.473H307.915V1001.35L341.888 1001.35ZM306.854 1001.35V966.473H272.884V1001.35H306.854ZM271.823 1001.35V966.473H237.851V1001.35H271.823ZM236.79 1001.35V966.473L202.818 966.473V1001.35L236.79 1001.35ZM201.757 1001.35V966.473H167.784V1001.35H201.757ZM166.724 1001.35V966.473H132.753V1001.35H166.724ZM131.692 1001.35V966.473H97.72V1001.35L131.692 1001.35ZM96.6591 1001.35V966.473H62.6868V1001.35H96.6591ZM61.6259 1001.35V966.473H27.6536V1001.35H61.6259ZM26.5927 1001.35V966.473H-7.37762V1001.35H26.5927ZM-8.4386 1001.35V966.473L-42.4108 966.473V1001.35H-8.4386ZM-43.4718 1001.35V966.473H-77.444V1001.35H-43.4718ZM-78.505 1001.35V966.473H-112.477V1001.35H-78.505ZM-113.538 1001.35V966.473H-147.508V1001.35L-113.538 1001.35ZM-147.508 965.412H-113.538V930.531H-147.508V965.412ZM-147.508 929.47H-113.538V894.586H-147.508V929.47ZM-147.508 893.525H-113.538V858.648H-147.508V893.525ZM-147.508 857.587H-113.538V822.703H-147.508V857.587ZM-147.508 821.642H-113.538V786.758H-147.508V821.642ZM-147.508 785.697H-113.538V750.82H-147.508V785.697ZM-147.508 749.759H-113.538V714.879H-147.508V749.759ZM-147.508 713.818H-113.538V678.938H-147.508V713.818ZM-147.508 677.877H-113.538V642.996H-147.508V677.877ZM-147.508 641.935H-113.538V607.047H-147.508V641.935ZM-147.508 605.986H-113.538V571.109H-147.508V605.986ZM-147.508 570.048H-113.538V535.168H-147.508V570.048ZM-147.508 534.107H-113.538V499.223H-147.508V534.107ZM-147.508 498.162H-113.538L-113.538 463.285H-147.508L-147.508 498.162ZM-147.508 462.224H-113.538V427.34H-147.508V462.224ZM-147.508 426.279H-113.538V391.402H-147.508V426.279ZM-147.508 390.341H-113.538V355.457H-147.508V390.341ZM-147.508 354.396H-113.538V319.512H-147.508V354.396ZM-147.508 318.451H-113.538V283.574H-147.508V318.451ZM-147.508 282.513H-113.538V247.629H-147.508V282.513ZM-147.508 246.568H-113.538V211.684H-147.508V246.568ZM-147.508 210.623H-113.538V175.746H-147.508V210.623ZM-147.508 174.685H-113.538V139.805H-147.508V174.685ZM-147.508 138.744H-113.538V103.863H-147.508V138.744ZM-147.508 102.802H-113.538V67.9219H-147.508V102.802ZM-147.508 66.861H-113.538V31.9727H-147.508V66.861ZM-147.508 30.9117H-113.538V-3.96094H-147.508V30.9117ZM-147.508 -5.02185H-113.538V-39.9062H-147.508V-5.02185ZM-112.477 -39.9062V-5.02185H-78.5049V-39.9062H-112.477ZM-77.444 -39.9062V-5.02185H-43.4717V-39.9062H-77.444ZM-42.4108 -39.9062V-5.02185H-8.43854V-39.9062H-42.4108ZM-7.37756 -39.9062V-5.02185H26.5927V-39.9062H-7.37756ZM27.6537 -39.9062V-5.02185H61.6259V-39.9062H27.6537ZM62.6869 -39.9062V-5.02185H96.6591V-39.9062H62.6869ZM97.7201 -39.9062V-5.02185H131.692V-39.9061L97.7201 -39.9062ZM132.753 -39.9061V-5.02185H166.724V-39.9061H132.753ZM167.785 -39.9061V-5.02185H201.757V-39.9061H167.785ZM202.818 -39.9061V-5.02185H236.79V-39.9061H202.818ZM237.851 -39.9061V-5.02185H271.823V-39.9061H237.851ZM272.884 -39.9061V-5.02185H306.854V-39.9061H272.884ZM307.915 -39.9061V-5.02185H341.888V-39.9061H307.915ZM342.949 -39.9061V-5.02185L376.921 -5.02173V-39.9061H342.949ZM376.921 -3.96082H342.949V30.9117L376.921 30.9119V-3.96082ZM376.921 31.9728H342.949V66.861L376.921 66.8611V31.9728ZM376.921 67.922H342.949L342.949 102.802L376.921 102.802V67.922ZM376.921 103.863H342.949V138.744L376.921 138.744V103.863ZM376.921 139.805H342.949V174.685L376.921 174.685V139.805ZM376.921 175.746H342.949V210.623L376.921 210.623V175.746ZM376.921 211.684H342.949V246.568L376.921 246.568V211.684ZM376.921 247.629L342.949 247.629V282.513L376.921 282.513V247.629ZM376.921 283.574L342.949 283.574V318.451L376.921 318.451L376.921 283.574ZM376.921 319.512L342.949 319.512V354.396L376.921 354.396V319.512ZM376.921 355.457L342.949 355.457V390.341L376.921 390.341V355.457ZM376.921 391.402L342.949 391.402V426.279L376.921 426.279V391.402ZM376.921 427.34L342.949 427.34V462.224L376.921 462.224V427.34ZM376.921 463.285L342.949 463.285V498.162L376.921 498.162V463.285ZM376.921 499.223L342.949 499.223V534.107L376.921 534.107V499.223ZM376.921 535.168L342.949 535.168V570.048L376.921 570.049V535.168ZM376.921 571.109L342.949 571.109V605.986L376.921 605.986V571.109ZM376.921 607.047L342.949 607.047V641.935L376.921 641.935V607.047ZM376.921 642.996L342.949 642.996V677.877L376.921 677.877L376.921 642.996ZM376.921 678.938L342.949 678.938V713.818L376.921 713.818V678.938ZM376.921 714.879L342.949 714.879V749.759H376.921V714.879ZM376.921 750.82H342.949V785.697H376.921V750.82ZM376.921 786.758H342.949V821.642H376.921V786.758ZM376.921 822.703H342.949V857.588H376.921V822.703ZM376.921 858.649H342.949V893.525H376.921V858.649ZM376.921 894.586H342.949V929.47H376.921V894.586ZM376.921 930.531H342.949V965.412H376.921V930.531ZM341.888 965.412V930.531H307.915V965.412H341.888ZM306.854 965.412V930.531H272.884V965.412H306.854ZM271.823 965.412V930.531H237.851V965.412H271.823ZM236.79 965.412V930.531L202.818 930.531V965.412L236.79 965.412ZM201.757 965.412V930.531H167.784V965.412H201.757ZM166.724 965.412V930.531H132.753V965.412H166.724ZM131.692 965.412V930.531H97.72V965.412H131.692ZM96.6591 965.412V930.531H62.6868V965.412H96.6591ZM61.6259 965.412V930.531H27.6536V965.412H61.6259ZM26.5927 965.412V930.531H-7.37762V965.412H26.5927ZM-8.4386 965.412V930.531L-42.4108 930.531V965.412L-8.4386 965.412ZM-43.4718 965.412V930.531H-77.444V965.412H-43.4718ZM-78.505 965.412V930.531H-112.477V965.412H-78.505ZM-112.477 929.47H-78.505V894.586H-112.477V929.47ZM-112.477 893.525H-78.505V858.648H-112.477V893.525ZM-112.477 857.587H-78.505V822.703H-112.477V857.587ZM-112.477 821.642H-78.505V786.758H-112.477V821.642ZM-112.477 785.697H-78.505V750.82H-112.477V785.697ZM-112.477 749.759H-78.505V714.879H-112.477V749.759ZM-112.477 713.818H-78.505V678.938H-112.477V713.818ZM-112.477 677.877H-78.505V642.996H-112.477V677.877ZM-112.477 641.935H-78.505V607.047H-112.477V641.935ZM-112.477 605.986H-78.505V571.109H-112.477V605.986ZM-112.477 570.048H-78.505V535.168H-112.477V570.048ZM-112.477 534.107H-78.505V499.223H-112.477V534.107ZM-112.477 498.162H-78.505L-78.5049 463.285H-112.477L-112.477 498.162ZM-112.477 462.224H-78.5049V427.34H-112.477V462.224ZM-112.477 426.279H-78.5049V391.402H-112.477V426.279ZM-112.477 390.341H-78.5049V355.457H-112.477V390.341ZM-112.477 354.396H-78.5049V319.512H-112.477V354.396ZM-112.477 318.451H-78.5049V283.574H-112.477V318.451ZM-112.477 282.513H-78.5049V247.629H-112.477V282.513ZM-112.477 246.568H-78.5049V211.684H-112.477V246.568ZM-112.477 210.623H-78.5049V175.746H-112.477V210.623ZM-112.477 174.685H-78.5049V139.805H-112.477V174.685ZM-112.477 138.744H-78.5049V103.863H-112.477V138.744ZM-112.477 102.802H-78.5049V67.9219H-112.477V102.802ZM-112.477 66.861H-78.5049V31.9727H-112.477V66.861ZM-112.477 30.9117H-78.5049V-3.96094H-112.477V30.9117ZM-77.444 -3.96094V30.9117H-43.4717V-3.96094H-77.444ZM-42.4108 -3.96094V30.9117H-8.43854V-3.96094H-42.4108ZM-7.37756 -3.96094V30.9117H26.5927V-3.96094H-7.37756ZM27.6537 -3.96094V30.9117H61.6259V-3.96094H27.6537ZM62.6869 -3.96094V30.9117H96.6591V-3.96094H62.6869ZM97.7201 -3.96094V30.9117H131.692V-3.96082L97.7201 -3.96094ZM132.753 -3.96082V30.9117H166.724V-3.96082H132.753ZM167.785 -3.96082V30.9117H201.757V-3.96082H167.785ZM202.818 -3.96082V30.9117H236.79V-3.96082H202.818ZM237.851 -3.96082V30.9117H271.823V-3.96082H237.851ZM272.884 -3.96082V30.9117H306.854V-3.96082H272.884ZM307.915 -3.96082V30.9117H341.888V-3.96082H307.915ZM341.888 31.9728H307.915V66.861H341.888V31.9728ZM341.888 67.922H307.915L307.915 102.802H341.888L341.888 67.922ZM341.888 103.863H307.915V138.744H341.888V103.863ZM341.888 139.805H307.915V174.685H341.888V139.805ZM341.888 175.746H307.915V210.623H341.888V175.746ZM341.888 211.684H307.915V246.568H341.888V211.684ZM341.888 247.629H307.915V282.513H341.888V247.629ZM341.888 283.574H307.915V318.451H341.888V283.574ZM341.888 319.512H307.915V354.396H341.888V319.512ZM341.888 355.457H307.915V390.341H341.888V355.457ZM341.888 391.402H307.915V426.279H341.888V391.402ZM341.888 427.34H307.915V462.224H341.888V427.34ZM341.888 463.285H307.915V498.162H341.888V463.285ZM341.888 499.223H307.915V534.107H341.888V499.223ZM341.888 535.168H307.915V570.048H341.888V535.168ZM341.888 571.109H307.915V605.986H341.888V571.109ZM341.888 607.047H307.915V641.935H341.888V607.047ZM341.888 642.996H307.915V677.877H341.888V642.996ZM341.888 678.938H307.915V713.818H341.888V678.938ZM341.888 714.879H307.915V749.759H341.888V714.879ZM341.888 750.82H307.915V785.697H341.888V750.82ZM341.888 786.758H307.915V821.642H341.888V786.758ZM341.888 822.703H307.915V857.588H341.888V822.703ZM341.888 858.649H307.915V893.525H341.888V858.649ZM341.888 894.586H307.915V929.47H341.888V894.586ZM306.854 929.47V894.586H272.884V929.47H306.854ZM271.823 929.47V894.586H237.851V929.47H271.823ZM236.79 929.47V894.586L202.818 894.586V929.47L236.79 929.47ZM201.757 929.47V894.586H167.784V929.47H201.757ZM166.724 929.47V894.586H132.753V929.47H166.724ZM131.692 929.47V894.586H97.72V929.47H131.692ZM96.6591 929.47V894.586H62.6868V929.47H96.6591ZM61.6259 929.47V894.586H27.6536V929.47H61.6259ZM26.5927 929.47V894.586H-7.37762V929.47H26.5927ZM-8.4386 929.47V894.586L-42.4108 894.586V929.47L-8.4386 929.47ZM-43.4718 929.47V894.586H-77.444V929.47H-43.4718ZM-77.444 893.525H-43.4718V858.648H-77.444V893.525ZM-77.444 857.587H-43.4718V822.703H-77.444V857.587ZM-77.444 821.642H-43.4718V786.758H-77.444V821.642ZM-77.444 785.697H-43.4718V750.82H-77.444V785.697ZM-77.444 749.759H-43.4718V714.879H-77.444V749.759ZM-77.444 713.818H-43.4718V678.938H-77.444V713.818ZM-77.444 677.877H-43.4718V642.996H-77.444V677.877ZM-77.444 641.935H-43.4718V607.047H-77.444V641.935ZM-77.444 605.986H-43.4718V571.109H-77.444V605.986ZM-77.444 570.048H-43.4718V535.168H-77.444V570.048ZM-77.444 534.107H-43.4718V499.223H-77.444V534.107ZM-77.444 498.162H-43.4718L-43.4717 463.285H-77.444L-77.444 498.162ZM-77.444 462.224H-43.4717V427.34H-77.444V462.224ZM-77.444 426.279H-43.4717V391.402H-77.444V426.279ZM-77.444 390.341H-43.4717V355.457H-77.444V390.341ZM-77.444 354.396H-43.4717V319.512H-77.444V354.396ZM-77.444 318.451H-43.4717V283.574H-77.444V318.451ZM-77.444 282.513H-43.4717V247.629H-77.444V282.513ZM-77.444 246.568H-43.4717V211.684H-77.444V246.568ZM-77.444 210.623H-43.4717V175.746H-77.444V210.623ZM-77.444 174.685H-43.4717V139.805H-77.444V174.685ZM-77.444 138.744H-43.4717V103.863H-77.444V138.744ZM-77.444 102.802H-43.4717V67.9219H-77.444V102.802ZM-77.444 66.861H-43.4717V31.9727H-77.444V66.861ZM-42.4108 31.9727V66.861H-8.43854V31.9727H-42.4108ZM-7.37756 31.9727V66.861H26.5927V31.9727H-7.37756ZM27.6537 31.9727V66.861H61.6259V31.9727H27.6537ZM62.6869 31.9727V66.861H96.6591V31.9727H62.6869ZM97.7201 31.9727V66.861H131.692V31.9728L97.7201 31.9727ZM132.753 31.9728V66.861H166.724V31.9728H132.753ZM167.785 31.9728V66.861H201.757V31.9728H167.785ZM202.818 31.9728V66.861H236.79V31.9728H202.818ZM237.851 31.9728V66.861H271.823V31.9728H237.851ZM272.884 31.9728V66.861H306.854V31.9728H272.884ZM306.854 67.922H272.884L272.884 102.802H306.854L306.854 67.922ZM306.854 103.863H272.884V138.744H306.854V103.863ZM306.854 139.805H272.884V174.685H306.854V139.805ZM306.854 175.746H272.884V210.623H306.854V175.746ZM306.854 211.684H272.884V246.568H306.854V211.684ZM306.854 247.629H272.884V282.513H306.854V247.629ZM306.854 283.574H272.884V318.451H306.854V283.574ZM306.854 319.512H272.884V354.396H306.854V319.512ZM306.854 355.457H272.884V390.341H306.854V355.457ZM306.854 391.402H272.884V426.279H306.854V391.402ZM306.854 427.34H272.884V462.224H306.854V427.34ZM306.854 463.285H272.884V498.162H306.854V463.285ZM306.854 499.223H272.884V534.107H306.854V499.223ZM306.854 535.168H272.884V570.048H306.854V535.168ZM306.854 571.109H272.884V605.986H306.854V571.109ZM306.854 607.047H272.884V641.935H306.854V607.047ZM306.854 642.996H272.884V677.877H306.854V642.996ZM306.854 678.938H272.884V713.818H306.854V678.938ZM306.854 714.879H272.884V749.759H306.854V714.879ZM306.854 750.82H272.884V785.697H306.854V750.82ZM306.854 786.758H272.884V821.642H306.854V786.758ZM306.854 822.703H272.884V857.588H306.854V822.703ZM306.854 858.649H272.884V893.525H306.854V858.649ZM271.823 893.525V858.649H237.851V893.525H271.823ZM236.79 893.525V858.649L202.818 858.648V893.525L236.79 893.525ZM201.757 893.525V858.648H167.784V893.525H201.757ZM166.724 893.525V858.648H132.753V893.525H166.724ZM131.692 893.525V858.648H97.72V893.525H131.692ZM96.6591 893.525V858.648H62.6868V893.525H96.6591ZM61.6259 893.525V858.648H27.6536V893.525H61.6259ZM26.5927 893.525V858.648H-7.37762V893.525H26.5927ZM-8.4386 893.525V858.648L-42.4108 858.648V893.525L-8.4386 893.525ZM-42.4108 857.587L-8.4386 857.588V822.703L-42.4108 822.703V857.587ZM-42.4108 821.642L-8.4386 821.642V786.758L-42.4108 786.758V821.642ZM-42.4108 785.697L-8.4386 785.697V750.82L-42.4108 750.82V785.697ZM-42.4108 749.759L-8.4386 749.759V714.879H-42.4108V749.759ZM-42.4108 713.818H-8.4386V678.938H-42.4108V713.818ZM-42.4108 677.877H-8.4386V642.996H-42.4108V677.877ZM-42.4108 641.935H-8.4386V607.047H-42.4108V641.935ZM-42.4108 605.986H-8.4386V571.109H-42.4108V605.986ZM-42.4108 570.048H-8.4386V535.168H-42.4108V570.048ZM-42.4108 534.107H-8.4386V499.223H-42.4108V534.107ZM-42.4108 498.162H-8.4386L-8.43854 463.285H-42.4108L-42.4108 498.162ZM-42.4108 462.224H-8.43854V427.34H-42.4108V462.224ZM-42.4108 426.279H-8.43854V391.402H-42.4108V426.279ZM-42.4108 390.341H-8.43854V355.457H-42.4108V390.341ZM-42.4108 354.396H-8.43854V319.512H-42.4108V354.396ZM-42.4108 318.451H-8.43854V283.574H-42.4108V318.451ZM-42.4108 282.513H-8.43854V247.629H-42.4108V282.513ZM-42.4108 246.568H-8.43854V211.684H-42.4108V246.568ZM-42.4108 210.623H-8.43854V175.746H-42.4108V210.623ZM-42.4108 174.685H-8.43854V139.805H-42.4108V174.685ZM-42.4108 138.744H-8.43854V103.863H-42.4108V138.744ZM-42.4108 102.802H-8.43854V67.9219H-42.4108V102.802ZM-7.37756 67.9219V102.802H26.5927V67.9219H-7.37756ZM27.6537 67.9219V102.802H61.6259V67.9219H27.6537ZM62.6869 67.9219V102.802H96.6591V67.9219H62.6869ZM97.7201 67.9219V102.802H131.692L131.692 67.922L97.7201 67.9219ZM132.753 67.922L132.753 102.802H166.724L166.724 67.922H132.753ZM167.785 67.922L167.785 102.802H201.757L201.757 67.922H167.785ZM202.818 67.922L202.818 102.802H236.79L236.79 67.922H202.818ZM237.851 67.922L237.851 102.802H271.823L271.823 67.922H237.851ZM271.823 103.863H237.851V138.744H271.823V103.863ZM271.823 139.805H237.851V174.685H271.823V139.805ZM271.823 175.746H237.851V210.623H271.823V175.746ZM271.823 211.684H237.851V246.568H271.823V211.684ZM271.823 247.629H237.851V282.513H271.823V247.629ZM271.823 283.574H237.851V318.451H271.823V283.574ZM271.823 319.512H237.851V354.396H271.823V319.512ZM271.823 355.457H237.851V390.341H271.823V355.457ZM271.823 391.402H237.851V426.279H271.823V391.402ZM271.823 427.34H237.851V462.224H271.823V427.34ZM271.823 463.285H237.851V498.162H271.823V463.285ZM271.823 499.223H237.851V534.107H271.823V499.223ZM271.823 535.168H237.851V570.048H271.823V535.168ZM271.823 571.109H237.851V605.986H271.823V571.109ZM271.823 607.047H237.851V641.935H271.823V607.047ZM271.823 642.996H237.851V677.877H271.823V642.996ZM271.823 678.938H237.851V713.818H271.823V678.938ZM271.823 714.879H237.851V749.759H271.823V714.879ZM271.823 750.82H237.851V785.697H271.823V750.82ZM271.823 786.758H237.851V821.642H271.823V786.758ZM271.823 822.703H237.851V857.588H271.823V822.703ZM236.79 857.588V822.703L202.818 822.703V857.588L236.79 857.588ZM201.757 857.588V822.703H167.785V857.588H201.757ZM166.724 857.588V822.703H132.753V857.588H166.724ZM131.692 857.588V822.703H97.72V857.588H131.692ZM96.6591 857.588V822.703H62.6868V857.588H96.6591ZM61.6259 857.588V822.703H27.6536V857.588H61.6259ZM26.5927 857.588V822.703H-7.37762V857.588H26.5927ZM-7.37762 821.642H26.5927V786.758H-7.37762V821.642ZM-7.37762 785.697H26.5927V750.82H-7.37762V785.697ZM-7.37762 749.759H26.5927V714.879H-7.37762V749.759ZM-7.37762 713.818H26.5927V678.938H-7.37762V713.818ZM-7.37762 677.877H26.5927V642.996H-7.37762V677.877ZM-7.37762 641.935H26.5927V607.047H-7.37762V641.935ZM-7.37762 605.986H26.5927V571.109H-7.37762V605.986ZM-7.37762 570.048H26.5927V535.168H-7.37762V570.048ZM-7.37762 534.107H26.5927V499.223H-7.37762V534.107ZM-7.37762 498.162H26.5927L26.5927 463.285H-7.37756L-7.37762 498.162ZM-7.37756 462.224H26.5927V427.34H-7.37756V462.224ZM-7.37756 426.279H26.5927V391.402H-7.37756V426.279ZM-7.37756 390.341H26.5927V355.457H-7.37756V390.341ZM-7.37756 354.396H26.5927V319.512H-7.37756V354.396ZM-7.37756 318.451H26.5927V283.574H-7.37756V318.451ZM-7.37756 282.513H26.5927V247.629H-7.37756V282.513ZM-7.37756 246.568H26.5927V211.684H-7.37756V246.568ZM-7.37756 210.623H26.5927V175.746H-7.37756V210.623ZM-7.37756 174.685H26.5927V139.805H-7.37756V174.685ZM-7.37756 138.744H26.5927V103.863H-7.37756V138.744ZM27.6537 103.863V138.744H61.6259V103.863H27.6537ZM62.6869 103.863V138.744H96.6591V103.863H62.6869ZM97.7201 103.863V138.744H131.692V103.863L97.7201 103.863ZM132.753 103.863V138.744H166.724V103.863H132.753ZM167.785 103.863V138.744H201.757V103.863H167.785ZM202.818 103.863V138.744H236.79V103.863H202.818ZM236.79 139.805H202.818V174.685H236.79V139.805ZM236.79 175.746H202.818V210.623H236.79V175.746ZM236.79 211.684H202.818V246.568H236.79V211.684ZM236.79 247.629H202.818V282.513H236.79V247.629ZM236.79 283.574H202.818V318.451H236.79V283.574ZM236.79 319.512H202.818V354.396H236.79V319.512ZM236.79 355.457H202.818V390.341H236.79V355.457ZM236.79 391.402H202.818V426.279H236.79V391.402ZM236.79 427.34H202.818V462.224H236.79V427.34ZM236.79 463.285H202.818V498.162H236.79V463.285ZM236.79 499.223H202.818V534.107H236.79V499.223ZM236.79 535.168H202.818V570.048H236.79V535.168ZM236.79 571.109H202.818V605.986H236.79V571.109ZM236.79 607.047H202.818V641.935H236.79V607.047ZM236.79 642.996H202.818V677.877H236.79V642.996ZM236.79 678.938H202.818V713.818H236.79V678.938ZM236.79 714.879H202.818V749.759L236.79 749.759V714.879ZM236.79 750.82L202.818 750.82V785.697L236.79 785.697V750.82ZM236.79 786.758L202.818 786.758V821.642L236.79 821.642V786.758ZM201.757 821.642V786.758H167.785V821.642H201.757ZM166.724 821.642V786.758H132.753V821.642H166.724ZM131.692 821.642V786.758H97.72V821.642H131.692ZM96.6591 821.642V786.758H62.6868V821.642H96.6591ZM61.6259 821.642V786.758H27.6536V821.642H61.6259ZM27.6536 785.697H61.6259V750.82H27.6536V785.697ZM27.6536 749.759H61.6259V714.879H27.6536V749.759ZM27.6536 713.818H61.6259V678.938H27.6536V713.818ZM27.6536 677.877H61.6259V642.996H27.6536V677.877ZM27.6536 641.935H61.6259V607.047H27.6536V641.935ZM27.6536 605.986H61.6259V571.109H27.6536V605.986ZM27.6536 570.048H61.6259V535.168H27.6536V570.048ZM27.6536 534.107H61.6259V499.223H27.6536V534.107ZM27.6536 498.162H61.6259L61.6259 463.285H27.6537L27.6536 498.162ZM27.6537 462.224H61.6259V427.34H27.6537V462.224ZM27.6537 426.279H61.6259V391.402H27.6537V426.279ZM27.6537 390.341H61.6259V355.457H27.6537V390.341ZM27.6537 354.396H61.6259V319.512H27.6537V354.396ZM27.6537 318.451H61.6259V283.574H27.6537V318.451ZM27.6537 282.513H61.6259V247.629H27.6537V282.513ZM27.6537 246.568H61.6259V211.684H27.6537V246.568ZM27.6537 210.623H61.6259V175.746H27.6537V210.623ZM27.6537 174.685H61.6259V139.805H27.6537V174.685ZM62.6869 139.805V174.685H96.6591V139.805H62.6869ZM97.7201 139.805V174.685H131.692V139.805L97.7201 139.805ZM132.753 139.805V174.685H166.724V139.805H132.753ZM167.785 139.805V174.685H201.757V139.805H167.785ZM201.757 175.746H167.785V210.623H201.757V175.746ZM201.757 211.684H167.785V246.568H201.757V211.684ZM201.757 247.629H167.785V282.513H201.757V247.629ZM201.757 283.574H167.785V318.451H201.757V283.574ZM201.757 319.512H167.785V354.396H201.757V319.512ZM201.757 355.457H167.785V390.341H201.757V355.457ZM201.757 391.402H167.785V426.279H201.757V391.402ZM201.757 427.34H167.785V462.224H201.757V427.34ZM201.757 463.285H167.785V498.162H201.757V463.285ZM201.757 499.223H167.785V534.107H201.757V499.223ZM201.757 535.168H167.785V570.048H201.757V535.168ZM201.757 571.109H167.785V605.986H201.757V571.109ZM201.757 607.047H167.785V641.935H201.757V607.047ZM201.757 642.996H167.785V677.877H201.757V642.996ZM201.757 678.938H167.785V713.818H201.757V678.938ZM201.757 714.879H167.785V749.759H201.757V714.879ZM201.757 750.82H167.785V785.697H201.757V750.82ZM166.724 785.697V750.82H132.753V785.697H166.724ZM131.692 785.697V750.82H97.72V785.697H131.692ZM96.6591 785.697V750.82H62.6868V785.697H96.6591ZM62.6868 749.759H96.6591V714.879H62.6868V749.759ZM62.6868 713.818H96.6591V678.938H62.6868V713.818ZM62.6868 677.877H96.6591V642.996H62.6868V677.877ZM62.6868 641.935H96.6591V607.047H62.6868V641.935ZM62.6868 605.986H96.6591V571.109H62.6868V605.986ZM62.6868 570.048H96.6591V535.168H62.6868V570.048ZM62.6868 534.107H96.6591V499.223H62.6868V534.107ZM62.6868 498.162H96.6591L96.6591 463.285H62.6869L62.6868 498.162ZM62.6869 462.224H96.6591V427.34H62.6869V462.224ZM62.6869 426.279H96.6591V391.402H62.6869V426.279ZM62.6869 390.341H96.6591V355.457H62.6869V390.341ZM62.6869 354.396H96.6591V319.512H62.6869V354.396ZM62.6869 318.451H96.6591V283.574H62.6869V318.451ZM62.6869 282.513H96.6591V247.629H62.6869V282.513ZM62.6869 246.568H96.6591V211.684H62.6869V246.568ZM62.6869 210.623H96.6591V175.746H62.6869V210.623ZM97.7201 175.746V210.623H131.692V175.746L97.7201 175.746ZM132.753 175.746V210.623H166.724V175.746H132.753ZM166.724 211.684H132.753V246.568H166.724V211.684ZM166.724 247.629H132.753V282.513H166.724V247.629ZM166.724 283.574H132.753V318.451H166.724V283.574ZM166.724 319.512H132.753V354.396H166.724V319.512ZM166.724 355.457H132.753V390.341H166.724V355.457ZM166.724 391.402H132.753V426.279H166.724V391.402ZM166.724 427.34H132.753V462.224H166.724V427.34ZM166.724 463.285H132.753V498.162H166.724V463.285ZM166.724 499.223H132.753V534.107H166.724V499.223ZM166.724 535.168H132.753V570.048H166.724V535.168ZM166.724 571.109H132.753V605.986H166.724V571.109ZM166.724 607.047H132.753V641.935H166.724V607.047ZM166.724 642.996H132.753V677.877H166.724V642.996ZM166.724 678.938H132.753V713.818H166.724V678.938ZM166.724 714.879H132.753V749.759H166.724V714.879ZM131.692 749.759V714.879H97.72V749.759H131.692ZM97.72 713.818H131.692V678.938H97.72V713.818ZM97.72 677.877H131.692V642.996H97.72V677.877ZM97.72 641.935H131.692V607.047H97.72V641.935ZM97.72 605.986H131.692V571.109H97.72V605.986ZM97.72 570.048H131.692V535.168H97.72V570.048ZM97.72 534.107H131.692V499.223H97.72V534.107ZM97.72 498.162H131.692V463.285H97.7201L97.72 498.162ZM97.7201 462.224H131.692V427.34H97.7201V462.224ZM97.7201 426.279H131.692V391.402H97.7201V426.279ZM97.7201 390.341H131.692V355.457H97.7201V390.341ZM97.7201 354.396H131.692V319.512H97.7201V354.396ZM97.7201 318.451H131.692V283.574H97.7201V318.451ZM97.7201 282.513H131.692V247.629H97.7201V282.513ZM97.7201 246.568H131.692V211.684L97.7201 211.684V246.568Z" fill="url(#paint0_linear_2125_3801)"/>
<defs>
<linearGradient id="paint0_linear_2125_3801" x1="146.721" y1="905.845" x2="-405.071" y2="297.795" gradientUnits="userSpaceOnUse">
<stop stop-opacity="0"/>
<stop offset="1"/>
</linearGradient>
</defs>
</svg>
