<svg width="39" height="39" viewBox="0 0 39 39" fill="none" xmlns="http://www.w3.org/2000/svg">
<g id="must-have 1">
<g id="Group">
<g id="Group_2">
<g id="Group_3">
<path id="Vector" fill-rule="evenodd" clip-rule="evenodd" d="M19.5 14.9196C23.4724 14.9196 26.6746 11.6972 26.6746 7.74494C26.6746 3.78248 23.4625 0.570312 19.5 0.570312C15.5375 0.570312 12.3254 3.78256 12.3254 7.74494C12.3254 11.6973 15.5276 14.9196 19.5 14.9196ZM18.8941 10.5727L16.0663 7.74502L17.6822 6.12918L18.8941 7.34108L21.3178 4.91729L22.9338 6.53312L18.8941 10.5727Z" fill="white"/>
<path id="Vector_2" fill-rule="evenodd" clip-rule="evenodd" d="M19.5 14.9216C16.7117 14.9216 14.295 13.3311 13.1076 11.0078H5.789V36.1446H33.211V11.0078H25.8925C24.7051 13.3311 22.2883 14.9216 19.5 14.9216Z" fill="#B6E6FA"/>
<path id="Vector_3" fill-rule="evenodd" clip-rule="evenodd" d="M19.5 14.9216C16.7117 14.9216 14.295 13.3311 13.1076 11.0078H11.229C12.5296 14.303 15.7428 16.6355 19.5 16.6355C23.2573 16.6355 26.4704 14.3029 27.771 11.0078H25.8925C24.7051 13.3311 22.2883 14.9216 19.5 14.9216ZM7.50287 11.0078H5.789V36.1446H7.50287V11.0078Z" fill="#54C9F3"/>
<path id="Vector_4" fill-rule="evenodd" clip-rule="evenodd" d="M5.789 11.0078H13.1074C12.7483 10.3052 12.5016 9.53556 12.3911 8.72266H4.64642C4.01801 8.72266 3.50385 9.23682 3.50385 9.86523V37.2872C3.50385 37.9156 4.01816 38.4298 4.64642 38.4298H34.3535C34.9819 38.4298 35.4961 37.9155 35.4961 37.2872V9.86523C35.4961 9.23689 34.9819 8.72266 34.3535 8.72266H26.6088C26.4983 9.53556 26.2516 10.3052 25.8925 11.0078H33.211V36.1446H5.789V11.0078Z" fill="#71E4BF"/>
<path id="Vector_5" fill-rule="evenodd" clip-rule="evenodd" d="M11.2289 11.0078H13.1074C12.7483 10.3052 12.5016 9.53556 12.3911 8.72266H10.665C10.7523 9.52079 10.9446 10.2874 11.2289 11.0078ZM28.3349 8.72266H26.6088C26.4983 9.53556 26.2516 10.3052 25.8925 11.0078H27.771C28.0553 10.2874 28.2476 9.52079 28.3349 8.72266Z" fill="#0BCC89"/>
<path id="Vector_6" fill-rule="evenodd" clip-rule="evenodd" d="M16.0663 7.7457L18.8941 10.5735L22.9337 6.5338L21.3178 4.91797L18.8941 7.34176L17.6822 6.12986L16.0663 7.7457Z" fill="#71E4BF"/>
<path id="Vector_7" fill-rule="evenodd" clip-rule="evenodd" d="M20.3569 14.8688C16.791 14.4448 14.0392 11.4089 14.0392 7.74517C14.0392 4.07277 16.7986 1.04524 20.3569 0.621651C16.0947 0.114346 12.3254 3.43057 12.3254 7.74517C12.3254 12.0599 16.0944 15.3755 20.3569 14.8688Z" fill="#9CE4F8"/>
</g>
<g id="Group_4">
<path id="Vector_8" d="M31.4971 13.8613H30.3546V12.7188H31.4971V13.8613ZM29.2119 13.8613H28.0693V12.7188H29.2119V13.8613Z" fill="white"/>
</g>
</g>
<g id="Group_5">
<path id="Vector_9" d="M18.894 6.53316L17.6822 5.32127L15.2584 7.74506L18.894 11.3807L23.7415 6.53316L21.3178 4.10938L18.894 6.53316ZM18.894 9.76491L16.8742 7.74506L17.6822 6.9371L18.894 8.14907L21.3178 5.72529L22.1257 6.53316L18.894 9.76491Z" fill="black"/>
<path id="Vector_10" d="M16.5311 31.4293L17.0248 30.1331H19.0132L19.502 31.4283L20.571 31.0249L18.517 25.582L17.5352 25.5829L15.4634 31.0226L16.5311 31.4293ZM18.0235 27.5107L18.582 28.9906H17.4599L18.0235 27.5107Z" fill="black"/>
<path id="Vector_11" d="M14.3249 31.3277V25.582H13.1823V27.8047H11.1395V25.582H9.99695V31.3277H11.1395V28.9472H13.1823V31.3277H14.3249Z" fill="black"/>
<path id="Vector_12" d="M25.9386 31.2857H29.0031V30.1431H27.0812V29.0052H28.8613V27.8626H27.0812V26.7246H29.0031V25.582H25.9386V31.2857Z" fill="black"/>
<path id="Vector_13" d="M21.9728 31.2614H22.9958L24.8087 25.8026L23.7244 25.4424L22.4731 29.2103L21.1669 25.4297L20.087 25.8028L21.9728 31.2614Z" fill="black"/>
<path id="Vector_14" d="M13.7641 18.1133L12.6584 18.1174L11.7337 21.4225L10.7579 18.115H9.65246L8.65765 23.6434L9.78218 23.8457L10.3411 20.74L11.2198 23.7184H12.2779L13.1126 20.7348L13.7223 23.8527L14.8436 23.6333L13.7641 18.1133Z" fill="black"/>
<path id="Vector_15" d="M23.4344 22.7085C22.9757 22.7085 22.5344 22.5236 22.2537 22.2139L21.8701 21.7905L21.0234 22.5578L21.407 22.9812C21.9006 23.5259 22.6585 23.8511 23.4344 23.8511C24.4024 23.8511 25.2154 23.2335 25.3673 22.3826C25.4816 21.7424 25.1908 20.9061 24.0318 20.4786C23.4657 20.2698 22.9387 20.0424 22.7778 19.9718C22.6504 19.8698 22.6547 19.7275 22.6632 19.6682C22.6749 19.5862 22.7345 19.3858 23.0322 19.296C23.6785 19.1014 24.2776 19.5696 24.3023 19.5894L24.7371 19.9548L25.4723 19.0802L25.035 18.7126C24.9916 18.6761 23.958 17.8238 22.7026 18.2021C22.0687 18.393 21.6202 18.8926 21.5322 19.506C21.4496 20.0813 21.699 20.6346 22.1831 20.9502C22.2083 20.9666 22.2348 20.981 22.2623 20.9933C22.289 21.0052 22.9227 21.2873 23.6364 21.5506C23.8392 21.6254 24.3042 21.8366 24.2425 22.1818C24.1963 22.4407 23.8813 22.7085 23.4344 22.7085Z" fill="black"/>
<path id="Vector_16" d="M15.6591 18.1173V21.856C15.6591 22.9423 16.6395 23.8614 17.8001 23.8629H17.8031C18.4083 23.8629 19.0171 23.6156 19.4322 23.201C19.7984 22.8353 20.0002 22.3565 20.0002 21.8526V18.1172H18.8576V21.8526C18.8576 22.0567 18.7793 22.2383 18.625 22.3925C18.4224 22.5947 18.1077 22.7203 17.8033 22.7203C17.8028 22.7203 17.8022 22.7203 17.8018 22.7203C17.3288 22.7196 16.8018 22.3645 16.8018 21.8559V18.1172L15.6591 18.1173Z" fill="black"/>
<path id="Vector_17" d="M28.974 23.8628V19.2598H30.2502V18.1172H26.5656V19.2598H27.8315V23.8628H28.974Z" fill="black"/>
<path id="Vector_18" d="M30.3546 37.8594H31.4972V39.002H30.3546V37.8594Z" fill="black"/>
<path id="Vector_19" d="M34.3535 8.15031H27.2354C27.2424 8.01633 27.2459 7.88158 27.2459 7.74592C27.2459 3.47481 23.7711 0 19.5 0C15.2289 0 11.7541 3.47481 11.7541 7.74592C11.7541 7.88158 11.7577 8.0164 11.7646 8.15031H4.64642C3.70144 8.15031 2.93256 8.91912 2.93256 9.86418V37.2861C2.93256 38.2311 3.70136 38.9999 4.64642 38.9999H29.2119V37.8573H4.64642C4.33145 37.8573 4.07513 37.6011 4.07513 37.2861V9.86418C4.07513 9.54913 4.33138 9.29289 4.64642 9.29289H11.9093C11.9892 9.68525 12.0989 10.0669 12.2358 10.4355H5.21771V13.2919H6.36029V11.578H12.7703C14.1057 13.914 16.6219 15.4918 19.4999 15.4918C22.3779 15.4918 24.8942 13.914 26.2296 11.578H32.6397V35.5722H6.36037V14.4345H5.21779V36.7148H33.7822V10.4355H26.7641C26.901 10.067 27.0108 9.68533 27.0906 9.29297H34.3535C34.6686 9.29297 34.9248 9.54921 34.9248 9.86426V37.2861C34.9248 37.6012 34.6686 37.8574 34.3535 37.8574H32.6397V39H34.3535C35.2985 39 36.0674 38.2312 36.0674 37.2861V9.86426C36.0674 8.91912 35.2985 8.15031 34.3535 8.15031ZM19.5 14.3493C15.8589 14.3493 12.8967 11.387 12.8967 7.74592C12.8966 4.10483 15.8588 1.14258 19.5 1.14258C23.1411 1.14258 26.1034 4.10483 26.1034 7.74592C26.1034 11.387 23.1411 14.3493 19.5 14.3493Z" fill="black"/>
</g>
</g>
</g>
</svg>
