<svg width="241" height="332" viewBox="0 0 241 332" fill="none" xmlns="http://www.w3.org/2000/svg">
<path d="M36.9436 22.7175C39.9167 19.7444 43.1294 16.9591 46.6053 14.3987C72.8175 -4.88286 106.321 -3.50159 128.233 11.2032C141.06 19.8031 150.112 31.6617 157.527 45.2095C161.483 52.4577 165.026 60.2633 170.825 66.1312C175.844 71.2195 182.444 74.1777 189.025 77.1551C203.202 83.5391 215.568 90.6374 224.355 103.479C232.464 115.296 236.9 129.919 239.061 144.797C246.099 193.174 231.94 251.228 194.926 293.151C194.548 295.06 193.607 297.098 191.964 299.232C189.726 302.123 187.345 304.818 184.848 307.315C162.439 329.724 130.541 336.261 104.516 327.105C72.5118 315.822 52.8793 284.889 36.7778 257.01C11.0458 212.427 -6.2776 158.131 2.72749 100.813C6.9139 74.2121 15.9103 43.7509 36.9436 22.7175Z" fill="#C8A26B" fill-opacity="0.24"/>
</svg>
