<svg width="43" height="42" viewBox="0 0 43 42" fill="none" xmlns="http://www.w3.org/2000/svg">
<circle cx="21.9922" cy="21" r="21" fill="#EDF4F6"/>
<path fill-rule="evenodd" clip-rule="evenodd" d="M29.0464 26.3147C30.7902 26.5833 32.9698 26.4361 34.2584 25.8829C35.1055 25.5192 35.5859 24.9604 35.5859 24.3145C35.5859 23.3043 35.2344 22.3706 34.6386 21.6183C34.4778 21.4158 34.183 21.3811 33.98 21.5418C33.777 21.7026 33.7428 21.9975 33.9036 22.2004C34.3705 22.7906 34.6484 23.5223 34.6484 24.3145C34.6484 24.4968 34.5223 24.6379 34.348 24.7673C34.0784 24.967 33.6945 25.1193 33.2478 25.237C31.8359 25.6087 29.8236 25.6073 28.4211 25.23C28.0456 24.6928 27.5975 24.2058 27.0894 23.7806C27.3655 22.064 28.9498 20.7572 30.8478 20.7572C31.6409 20.7572 32.3783 20.985 32.9895 21.3764C33.207 21.5156 33.4972 21.4523 33.6369 21.2343C33.7766 21.0164 33.7128 20.7262 33.4948 20.587C33.2028 20.3995 32.8873 20.2425 32.5531 20.1201C33.103 19.6425 33.4513 18.9384 33.4513 18.1537C33.4513 16.7165 32.2845 15.5498 30.8478 15.5498C30.485 15.5498 30.14 15.6243 29.8264 15.7584C29.2873 14.9826 28.5008 14.3723 27.5717 14.032C28.122 13.5543 28.4698 12.8503 28.4698 12.0656C28.4698 10.6284 27.3036 9.46216 25.8664 9.46216C24.4297 9.46216 23.263 10.6284 23.263 12.0656C23.263 12.8503 23.6108 13.5543 24.1611 14.032C23.6605 14.2153 23.2011 14.4768 22.7998 14.8007C22.2669 14.6939 21.7175 14.6939 21.1845 14.8007C20.7833 14.4768 20.3239 14.2153 19.8233 14.032C20.3736 13.5543 20.7214 12.8503 20.7214 12.0656C20.7214 10.6284 19.5547 9.46216 18.118 9.46216C16.6808 9.46216 15.5145 10.6284 15.5145 12.0656C15.5145 12.8503 15.8623 13.5543 16.4127 14.032C15.4836 14.3728 14.6966 14.9826 14.158 15.7584C13.8444 15.6243 13.4994 15.5498 13.1366 15.5498C11.6998 15.5498 10.5331 16.7165 10.5331 18.1537C10.5331 18.9384 10.8809 19.6425 11.4313 20.1201C9.65469 20.7712 8.39844 22.409 8.39844 24.3145C8.39844 24.9604 8.87891 25.5192 9.72594 25.8829C11.0145 26.4361 13.1942 26.5833 14.938 26.3147C14.5203 27.2123 14.2888 28.2037 14.2888 29.2453C14.2888 29.9639 14.682 30.5897 15.3955 31.0889C15.6073 31.2375 15.8998 31.1854 16.048 30.9736C16.1966 30.7617 16.145 30.4692 15.9327 30.3211C15.5056 30.022 15.2263 29.6751 15.2263 29.2453C15.2263 25.7311 18.2652 22.8918 21.9922 22.8918C25.7192 22.8918 28.7581 25.7311 28.7581 29.2453C28.7581 29.624 28.5383 29.939 28.1947 30.2137C27.7662 30.5564 27.1545 30.8283 26.4336 31.042C24.1367 31.7217 20.7664 31.7817 18.2717 31.2272C18.0191 31.1709 17.7683 31.3307 17.712 31.5829C17.6562 31.8356 17.8156 32.0864 18.0683 32.1422C21.1578 32.8293 25.5116 32.61 27.8464 31.5126C29.015 30.9637 29.6956 30.1772 29.6956 29.2453C29.6956 28.2037 29.4641 27.2123 29.0464 26.3147ZM16.895 23.7806C16.6189 22.064 15.0345 20.7572 13.1366 20.7572C11.0464 20.7572 9.33594 22.3434 9.33594 24.3145C9.33594 24.4968 9.46203 24.6379 9.63641 24.7673C9.90594 24.967 10.2898 25.1193 10.7366 25.237C12.1484 25.6087 14.1608 25.6073 15.5633 25.23C15.9387 24.6933 16.3869 24.2058 16.895 23.7806ZM18.2131 20.3611C17.0661 20.3695 15.9116 20.2204 15.0448 19.9242C14.9806 19.9931 14.9131 20.0583 14.8423 20.1201C16.2528 20.6376 17.3356 21.7767 17.7219 23.1778C18.3542 22.7779 19.0531 22.4639 19.7994 22.2543C19.5514 22.0968 19.317 21.9098 19.1009 21.6933C18.7081 21.3 18.4119 20.8457 18.2131 20.3611ZM29.142 20.1201C29.0712 20.0583 29.0033 19.9931 28.9395 19.9242C28.0728 20.2204 26.9178 20.3695 25.7712 20.3615C25.5716 20.8472 25.2744 21.3028 24.8797 21.697C24.6645 21.9117 24.4316 22.0978 24.185 22.2543C24.9313 22.4639 25.6297 22.7775 26.2625 23.1778C26.6488 21.7767 27.7316 20.6372 29.142 20.1201ZM29.0445 16.2759C28.3634 15.3061 27.1925 14.669 25.8664 14.669C25.1441 14.669 24.4677 14.8579 23.8916 15.187C24.2483 15.3745 24.5834 15.6183 24.8834 15.9187C25.0662 16.1015 25.0658 16.3987 24.883 16.5815C24.6997 16.7643 24.403 16.7639 24.2202 16.5811C22.992 15.3515 20.997 15.3501 19.7675 16.5783C18.5375 17.8059 18.5366 19.8014 19.7642 21.0309C20.9923 22.2604 22.9873 22.2618 24.2169 21.0337C25.1548 20.0972 25.378 18.7143 24.8867 17.565C24.785 17.3273 24.8952 17.0512 25.1333 16.9495C25.3709 16.8478 25.6466 16.9584 25.7483 17.1961C26.0502 17.902 26.1444 18.6754 26.0309 19.4236C26.8911 19.4123 27.7414 19.3083 28.4239 19.1062C28.3081 18.8109 28.2439 18.4898 28.2439 18.1537C28.2439 17.4164 28.5514 16.7498 29.0445 16.2759ZM30.8478 16.4873C31.767 16.4873 32.5138 17.234 32.5138 18.1537C32.5138 19.0729 31.767 19.8197 30.8478 19.8197C29.9281 19.8197 29.1814 19.0729 29.1814 18.1537C29.1814 17.234 29.9281 16.4873 30.8478 16.4873ZM13.1366 16.4873C14.0563 16.4873 14.803 17.234 14.803 18.1537C14.803 19.0729 14.0563 19.8197 13.1366 19.8197C12.2173 19.8197 11.4706 19.0729 11.4706 18.1537C11.4706 17.234 12.2173 16.4873 13.1366 16.4873ZM20.0928 15.187C19.5167 14.8579 18.8403 14.669 18.118 14.669C16.7919 14.669 15.6209 15.3061 14.9398 16.2759C15.433 16.7498 15.7405 17.4164 15.7405 18.1537C15.7405 18.4898 15.6767 18.8109 15.5605 19.1062C16.243 19.3083 17.0933 19.4123 17.9534 19.4236C17.765 18.1814 18.1489 16.8693 19.1047 15.915C19.4038 15.6164 19.7375 15.3736 20.0928 15.187ZM25.8664 10.3997C26.7861 10.3997 27.5323 11.1459 27.5323 12.0656C27.5323 12.9848 26.7861 13.7315 25.8664 13.7315C24.9467 13.7315 24.2005 12.9848 24.2005 12.0656C24.2005 11.1459 24.9467 10.3997 25.8664 10.3997ZM18.118 10.3997C19.0377 10.3997 19.7839 11.1459 19.7839 12.0656C19.7839 12.9848 19.0377 13.7315 18.118 13.7315C17.1983 13.7315 16.452 12.9848 16.452 12.0656C16.452 11.1459 17.1983 10.3997 18.118 10.3997Z" fill="#548088"/>
<path d="M16.8774 31.7812C17.1363 31.7812 17.3462 31.5714 17.3462 31.3125C17.3462 31.0536 17.1363 30.8438 16.8774 30.8438C16.6186 30.8438 16.4087 31.0536 16.4087 31.3125C16.4087 31.5714 16.6186 31.7812 16.8774 31.7812Z" fill="#548088"/>
</svg>
