<svg width="32" height="33" viewBox="0 0 32 33" fill="none" xmlns="http://www.w3.org/2000/svg">
<rect y="0.765625" width="32" height="32" rx="16" fill="#EB5731"/>
<path d="M21.293 11.4727C21.4333 11.613 21.5122 11.8034 21.5122 12.0019C21.5122 12.2005 21.4333 12.3909 21.293 12.5312L17.0586 16.7656L21.293 21C21.4333 21.1404 21.5122 21.3308 21.5122 21.5293C21.5122 21.7278 21.4333 21.9182 21.293 22.0586C21.1526 22.199 20.9622 22.2778 20.7637 22.2778C20.5651 22.2778 20.3747 22.199 20.2344 22.0586L16 17.8242L11.7656 22.0586C11.6253 22.199 11.4349 22.2778 11.2363 22.2778C11.0378 22.2778 10.8474 22.199 10.707 22.0586C10.5667 21.9182 10.4878 21.7278 10.4878 21.5293C10.4878 21.3308 10.5667 21.1404 10.707 21L14.9414 16.7656L10.707 12.5312C10.5667 12.3909 10.4878 12.2005 10.4878 12.0019C10.4878 11.8034 10.5667 11.613 10.707 11.4727C10.8474 11.3323 11.0378 11.2534 11.2363 11.2534C11.4349 11.2534 11.6253 11.3323 11.7656 11.4727L16 15.707L20.2344 11.4727C20.3747 11.3323 20.5651 11.2534 20.7637 11.2534C20.9622 11.2534 21.1526 11.3323 21.293 11.4727Z" fill="#FFDA77"/>
</svg>
