<svg width="24" height="16" viewBox="0 0 24 16" fill="none" xmlns="http://www.w3.org/2000/svg">
<path d="M15.5292 14.4H22.0572C22.3985 14.4 22.3114 14.4951 22.3114 13.8275C22.3114 12.1795 19.9594 11.1955 17.1381 11.1955C16.3594 11.1955 15.6172 11.2702 14.9496 11.4133C14.6539 10.8905 14.2688 10.4236 13.8118 10.0338C14.8074 9.73865 15.947 9.59553 17.1381 9.59553C20.7585 9.59553 23.9114 10.9155 23.9114 13.8266C23.9114 15.3466 23.3167 16 22.0572 16H15.0723C15.3158 15.5511 15.4714 15.0142 15.5292 14.4ZM19.5736 4.21153C19.5736 2.81242 18.4794 1.68887 17.1381 1.68887C15.7967 1.68887 14.7025 2.81242 14.7025 4.21065C14.7025 5.60976 15.7967 6.73331 17.1381 6.73331C18.4794 6.73331 19.5736 5.60976 19.5736 4.21153ZM21.1736 4.21153C21.1736 6.48353 19.3727 8.33331 17.1381 8.33331C14.9034 8.33331 13.1025 6.48442 13.1025 4.21065C13.1025 1.93865 14.9034 0.0888672 17.1381 0.0888672C19.3727 0.0888672 21.1736 1.93776 21.1736 4.21153ZM9.61807 4.21153C9.61807 2.81242 8.52385 1.68887 7.18251 1.68887C5.84118 1.68887 4.74696 2.81242 4.74696 4.21065C4.74696 5.60976 5.84118 6.73331 7.18251 6.73331C8.52385 6.73331 9.61807 5.60976 9.61807 4.21153ZM11.2181 4.21153C11.2181 6.48353 9.41718 8.33331 7.18251 8.33331C4.94785 8.33331 3.14696 6.48442 3.14696 4.21065C3.14696 1.93953 4.94785 0.0888672 7.18251 0.0888672C9.41718 0.0888672 11.2181 1.93776 11.2181 4.21153ZM2.00918 13.8275C2.00918 14.4951 1.92207 14.4 2.2634 14.4H12.1016C12.443 14.4 12.3558 14.4951 12.3558 13.8275C12.3558 12.1795 10.0038 11.1955 7.18251 11.1955C4.36118 11.1955 2.00918 12.1795 2.00918 13.8266V13.8275ZM0.40918 13.8275C0.40918 10.9155 3.56207 9.59553 7.18251 9.59553C10.803 9.59553 13.9558 10.9155 13.9558 13.8266C13.9558 15.3466 13.3612 16 12.1016 16H2.2634C1.00385 16 0.40918 15.3466 0.40918 13.8275Z" fill="#191857"/>
</svg>
