<svg width="127" height="127" viewBox="0 0 127 127" fill="none" xmlns="http://www.w3.org/2000/svg">
<path d="M106.048 46.0876V21.1639H81.1767L63.5026 3.64844L46.093 21.1639H21.1692V46.0876L3.65381 63.4972L21.1692 81.1714V106.042H46.093L63.5026 123.558L81.1767 106.042H106.048V81.1714L123.563 63.4972L106.048 46.0876ZM46.728 37.3034C51.9138 37.3034 56.0942 41.4839 56.0942 46.7226C56.0942 49.2067 55.1074 51.589 53.3509 53.3455C51.5944 55.1021 49.2121 56.0889 46.728 56.0889C41.4892 56.0889 37.3088 51.9084 37.3088 46.7226C37.3088 41.4839 41.4892 37.3034 46.728 37.3034ZM80.5417 89.9555C75.3559 89.9555 71.1755 85.7222 71.1755 80.5364C71.1755 78.0523 72.1623 75.6699 73.9188 73.9134C75.6753 72.1569 78.0576 71.1701 80.5417 71.1701C85.7276 71.1701 89.9609 75.3505 89.9609 80.5364C89.9609 83.0345 88.9685 85.4303 87.2021 87.1967C85.4356 88.9631 83.0398 89.9555 80.5417 89.9555ZM44.9817 90.1143L37.0442 82.1768L82.1821 37.0389L90.1196 44.9764L44.9817 90.1143Z" fill="#FFEDCF" fill-opacity="0.2"/>
</svg>
