<svg width="14" height="14" viewBox="0 0 14 14" fill="none" xmlns="http://www.w3.org/2000/svg">
<path d="M7 0C5.61553 0 4.26215 0.410543 3.11101 1.17971C1.95987 1.94888 1.06266 3.04213 0.532846 4.32121C0.00303299 5.6003 -0.13559 7.00776 0.134506 8.36563C0.404603 9.7235 1.07129 10.9708 2.05026 11.9497C3.02922 12.9287 4.2765 13.5954 5.63437 13.8655C6.99224 14.1356 8.3997 13.997 9.67879 13.4672C10.9579 12.9373 12.0511 12.0401 12.8203 10.889C13.5895 9.73784 14 8.38447 14 7C14 6.08075 13.8189 5.17049 13.4672 4.32121C13.1154 3.47194 12.5998 2.70026 11.9497 2.05025C11.2997 1.40024 10.5281 0.884626 9.67879 0.532843C8.82951 0.18106 7.91925 0 7 0ZM5.6 10.15V3.85L9.8 7L5.6 10.15Z" fill="white"/>
</svg>
