<svg width="351" height="280" viewBox="0 0 351 280" fill="none" xmlns="http://www.w3.org/2000/svg">
<path d="M151.575 -201.034C161.93 -206.02 173.992 -206.02 184.347 -201.034L282.892 -153.577C293.247 -148.59 300.768 -139.16 303.325 -127.954L327.664 -21.3203C330.221 -10.1152 327.537 1.64474 320.371 10.6305L252.176 96.1444C245.01 105.13 234.143 110.364 222.649 110.364H113.273C101.78 110.364 90.9118 105.13 83.7459 96.1445L15.5508 10.6305C8.38484 1.64474 5.70071 -10.1152 8.2582 -21.3203L32.5967 -127.954C35.1542 -139.159 42.675 -148.59 53.03 -153.577L151.575 -201.034Z" fill="url(#paint0_linear_1421_2374)" fill-opacity="0.15"/>
<path d="M438.596 51.111C449.17 55.6144 457.118 64.6878 460.19 75.7629L489.425 181.16C492.497 192.235 490.359 204.106 483.616 213.413L419.441 301.984C412.698 311.291 402.083 317.021 390.602 317.552L281.342 322.601C269.861 323.131 258.763 318.405 251.19 309.76L179.12 227.485C171.547 218.84 168.323 207.216 170.36 195.905L189.75 88.261C191.788 76.9498 198.865 67.1819 208.979 61.7225L305.228 9.76714C315.342 4.30769 327.391 3.75083 337.965 8.25421L438.596 51.111Z" fill="url(#paint1_linear_1421_2374)" fill-opacity="0.19"/>
<path d="M230.001 -100.388C240.356 -105.375 252.418 -105.375 262.773 -100.388L361.318 -52.9314C371.673 -47.9447 379.194 -38.514 381.751 -27.3089L406.09 79.3252C408.647 90.5303 405.963 102.29 398.797 111.276L330.602 196.79C323.436 205.776 312.568 211.009 301.075 211.009H191.699C180.205 211.009 169.338 205.776 162.172 196.79L93.9765 111.276C86.8106 102.29 84.1265 90.5303 86.684 79.3253L111.023 -27.3089C113.58 -38.514 121.101 -47.9447 131.456 -52.9314L230.001 -100.388Z" fill="url(#paint2_linear_1421_2374)" fill-opacity="0.17"/>
<defs>
<linearGradient id="paint0_linear_1421_2374" x1="167.961" y1="-208.925" x2="167.961" y2="126.997" gradientUnits="userSpaceOnUse">
<stop stop-color="#FBFBFB"/>
<stop offset="1" stop-color="#FBFBFB" stop-opacity="0"/>
</linearGradient>
<linearGradient id="paint1_linear_1421_2374" x1="455.329" y1="58.2373" x2="202.643" y2="279.582" gradientUnits="userSpaceOnUse">
<stop stop-color="#FBFBFB"/>
<stop offset="1" stop-color="#FBFBFB" stop-opacity="0"/>
</linearGradient>
<linearGradient id="paint2_linear_1421_2374" x1="246.387" y1="-108.279" x2="246.387" y2="227.643" gradientUnits="userSpaceOnUse">
<stop stop-color="#FBFBFB"/>
<stop offset="1" stop-color="#FBFBFB" stop-opacity="0"/>
</linearGradient>
</defs>
</svg>
