<svg width="198" height="189" viewBox="0 0 198 189" fill="none" xmlns="http://www.w3.org/2000/svg">
<path d="M93.7635 3.24742C96.146 -0.238367 101.288 -0.23837 103.671 3.24741L135.542 49.8787C136.324 51.0222 137.477 51.8601 138.806 52.2502L193.002 68.156C197.053 69.345 198.642 74.2353 196.063 77.5782L161.559 122.302C160.712 123.399 160.272 124.755 160.312 126.14L161.941 182.596C162.063 186.817 157.902 189.84 153.926 188.42L100.734 169.43C99.4297 168.964 98.0043 168.964 96.6997 169.43L43.4988 188.421C39.5223 189.84 35.3624 186.817 35.4842 182.597L37.1132 126.14C37.1532 124.755 36.7126 123.399 35.8662 122.302L1.36229 77.5785C-1.2168 74.2355 0.371999 69.3451 4.42338 68.1562L58.6276 52.2501C59.9568 51.8601 61.1101 51.0222 61.8917 49.8786L93.7635 3.24742ZM80.717 99.5H68.7169C65.4032 99.5 62.6659 102.205 63.2156 105.472C64.4239 112.655 67.7934 119.354 72.9446 124.636C79.5021 131.36 88.4277 135.254 97.8167 135.489C107.206 135.724 116.315 132.281 123.2 125.893C130.086 119.506 134.203 110.68 134.672 101.3V101.3C134.697 100.313 133.903 99.5 132.916 99.5H122.744C119.42 99.5 116.822 102.275 115.744 105.419C114.903 107.87 113.536 110.134 111.71 112.038C108.477 115.41 104.06 117.393 99.3925 117.568C94.7249 117.743 90.172 116.097 86.6955 112.978C83.2191 109.858 81.0914 105.509 80.762 100.85L80.7262 99.509C80.7261 99.504 80.722 99.5 80.717 99.5V99.5Z" fill="url(#paint0_linear_224_582)" fill-opacity="0.5"/>
<defs>
<linearGradient id="paint0_linear_224_582" x1="-44.5174" y1="93.9159" x2="210.07" y2="101.547" gradientUnits="userSpaceOnUse">
<stop offset="0.0260417" stop-color="#FFF6E8"/>
<stop offset="0.317708" stop-color="#F5DFBB"/>
<stop offset="0.697917" stop-color="#FAB77F"/>
<stop offset="1" stop-color="#FFF6E8"/>
</linearGradient>
</defs>
</svg>
