<svg width="18" height="18" viewBox="0 0 18 18" fill="none" xmlns="http://www.w3.org/2000/svg">
<path d="M8.29951 1.38191C8.58914 0.809044 9.40721 0.809045 9.69684 1.38191L11.8151 5.57175C11.9283 5.79565 12.142 5.95173 12.3897 5.9915L17.0038 6.73223C17.6327 6.8332 17.8842 7.60302 17.4362 8.05584L14.1257 11.4018C13.9509 11.5785 13.8703 11.8277 13.9087 12.0733L14.6374 16.7369C14.7362 17.3693 14.0757 17.8466 13.5063 17.5542L9.35579 15.4229C9.13131 15.3076 8.86504 15.3076 8.64056 15.4229L4.49004 17.5542C3.92066 17.8466 3.26011 17.3693 3.35892 16.7369L4.08765 12.0733C4.12602 11.8277 4.0455 11.5785 3.87068 11.4018L0.560167 8.05584C0.11214 7.60302 0.36364 6.8332 0.992592 6.73223L5.60666 5.9915C5.85438 5.95173 6.06803 5.79565 6.18123 5.57175L8.29951 1.38191Z" fill="#FFC663"/>
</svg>
