<svg width="100" height="20" viewBox="0 0 100 20" fill="none" xmlns="http://www.w3.org/2000/svg">
<path d="M9.28978 1.50185C9.43734 1.03683 10.0954 1.03683 10.2429 1.50185L11.8484 6.56106C11.9143 6.76874 12.1071 6.90983 12.3249 6.90983H17.5449C18.0264 6.90983 18.2297 7.5236 17.8433 7.811L13.6001 10.9676C13.429 11.0949 13.3575 11.3167 13.422 11.52L15.0379 16.6124C15.1848 17.0751 14.6524 17.4545 14.2629 17.1647L10.0648 14.0417C9.88766 13.9099 9.64506 13.9099 9.46792 14.0417L5.26981 17.1647C4.88029 17.4545 4.34795 17.0751 4.49479 16.6124L6.11073 11.52C6.17524 11.3167 6.1037 11.0949 5.93259 10.9676L1.68937 7.811C1.30305 7.52361 1.50631 6.90983 1.98781 6.90983H7.20777C7.42565 6.90983 7.61845 6.76874 7.68435 6.56106L9.28978 1.50185Z" fill="#FFC250"/>
<path d="M31.823 1.50185C31.9705 1.03683 32.6286 1.03683 32.7761 1.50185L34.3816 6.56106C34.4475 6.76874 34.6403 6.90983 34.8582 6.90983H40.0781C40.5596 6.90983 40.7629 7.5236 40.3766 7.811L36.1333 10.9676C35.9622 11.0949 35.8907 11.3167 35.9552 11.52L37.5711 16.6124C37.718 17.0751 37.1856 17.4545 36.7961 17.1647L32.598 14.0417C32.4209 13.9099 32.1783 13.9099 32.0011 14.0417L27.803 17.1647C27.4135 17.4545 26.8812 17.0751 27.028 16.6124L28.6439 11.52C28.7084 11.3167 28.6369 11.0949 28.4658 10.9676L24.2226 7.811C23.8363 7.52361 24.0395 6.90983 24.521 6.90983H29.741C29.9589 6.90983 30.1516 6.76874 30.2176 6.56106L31.823 1.50185Z" fill="#FFC250"/>
<path d="M54.3562 1.50185C54.5037 1.03683 55.1618 1.03683 55.3093 1.50185L56.9148 6.56106C56.9807 6.76874 57.1735 6.90983 57.3914 6.90983H62.6113C63.0928 6.90983 63.2961 7.5236 62.9098 7.811L58.6665 10.9676C58.4954 11.0949 58.4239 11.3167 58.4884 11.52L60.1043 16.6124C60.2512 17.0751 59.7188 17.4545 59.3293 17.1647L55.1312 14.0417C54.9541 13.9099 54.7115 13.9099 54.5343 14.0417L50.3362 17.1647C49.9467 17.4545 49.4144 17.0751 49.5612 16.6124L51.1771 11.52C51.2416 11.3167 51.1701 11.0949 50.999 10.9676L46.7558 7.811C46.3695 7.52361 46.5727 6.90983 47.0542 6.90983H52.2742C52.4921 6.90983 52.6849 6.76874 52.7508 6.56106L54.3562 1.50185Z" fill="#FFC250"/>
<path d="M76.8894 1.50185C77.037 1.03683 77.695 1.03683 77.8425 1.50185L79.448 6.56106C79.5139 6.76874 79.7067 6.90983 79.9246 6.90983H85.1445C85.626 6.90983 85.8293 7.5236 85.443 7.811L81.1997 10.9676C81.0286 11.0949 80.9571 11.3167 81.0216 11.52L82.6375 16.6124C82.7844 17.0751 82.252 17.4545 81.8625 17.1647L77.6644 14.0417C77.4873 13.9099 77.2447 13.9099 77.0675 14.0417L72.8694 17.1647C72.4799 17.4545 71.9476 17.0751 72.0944 16.6124L73.7103 11.52C73.7748 11.3167 73.7033 11.0949 73.5322 10.9676L69.289 7.811C68.9027 7.52361 69.1059 6.90983 69.5874 6.90983H74.8074C75.0253 6.90983 75.2181 6.76874 75.284 6.56106L76.8894 1.50185Z" fill="#FFC250"/>
<path d="M94.9246 17.1647L99.2196 13.9696C99.3464 13.8753 99.4212 13.7265 99.4212 13.5684V3.22874C99.4212 2.65736 98.6174 2.5329 98.4446 3.07751L97.3392 6.56106C97.2733 6.76874 97.0805 6.90983 96.8626 6.90983H91.6426C91.1611 6.90983 90.9579 7.5236 91.3442 7.811L95.5874 10.9676C95.7585 11.0949 95.83 11.3167 95.7655 11.52L94.1496 16.6123C94.0028 17.0751 94.5351 17.4545 94.9246 17.1647Z" fill="#FFC250"/>
</svg>
