<svg width="18" height="18" viewBox="0 0 18 18" fill="none" xmlns="http://www.w3.org/2000/svg">
<path d="M8.30268 1.36641C8.59323 0.797059 9.40676 0.797058 9.69732 1.36641L11.8167 5.51927C11.9304 5.74217 12.1439 5.89726 12.391 5.93657L16.9955 6.66888C17.6268 6.76928 17.8782 7.54299 17.4265 7.99527L14.1318 11.2942C13.955 11.4713 13.8734 11.7222 13.9124 11.9694L14.6388 16.5748C14.7384 17.2062 14.0803 17.6844 13.5106 17.3946L9.35497 15.2806C9.13193 15.1671 8.86807 15.1671 8.64503 15.2806L4.48945 17.3946C3.91973 17.6844 3.26157 17.2062 3.36116 16.5748L4.08756 11.9694C4.12655 11.7222 4.04502 11.4713 3.86818 11.2942L0.573483 7.99527C0.121786 7.54299 0.37318 6.76928 1.00445 6.66888L5.60897 5.93657C5.85612 5.89726 6.06958 5.74217 6.18333 5.51927L8.30268 1.36641Z" fill="#FAAD39"/>
</svg>
