<svg width="34" height="33" viewBox="0 0 34 33" fill="none" xmlns="http://www.w3.org/2000/svg">
<path d="M15.2186 1.49072C15.9608 0.0362196 18.0392 0.0362175 18.7814 1.49072L22.5329 8.84178C22.8235 9.41122 23.3688 9.80742 24.0002 9.90783L32.1508 11.2041C33.7635 11.4606 34.4057 13.4372 33.2518 14.5926L27.4198 20.4321C26.968 20.8844 26.7597 21.5255 26.8593 22.157L28.1451 30.3092C28.3995 31.9222 26.7182 33.1438 25.2627 32.4034L17.9068 28.6613C17.337 28.3715 16.663 28.3715 16.0932 28.6613L8.7373 32.4034C7.28185 33.1438 5.60046 31.9222 5.85488 30.3092L7.14071 22.157C7.24031 21.5255 7.03202 20.8844 6.58025 20.4321L0.748251 14.5926C-0.405685 13.4372 0.236543 11.4606 1.84923 11.2041L9.99978 9.90783C10.6312 9.80742 11.1765 9.41122 11.4671 8.84178L15.2186 1.49072Z" fill="#EB5731"/>
</svg>
