<svg width="20" height="20" viewBox="0 0 20 20" fill="none" xmlns="http://www.w3.org/2000/svg">
<path d="M17.7956 4.97195L15.9208 3.08266C15.6483 2.80805 15.2065 2.80805 14.934 3.08266C14.6616 3.35726 14.6615 3.80245 14.934 4.07702L15.3781 4.52448L14.4675 5.44213C13.282 4.44559 11.8407 3.844 10.3032 3.70397V2.40625H10.9312C11.3166 2.40625 11.6289 2.09146 11.6289 1.70312C11.6289 1.31479 11.3166 1 10.9312 1H8.27974C7.89438 1 7.58199 1.31479 7.58199 1.70312C7.58199 2.09146 7.89438 2.40625 8.27974 2.40625H8.90772V3.70397C5.07973 4.05258 2 7.29184 2 11.3359C2 15.5716 5.40156 19 9.60547 19C13.8088 19 17.2109 15.5722 17.2109 11.3359C17.2109 9.525 16.5915 7.81026 15.4542 6.43649L16.3648 5.51884L16.8089 5.96631C17.0814 6.24088 17.5231 6.24092 17.7956 5.96631C18.0681 5.69174 18.0681 5.24656 17.7956 4.97195ZM9.60547 17.5938C6.1813 17.5938 3.3955 14.7865 3.3955 11.3359C3.3955 7.88539 6.1813 5.07812 9.60547 5.07812C13.0296 5.07812 15.8154 7.88539 15.8154 11.3359C15.8154 14.7865 13.0297 17.5938 9.60547 17.5938ZM13.2311 11.3359C13.2311 11.7243 12.9187 12.0391 12.5333 12.0391H9.6055C9.22014 12.0391 8.90775 11.7243 8.90775 11.3359V7.19893C8.90775 6.81059 9.22014 6.4958 9.6055 6.4958C9.99087 6.4958 10.3033 6.81059 10.3033 7.19893V10.6328H12.5333C12.9187 10.6328 13.2311 10.9476 13.2311 11.3359Z" fill="#061623"/>
</svg>
