<svg width="97" height="88" viewBox="0 0 97 88" fill="none" xmlns="http://www.w3.org/2000/svg">
<path d="M54.9579 81.355H32.1485C31.8477 81.355 31.6317 81.0661 31.7147 80.777C34.4257 71.3336 34.7994 59.7739 30.5905 54.6298C27.3387 50.6553 26.6799 44.7222 26.7534 42.0749C26.76 41.8386 26.9563 41.6575 27.1927 41.6575H32.4988C32.7578 41.6575 32.962 41.439 32.9573 41.1801C32.9127 38.6887 33.775 35.5403 38.7036 35.5403C42.0623 35.5403 43.349 38.9151 43.8775 41.2982C43.9238 41.5071 44.1072 41.6575 44.3213 41.6575H51.6172C51.8652 41.6575 52.0662 41.4564 52.0662 41.2085V35.0833C52.0662 34.7883 52.3458 34.5732 52.6368 34.6216C55.0144 35.0164 58.2703 34.1702 58.2703 30.2038C58.2703 26.5803 54.8314 25.4578 52.4412 25.0191C52.2249 24.9794 52.0662 24.7926 52.0662 24.5727V15.9453C52.0662 15.6974 52.2797 15.4961 52.5277 15.4988C78.7639 15.7831 76.4053 40.3237 76.4053 42.2216C76.4053 43.7076 80.9237 50.435 82.4864 56.9519C82.5531 57.2299 82.3398 57.4932 82.054 57.4932H75.8571C75.6265 57.4932 75.4335 57.6663 75.4107 57.8958C75.2297 59.7203 74.8494 63.6313 74.4963 67.5152C74.0191 72.7648 66.8606 72.2875 61.1337 72.2875C56.7684 72.2875 55.5226 77.7757 55.4148 80.9081C55.4062 81.1559 55.2058 81.355 54.9579 81.355Z" fill="url(#paint0_linear_1040_37300)"/>
<path d="M51.5898 64.1746V81.3551" stroke="#6A6880" stroke-width="0.897959" stroke-linecap="round" stroke-linejoin="round"/>
<path d="M50.6336 64.1746H74.9727" stroke="#6A6880" stroke-width="0.897959" stroke-linecap="round" stroke-linejoin="round"/>
<path d="M77.3594 43.6532H68.6116C67.9906 43.6532 67.549 43.0319 67.6357 42.417C67.9631 40.0936 67.1973 36.9719 63.0423 36.9719C58.7627 36.9719 58.0786 40.2835 58.1752 42.6235C58.1978 43.1695 57.781 43.6532 57.2345 43.6532H51.5886" stroke="#6A6880" stroke-width="0.897959" stroke-linecap="round" stroke-linejoin="round"/>
<path d="M39.1505 14.9604V5.91879C39.1505 5.4627 38.8083 5.06459 38.3334 5.02742C33.9742 4.68627 27.9189 5.20479 22.9166 8.75305C17.8893 12.319 14.016 18.8795 13.9154 30.4274C13.9112 30.9144 14.3036 31.3392 14.8114 31.3392H20.0903C20.6145 31.3392 20.9977 30.904 21.0055 30.4218C21.0256 29.1813 21.4235 27.7982 22.2736 26.735C23.1122 25.6864 24.4072 24.9259 26.2933 24.9259C27.938 24.9259 29.0809 25.672 29.8459 26.7297C30.6226 27.8037 31.0106 29.2059 31.0819 30.4673C31.1084 30.9372 31.4907 31.3392 31.9919 31.3392H38.2525C38.7484 31.3392 39.1505 30.9372 39.1505 30.4413V24.0634C39.1505 24.0632 39.1505 24.063 39.1505 24.0628L39.1505 14.9604ZM39.1505 14.9604C39.1505 14.9605 39.1505 14.9606 39.1505 14.9606L39.1505 14.9604Z" fill="url(#paint1_linear_1040_37300)" fill-opacity="0.5" stroke="white" stroke-width="0.897959" stroke-linecap="round" stroke-linejoin="round"/>
<path d="M54.9579 81.804H32.1485C31.5467 81.804 31.1185 81.2267 31.2831 80.6531C32.6279 75.9686 33.3915 70.7628 33.2987 66.1001C33.2055 61.4186 32.2508 57.368 30.243 54.9141C26.895 50.822 26.2295 45.2686 26.3046 42.6211C26.3185 42.1336 26.7196 41.7733 27.1814 41.7673L33.005 41.6915C33.0051 41.6915 33.0052 41.6915 33.0053 41.6915C33.0056 41.6913 33.0061 41.691 33.0067 41.6903C33.0089 41.6881 33.0105 41.685 33.0106 41.6804C33.0425 40.4352 33.2245 38.8981 33.964 37.6616C34.7273 36.3854 36.0536 35.4816 38.2263 35.4816C40.3987 35.4816 41.7229 36.4045 42.4849 37.686C43.2239 38.9288 43.4084 40.4638 43.4416 41.678C43.4418 41.6829 43.4435 41.6863 43.4459 41.6887C43.4466 41.6894 43.4471 41.6898 43.4474 41.69C43.4475 41.69 43.4476 41.69 43.4477 41.69L51.6172 41.7683V35.5605C51.6172 34.9588 52.1731 34.5718 52.7011 34.6468C53.8341 34.8077 55.2518 34.6097 56.3709 33.915C57.4657 33.2353 58.2985 32.0686 58.2985 30.2038C58.2985 28.5176 57.4611 27.3092 56.3199 26.5127C55.1648 25.7066 53.7168 25.3394 52.5868 25.3646C52.0941 25.3756 51.6172 24.9943 51.6172 24.4413V15.9453C51.6172 15.4346 52.0478 15.0446 52.5326 15.0499C59.1636 15.1217 64.026 16.7275 67.5803 19.1566C71.134 21.5853 73.3479 24.8148 74.7191 28.0813C77.1813 33.9469 76.9401 39.9821 76.8681 41.7856C76.8602 41.9842 76.8543 42.1315 76.8543 42.2216C76.8543 42.3199 76.8979 42.5216 77.0231 42.8568C77.1428 43.1773 77.3189 43.5736 77.5411 44.0407C77.8042 44.5935 78.122 45.2251 78.4754 45.9273C78.7226 46.4184 78.9871 46.944 79.2624 47.5013C80.589 50.1868 82.1291 53.5363 82.923 56.8473C83.0593 57.4155 82.6219 57.9422 82.054 57.9422H75.8573C75.6763 59.7667 75.2963 63.675 74.9435 67.5558C74.8138 68.9828 74.2222 70.0477 73.3008 70.8197C72.3937 71.5797 71.1943 72.0334 69.8756 72.3094C67.6493 72.7754 64.945 72.7581 62.4482 72.7422C62.0021 72.7393 61.5626 72.7365 61.1337 72.7365C59.1864 72.7365 57.9087 73.9436 57.0803 75.6219C56.2477 77.3085 55.9161 79.3943 55.8635 80.9235C55.8469 81.4059 55.455 81.804 54.9579 81.804Z" stroke="#6A6880" stroke-width="0.897959" stroke-linecap="round" stroke-linejoin="round"/>
<path d="M51.5898 41.2671V63.2765C51.5898 63.7724 51.1878 64.1745 50.6919 64.1745H47.3099C46.7869 64.1745 46.3769 63.7284 46.3418 63.2065C46.196 61.0343 45.0338 57.9704 41.0906 57.9704C37.1474 57.9704 35.9853 61.0343 35.8394 63.2065C35.8044 63.7284 35.3944 64.1745 34.8713 64.1745H33.4548" stroke="#6A6880" stroke-width="0.897959" stroke-linecap="round" stroke-linejoin="round"/>
<defs>
<linearGradient id="paint0_linear_1040_37300" x1="82.6094" y1="15.4963" x2="11.6242" y2="51.7073" gradientUnits="userSpaceOnUse">
<stop stop-color="#6B6981"/>
<stop offset="1" stop-color="#6A6A80" stop-opacity="0"/>
</linearGradient>
<linearGradient id="paint1_linear_1040_37300" x1="29.8726" y1="6.66259" x2="29.8726" y2="30.8903" gradientUnits="userSpaceOnUse">
<stop stop-color="white"/>
<stop offset="1" stop-color="white" stop-opacity="0"/>
</linearGradient>
</defs>
</svg>
