<svg width="166" height="93" viewBox="0 0 166 93" fill="none" xmlns="http://www.w3.org/2000/svg">
<g clip-path="url(#clip0_1670_3007)">
<path d="M76.6154 79.7727V116.591C76.6154 121.705 74.7532 126.051 71.0288 129.631C67.3045 133.21 62.7821 135 57.4615 135H19.1538C13.8333 135 9.3109 133.21 5.58654 129.631C1.86218 126.051 0 121.705 0 116.591V49.0909C0 42.4432 1.34675 36.0991 4.04026 30.0586C6.73377 24.0181 10.375 18.7926 14.9639 14.3821C19.5529 9.97159 24.9898 6.47195 31.2746 3.88317C37.5595 1.29439 44.1603 0 51.0769 0H57.4615C59.1907 0 60.6871 0.607244 61.9507 1.82173C63.2143 3.03622 63.8462 4.47443 63.8462 6.13636V18.4091C63.8462 20.071 63.2143 21.5092 61.9507 22.7237C60.6871 23.9382 59.1907 24.5455 57.4615 24.5455H51.0769C44.0272 24.5455 38.0084 26.9425 33.0204 31.7365C28.0325 36.5305 25.5385 42.3153 25.5385 49.0909V52.1591C25.5385 54.7159 26.4696 56.8892 28.3317 58.679C30.1939 60.4688 32.4551 61.3636 35.1154 61.3636H57.4615C62.7821 61.3636 67.3045 63.1534 71.0288 66.733C74.7532 70.3125 76.6154 74.6591 76.6154 79.7727ZM166 79.7727V116.591C166 121.705 164.138 126.051 160.413 129.631C156.689 133.21 152.167 135 146.846 135H108.538C103.218 135 98.6955 133.21 94.9712 129.631C91.2468 126.051 89.3846 121.705 89.3846 116.591V49.0909C89.3846 42.4432 90.7314 36.0991 93.4249 30.0586C96.1184 24.0181 99.7596 18.7926 104.349 14.3821C108.938 9.97159 114.374 6.47195 120.659 3.88317C126.944 1.29439 133.545 0 140.462 0H146.846C148.575 0 150.072 0.607244 151.335 1.82173C152.599 3.03622 153.231 4.47443 153.231 6.13636V18.4091C153.231 20.071 152.599 21.5092 151.335 22.7237C150.072 23.9382 148.575 24.5455 146.846 24.5455H140.462C133.412 24.5455 127.393 26.9425 122.405 31.7365C117.417 36.5305 114.923 42.3153 114.923 49.0909V52.1591C114.923 54.7159 115.854 56.8892 117.716 58.679C119.579 60.4688 121.84 61.3636 124.5 61.3636H146.846C152.167 61.3636 156.689 63.1534 160.413 66.733C164.138 70.3125 166 74.6591 166 79.7727Z" fill="#C8A26B" fill-opacity="0.37"/>
</g>
<defs>
<clipPath id="clip0_1670_3007">
<rect width="166" height="135" fill="white"/>
</clipPath>
</defs>
</svg>
