<svg width="24" height="25" viewBox="0 0 24 25" fill="none" xmlns="http://www.w3.org/2000/svg">
<path d="M16 17.761V19.761H2V17.761C2 17.761 2 13.761 9 13.761C16 13.761 16 17.761 16 17.761ZM12.5 8.26104C12.5 7.5688 12.2947 6.89212 11.9101 6.31654C11.5256 5.74097 10.9789 5.29237 10.3394 5.02746C9.69985 4.76255 8.99612 4.69324 8.31718 4.82829C7.63825 4.96334 7.01461 5.29668 6.52513 5.78617C6.03564 6.27565 5.7023 6.89929 5.56725 7.57822C5.4322 8.25716 5.50152 8.96089 5.76642 9.60043C6.03133 10.24 6.47993 10.7866 7.0555 11.1712C7.63108 11.5558 8.30777 11.761 9 11.761C9.92826 11.761 10.8185 11.3923 11.4749 10.7359C12.1313 10.0795 12.5 9.1893 12.5 8.26104ZM15.94 13.761C16.5547 14.2368 17.0578 14.8415 17.4137 15.5325C17.7696 16.2236 17.9697 16.9843 18 17.761V19.761H22V17.761C22 17.761 22 14.131 15.94 13.761ZM15 4.76104C14.3117 4.75721 13.6385 4.96299 13.07 5.35104C13.6774 6.19978 14.0041 7.21733 14.0041 8.26104C14.0041 9.30475 13.6774 10.3223 13.07 11.171C13.6385 11.5591 14.3117 11.7649 15 11.761C15.9283 11.761 16.8185 11.3923 17.4749 10.7359C18.1313 10.0795 18.5 9.1893 18.5 8.26104C18.5 7.33278 18.1313 6.44254 17.4749 5.78617C16.8185 5.12979 15.9283 4.76104 15 4.76104Z" fill="white"/>
</svg>
