<svg width="20" height="20" viewBox="0 0 20 20" fill="none" xmlns="http://www.w3.org/2000/svg">
<rect width="20" height="20" rx="10" fill="#FF6262"/>
<path d="M13.3081 6.69091C13.3958 6.77865 13.4451 6.89765 13.4451 7.02172C13.4451 7.1458 13.3958 7.2648 13.3081 7.35254L10.6616 9.99902L13.3081 12.6455C13.3958 12.7332 13.4451 12.8522 13.4451 12.9763C13.4451 13.1004 13.3958 13.2194 13.3081 13.3071C13.2204 13.3949 13.1014 13.4441 12.9773 13.4441C12.8532 13.4441 12.7342 13.3949 12.6465 13.3071L10 10.6606L7.35352 13.3071C7.26578 13.3949 7.14679 13.4441 7.02271 13.4441C6.89863 13.4441 6.77963 13.3949 6.6919 13.3071C6.60416 13.2194 6.55487 13.1004 6.55487 12.9763C6.55487 12.8522 6.60416 12.7332 6.6919 12.6455L9.33838 9.99902L6.6919 7.35254C6.60416 7.2648 6.55487 7.1458 6.55487 7.02172C6.55487 6.89765 6.60416 6.77865 6.6919 6.69091C6.77963 6.60318 6.89863 6.55389 7.02271 6.55389C7.14679 6.55389 7.26578 6.60318 7.35352 6.69091L10 9.3374L12.6465 6.69091C12.7342 6.60318 12.8532 6.55389 12.9773 6.55389C13.1014 6.55389 13.2204 6.60318 13.3081 6.69091Z" fill="white"/>
</svg>
