<?xml version="1.0" standalone="no"?>
<svg xmlns:xlink="http://www.w3.org/1999/xlink" id="wave" style="transform:rotate(0deg); transition: 0.3s" viewBox="0 0 1440 220" version="1.1" xmlns="http://www.w3.org/2000/svg"><defs><linearGradient id="sw-gradient-0" x1="0" x2="0" y1="1" y2="0"><stop stop-color="rgba(255, 255, 255, 1)" offset="0%"/><stop stop-color="rgba(255, 255, 255, 1)" offset="100%"/></linearGradient></defs><path style="transform:translate(0, 0px); opacity:1" fill="url(#sw-gradient-0)" d="M0,198L1440,44L2880,154L4320,154L5760,0L7200,22L8640,132L10080,22L11520,66L12960,22L14400,176L15840,176L17280,176L18720,0L20160,110L21600,66L23040,198L24480,44L25920,110L27360,110L28800,22L30240,154L31680,22L33120,22L34560,44L34560,220L33120,220L31680,220L30240,220L28800,220L27360,220L25920,220L24480,220L23040,220L21600,220L20160,220L18720,220L17280,220L15840,220L14400,220L12960,220L11520,220L10080,220L8640,220L7200,220L5760,220L4320,220L2880,220L1440,220L0,220Z"/></svg>