<svg width="27" height="28" viewBox="0 0 27 28" fill="none" xmlns="http://www.w3.org/2000/svg">
<g id="WhatsApp (1) 1" clip-path="url(#clip0_1421_1128)">
<path id="Vector" d="M0.293945 26.9715L2.14086 20.2411C0.999859 18.2667 0.400528 16.0269 0.403285 13.7477C0.406292 6.58604 6.24551 0.759766 13.421 0.759766C16.9031 0.761531 20.1714 2.114 22.6294 4.56908C25.0874 7.02415 26.4398 10.2875 26.4386 13.7581C26.4354 20.9192 20.5953 26.7465 13.4209 26.7465H13.4152C11.2367 26.7456 9.09612 26.2001 7.19471 25.1653L0.293945 26.9715Z" fill="white"/>
<path id="Vector_2" d="M13.4255 2.95511C7.45727 2.95511 2.6037 7.79762 2.60157 13.7498C2.59863 15.7823 3.17209 17.7741 4.25564 19.495L4.51307 19.9035L3.41985 23.8869L7.51494 22.8152L7.91037 23.049C9.57116 24.0327 11.4754 24.553 13.4173 24.554H13.4214C19.385 24.554 24.2386 19.711 24.2409 13.7585C24.2454 12.3397 23.9678 10.9341 23.4244 9.62314C22.8809 8.31215 22.0823 7.12178 21.0748 6.12094C20.0729 5.11463 18.8809 4.31666 17.5679 3.77325C16.2548 3.22983 14.8469 2.95175 13.4255 2.95511Z" fill="url(#paint0_linear_1421_1128)"/>
<path id="Vector_3" fill-rule="evenodd" clip-rule="evenodd" d="M10.1679 8.31843C9.92405 7.7779 9.66751 7.76695 9.43592 7.75759L8.81243 7.75C8.59552 7.75 8.24309 7.83123 7.94515 8.15615C7.64721 8.48107 6.80664 9.26634 6.80664 10.8636C6.80664 12.4608 7.97222 14.0041 8.13464 14.221C8.29705 14.4378 10.3848 17.82 13.6909 19.1212C16.4384 20.2027 16.9975 19.9876 17.5941 19.9335C18.1907 19.8795 19.5185 19.1483 19.7894 18.3902C20.0602 17.6321 20.0604 16.9826 19.9792 16.8468C19.898 16.711 19.6811 16.6303 19.3555 16.4679C19.03 16.3054 17.4311 15.5201 17.133 15.4117C16.8349 15.3033 16.6182 15.2494 16.4011 15.5743C16.184 15.8993 15.5614 16.6301 15.3716 16.8468C15.1817 17.0635 14.9922 17.0907 14.6667 16.9284C14.3411 16.7661 13.2938 16.4232 12.051 15.3172C11.0841 14.4567 10.4315 13.394 10.2415 13.0693C10.0514 12.7446 10.2213 12.5687 10.3844 12.4069C10.5304 12.2614 10.7096 12.0278 10.8725 11.8383C11.0355 11.6488 11.0891 11.5134 11.1974 11.2971C11.3057 11.0808 11.2517 10.8908 11.1703 10.7285C11.0889 10.5662 10.4569 8.9605 10.1679 8.31843Z" fill="white"/>
</g>
<defs>
<linearGradient id="paint0_linear_1421_1128" x1="13.2009" y1="4.25125" x2="13.3102" y2="22.7089" gradientUnits="userSpaceOnUse">
<stop stop-color="#4CCB5A"/>
<stop offset="1" stop-color="#23B33A"/>
</linearGradient>
<clipPath id="clip0_1421_1128">
<rect width="27" height="27" fill="white" transform="translate(0 0.5)"/>
</clipPath>
</defs>
</svg>
