<svg width="24" height="25" viewBox="0 0 24 25" fill="none" xmlns="http://www.w3.org/2000/svg">
<path d="M10.0809 8.65825C11.1579 6.72725 11.6959 5.76125 12.5009 5.76125C13.3059 5.76125 13.8439 6.72725 14.9209 8.65825L15.1989 9.15825C15.5049 9.70725 15.6589 9.98125 15.8969 10.1623C16.1349 10.3433 16.4319 10.4103 17.0269 10.5453L17.5669 10.6673C19.6579 11.1403 20.7039 11.3773 20.9519 12.1773C21.2009 12.9773 20.4879 13.8103 19.0619 15.4773L18.6939 15.9073C18.2889 16.3813 18.0869 16.6183 17.9949 16.9113C17.9049 17.2043 17.9349 17.5203 17.9959 18.1513L18.0519 18.7273C18.2679 20.9513 18.3749 22.0633 17.7239 22.5573C17.0729 23.0523 16.0939 22.6013 14.1369 21.7003L13.6299 21.4663C13.0739 21.2103 12.7959 21.0823 12.5009 21.0823C12.2059 21.0823 11.9279 21.2103 11.3709 21.4663L10.8649 21.7003C8.90788 22.6003 7.92888 23.0523 7.27788 22.5573C6.62688 22.0633 6.73488 20.9513 6.94988 18.7273L7.00588 18.1523C7.06688 17.5203 7.09788 17.2043 7.00588 16.9123C6.91588 16.6183 6.71288 16.3823 6.30788 15.9083L5.93888 15.4763C4.51388 13.8103 3.80088 12.9763 4.04888 12.1763C4.29888 11.3763 5.34388 11.1403 7.43488 10.6673L7.97488 10.5453C8.56988 10.4103 8.86688 10.3433 9.10488 10.1623C9.34388 9.98225 9.49688 9.70725 9.80288 9.15825L10.0809 8.65825ZM4.86888 3.26125C4.89888 3.15625 5.08588 3.15525 5.11688 3.26125C5.25688 3.74325 5.51688 4.45525 5.90988 4.84625C6.30288 5.23625 7.01788 5.49225 7.49988 5.62925C7.60688 5.65925 7.60688 5.84625 7.50188 5.87725C7.01988 6.01725 6.30688 6.27725 5.91588 6.67025C5.52588 7.06325 5.27088 7.77825 5.13388 8.26025C5.10388 8.36725 4.91588 8.36725 4.88488 8.26225C4.74488 7.78025 4.48488 7.06725 4.09188 6.67625C3.69888 6.28625 2.98488 6.03125 2.50188 5.89425C2.39588 5.86425 2.39488 5.67625 2.50088 5.64525C2.98288 5.50525 3.69488 5.24525 4.08588 4.85225C4.47588 4.45925 4.73188 3.74425 4.86888 3.26125Z" fill="white"/>
<path fill-rule="evenodd" clip-rule="evenodd" d="M19.0009 4.01125C19.1998 4.01125 19.3906 4.09027 19.5312 4.23092C19.6719 4.37158 19.7509 4.56234 19.7509 4.76125V5.01125H20.0009C20.1998 5.01125 20.3906 5.09027 20.5312 5.23092C20.6719 5.37158 20.7509 5.56234 20.7509 5.76125C20.7509 5.96017 20.6719 6.15093 20.5312 6.29158C20.3906 6.43224 20.1998 6.51125 20.0009 6.51125H19.7509V6.76125C19.7509 6.96017 19.6719 7.15093 19.5312 7.29158C19.3906 7.43224 19.1998 7.51125 19.0009 7.51125C18.802 7.51125 18.6112 7.43224 18.4705 7.29158C18.3299 7.15093 18.2509 6.96017 18.2509 6.76125V6.51125H18.0009C17.802 6.51125 17.6112 6.43224 17.4705 6.29158C17.3299 6.15093 17.2509 5.96017 17.2509 5.76125C17.2509 5.56234 17.3299 5.37158 17.4705 5.23092C17.6112 5.09027 17.802 5.01125 18.0009 5.01125H18.2509V4.76125C18.2509 4.56234 18.3299 4.37158 18.4705 4.23092C18.6112 4.09027 18.802 4.01125 19.0009 4.01125Z" fill="white"/>
</svg>
