<svg width="257" height="256" viewBox="0 0 257 256" fill="none" xmlns="http://www.w3.org/2000/svg">
<path d="M21.9466 181.961L28.8541 188.707L20.9233 196.471C24.133 201.449 27.7254 206.172 31.6683 210.598L211.775 31.267C207.313 27.4547 202.613 23.9265 197.704 20.7031L189.773 28.4669L182.994 21.7213L189.134 15.6121C164.908 2.65004 137.129 -2.19724 109.917 1.78931C82.7042 5.77586 57.5079 18.3839 38.0655 37.7431C18.6231 57.1024 5.97015 82.1817 1.9836 109.261C-2.00294 136.34 2.88927 163.976 15.9345 188.07L21.9466 181.961ZM165.085 39.5399L171.865 46.2855L154.085 64.1041L147.305 57.3585L165.085 39.5399ZM129.397 75.1771L136.048 81.9226L118.268 99.7412L111.488 92.9956L129.397 75.1771ZM93.5799 110.814L100.36 117.56L82.4512 135.251L75.6716 128.505L93.5799 110.814ZM57.7633 146.324L64.5429 153.197L46.6345 171.015L39.8549 164.27L57.7633 146.324ZM59.2983 234.781L67.2291 227.017L74.0087 233.762L67.8687 239.872C92.0939 252.834 119.873 257.681 147.086 253.694C174.298 249.708 199.494 237.1 218.937 217.74C238.379 198.381 251.032 173.302 255.019 146.223C259.005 119.144 254.113 91.5075 241.068 67.4133L235.056 73.5225L228.148 66.7769L236.079 59.0131C232.869 54.0349 229.277 49.3116 225.334 44.8855L45.2274 224.217C49.6897 228.029 54.3894 231.557 59.2983 234.781ZM210.368 84.5954L217.147 91.341L199.239 109.16L192.46 102.287L210.368 84.5954ZM174.551 120.233L181.331 126.978L163.422 144.669L156.643 137.924L174.551 120.233ZM138.735 155.742L145.514 162.488L127.734 180.307L120.826 173.561L138.735 155.742ZM102.918 191.38L109.697 198.125L91.7891 215.944L85.0095 209.198L102.918 191.38Z" fill="#F3EDCD" fill-opacity="0.23"/>
</svg>
