<svg width="316" height="271" viewBox="0 0 316 271" fill="none" xmlns="http://www.w3.org/2000/svg">
<path opacity="0.2" d="M-52.5825 269.752C-52.4055 270.275 -51.838 270.556 -51.3148 270.379C-50.7916 270.202 -50.511 269.634 -50.688 269.111L-52.5825 269.752ZM124.373 91.035L124.74 90.1048L124.74 90.1048L124.373 91.035ZM83.6284 183.078L83.14 183.951L83.14 183.951L83.6284 183.078ZM91.7095 56.8269L91.1195 56.0195L91.1194 56.0195L91.7095 56.8269ZM315.24 9.18762C315.649 8.81716 315.681 8.18479 315.311 7.77518L309.274 1.10027C308.903 0.690663 308.271 0.65893 307.861 1.02939C307.452 1.39985 307.42 2.03222 307.79 2.44183L313.157 8.37508L307.223 13.7413C306.814 14.1118 306.782 14.7441 307.152 15.1538C307.523 15.5634 308.155 15.5951 308.565 15.2246L315.24 9.18762ZM-50.688 269.111C-65.7177 224.682 -51.51 168.74 -18.7233 129.708C14.0199 90.7273 65.1666 68.7511 124.006 91.9652L124.74 90.1048C64.9512 66.5161 12.9308 88.9144 -20.2547 128.421C-53.3967 167.876 -67.8792 224.534 -52.5825 269.752L-50.688 269.111ZM124.006 91.9652C142.223 99.1526 153.23 110.901 158.441 123.8C163.658 136.715 163.092 150.852 158.03 162.853C152.968 174.853 143.43 184.677 130.736 189.02C118.057 193.358 102.101 192.271 84.1168 182.206L83.14 183.951C101.526 194.242 118.073 195.467 131.383 190.912C144.679 186.364 154.617 176.091 159.873 163.631C165.128 151.171 165.722 136.484 160.295 123.05C154.861 109.6 143.42 97.4751 124.74 90.1048L124.006 91.9652ZM84.1168 182.206C70.4725 174.568 61.4081 165.021 56.1474 154.524C50.8861 144.025 49.3991 132.517 51.0062 120.907C54.2239 97.6626 69.8503 74.0433 92.2996 57.6342L91.1194 56.0195C68.3339 72.6743 52.3327 96.7387 49.0251 120.633C47.3695 132.593 48.8954 144.517 54.3594 155.42C59.8239 166.324 69.1973 176.146 83.14 183.951L84.1168 182.206ZM92.2996 57.6342C121.118 36.571 158.854 23.6212 198.334 16.39C237.803 9.1607 278.947 7.65964 314.519 9.4447L314.619 7.44722C278.926 5.65609 237.625 7.16017 197.974 14.4227C158.333 21.6834 120.272 34.7122 91.1195 56.0195L92.2996 57.6342Z" fill="#30434E"/>
</svg>
